<svg width="1920" height="2089" viewBox="0 0 1920 2089" fill="none" xmlns="http://www.w3.org/2000/svg">
<path d="M1342.73 139.857H576.857C534.074 139.857 499.393 175.146 499.393 218.77V1794.94C499.393 1838.47 534.074 1873.85 576.857 1873.85H1342.73C1385.52 1873.85 1420.29 1838.47 1420.29 1794.94V218.77C1420.29 175.146 1385.52 139.857 1342.73 139.857ZM1371.82 1746.2C1371.82 1787.69 1340.74 1821.23 1302.41 1821.23H617.271C578.847 1821.23 547.766 1787.65 547.766 1746.2V278.499C547.766 193.997 578.847 189.876 617.271 189.876H754.527C762.487 189.876 769.025 198.924 769.025 210.149V214.981C769.025 241.317 783.428 241.364 801.1 241.364H1118.49C1136.35 241.364 1150.66 241.269 1150.66 214.981V210.149C1150.66 198.924 1157.1 189.876 1165.21 189.876H1302.41C1340.74 189.876 1371.82 201.102 1371.82 278.499V1746.2Z" fill="#263238"/>
<path d="M1371.82 278.5V1746.2C1371.82 1787.69 1340.74 1821.23 1302.42 1821.23H617.272C578.848 1821.23 547.767 1787.65 547.767 1746.2V278.5C547.767 193.998 578.848 189.877 617.272 189.877H754.528C762.487 189.877 769.026 198.924 769.026 210.15V214.981C769.026 241.317 783.429 241.364 801.101 241.364H1118.49C1136.35 241.364 1150.66 241.27 1150.66 214.981V210.15C1150.66 198.924 1157.1 189.877 1165.21 189.877H1302.42C1340.74 189.877 1371.82 201.103 1371.82 278.5Z" fill="white"/>
<path d="M730.837 222.845C730.411 223.271 729.937 223.745 729.51 224.171C729.274 224.408 728.989 224.692 728.752 224.929C725.199 221.472 720.935 219.624 715.96 219.624C710.985 219.624 706.769 221.472 703.168 224.929C702.931 224.692 702.694 224.408 702.457 224.171C702.031 223.745 701.604 223.271 701.131 222.845C701.131 222.845 701.178 222.75 701.225 222.75C701.794 222.277 702.315 221.756 702.884 221.282C704.068 220.287 705.395 219.482 706.769 218.819C708.427 218.014 710.133 217.398 711.933 217.114C712.786 216.972 713.639 216.877 714.491 216.782C714.776 216.782 716.671 216.782 716.718 216.782C717.287 216.782 717.903 216.83 718.471 216.924C720.082 217.114 721.646 217.493 723.209 218.061C724.299 218.487 725.389 218.961 726.383 219.529C727.473 220.145 728.468 220.856 729.416 221.661C729.889 222.087 730.363 222.514 730.837 222.94V222.845Z" fill="white"/>
<path d="M707.385 229.049C706.675 228.339 706.011 227.676 705.301 226.965C707.67 224.644 710.512 223.128 713.829 222.702C718.804 222.039 723.02 223.555 726.669 226.965C725.958 227.676 725.247 228.386 724.584 229.049C722.215 226.728 719.372 225.497 716.008 225.497C712.692 225.497 709.802 226.728 707.433 229.049H707.385Z" fill="white"/>
<path d="M722.45 231.182C721.74 231.892 721.076 232.556 720.366 233.266C719.181 232.082 717.713 231.466 715.96 231.466C714.254 231.466 712.785 232.129 711.553 233.313C710.843 232.603 710.179 231.94 709.469 231.229C712.785 227.772 718.755 227.487 722.403 231.229L722.45 231.182Z" fill="white"/>
<path d="M717.855 235.16C717.855 236.202 717.003 237.055 715.96 237.055C714.918 237.055 714.065 236.202 714.065 235.16C714.065 234.118 714.918 233.266 715.96 233.266C717.003 233.266 717.855 234.118 717.855 235.16Z" fill="white"/>
<path d="M601.539 226.823C601.539 223.792 604.003 221.376 606.988 221.376C609.972 221.376 612.436 223.839 612.436 226.823C612.436 229.807 609.972 232.27 606.988 232.27C604.003 232.27 601.539 229.807 601.539 226.823Z" fill="white"/>
<path d="M618.739 226.823C618.739 223.792 621.202 221.376 624.187 221.376C627.172 221.376 629.636 223.839 629.636 226.823C629.636 229.807 627.172 232.27 624.187 232.27C621.202 232.27 618.739 229.807 618.739 226.823Z" fill="white"/>
<path d="M635.938 226.823C635.938 223.792 638.402 221.376 641.387 221.376C644.371 221.376 646.835 223.839 646.835 226.823C646.835 229.807 644.371 232.27 641.387 232.27C638.402 232.27 635.938 229.807 635.938 226.823Z" fill="white"/>
<path d="M653.133 226.823C653.133 223.792 655.597 221.376 658.582 221.376C661.567 221.376 664.03 223.839 664.03 226.823C664.03 229.807 661.567 232.27 658.582 232.27C655.597 232.27 653.133 229.807 653.133 226.823Z" fill="white"/>
<path d="M670.333 226.823C670.333 223.792 672.796 221.376 675.781 221.376C678.766 221.376 681.23 223.839 681.23 226.823C681.23 229.807 678.766 232.27 675.781 232.27C672.796 232.27 670.333 229.807 670.333 226.823Z" fill="white"/>
<path d="M1310 238.76H1265.55V218.155H1310V238.76ZM1267.83 236.486H1307.77V220.429H1267.83V236.486Z" fill="white"/>
<path d="M1297.92 221.661H1269.25V235.255H1297.92V221.661Z" fill="white"/>
<path d="M1313.98 222.938H1310.04V233.975H1313.98V222.938Z" fill="white"/>
<path d="M1003.13 208.538H916.565C913.628 208.538 911.211 206.122 911.211 203.185C911.211 200.249 913.628 197.833 916.565 197.833H1003.13C1006.06 197.833 1008.48 200.249 1008.48 203.185C1008.48 206.122 1006.06 208.538 1003.13 208.538Z" fill="white"/>
<path d="M497.89 1535.74L450.339 1536.76L426.201 1537.16C418.118 1537.34 410.036 1537.3 401.954 1537.34H400.359V1535.71L400.178 1495.19V1493.38H401.99L449.976 1493.59C465.96 1493.59 481.979 1493.99 497.963 1494.17H498.977V1495.15C498.905 1502.03 498.651 1508.87 498.506 1515.61L497.999 1535.67L497.89 1535.74ZM497.89 1535.74L497.383 1515.28C497.201 1508.55 496.984 1501.89 496.911 1495.22L497.89 1496.2C481.907 1496.38 465.887 1496.78 449.904 1496.78L401.917 1497L403.73 1495.19L403.548 1535.71L401.917 1534.08C409.818 1534.15 417.72 1534.08 425.657 1534.26L449.505 1534.66L497.926 1535.67L497.89 1535.74Z" fill="#EBEBEB"/>
<path d="M1187.57 1628.99L1140.01 1630L1115.88 1630.4C1107.79 1630.58 1099.71 1630.55 1091.63 1630.62H1090.04V1628.99L1089.85 1588.47V1586.66H1091.67L1139.65 1586.87C1155.64 1586.87 1171.66 1587.27 1187.64 1587.45H1188.65V1588.43C1188.58 1595.31 1188.33 1602.16 1188.18 1608.89L1187.68 1628.95L1187.57 1628.99ZM1187.57 1628.99L1187.06 1608.53C1186.88 1601.79 1186.66 1595.13 1186.59 1588.47L1187.57 1589.45C1171.58 1589.63 1155.56 1590.02 1139.58 1590.02L1091.59 1590.24L1093.41 1588.43L1093.22 1628.95L1091.59 1627.32C1099.49 1627.4 1107.4 1627.32 1115.33 1627.5L1139.18 1627.9L1187.6 1628.92L1187.57 1628.99Z" fill="#EBEBEB"/>
<path d="M1134.03 1680.08L1086.48 1681.1L1062.35 1681.5C1054.26 1681.68 1046.18 1681.64 1038.1 1681.71H1036.5V1680.08L1036.32 1639.56V1637.75H1038.13L1086.12 1637.97C1102.1 1637.97 1118.12 1638.37 1134.11 1638.55H1135.12V1639.53C1135.05 1646.41 1134.8 1653.25 1134.65 1659.99L1134.14 1680.05L1134.03 1680.08ZM1134.03 1680.08L1133.53 1659.62C1133.35 1652.89 1133.13 1646.23 1133.06 1639.56L1134.03 1640.54C1118.05 1640.72 1102.03 1641.12 1086.05 1641.12L1038.06 1641.34L1039.87 1639.53L1039.69 1680.05L1038.06 1678.42C1045.96 1678.49 1053.86 1678.42 1061.8 1678.6L1085.65 1679L1134.07 1680.01L1134.03 1680.08Z" fill="#EBEBEB"/>
<path d="M1080.68 1628.99L1033.13 1630L1008.99 1630.4C1000.91 1630.58 992.83 1630.55 984.748 1630.62H983.153V1628.99L982.972 1588.47V1586.66H984.784L1032.77 1586.87C1048.75 1586.87 1064.77 1587.27 1080.76 1587.45H1081.77V1588.43C1081.7 1595.31 1081.45 1602.16 1081.3 1608.89L1080.79 1628.95L1080.68 1628.99ZM1080.68 1628.99L1080.18 1608.53C1080 1601.79 1079.78 1595.13 1079.71 1588.47L1080.68 1589.45C1064.7 1589.63 1048.68 1590.02 1032.7 1590.02L984.712 1590.24L986.524 1588.43L986.343 1628.95L984.712 1627.32C992.613 1627.4 1000.51 1627.32 1008.45 1627.5L1032.3 1627.9L1080.72 1628.92L1080.68 1628.99Z" fill="#EBEBEB"/>
<path d="M1914.43 1535.74L1866.88 1536.76L1842.74 1537.16C1834.66 1537.34 1826.57 1537.3 1818.49 1537.34H1816.9V1535.71L1816.72 1495.19V1493.38H1818.53L1866.51 1493.59C1882.5 1493.59 1898.52 1493.99 1914.5 1494.17H1915.52V1495.15C1915.44 1502.03 1915.19 1508.87 1915.04 1515.61L1914.54 1535.67L1914.43 1535.74ZM1914.43 1535.74L1913.92 1515.28C1913.74 1508.55 1913.52 1501.89 1913.45 1495.22L1914.43 1496.2C1898.44 1496.38 1882.43 1496.78 1866.44 1496.78L1818.46 1497L1820.27 1495.19L1820.09 1535.71L1818.46 1534.08C1826.36 1534.15 1834.26 1534.08 1842.19 1534.26L1866.04 1534.66L1914.46 1535.67L1914.43 1535.74Z" fill="#EBEBEB"/>
<path d="M1860.86 512.975L1813.31 513.989L1789.17 514.388C1781.09 514.569 1773.01 514.532 1764.92 514.605H1763.33V512.975L1763.15 472.454V470.644H1764.96L1812.95 470.861C1828.93 470.861 1844.95 471.259 1860.93 471.44H1861.95V472.418C1861.88 479.298 1861.62 486.142 1861.48 492.878L1860.97 512.939L1860.86 512.975ZM1860.86 512.975L1860.35 492.516C1860.17 485.78 1859.95 479.117 1859.88 472.454L1860.86 473.432C1844.88 473.613 1828.86 474.011 1812.87 474.011L1764.89 474.229L1766.7 472.418L1766.52 512.939L1764.89 511.309C1772.79 511.382 1780.69 511.309 1788.63 511.527L1812.48 511.925L1860.9 512.939L1860.86 512.975Z" fill="#EBEBEB"/>
<path d="M1914.43 564.07L1866.88 565.084L1842.74 565.482C1834.66 565.663 1826.57 565.627 1818.49 565.663H1816.9V564.034L1816.72 523.513V521.702H1818.53L1866.51 521.919C1882.5 521.919 1898.52 522.318 1914.5 522.499H1915.52V523.477C1915.44 530.357 1915.19 537.201 1915.04 543.936L1914.54 563.998L1914.43 564.07ZM1914.43 564.07L1913.92 543.61C1913.74 536.875 1913.52 530.212 1913.45 523.549L1914.43 524.527C1898.44 524.708 1882.43 525.106 1866.44 525.106L1818.46 525.323L1820.27 523.513L1820.09 564.034L1818.46 562.404C1826.36 562.477 1834.26 562.404 1842.19 562.622L1866.04 563.02L1914.46 564.034L1914.43 564.07Z" fill="#EBEBEB"/>
<path d="M497.89 512.975L450.339 513.989L426.201 514.388C418.118 514.569 410.036 514.532 401.954 514.605H400.359V512.975L400.178 472.454V470.644H401.99L449.976 470.861C465.96 470.861 481.979 471.259 497.963 471.44H498.977V472.418C498.905 479.298 498.651 486.142 498.506 492.878L497.999 512.939L497.89 512.975ZM497.89 512.975L497.383 492.516C497.201 485.78 496.984 479.117 496.911 472.454L497.89 473.432C481.907 473.613 465.887 474.011 449.904 474.011L401.917 474.229L403.73 472.418L403.548 512.939L401.917 511.309C409.818 511.382 417.72 511.309 425.657 511.527L449.505 511.925L497.926 512.939L497.89 512.975Z" fill="#EBEBEB"/>
<path d="M1824.7 1180.43H1447.66V1701.77H1824.7V1180.43Z" fill="#DBDBDB"/>
<path d="M1842.97 1161.1H1429.39V1180.43H1842.97V1161.1Z" fill="#EBEBEB"/>
<path d="M1973.05 1161.1H1842.97V1180.43H1973.05V1161.1Z" fill="#DBDBDB"/>
<path d="M1952.46 1180.43H1824.7V1701.77H1952.46V1180.43Z" fill="#EBEBEB"/>
<path d="M1784.07 1421.71H1488.25V1254.67H1784.07V1421.71ZM1489.16 1420.81H1783.17V1255.57H1489.16V1420.81Z" fill="#A6A6A6"/>
<path d="M1652.47 1303.48H1594.88V1336.54H1652.47V1303.48Z" fill="#A6A6A6"/>
<path d="M1669.94 1334.51H1611.45V1305.51H1669.94V1334.51ZM1612.35 1333.61H1669.04V1306.41H1612.35V1333.61Z" fill="#A6A6A6"/>
<path d="M1784.07 1631.6H1488.25V1464.55H1784.07V1631.6ZM1489.16 1630.69H1783.17V1465.46H1489.16V1630.69Z" fill="#A6A6A6"/>
<path d="M1652.47 1513.37H1594.88V1546.43H1652.47V1513.37Z" fill="#A6A6A6"/>
<path d="M1669.94 1544.4H1611.45V1515.39H1669.94V1544.4ZM1612.35 1543.49H1669.04V1516.3H1612.35V1543.49Z" fill="#A6A6A6"/>
<path d="M1255.99 2004.82C1598.54 2004.82 1876.23 1974.52 1876.23 1937.14C1876.23 1899.77 1598.54 1869.46 1255.99 1869.46C913.448 1869.46 635.76 1899.77 635.76 1937.14C635.76 1974.52 913.448 2004.82 1255.99 2004.82Z" fill="#EBEBEB"/>
<path d="M396.951 1701.78L587.229 1700.91L777.543 1700.58L1158.17 1699.96L1538.76 1700.58L1729.08 1700.87L1919.39 1701.78L1729.08 1702.64L1538.76 1702.97L1158.17 1703.59L777.543 1702.97L587.229 1702.64L396.951 1701.78Z" fill="#263238"/>
<path d="M1737.35 1602.93C1691.55 1680.98 1619.63 1750.72 1600.56 1757.82C1579.79 1765.54 1502.41 1741.84 1463.91 1727.98C1451.32 1723.44 1477.07 1634.76 1490.65 1630.19C1504.22 1625.62 1564.23 1662.01 1578.67 1658.48C1583.21 1657.38 1663.12 1610.8 1706.96 1581.47C1747.84 1554.13 1751.26 1579.24 1737.35 1602.93Z" fill="#AD6359"/>
<path d="M1469.53 1744.37L1504.25 1627.51C1504.25 1627.51 1564.64 1656.08 1574.66 1653.79C1584.67 1651.5 1677.32 1594.59 1711.06 1575.83C1744.78 1557.06 1770.33 1569 1727.49 1627.75C1681.24 1691.17 1627.62 1751.73 1606.65 1760.28C1579.05 1771.53 1469.53 1744.37 1469.53 1744.37Z" fill="#DE9400"/>
<path d="M1600.56 1703.37C1599.13 1707.2 1597.94 1711.15 1597.65 1715.39C1600.29 1712.01 1602.01 1708.33 1603.53 1704.53C1604.93 1700.7 1606.14 1696.81 1606.41 1692.53C1603.83 1695.92 1602.07 1699.6 1600.56 1703.37ZM1597.08 1642.36C1595.98 1642.98 1594.89 1643.58 1593.85 1644.17C1596.82 1645.12 1599.85 1645.83 1603.05 1646.07C1601.15 1644.59 1599.13 1643.4 1597.08 1642.36ZM1546.76 1739.2C1542.96 1737.75 1539.04 1736.59 1534.76 1736.26C1538.15 1738.9 1541.83 1740.66 1545.63 1742.17C1549.47 1743.57 1553.36 1744.75 1557.63 1745.05C1554.25 1742.44 1550.56 1740.72 1546.76 1739.2ZM1532.15 1670.92C1530.39 1667.24 1528.49 1663.62 1525.7 1660.41C1526.24 1664.62 1527.57 1668.45 1529.21 1672.23C1530.93 1675.94 1532.86 1679.56 1535.65 1682.73C1535.15 1678.52 1533.72 1674.66 1532.15 1670.92ZM1656.55 1644.91C1652.87 1646.6 1649.25 1648.53 1646.01 1651.32C1650.26 1650.79 1654.12 1649.39 1657.86 1647.79C1661.54 1646.1 1665.17 1644.2 1668.41 1641.38C1664.16 1641.91 1660.33 1643.31 1656.55 1644.91ZM1481.11 1705.36L1480.01 1709.07C1483.19 1707.55 1486.28 1705.8 1489.07 1703.37C1486.28 1703.72 1483.67 1704.44 1481.11 1705.36Z" fill="white"/>
<path d="M1497.87 1741.96C1499.68 1738.07 1500.63 1733.65 1501.97 1729.55C1503.15 1725.84 1504.43 1722.16 1505.56 1718.45C1508.09 1710.35 1510.64 1702.24 1513.11 1694.11C1515.57 1686 1518.07 1677.93 1520.47 1669.79C1522.85 1661.72 1525.49 1653.67 1527.42 1645.48C1527.51 1645.15 1527.01 1645.03 1526.89 1645.3C1523.38 1652.99 1520.68 1661.03 1517.89 1668.99C1515.13 1676.83 1512.6 1684.75 1510.13 1692.71C1507.64 1700.82 1505.38 1708.98 1503.18 1717.14C1502.14 1721.09 1501.22 1725.07 1500.27 1729.05C1499.29 1733.24 1497.84 1737.57 1497.45 1741.84C1497.45 1742.08 1497.75 1742.2 1497.87 1741.96Z" fill="#263238"/>
<path opacity="0.1" d="M1523.92 1755.86C1555.67 1761.56 1592.27 1766.13 1606.65 1760.25C1627.62 1751.7 1681.24 1691.2 1727.49 1627.72C1754.7 1590.38 1754.32 1571.97 1741.75 1568.29L1523.89 1755.83L1523.92 1755.86Z" fill="black"/>
<path d="M1527.19 1723.38C1533.28 1712.07 1516.43 1711.35 1516.43 1711.35C1516.43 1711.35 1540.91 1706.52 1542.66 1692.41C1544.33 1678.82 1523.95 1678.7 1522.49 1678.67C1523.77 1678.4 1546.17 1673.38 1546.47 1659.01C1546.79 1644.11 1526.32 1647.5 1524.99 1647.7C1526.12 1647.08 1541.06 1638.41 1538.83 1627.46C1534.97 1608.63 1490.2 1629.77 1475.47 1624.72L1466.23 1597.26C1464.98 1602.73 1464.36 1608.25 1457.02 1617.12C1450.16 1625.41 1445.53 1630.9 1444.07 1637.49C1441.69 1648.3 1450.43 1653.05 1450.43 1653.05C1450.43 1653.05 1437.68 1657.95 1437.09 1669.23C1436.79 1675.02 1445.82 1680.66 1445.82 1680.66C1445.82 1680.66 1435.78 1684.99 1435.87 1695.09C1435.93 1703.13 1444.96 1707.52 1444.96 1707.52C1444.96 1707.52 1437.27 1716.16 1439.97 1724.36C1445.41 1740.89 1514.06 1747.57 1527.13 1723.35L1527.19 1723.38Z" fill="#AD6359"/>
<path d="M1472.41 1618.79L1466.38 1597.89C1465.99 1597.17 1465.58 1596.43 1465.16 1595.75C1450.57 1572.06 1415.2 1567.54 1420.3 1586.84C1424.17 1601.54 1448.73 1609.46 1450.52 1625.08H1450.55L1472.41 1618.79Z" fill="#AD6359"/>
<path d="M1446.33 1708.45C1446.09 1708.42 1446 1708.71 1446.24 1708.8C1468.28 1716.49 1494.87 1718.21 1517.35 1711.5C1518.1 1711.3 1518.07 1709.99 1517.2 1710.08C1492.67 1712.57 1470.72 1712.84 1446.33 1708.48V1708.45Z" fill="#263238"/>
<path d="M1445.5 1680.81C1445.23 1680.75 1445.14 1681.19 1445.41 1681.28C1468.16 1689.09 1498.16 1690.19 1523.18 1679.41C1524.04 1679.05 1524.42 1677.84 1523.41 1678.19C1506.21 1684.13 1467.42 1684.84 1445.47 1680.81H1445.5Z" fill="#263238"/>
<path d="M1526.5 1646.4C1502.11 1655.84 1477.13 1656.49 1451.38 1653.49C1451.05 1653.46 1451.02 1653.94 1451.29 1654.03C1463.47 1658.93 1480.1 1659.13 1493.02 1658.18C1505.41 1657.29 1516.4 1654 1526.8 1647.23C1527.22 1646.96 1526.98 1646.19 1526.47 1646.37L1526.5 1646.4Z" fill="#263238"/>
<path d="M923.983 1996.93C932.598 2000.22 1182.6 2004.76 1192.37 1999.18C1193.44 1998.56 1193.15 1987.51 1196.83 1959.01C1197.01 1957.65 1202.71 1952.36 1211.62 1944.91C1245.07 1916.89 1323.61 1857.87 1323.61 1857.87L1198.85 1749.53L1077.95 1868.32L1046.49 1899.19C1046.49 1899.19 944.331 1954.32 934.231 1961.6C924.191 1968.9 915.368 1993.66 923.983 1996.96V1996.93Z" fill="#AD6359"/>
<path d="M923.983 1996.93C932.598 2000.25 1182.6 2004.79 1192.37 1999.21C1193.44 1998.59 1193.15 1987.57 1196.83 1959.01C1197.01 1957.65 1202.71 1952.39 1211.62 1944.88C1223.24 1935.14 1228.76 1930.69 1246.08 1917.24L1087.45 1858.96L1077.95 1868.32L1046.52 1899.19C1046.52 1899.19 944.361 1954.29 934.261 1961.6C924.221 1968.9 915.368 1993.63 923.983 1996.93Z" fill="#EBEBEB"/>
<path d="M906.754 2000.37C915.428 2003.4 1181.8 2006.31 1191.39 2000.4C1193.65 1999 1195.7 1983.57 1197.36 1962.37C1197.57 1959.73 1224.54 1938.14 1228.26 1934.16L1065.03 1879.21L1044.41 1898.6C1044.41 1898.6 924.28 1954.47 914.447 1962.07C904.674 1969.67 898.05 1997.34 906.724 2000.37H906.754Z" fill="#DE9400"/>
<path d="M910.437 1990.42C952.292 1989.89 1137.92 1991.67 1179.33 1994.31C1179.66 1994.31 1179.66 1994.55 1179.33 1994.58C1137.86 1996.01 952.263 1992.89 910.437 1991.11C909.546 1991.08 909.576 1990.42 910.437 1990.42Z" fill="#263238"/>
<path d="M1031.1 1900.38C1047.59 1897.5 1067.7 1900.26 1080.15 1912.14C1080.62 1912.61 1079.97 1913.26 1079.43 1913.09C1063.24 1907.77 1048.12 1904.33 1031.13 1902.46C1029.94 1902.34 1029.91 1900.59 1031.1 1900.38Z" fill="#263238"/>
<path d="M1019.13 1907.39C1035.62 1904.51 1055.73 1907.27 1068.17 1919.14C1068.65 1919.62 1068 1920.27 1067.46 1920.09C1051.27 1914.78 1036.15 1911.33 1019.16 1909.46C1017.97 1909.35 1017.94 1907.59 1019.13 1907.39Z" fill="#263238"/>
<path d="M1007.16 1914.42C1023.65 1911.54 1043.76 1914.3 1056.2 1926.18C1056.68 1926.65 1056.02 1927.31 1055.49 1927.13C1039.3 1921.81 1024.18 1918.37 1007.19 1916.5C1006 1916.38 1005.97 1914.63 1007.16 1914.42Z" fill="#263238"/>
<path d="M995.187 1921.43C1011.67 1918.55 1031.78 1921.31 1044.23 1933.19C1044.71 1933.66 1044.05 1934.31 1043.52 1934.14C1027.33 1928.82 1012.21 1925.38 995.217 1923.51C994.029 1923.39 993.999 1921.64 995.187 1921.43Z" fill="#263238"/>
<path d="M1008.23 1885.48C1019.75 1894.65 1034.87 1898.54 1048.42 1903.73C1049.82 1904.27 1050.97 1902.96 1051.03 1901.72C1051.3 1901.66 1051.54 1901.48 1051.42 1901.12C1047.08 1887.32 1037.52 1872.62 1026.5 1863.12C1019.69 1857.27 1007.69 1853.12 1001.13 1861.96C994.92 1870.31 1001.49 1880.13 1008.23 1885.48ZM1004.19 1872.21C1001.49 1854.13 1020.79 1863.83 1025.64 1868.35C1028.75 1871.26 1031.58 1874.58 1034.25 1877.88C1039.86 1884.76 1044.41 1892.33 1049.28 1899.76C1042.78 1896.79 1036.09 1894.41 1029.5 1891.71C1021.63 1888.47 1005.67 1882.21 1004.19 1872.24V1872.21Z" fill="#263238"/>
<path d="M1106.67 1876.69C1102.81 1866.39 1090.13 1867.04 1081.96 1870.78C1068.74 1876.84 1055.46 1888.3 1047.47 1900.35C1047.26 1900.65 1047.44 1900.91 1047.68 1901.03C1047.38 1902.25 1048.12 1903.82 1049.61 1903.7C1064.05 1902.49 1079.64 1902.96 1093.28 1897.32C1101.24 1894.03 1110.3 1886.46 1106.64 1876.69H1106.67ZM1071.14 1897.35C1064.05 1898.12 1056.98 1898.54 1049.91 1899.58C1056.65 1893.82 1063.12 1887.82 1070.43 1882.75C1073.94 1880.34 1077.56 1877.91 1081.36 1875.98C1087.28 1872.98 1108.48 1869 1100.88 1885.65C1096.69 1894.83 1079.61 1896.4 1071.14 1897.32V1897.35Z" fill="#263238"/>
<path d="M1076.22 1861.67L1230.46 1941.53C1230.46 1941.53 1391.1 1796.17 1405.84 1795.1C1420.13 1794.07 1636.71 1940.61 1745.52 1941.05C1858.23 1941.53 1863.93 1823.52 1863.93 1823.52L1699.51 1785.78C1580.98 1727.42 1457.56 1622.56 1376.82 1632.35C1289.13 1642.98 1076.22 1861.67 1076.22 1861.67Z" fill="#37474F"/>
<path d="M1076.22 1861.67L1230.46 1941.53C1230.46 1941.53 1391.1 1796.17 1405.84 1795.1C1420.13 1794.07 1636.71 1940.61 1745.52 1941.05C1858.23 1941.53 1863.93 1823.52 1863.93 1823.52L1699.51 1785.78C1580.98 1727.42 1457.56 1622.56 1376.82 1632.35C1289.13 1642.98 1076.22 1861.67 1076.22 1861.67Z" fill="#37474F"/>
<path d="M1113.89 1841.3C1139.91 1854.15 1132.64 1850.12 1158.51 1863.27C1171.19 1869.71 1234.94 1901.86 1245.78 1909.82C1246.02 1910 1245.78 1910.41 1245.52 1910.33C1232.77 1906.05 1169.71 1872.53 1157.17 1865.88C1131.51 1852.28 1139.02 1855.91 1113.53 1842.04C1113.06 1841.77 1113.42 1841.09 1113.89 1841.33V1841.3Z" fill="#263238"/>
<path d="M1257.76 1904.68C1287.91 1878.11 1386.71 1791.63 1390.69 1788.4C1393.93 1785.81 1397.16 1782.43 1400.97 1780.68C1404.21 1779.19 1407.38 1779.99 1410.47 1781.45C1415.05 1783.59 1419.5 1785.9 1424.05 1788.13C1432.96 1792.46 1441.87 1796.83 1450.78 1801.16C1485.33 1818.02 1519.7 1835.3 1554.52 1851.6C1587.99 1867.28 1611.91 1882.03 1646.87 1894.09C1681.66 1906.08 1717.6 1915.19 1754.14 1919.65C1758.65 1920.18 1763.17 1920.66 1767.68 1921.1C1768.01 1921.13 1768.01 1921.64 1767.68 1921.61C1731.77 1919.86 1696.42 1912.52 1662.11 1901.98C1627.47 1891.32 1603.95 1877.52 1571.06 1862.38C1536.96 1846.7 1503.36 1829.93 1469.74 1813.21C1452 1804.4 1434.3 1795.49 1416.47 1786.79C1412.43 1784.8 1406.7 1780.53 1402.1 1782.67C1400.11 1783.59 1398.44 1785.19 1396.78 1786.58C1394.82 1788.22 1392.83 1789.85 1390.87 1791.51C1383.23 1797.87 1262.15 1902.1 1258.17 1905.1C1257.87 1905.34 1257.46 1904.92 1257.76 1904.68Z" fill="#263238"/>
<path d="M1161.33 1905.75L1365.5 1823.9C1313.34 1866.53 1230.43 1941.53 1230.43 1941.53L1161.33 1905.75Z" fill="#263238"/>
<path d="M1863.9 1823.52C1863.9 1823.52 1858.2 1941.53 1745.49 1941.05C1650.91 1940.67 1474.85 1829.87 1421.08 1801.61L1600.38 1729.7C1633.12 1749.68 1666.51 1769.51 1699.51 1785.78L1863.9 1823.52Z" fill="#263238"/>
<path d="M1863.9 1823.52C1863.9 1823.52 1880.33 1943.64 1825.22 1983.09C1770.12 2022.58 1380.11 2000.31 1321.77 1978.55C1263.4 1956.82 1265.77 1861.25 1331.48 1841.98C1393.98 1823.67 1656.35 1825 1662.91 1822.69C1664.54 1822.12 1640.36 1806.12 1640.51 1805.23L1693.27 1775.24L1863.93 1823.49L1863.9 1823.52Z" fill="#37474F"/>
<path d="M1785.89 1830.11C1785.98 1829.66 1786.69 1829.84 1786.66 1830.26C1786.07 1842.28 1789.99 1855.13 1797.48 1864.61C1806.09 1875.47 1819.19 1881.91 1831.04 1888.56C1832.17 1889.22 1831.22 1891 1830.03 1890.58C1822.76 1888.03 1815.63 1884.5 1809.06 1880.43C1803.09 1876.72 1797.63 1872.15 1793.56 1866.36C1786.1 1855.67 1783.19 1842.9 1785.89 1830.11Z" fill="#263238"/>
<path d="M1667.69 1811.67C1670.54 1808.35 1673.63 1805.2 1676.6 1801.96C1683.62 1794.33 1690.69 1786.64 1697.99 1779.31C1698.68 1778.63 1699.92 1779.7 1699.3 1780.47C1694.31 1786.41 1689.08 1792.14 1683.91 1797.93C1681.27 1800.89 1678.59 1803.83 1675.92 1806.77C1673.43 1809.5 1670.37 1812.21 1668.47 1815.41C1666.48 1818.74 1668.76 1821.77 1672.27 1822.3C1675.42 1822.77 1678.42 1821.29 1680.91 1819.54C1686.62 1815.56 1691.22 1809.71 1696.03 1804.75C1698.97 1801.73 1701.91 1798.7 1704.91 1795.7C1708.09 1792.52 1711.48 1789.52 1714.63 1786.35C1714.84 1786.14 1715.19 1786.47 1715.01 1786.67C1712.22 1790.18 1709.61 1793.86 1706.79 1797.36C1703.99 1800.86 1701.14 1804.34 1698.26 1807.78C1695.53 1811.05 1692.71 1814.22 1689.79 1817.34C1687.33 1819.98 1684.57 1822.54 1681.33 1824.26C1676.13 1827.02 1667.31 1827.26 1664.9 1820.61C1663.71 1817.31 1665.52 1814.11 1667.63 1811.67H1667.69Z" fill="#263238"/>
<path d="M1329.85 1979.29C1350.23 1980.57 1370.55 1982.65 1390.9 1983.98C1411.1 1985.32 1431.32 1986.33 1451.55 1987.01C1492.19 1988.41 1532.86 1988.67 1573.53 1987.66C1614.61 1986.65 1658.96 1984.52 1699.89 1980.69C1719.47 1978.85 1739.31 1977.48 1758.74 1974.19C1776.27 1971.22 1792.31 1964.71 1805.88 1952.69C1833.36 1928.32 1845.27 1891.21 1851.07 1855.52C1851.84 1850.74 1852.52 1845.93 1853.12 1841.12C1853.15 1840.8 1853.65 1840.83 1853.62 1841.15C1849.61 1877.85 1842.21 1915.94 1817.74 1944.47C1807.16 1956.82 1793.94 1966.73 1778.73 1972.08C1760.2 1978.58 1739.91 1979.38 1720.54 1981.13C1679.46 1984.87 1634.93 1987.19 1593.7 1988.55C1552.23 1989.92 1510.7 1990.1 1469.2 1988.88C1427.73 1987.66 1386.26 1985.26 1344.94 1981.4C1339.89 1980.92 1334.87 1980.42 1329.85 1979.74C1329.55 1979.71 1329.58 1979.26 1329.88 1979.26L1329.85 1979.29Z" fill="#263238"/>
<path d="M1465.31 1828.45C1478.23 1827.14 1491.12 1825.86 1504.07 1825.09C1517.17 1824.32 1530.27 1823.73 1543.37 1823.19C1569.28 1822.15 1595.24 1821.32 1621.2 1821.26C1635.94 1821.23 1650.64 1821.8 1665.35 1822.63C1665.82 1822.63 1665.76 1823.34 1665.29 1823.34C1639.29 1824.53 1613.33 1825.03 1587.34 1825.6C1561.41 1826.16 1535.47 1827.29 1509.54 1828.62C1494.84 1829.37 1480.13 1829.81 1465.43 1830.35C1464.36 1830.38 1464.21 1828.53 1465.31 1828.45Z" fill="#263238"/>
<path d="M1637.51 1803.8C1647.73 1808.55 1657.24 1814.61 1666.5 1821.02C1675.65 1827.35 1684.98 1833.91 1693.15 1841.45C1693.39 1841.66 1693.03 1841.95 1692.82 1841.83C1682.96 1836.73 1673.52 1830.46 1664.16 1824.47C1654.77 1818.44 1645.44 1812.29 1636.83 1805.17C1636.23 1804.66 1636.65 1803.42 1637.51 1803.83V1803.8Z" fill="#263238"/>
<path d="M1642.21 1812.44L1871.56 1838.93C1871.56 1834.21 1825.96 1603.56 1766.7 1567.72C1755.32 1560.84 1734.92 1561.25 1716.71 1577.88C1683.67 1608.07 1639.21 1809.36 1642.18 1812.44H1642.21Z" fill="#DE9400"/>
<path d="M1787.82 1588.95C1784.26 1590.61 1780.75 1592.51 1777.66 1595.18C1781.88 1594.65 1785.74 1593.28 1789.49 1591.68L1789.66 1591.59C1789.04 1590.67 1788.45 1589.81 1787.82 1588.95ZM1747.01 1747.37C1743.29 1749.09 1739.7 1751.02 1736.49 1753.81C1740.71 1753.3 1744.57 1751.91 1748.31 1750.31C1752 1748.58 1755.62 1746.65 1758.86 1743.86C1754.61 1744.37 1750.78 1745.76 1747.01 1747.37ZM1848.69 1740.66C1847.86 1741.25 1847 1741.9 1846.19 1742.62C1847.17 1742.5 1848.13 1742.32 1849.08 1742.11C1848.96 1741.64 1848.84 1741.13 1848.69 1740.66ZM1652.81 1757.22C1652.81 1757.22 1652.78 1757.22 1652.78 1757.16C1652.39 1758.86 1652.01 1760.49 1651.62 1762.12C1652.93 1764.56 1654.44 1766.9 1656.32 1769.04C1655.81 1764.82 1654.41 1760.96 1652.81 1757.22ZM1791.65 1686.12C1789.93 1682.41 1788 1678.82 1785.24 1675.58C1785.74 1679.83 1787.14 1683.66 1788.74 1687.43C1790.47 1691.11 1792.37 1694.73 1795.16 1697.94C1794.66 1693.72 1793.26 1689.86 1791.65 1686.12ZM1736.02 1566.09C1735.81 1566.15 1735.63 1566.21 1735.45 1566.3C1735.69 1566.59 1735.93 1566.89 1736.19 1567.19C1736.19 1566.83 1736.11 1566.45 1736.02 1566.09ZM1700.04 1702.51C1696.24 1701.05 1692.32 1699.89 1688.04 1699.57C1691.43 1702.21 1695.11 1703.96 1698.91 1705.48C1702.75 1706.87 1706.64 1708.06 1710.91 1708.36C1707.53 1705.74 1703.84 1704.02 1700.04 1702.51ZM1867.08 1815.8C1866.19 1815.41 1865.3 1815.03 1864.4 1814.67C1860.57 1813.27 1856.68 1812.06 1852.43 1811.76C1855.76 1814.4 1859.47 1816.12 1863.28 1817.64C1864.76 1818.2 1866.28 1818.71 1867.79 1819.15C1867.58 1818.08 1867.35 1816.96 1867.08 1815.8ZM1798.37 1784.57C1796.94 1788.4 1795.75 1792.31 1795.46 1796.56C1798.07 1793.21 1799.82 1789.49 1801.34 1785.72C1802.76 1781.89 1803.92 1778 1804.25 1773.73C1801.61 1777.11 1799.88 1780.8 1798.37 1784.57ZM1704.83 1801.64C1703.4 1805.47 1702.21 1809.36 1701.91 1813.63C1704.56 1810.25 1706.28 1806.56 1707.8 1802.76C1709.19 1798.93 1710.41 1795.02 1710.68 1790.77C1708.09 1794.13 1706.34 1797.81 1704.83 1801.64ZM1729.75 1636.72C1728.32 1640.55 1727.13 1644.47 1726.87 1648.74C1729.45 1645.36 1731.2 1641.65 1732.75 1637.88C1734.14 1634.05 1735.33 1630.13 1735.63 1625.88C1732.99 1629.27 1731.29 1632.95 1729.75 1636.72Z" fill="white"/>
<path d="M1791.83 1584.32C1834.46 1617.09 1946.78 1749.53 1923.28 1780.97C1899.63 1812.62 1738.87 1801.93 1691.93 1788.42C1677.97 1784.42 1713.8 1695.59 1728.71 1691.2C1741.13 1687.54 1810.79 1706.43 1812.03 1702.39C1813.46 1697.82 1798.01 1668.45 1773.12 1614.81C1744.42 1552.94 1772.97 1569.86 1791.8 1584.32H1791.83Z" fill="#AD6359"/>
<path d="M1660.09 1675.76C1627.89 1676.59 1619.75 1681.73 1592.21 1668.01C1574.15 1659.01 1560.63 1666.67 1572.9 1683.68C1592.98 1711.53 1634.75 1719.19 1649.99 1717.68L1660.09 1675.76Z" fill="#AD6359"/>
<path d="M1748.67 1692.21C1748.67 1692.21 1710.05 1678.43 1675.68 1675.91C1651.89 1674.16 1599.73 1676.14 1559.18 1734.63C1549.55 1748.49 1545.69 1775.07 1569.63 1758.11C1586.63 1746.06 1593.79 1733.29 1604.95 1728.1C1604.95 1728.1 1604.06 1762.48 1618.32 1771.56C1624.71 1775.63 1642.38 1786.29 1657.33 1792.64C1657.33 1792.64 1659.58 1789.76 1661.93 1785.69C1661.93 1785.69 1676.07 1792.91 1699.42 1786.73L1748.67 1692.15V1692.21Z" fill="#AD6359"/>
<path d="M1652.72 1677.9C1642.74 1685.41 1621.83 1701.68 1609.35 1720.91C1595.51 1742.29 1574.57 1787.21 1590.49 1797.27C1602.13 1804.63 1611.64 1788.19 1611.64 1788.19C1611.64 1788.19 1606.92 1808.58 1618.89 1812.95C1629.82 1816.93 1636.38 1803.74 1636.38 1803.74C1636.38 1803.74 1635.64 1816.6 1646.9 1818.41C1660.44 1820.58 1659.79 1793.26 1675.39 1783.62C1678.89 1781.45 1652.69 1677.9 1652.69 1677.9H1652.72Z" fill="#AD6359"/>
<path d="M1634.39 1731.78C1626.16 1740.39 1612.47 1764.7 1611.37 1787.74C1611.37 1788.28 1611.73 1788.57 1611.85 1788.1C1618.44 1762.98 1629.37 1740.98 1634.6 1731.93C1634.66 1731.81 1634.48 1731.69 1634.39 1731.81V1731.78Z" fill="#263238"/>
<path d="M1655.6 1746.39C1649.25 1754.55 1636.26 1780.23 1635.97 1803.62C1635.97 1804.16 1636.35 1804.43 1636.47 1803.95C1642.26 1777.44 1651.18 1755.89 1655.81 1746.53C1655.87 1746.42 1655.69 1746.3 1655.6 1746.42V1746.39Z" fill="#263238"/>
<path d="M1604.92 1727.92C1595.18 1732.64 1589.33 1738.76 1581.67 1746.21C1577.86 1749.89 1574.03 1753.51 1569.84 1756.75C1566.04 1759.69 1560.46 1764.14 1555.41 1761.32C1552.61 1759.78 1552.05 1756.18 1552.14 1753.27C1552.23 1750.01 1554.4 1743.63 1555.85 1740.69C1555.91 1740.54 1555.67 1740.39 1555.58 1740.57C1554.25 1743.21 1551.69 1749.06 1551.13 1751.97C1550.62 1754.61 1550.39 1757.61 1551.51 1760.13C1553.95 1765.53 1560.75 1765.18 1565.21 1762.83C1567.88 1761.44 1570.32 1759.51 1572.63 1757.61C1574.89 1755.77 1577.03 1753.84 1579.14 1751.82C1583.48 1747.72 1587.55 1743.39 1591.85 1739.23C1596.55 1734.69 1599.93 1732.25 1605.1 1728.28C1605.28 1728.13 1605.1 1727.86 1604.9 1727.95L1604.92 1727.92Z" fill="#263238"/>
<path d="M1589.42 1767.52C1591.11 1761.23 1601.45 1734.54 1605.16 1728.13C1605.25 1727.95 1605.04 1727.8 1604.92 1727.95C1598.18 1736.86 1588.68 1759.09 1586.75 1766.01C1584.84 1772.87 1582.79 1781.57 1583.95 1788.66C1585.74 1799.38 1593.16 1800.21 1595.89 1800.3C1599.13 1800.42 1602.19 1799.23 1604.78 1797.3C1607.63 1795.16 1610.12 1791.31 1611.76 1788.16C1611.85 1787.98 1611.61 1787.83 1611.52 1787.98C1608.52 1792.82 1603.02 1797.99 1597.08 1798.19C1594.5 1798.28 1591.77 1797.54 1589.86 1795.73C1587.64 1793.56 1586.95 1790.36 1586.72 1787.39C1586.18 1780.65 1587.7 1773.94 1589.45 1767.47L1589.42 1767.52Z" fill="#263238"/>
<path d="M1748.67 1692.21L1716.35 1804.66C1716.35 1804.66 1917.55 1816.12 1928.72 1779.61C1939.86 1743.09 1842.66 1623.48 1802.35 1590.61C1755.62 1552.55 1753.1 1568.52 1768.34 1606.61C1784.26 1646.49 1811.68 1703.4 1811.68 1703.4L1748.7 1692.18L1748.67 1692.21Z" fill="#DE9400"/>
<path d="M1798.37 1784.57C1796.94 1788.4 1795.75 1792.31 1795.46 1796.56C1798.07 1793.21 1799.82 1789.49 1801.34 1785.72C1802.76 1781.89 1803.92 1778.01 1804.25 1773.73C1801.61 1777.11 1799.88 1780.8 1798.37 1784.57ZM1846.58 1660.2C1842.75 1658.81 1838.8 1657.62 1834.58 1657.32C1837.94 1659.96 1841.62 1661.69 1845.42 1663.2C1849.25 1664.6 1853.15 1665.81 1857.42 1666.11C1854.07 1663.47 1850.35 1661.75 1846.58 1660.2ZM1922.54 1772.1C1920.84 1768.39 1918.91 1764.76 1916.09 1761.59C1916.63 1765.77 1918.02 1769.63 1919.6 1773.37C1921.32 1777.08 1923.25 1780.71 1926.04 1783.91C1925.54 1779.67 1924.14 1775.87 1922.54 1772.1ZM1856.71 1736.2C1853.95 1737.48 1851.24 1738.88 1848.69 1740.66C1847.86 1741.25 1847 1741.9 1846.19 1742.62C1847.17 1742.5 1848.13 1742.32 1849.08 1742.11C1852.2 1741.46 1855.14 1740.33 1858.02 1739.11C1861.73 1737.39 1865.33 1735.49 1868.56 1732.7C1864.32 1733.18 1860.48 1734.6 1856.71 1736.2ZM1747.01 1747.37C1743.29 1749.09 1739.7 1751.02 1736.49 1753.81C1740.71 1753.3 1744.57 1751.91 1748.31 1750.31C1752 1748.58 1755.62 1746.65 1758.86 1743.86C1754.61 1744.37 1750.78 1745.76 1747.01 1747.37ZM1796.41 1585.92C1793.56 1586.6 1790.85 1587.64 1788.18 1588.77L1787.82 1588.95C1784.26 1590.61 1780.75 1592.51 1777.66 1595.18C1781.88 1594.65 1785.74 1593.28 1789.49 1591.68L1789.66 1591.59C1792.49 1590.29 1795.22 1588.86 1797.8 1587.02C1797.33 1586.63 1796.85 1586.28 1796.41 1585.92Z" fill="white"/>
<path d="M1875.22 1721.45C1865.24 1716.64 1854.75 1712.81 1844.17 1709.51C1833.69 1706.25 1822.91 1704.11 1812.09 1702.42C1805.91 1701.44 1799.7 1700.79 1793.47 1700.07C1793.29 1700.07 1793.26 1700.34 1793.47 1700.37C1804.37 1701.91 1815.18 1704.38 1825.82 1707.17C1836.42 1709.93 1846.94 1712.87 1857.42 1716.02C1863.36 1717.8 1869.22 1719.88 1875.07 1721.83C1875.34 1721.92 1875.48 1721.54 1875.22 1721.42V1721.45Z" fill="#263238"/>
<path d="M1749.15 1691.82C1750.16 1691.91 1806.12 1700.64 1807.99 1701.17C1807.64 1700.4 1793.47 1673.8 1791.36 1669.91C1791.15 1669.52 1790.97 1669.14 1790.76 1668.75C1789.49 1667.06 1788.21 1665.4 1786.99 1663.68C1785.45 1661.45 1783.93 1659.22 1782.39 1657C1782.33 1656.94 1782.45 1656.85 1782.48 1656.91C1784.11 1659.04 1785.74 1661.21 1787.35 1663.38C1788.09 1664.39 1788.8 1665.4 1789.52 1666.44C1788.09 1663.68 1786.72 1660.88 1785.33 1658.12C1783.13 1653.67 1781.08 1649.19 1779.03 1644.64C1778.97 1644.5 1779.18 1644.41 1779.27 1644.56C1783.46 1652.3 1787.85 1659.93 1792.07 1667.68C1796.26 1675.4 1812.18 1703.87 1812.09 1703.87C1812 1703.96 1750.25 1692.92 1749.06 1692.65C1748.58 1692.53 1748.64 1691.85 1749.15 1691.88V1691.82Z" fill="#263238"/>
<path d="M1756.84 1760.43C1760.37 1747.9 1763.82 1735.31 1767.8 1722.9C1770.06 1715.87 1772.32 1708.77 1774.63 1701.76C1774.72 1701.5 1775.2 1701.62 1775.11 1701.88C1772.05 1714.62 1768.99 1727.36 1765.34 1739.94C1761.71 1752.47 1758.21 1765.03 1754.43 1777.5C1752.29 1784.6 1749.95 1791.6 1747.36 1798.55C1747.3 1798.7 1747.07 1798.64 1747.1 1798.49C1749.71 1785.66 1753.22 1773.05 1756.78 1760.43H1756.84Z" fill="#263238"/>
<path d="M1714.12 1806.74C1715.55 1803.21 1717.21 1798.19 1718.79 1794.72C1719.2 1793.8 1719.86 1793.86 1719.56 1794.81C1718.58 1797.96 1717.9 1801.46 1716.92 1804.66C1719.74 1804.75 1722.53 1804.78 1725.35 1804.9C1728.62 1805.05 1731.86 1805.2 1735.12 1805.32C1741.51 1805.56 1747.87 1805.76 1754.26 1805.88C1767.18 1806.12 1780.1 1806.09 1792.99 1805.79C1818.87 1805.17 1844.8 1803.63 1870.49 1800.33C1877.68 1799.41 1884.84 1798.34 1891.97 1797.06C1899.22 1795.76 1907.03 1794.3 1912.91 1792.55C1913.09 1792.49 1913.18 1792.82 1913 1792.88C1907 1795.19 1901.33 1796.95 1895.03 1798.28C1888.61 1799.68 1882.17 1800.89 1875.66 1801.87C1862.74 1803.86 1849.73 1805.17 1836.69 1806.09C1810.84 1807.96 1784.91 1808.7 1758.98 1808.44C1751.73 1808.35 1744.45 1808.2 1737.2 1807.93C1733.55 1807.81 1729.87 1807.69 1726.21 1807.49C1722.56 1807.28 1713.86 1807.28 1714.09 1806.68L1714.12 1806.74Z" fill="#263238"/>
<path d="M1727.37 1613.5C1740.5 1616.56 1762.96 1596.43 1771.81 1580.16C1772.41 1579.03 1770.65 1567.31 1769.2 1552.94C1768.37 1544.21 1767.62 1534.5 1767.59 1525.57C1767.59 1523.72 1711.63 1539.37 1711.63 1539.37C1711.63 1539.37 1717.21 1558.07 1717.15 1573.63C1717.15 1574.94 1717 1576.15 1716.77 1577.28C1716.77 1577.46 1716.71 1577.67 1716.68 1577.88C1715.58 1584.82 1714.63 1610.53 1727.34 1613.5H1727.37Z" fill="#AD6359"/>
<path d="M1764.18 1525.83C1761.62 1540.94 1752.35 1577.43 1722.47 1578.2C1720.39 1578.26 1718.49 1578.17 1716.74 1577.91C1716.74 1577.67 1716.8 1577.46 1716.8 1577.28C1717 1576.12 1717.15 1574.94 1717.18 1573.63C1717.21 1558.04 1711.63 1539.37 1711.63 1539.37C1711.63 1539.37 1752 1528.09 1764.15 1525.83H1764.18Z" fill="#263238"/>
<path d="M1785.15 1467.29C1787.91 1487.74 1768.37 1542.31 1752.44 1552.58C1729.33 1567.46 1696.09 1563.8 1684.6 1537.11C1673.43 1511.26 1700.16 1440.57 1717.51 1431.72C1743.09 1418.69 1781.08 1437.06 1785.15 1467.29Z" fill="#AD6359"/>
<path d="M1724.64 1491.19C1724.64 1491.19 1724.85 1491.48 1724.79 1491.63C1723.27 1495.22 1722.14 1499.62 1724.97 1502.08C1725.05 1502.17 1724.97 1502.35 1724.85 1502.26C1721.04 1500.15 1722.59 1494.33 1724.61 1491.19H1724.64Z" fill="#263238"/>
<path d="M1729.39 1488.63C1735.42 1490.44 1731.35 1502.38 1725.77 1500.72C1720.27 1499.05 1724.34 1487.12 1729.39 1488.63Z" fill="#263238"/>
<path d="M1703.01 1484.51C1703.01 1484.36 1702.66 1484.6 1702.63 1484.74C1701.5 1488.49 1699.54 1492.58 1695.79 1492.67C1695.68 1492.67 1695.62 1492.85 1695.76 1492.88C1700.04 1493.71 1702.57 1488.25 1703.04 1484.51H1703.01Z" fill="#263238"/>
<path d="M1701.02 1479.52C1695.23 1477.06 1690.69 1488.81 1696.06 1491.1C1701.35 1493.35 1705.89 1481.6 1701.02 1479.52Z" fill="#263238"/>
<path d="M1735.57 1484.57C1734 1483.76 1732.66 1482.78 1731.17 1481.83C1729.51 1480.77 1728.05 1480.08 1727.22 1478.18C1726.78 1477.17 1727.4 1475.66 1728.35 1475.12C1730.55 1473.91 1732.93 1474.71 1735.01 1475.9C1737.26 1477.2 1738.66 1478.78 1739.55 1481.21C1740.44 1483.56 1737.65 1485.6 1735.57 1484.57Z" fill="#263238"/>
<path d="M1698.5 1471.41C1700.25 1471.71 1701.91 1471.68 1703.67 1471.8C1705.66 1471.92 1707.23 1472.25 1709.01 1471.18C1709.96 1470.61 1710.38 1469.04 1709.9 1468.06C1708.84 1465.77 1706.46 1465 1704.08 1464.76C1701.5 1464.5 1699.45 1464.94 1697.25 1466.37C1695.14 1467.73 1696.18 1471.03 1698.5 1471.41Z" fill="#263238"/>
<path d="M1716.38 1526.69C1715.19 1527.26 1713.92 1528.15 1712.52 1527.79C1711.18 1527.47 1709.88 1526.37 1708.87 1525.51C1708.78 1525.42 1708.6 1525.51 1708.63 1525.65C1709.1 1527.41 1710.83 1528.98 1712.64 1529.28C1714.42 1529.54 1715.73 1528.39 1716.65 1526.99C1716.77 1526.78 1716.53 1526.63 1716.35 1526.69H1716.38Z" fill="#263238"/>
<path d="M1716.26 1514.28C1713.08 1516.78 1709.46 1517.52 1705.95 1517.02C1704.38 1516.81 1702.81 1516.33 1701.35 1515.68C1701.05 1515.56 1700.76 1515.44 1700.52 1515.29C1700.25 1515.18 1700.01 1515.06 1699.75 1514.88C1699.33 1514.67 1699.21 1514.22 1699.3 1513.81C1699.36 1513.66 1699.39 1513.54 1699.48 1513.42L1699.6 1513.07C1700.49 1510.19 1702.24 1505.97 1702.24 1505.97C1701.02 1506.15 1694.9 1506.71 1695.5 1505.26C1700.43 1493.21 1705.92 1479.79 1713.38 1468.8C1713.62 1468.42 1714.21 1468.74 1714.03 1469.13C1709.76 1480.91 1703.43 1491.87 1698.94 1503.63C1700.84 1503.57 1704.02 1503.3 1705.51 1503.83C1705.86 1504.1 1701.97 1511.97 1701.68 1513.27C1701.68 1513.27 1701.68 1513.33 1701.68 1513.42C1706.25 1515.65 1710.35 1515.44 1716.08 1513.81C1716.44 1513.69 1716.65 1514.05 1716.32 1514.25L1716.26 1514.28Z" fill="#263238"/>
<path d="M1703.52 1514.82C1703.52 1514.82 1704.88 1519.09 1707.91 1521.5C1709.04 1522.39 1710.35 1523.04 1711.92 1523.13C1715.13 1523.37 1716.14 1520.67 1716.38 1518.17C1716.59 1516.12 1716.26 1514.17 1716.26 1514.17C1716.26 1514.17 1710.56 1516.75 1703.52 1514.82Z" fill="#263238"/>
<path d="M1707.91 1521.5C1709.04 1522.39 1710.35 1523.04 1711.92 1523.13C1715.13 1523.37 1716.14 1520.67 1716.38 1518.17C1713.11 1517.43 1709.22 1518.5 1707.91 1521.5Z" fill="#FF9ABB"/>
<path d="M1770.8 1508.29C1761.89 1506.65 1764.44 1486.05 1764.44 1486.05C1764.44 1486.05 1741.1 1487.89 1746.59 1458.17C1746.59 1458.17 1718.88 1461.62 1704.5 1449.71C1692.2 1439.53 1689.53 1414.71 1702.39 1402.83C1709.64 1396.15 1727.02 1392.15 1746.38 1419.96C1746.38 1419.96 1781.7 1404.73 1785.86 1444.52C1785.86 1444.52 1801.55 1449.65 1800.36 1465.68C1798.49 1490.95 1778.44 1509.71 1770.74 1508.29H1770.8Z" fill="#263238"/>
<path d="M1747.04 1456.13C1747.19 1455.86 1747.6 1456.04 1747.48 1456.33C1744.66 1463.28 1741.69 1470.85 1746.23 1477.83C1750.66 1484.6 1758.44 1487.92 1766.29 1485.58C1766.73 1485.43 1767 1486.14 1766.52 1486.26C1759.1 1488.43 1751.05 1485.96 1746.12 1479.88C1740.23 1472.6 1742.52 1463.46 1747.01 1456.13H1747.04Z" fill="#263238"/>
<path d="M1771.04 1503.6C1784.53 1499.74 1795.87 1491.25 1799.73 1477.17C1801.58 1470.46 1801.78 1463.16 1798.61 1456.93C1795.69 1451.2 1790.2 1448.23 1785.57 1444.16C1785.45 1444.04 1785.57 1443.83 1785.74 1443.89C1816.52 1458.56 1801.25 1500.69 1771.4 1505.23C1770.45 1505.38 1770.12 1503.86 1771.04 1503.6Z" fill="#263238"/>
<path d="M1698.29 1402.33C1715.67 1385.82 1739.85 1404.11 1747.07 1421.69C1747.07 1421.75 1746.98 1421.81 1746.95 1421.75C1739.94 1408.21 1722.77 1392.89 1706.64 1399.27C1687.15 1406.99 1688.07 1439.68 1707.38 1446.65C1707.97 1446.86 1707.65 1447.87 1707.02 1447.69C1688.93 1442.62 1685.34 1414.62 1698.26 1402.36L1698.29 1402.33Z" fill="#263238"/>
<path d="M1765.04 1511.02C1765.04 1511.02 1781.08 1495.22 1788.51 1501.28C1795.9 1507.34 1781.5 1531.83 1771.16 1533.64C1760.82 1535.45 1758.95 1525.92 1758.95 1525.92L1765.04 1511.02Z" fill="#AD6359"/>
<path d="M1784.2 1508.2C1784.35 1508.2 1784.35 1508.44 1784.2 1508.46C1776.89 1509.95 1772.17 1515.56 1768.45 1521.62C1770.95 1519.48 1773.95 1518.62 1776.86 1521.62C1777.01 1521.77 1776.8 1522.03 1776.62 1521.94C1773.95 1520.85 1771.87 1520.93 1769.58 1522.83C1767.95 1524.17 1766.7 1525.98 1765.4 1527.61C1764.98 1528.15 1763.94 1527.61 1764.3 1526.99C1764.3 1526.93 1764.36 1526.9 1764.39 1526.84C1765.81 1518.17 1774.78 1507.34 1784.23 1508.17L1784.2 1508.2Z" fill="#263238"/>
<path d="M1688.78 1834.89H1451.2V1845.52H1688.78V1834.89Z" fill="#C7C7C7"/>
<path d="M1451.2 1834.89V1845.52H1612.68L1604.54 1834.89H1451.2Z" fill="#A6A6A6"/>
<path d="M1594.29 1845.52H1362.73L1343.46 1688.35H1575.01L1594.29 1845.52Z" fill="#A6A6A6"/>
<path d="M1583.63 1845.52H1352.07L1332.79 1688.35H1564.35L1583.63 1845.52Z" fill="#C7C7C7"/>
<path d="M1472.32 1765.3C1473.42 1772.99 1468.55 1779.97 1461.42 1780.89C1454.29 1781.78 1447.63 1776.28 1446.53 1768.56C1445.44 1760.88 1450.31 1753.9 1457.44 1752.98C1464.57 1752.09 1471.22 1757.58 1472.32 1765.3Z" fill="white"/>
<path d="M474.454 1577.36C470.395 1581.38 465.394 1583.59 459.993 1584.93C456.55 1585.8 453.035 1586.27 449.555 1586.92H437.631C432.738 1586.16 427.845 1585.58 422.989 1584.6C404.867 1581.02 388.521 1573.2 373.299 1563.02C333.576 1536.51 300.957 1503.13 276.058 1462.39C267.867 1448.99 262.032 1434.54 259.277 1419.01C258.552 1414.95 258.009 1410.89 257.393 1406.8V1394.89C258.371 1390.33 259.169 1385.69 260.401 1381.2C261.561 1377.04 263.699 1373.31 266.925 1370.05C267.504 1370.55 268.048 1370.99 268.556 1371.5C287.511 1390.43 306.466 1409.37 325.458 1428.24C326.799 1429.58 327.052 1430.7 326.581 1432.55C323.899 1442.65 325.711 1451.85 332.706 1459.82C348.907 1478.21 366.159 1495.52 384.571 1511.71C392.617 1518.77 401.895 1520.47 412.116 1517.79C413.457 1517.43 414.472 1517.21 415.631 1518.41C435.022 1537.85 454.448 1557.23 473.875 1576.67C474.056 1576.85 474.165 1577.07 474.454 1577.4V1577.36Z" fill="#C7BFBF"/>
<path d="M511.64 1534.81V1538.79C509.792 1541.18 508.161 1543.76 506.059 1545.89C500.187 1551.94 494.171 1557.84 488.191 1563.82C487.538 1564.47 486.886 1565.05 486.378 1565.55C466.807 1546 447.308 1526.55 427.882 1507.15C435.529 1499.61 443.176 1491.86 451.077 1484.37C454.702 1480.93 459.812 1481.36 463.581 1485.02C467.967 1489.29 472.244 1493.64 476.593 1497.98C486.777 1508.16 496.998 1518.26 507.073 1528.55C508.886 1530.39 510.118 1532.75 511.64 1534.88V1534.81Z" fill="#C7BFBF"/>
<path d="M358.367 1395.18C351.118 1402.17 343.724 1409.01 336.548 1415.78C317.81 1397.06 298.348 1377.65 278.486 1357.81C279.791 1356.65 281.241 1355.45 282.582 1354.11C287.91 1348.83 293.165 1343.4 298.565 1338.22C300.667 1336.19 303.168 1334.63 305.524 1332.86H309.511C311.613 1334.38 314.005 1335.61 315.817 1337.42C330.024 1351.47 344.159 1365.67 358.294 1379.79C363.658 1385.15 363.731 1389.93 358.294 1395.14L358.367 1395.18Z" fill="#C7BFBF"/>
<path d="M179.691 1618.15C183.156 1641.91 181.857 1666.41 176.053 1689.65C173.324 1700.51 169.599 1711.02 165.094 1721.24C159.42 1734.31 153.442 1747.07 154.872 1761.4C156.258 1762.31 151.493 1762.18 151.363 1760.79C113.073 1739.02 63.9978 1735.04 34.5439 1699.43C20.5966 1682.59 13.5364 1661.21 10.2011 1639.83C6.56271 1616.55 5.56648 1590.8 11.5872 1567.86C16.655 1548.48 28.0034 1529.74 46.2389 1520.26C65.0807 1510.48 89.7267 1511.3 109.565 1517.45C152.316 1530.73 173.627 1576.82 179.648 1618.2L179.691 1618.15Z" fill="#FFC727"/>
<path d="M199.356 1901.23C194.115 1883.83 188.917 1866.43 183.546 1849.08C173.064 1815.11 162.106 1781.22 150.021 1747.77C142.787 1727.73 135.164 1707.87 127.107 1688.22C128.493 1675.88 129.013 1663.55 131.655 1651.26C134.861 1636.42 139.495 1622.13 143.827 1607.59C144.087 1606.68 142.657 1606.25 142.268 1607.07C133.691 1627.07 122.473 1652.64 122.17 1676.32C112.814 1654.07 102.851 1632.13 92.0659 1610.54C91.4595 1592.1 90.7665 1574.27 93.7552 1555.75C93.8852 1554.92 92.629 1554.67 92.4558 1555.49C89.597 1571.07 87.5612 1587.73 88.7307 1603.87C80.5009 1587.64 71.838 1571.63 62.612 1555.83C61.789 1554.41 59.7966 1555.83 60.5329 1557.26C74.9134 1584.92 88.2543 1613.18 100.772 1641.82C83.4463 1626.46 62.4388 1614.82 40.7815 1607.12C39.8286 1606.77 39.0922 1608.16 40.0884 1608.54C64.7344 1618.84 85.4821 1633.43 104.974 1651.48C113.983 1672.42 122.559 1693.58 130.703 1714.88C106.75 1691.42 73.9604 1675.97 42.2975 1667.7C41.2146 1667.4 40.9114 1669.09 41.951 1669.39C78.6384 1680.43 107.139 1701.2 135.034 1726.17C138.283 1734.78 141.445 1743.4 144.563 1752.05C156.388 1784.81 167.607 1817.83 178.349 1850.94C183.503 1866.82 188.571 1882.75 193.552 1898.67C198.923 1915.81 203.081 1933.94 210.055 1950.48C210.705 1952.08 213.563 1951.69 213.217 1949.78C210.098 1933.34 204.077 1917.24 199.27 1901.23H199.356Z" fill="#263238"/>
<path d="M135.857 1584.66C129.013 1595.17 124.422 1606.68 122.083 1618.97C122.04 1619.28 122.516 1619.49 122.646 1619.15C126.891 1607.59 131.915 1596.43 137.589 1585.48C138.153 1584.35 136.507 1583.66 135.9 1584.66H135.857Z" fill="#263238"/>
<path d="M67.5926 1664.33C57.6735 1658.7 44.5492 1654.24 33.2441 1652.77C32.9409 1652.77 32.7243 1653.21 33.0709 1653.34C38.5718 1655.63 44.376 1657.23 49.9636 1659.35C55.5944 1661.52 61.0521 1664.11 66.7263 1666.1C67.8958 1666.54 68.7188 1664.98 67.5926 1664.33Z" fill="#263238"/>
<path d="M48.3619 1568.47C44.8967 1566.18 41.1717 1563.23 37.3167 1561.63C36.7103 1561.37 36.1905 1562.15 36.6669 1562.58C39.7423 1565.4 43.9871 1567.52 47.5389 1569.64C48.2319 1570.07 49.0116 1568.9 48.3186 1568.43L48.3619 1568.47Z" fill="#263238"/>
<path d="M308.725 1748.03C281.177 1756.21 253.456 1763.78 225.908 1771.83C223.526 1772.56 176.919 1683.33 193.768 1637.37C209.318 1594.83 244.966 1562.97 287.458 1548.52C307.123 1541.86 331.336 1536.23 352.127 1540.82C370.622 1544.88 383.66 1560.03 389.68 1577.39C397.867 1601.01 395.138 1629.14 390.677 1653.25C386.518 1675.58 378.332 1697.61 363.562 1715.18C348.921 1732.58 330.253 1741.62 308.725 1747.98V1748.03Z" fill="#FFC727"/>
<path d="M348.706 1663.25C331.163 1672.08 313.361 1678.48 294.649 1684.5C282.911 1688.26 269.786 1691.64 258.568 1697.57C270.22 1671.64 282.997 1646.24 296.555 1621.1C314.357 1615.95 333.112 1607.9 346.54 1595.3C347.276 1594.61 346.323 1593.57 345.544 1594.13C330.86 1604.52 314.66 1610.75 298.417 1617.76C302.099 1611.01 305.781 1604.22 309.549 1597.47C310.589 1595.61 308.033 1593.75 306.734 1595.56C292.267 1616.38 279.272 1638.49 267.577 1661.3C264.675 1641.18 263.636 1621.57 264.762 1601.1C264.762 1600.58 264.026 1600.54 263.982 1601.06C260.56 1622.7 260.734 1645.63 264.675 1667.23C255.016 1686.53 246.18 1706.26 238.297 1726.26C235.135 1714.23 231.063 1702.41 228.334 1690.3C224.393 1672.86 222.573 1655.11 224.393 1637.28C224.436 1636.76 223.656 1636.72 223.613 1637.24C218.285 1668.83 223.137 1704.53 235.178 1734.57C230.587 1746.6 226.169 1758.67 222.14 1770.79C201.566 1832.76 188.875 1896.64 185.54 1961.9C185.453 1963.42 187.705 1963.55 187.879 1962.07C195.372 1898.07 208.583 1834.41 228.941 1773.21C236.954 1749.2 246.137 1725.87 256.229 1703.02C272.515 1698.22 288.715 1691.68 304.741 1686.14C320.334 1680.73 336.318 1674.5 349.442 1664.24C349.962 1663.85 349.399 1663.03 348.835 1663.29L348.706 1663.25Z" fill="#263238"/>
<path d="M374.39 1637.33C357.541 1643.3 341.558 1651.69 324.709 1657.8C323.929 1658.1 324.362 1659.31 325.185 1659.18C342.987 1655.5 360.703 1650.01 375.04 1638.32C375.603 1637.89 374.997 1637.15 374.39 1637.37V1637.33Z" fill="#263238"/>
<path d="M236.738 1600.97C236.954 1600.06 235.655 1599.59 235.352 1600.5C230.717 1616.03 227.555 1632.48 232.017 1648.36C232.19 1648.97 233.186 1649.01 233.229 1648.27C234.052 1632.3 233.143 1616.73 236.738 1600.97Z" fill="#263238"/>
<path d="M306.387 1565.1C300.756 1572.32 298.721 1582.54 299.067 1591.49C299.067 1592.1 300.02 1592.45 300.193 1591.71C302.229 1582.84 305.694 1574.75 308.423 1566.09C308.813 1564.84 307.21 1564.01 306.387 1565.05V1565.1Z" fill="#263238"/>
<path d="M-19.1661 1787.36C-11.0663 1812.98 8.1221 1848.43 38.5289 1848.69C58.2371 1848.86 78.1185 1846.52 97.8699 1846.26C119.051 1845.92 140.232 1846 161.369 1847.26C163.102 1847.35 158.814 1783.95 107.962 1753.09C93.7117 1744.43 76.2993 1741.71 60.1429 1738.2C41.6476 1734.18 22.5892 1731.49 3.61739 1732.32C-8.07755 1732.79 -17.78 1735.26 -21.9382 1747.2C-26.2697 1759.71 -23.0211 1775.2 -19.1228 1787.41L-19.1661 1787.36Z" fill="#FFC727"/>
<path d="M2.70732 1755.3C15.052 1758.46 27.5266 1762.13 39.9579 1766.07C36.6226 1762.65 33.4174 1759.15 29.6923 1756.08C24.3646 1751.66 18.5171 1748.11 12.7996 1744.26C12.3232 1743.96 12.6264 1743.01 13.2328 1743.27C24.4946 1747.68 36.2328 1756.94 43.2064 1767.11C58.6698 1772.09 73.9598 1777.63 88.7301 1783.64C99.1689 1787.93 108.828 1793.03 117.881 1798.96C114.632 1792.69 111.687 1786.24 107.355 1780.61C100.598 1771.87 91.4589 1766.98 82.6227 1760.79C81.7997 1760.19 82.4928 1759.02 83.4024 1759.45C103.37 1768.32 115.498 1782.69 123.079 1802.43C133.517 1809.87 143.047 1818.52 151.926 1828.61C185.581 1866.78 212.09 1917.63 212.177 1969.47C212.177 1970.73 210.184 1971.08 209.968 1969.78C200.438 1918.28 180.081 1872.01 145.775 1832.07C143.35 1829.26 140.881 1826.57 138.369 1824.02C129.099 1823.07 119.96 1821.81 110.561 1821.94C99.732 1822.12 88.99 1823.54 78.2046 1824.41C60.4457 1825.84 40.8241 1826.05 24.7978 1817.14C24.1047 1816.75 24.5812 1815.54 25.3608 1815.8C61.0521 1828.78 98.5192 1812.34 134.297 1820.04C119.007 1805.41 101.681 1794.38 81.4965 1786.02C80.4137 1785.59 79.2875 1785.16 78.2046 1784.73C55.2912 1787.5 31.0784 1793.42 8.77136 1785.98C8.12164 1785.76 8.38153 1784.77 9.07456 1784.94C30.6452 1790.31 51.3063 1783.56 72.5737 1782.47C49.4004 1773.47 25.794 1766.29 2.53406 1757.33C0.584905 1756.6 0.541591 1754.78 2.66401 1755.34L2.70732 1755.3Z" fill="#263238"/>
<path d="M-7.38454 1777.84C3.79062 1779.66 14.7059 1779.75 25.9677 1780.35C26.2276 1780.35 26.3142 1780.74 26.011 1780.83C15.0524 1783.3 3.05427 1781.78 -7.64443 1778.67C-8.20752 1778.49 -7.94763 1777.71 -7.42786 1777.84H-7.38454Z" fill="#263238"/>
<path d="M67.9406 1755.86C74.0047 1757.98 79.6789 1763.13 84.4435 1767.33C85.0066 1767.85 84.2269 1768.89 83.6205 1768.41C80.8051 1766.38 77.9463 1764.47 75.0442 1762.57C72.402 1760.84 69.4133 1759.49 66.9877 1757.5C66.2514 1756.9 67.031 1755.56 67.9406 1755.86Z" fill="#263238"/>
<path d="M247.52 1838.39C247.131 1839.21 248.343 1840.03 248.82 1839.12C248.82 1839.12 248.834 1839.11 248.863 1839.08C249.036 1839.3 249.296 1839.56 249.643 1839.6C270.217 1844.01 290.835 1848.56 311.756 1850.42C328.562 1851.93 347.967 1852.84 362.694 1843.1C382.662 1829.91 395.786 1794.55 384.958 1772.13C372.223 1745.47 333.76 1759.93 314.485 1769.4C284.814 1783.86 260.991 1808.31 247.477 1838.39H247.52Z" fill="#FFC727"/>
<path d="M232.621 1850.68C243.926 1839.6 256.444 1830.42 269.741 1822.46C278.837 1807.06 292.785 1794.2 307.382 1784.16C308.118 1783.64 308.724 1784.81 308.075 1785.33C295.514 1794.98 285.724 1806.32 276.368 1818.65C291.225 1810.39 306.905 1803.55 322.932 1797.49C328.519 1787.28 337.572 1777.71 347.924 1772.48C348.141 1772.39 348.401 1772.65 348.184 1772.82C339.175 1779.88 331.898 1787.23 325.617 1796.5C335.06 1792.99 344.632 1789.7 354.161 1786.54C355.028 1786.24 355.331 1787.58 354.551 1787.88C337.572 1794.51 320.203 1801.52 303.353 1809.57C324.621 1812.42 343.766 1813.07 365.38 1809.39C365.943 1809.31 366.203 1810.13 365.64 1810.26C344.762 1816.19 320.853 1817.31 299.845 1811.25C289.103 1816.53 278.621 1822.29 268.615 1828.74C276.975 1827.66 285.378 1829.13 293.824 1830.81C308.595 1833.76 323.018 1836.35 338.135 1835.83C338.698 1835.83 338.828 1836.74 338.265 1836.83C312.536 1841.24 288.237 1829.56 262.768 1832.63C253.325 1839.12 244.402 1846.26 236.216 1854.27C220.189 1869.98 207.368 1888.76 197.493 1908.84C186.751 1930.65 180.946 1953.81 172.284 1976.31C171.894 1977.31 170.508 1976.92 170.681 1975.88C178.131 1931.43 200.265 1882.4 232.664 1850.72L232.621 1850.68Z" fill="#263238"/>
<path d="M310.154 1789.74C311.67 1786.67 314.269 1784.08 316.738 1781.78C318.904 1779.75 321.502 1777.15 324.318 1776.11C324.578 1776.03 324.708 1776.37 324.578 1776.55C322.455 1778.93 319.553 1780.7 317.258 1782.99C314.962 1785.29 313.056 1788.01 310.76 1790.26C310.457 1790.57 309.981 1790.18 310.154 1789.79V1789.74Z" fill="#263238"/>
<path d="M352.559 1803.55C356.371 1802.6 360.399 1802.68 364.298 1801.86C368.239 1801.08 371.878 1799.65 375.646 1798.44C376.166 1798.27 376.426 1799.01 375.992 1799.27C369.755 1802.99 359.836 1806.15 352.559 1804.72C351.953 1804.59 351.996 1803.68 352.559 1803.51V1803.55Z" fill="#263238"/>
<path d="M126.674 1921.05L130.01 1959.35L141.488 2088.66H242.844L257.138 1959.35L261.383 1921.05H126.674Z" fill="#455A64"/>
<path d="M126.674 1921.05L130.01 1959.35H257.138L261.383 1921.05H126.674Z" fill="#263238"/>
<path d="M116.58 1941.69H271.387V1910.62H116.58V1941.69Z" fill="#455A64"/>
<path d="M1752.96 9.85742H1371.72V223.001H1752.96V9.85742Z" fill="#DBDBDB"/>
<path d="M1300.39 223.001H1371.72V148.767L1300.39 223.001Z" fill="#DBDBDB"/>
<path d="M1671.82 121.137H1416.73V125.736H1671.82V121.137Z" fill="white"/>
<path d="M1619.37 145.942H1416.73V150.541H1619.37V145.942Z" fill="white"/>
<path d="M1634.67 71.5625H1416.73V76.1614H1634.67V71.5625Z" fill="white"/>
<path d="M1701.25 46.7578H1416.73V51.3567H1701.25V46.7578Z" fill="white"/>
<path d="M1640.39 170.747H1416.73V175.346H1640.39V170.747Z" fill="white"/>
<path d="M132.493 43.8574H128.869V361.218H132.493V43.8574Z" fill="#C7C7C7"/>
<path d="M241.006 467.464L232.127 486.946H29.236L20.3926 467.464L106.761 407.715H154.638L241.006 467.464Z" fill="#EBEBEB"/>
<path d="M160.618 350.174L154.638 407.715H106.761L100.781 350.174H160.618Z" fill="#DBDBDB"/>
<path d="M240.97 467.464L232.127 486.946H29.236L20.3926 467.464H240.97Z" fill="#DBDBDB"/>
<path d="M369.345 0.857422H365.721V255.354H369.345V0.857422Z" fill="#C7C7C7"/>
<path d="M477.821 362.6L468.941 382.082H266.087L257.243 362.6L343.611 302.851H391.453L477.821 362.6Z" fill="#EBEBEB"/>
<path d="M397.433 245.31L391.453 302.85H343.611L337.595 245.31H397.433Z" fill="#DBDBDB"/>
<path d="M477.821 362.6L468.941 382.082H266.05L257.207 362.6H477.821Z" fill="#DBDBDB"/>
</svg>
