<svg width="200" height="154" viewBox="0 0 200 154" fill="none" xmlns="http://www.w3.org/2000/svg">
<path d="M199.5 1.3584V77.542C199.5 89.7999 197.383 100.053 193.074 108.348L192.65 109.145C188.243 117.254 182.564 124.051 175.59 129.53L174.911 130.057C167.67 135.585 159.598 140.049 150.7 143.396C141.838 146.729 133.077 149.726 124.418 152.337L124.03 152.454L123.835 152.1L110.852 128.506L110.573 128.001L111.112 127.798C117.652 125.326 123.232 122.805 127.853 120.264C132.467 117.726 136.245 114.966 139.145 111.989C142.039 109.019 144.167 105.647 145.51 101.847C146.811 98.1625 147.499 93.8435 147.542 88.8584H110.402V1.3584H199.5ZM90.3916 1.3584V77.542C90.3916 89.7998 88.2747 100.053 83.9658 108.348L83.542 109.145C78.9933 117.514 73.1147 124.486 65.9072 130.055L65.9062 130.056C58.941 135.412 51.1973 139.768 42.6299 143.078L41.7979 143.396C32.9354 146.729 24.1745 149.726 15.5156 152.337L15.1299 152.453L14.9346 152.102L1.76953 128.509L1.4873 128.003L2.0293 127.798C8.56946 125.326 14.1488 122.805 18.7695 120.264L19.625 119.785C23.8529 117.38 27.3429 114.78 30.0615 111.989L30.5947 111.428C33.2185 108.596 35.1679 105.41 36.4268 101.847L36.6719 101.125C37.8154 97.6019 38.4187 93.5215 38.459 88.8584H1.5V1.3584H90.3916Z" stroke="#01193D" stroke-opacity="0.5"/>
</svg>
