<svg width="159" height="111" viewBox="0 0 159 111" fill="none" xmlns="http://www.w3.org/2000/svg">
<path d="M88.2579 1.8584H158V55.8463C158 64.8321 156.222 72.2711 152.624 78.2186C149.047 84.1477 144.407 89.0824 138.684 93.0229C132.981 96.9449 126.624 100.112 119.613 102.487C112.602 104.863 105.673 106.999 98.8255 108.858L88.544 92.0286C93.7358 90.2609 98.1714 88.4564 101.851 86.6335C105.53 84.8106 108.555 82.8219 110.885 80.6675C113.215 78.5132 114.932 76.0642 116.016 73.3022C117.099 70.5402 117.651 67.2994 117.651 63.5615H88.2374V1.8584H88.2579ZM2.02043 1.8584H71.5991V55.8463C71.5991 64.8321 69.8207 72.2711 66.2233 78.2186C62.6462 84.1477 58.0267 89.0824 52.3648 93.0229C46.7028 96.9449 40.3868 100.112 33.3758 102.487C26.3648 104.863 19.4356 106.999 12.5881 108.858L2.16353 92.0286C7.35535 90.2609 11.7909 88.4564 15.4701 86.6335C19.1494 84.8106 22.1745 82.8219 24.5047 80.6675C26.8349 78.5132 28.5519 76.0642 29.6352 73.3022C30.7186 70.5402 31.2705 67.2994 31.2705 63.5615H2V1.8584H2.02043Z" fill="#DE9400"/>
<path d="M158.5 1.3584V55.8467C158.5 64.896 156.708 72.4301 153.052 78.4756L153.053 78.4766C149.552 84.2791 145.042 89.1413 139.507 93.0586L138.968 93.4346C133.584 97.1373 127.623 100.171 121.088 102.504L119.773 102.961C112.754 105.339 105.815 107.478 98.9561 109.341L98.5947 109.439L98.3984 109.119L88.1172 92.2891L87.792 91.7568L88.3828 91.5557C93.5596 89.7931 97.9742 87.9963 101.629 86.1855C105.278 84.3775 108.26 82.4141 110.546 80.3008L110.966 79.9023C113.032 77.8934 114.562 75.6377 115.55 73.1201L115.742 72.6094C116.627 70.1539 117.102 67.3114 117.146 64.0615H87.7373V1.3584H158.5ZM72.0986 1.3584V55.8467C72.0986 64.8966 70.3082 72.4319 66.6514 78.4775L66.6504 78.4766C63.0372 84.4655 58.3702 89.4529 52.6504 93.4336H52.6494C47.3037 97.1366 41.3816 100.17 34.8506 102.504L33.5361 102.961C26.5167 105.339 19.5773 107.478 12.7188 109.341L12.3594 109.438L12.1631 109.122L1.73828 92.292L1.40723 91.7578L2.00195 91.5557L3.9082 90.8926C8.27096 89.3432 12.0502 87.7699 15.248 86.1855L15.9248 85.8447C19.2675 84.1315 22.0221 82.282 24.165 80.3008L24.5859 79.9023C26.6519 77.8935 28.1824 75.6377 29.1699 73.1201C30.1778 70.5506 30.7184 67.539 30.7656 64.0615H1.5V1.3584H72.0986Z" stroke="#01193D" stroke-opacity="0.5"/>
</svg>
