<svg width="41" height="41" viewBox="0 0 41 41" fill="none" xmlns="http://www.w3.org/2000/svg">
<circle cx="20.3906" cy="20.8574" r="19.5" stroke="#01193D"/>
<g clip-path="url(#clip0_1_61882)">
<path d="M14.3944 17.208H9.86133V31.7533H14.3944V17.208Z" fill="#01193D"/>
<path d="M9.95123 31.7084C9.95123 31.7683 9.96619 31.7458 9.96619 31.7533C9.96619 31.6561 9.94375 31.7084 9.95123 31.7084Z" fill="#3D0102"/>
<path d="M9.91373 30.7798L9.92121 30.7948L9.90625 30.6602L9.91373 30.7798Z" fill="#3D0102"/>
<path d="M9.91378 29.9098C9.89134 29.9915 9.91378 30.2219 9.91378 30.378V30.4003L9.92874 30.4672C9.92874 30.2814 9.91378 30.0361 9.92126 29.9023L9.91378 29.9098Z" fill="#3D0102"/>
<path d="M9.96622 29.4493C9.96622 29.4493 9.95873 29.3521 9.96622 29.5615C9.96622 29.554 9.96622 29.5465 9.96622 29.5391C9.96622 29.5166 9.96622 29.4942 9.96622 29.4493Z" fill="#3D0102"/>
<path d="M9.96606 29.538C9.96606 29.6278 9.97354 29.4782 9.96606 29.538V29.538Z" fill="#3D0102"/>
<path d="M9.96606 29.1146V29.2343C9.96606 29.2343 9.98103 29.0997 9.98851 29.1445C9.98851 29.0174 9.98103 29.0473 9.96606 29.1146Z" fill="#3D0102"/>
<path d="M9.9587 29.1971V29.0625C9.9587 29.0625 9.93626 29.0849 9.9587 29.1223C9.95122 29.1149 9.9587 29.1373 9.9587 29.1971Z" fill="#3D0102"/>
<path d="M9.95124 29.2705C9.95124 29.3374 9.94376 29.4266 9.93628 29.3077C9.93628 29.5381 9.95872 29.5009 9.95124 29.2705Z" fill="#3D0102"/>
<path d="M9.97361 28.3643C9.97361 28.3643 9.95865 28.4017 9.95117 28.4166V28.5064C9.95865 28.4615 9.96613 28.3717 9.97361 28.3643Z" fill="#3D0102"/>
<path d="M9.95108 28.4169V28.2822C9.9436 28.4019 9.95108 28.4244 9.95108 28.4169Z" fill="#3D0102"/>
<path d="M9.91382 28.9811L9.93626 29.1967L9.91382 28.9365V28.9811Z" fill="#3D0102"/>
<path d="M9.97363 27.8587L9.98859 27.9335L9.97363 27.7988V27.8587Z" fill="#3D0102"/>
<path d="M9.97363 27.5164C9.98111 27.5758 9.98859 27.4421 9.99607 27.5015C9.99607 27.4123 9.98859 27.3306 9.97363 27.2637C9.97363 27.338 9.97363 27.4198 9.97363 27.5238V27.5164Z" fill="#3D0102"/>
<path d="M9.96606 27.1445C9.96606 27.1445 9.96606 27.2193 9.98103 27.2642C9.98103 27.2343 9.98103 27.2044 9.96606 27.1445Z" fill="#3D0102"/>
<path d="M9.95117 28.052C9.95117 28.052 9.96613 28.0221 9.96613 27.9473L9.95117 27.9996C9.95117 27.9996 9.95117 28.037 9.95117 28.052Z" fill="#3D0102"/>
<path d="M9.9286 28.6328C9.92112 28.5505 9.91364 28.3934 9.89868 28.5505C9.90616 28.6103 9.91364 28.5131 9.9286 28.6328Z" fill="#3D0102"/>
<path d="M9.92871 28.1338V28.2759C9.92871 28.2759 9.92871 28.246 9.93619 28.2834V28.1338H9.92871Z" fill="#3D0102"/>
<path d="M9.92114 28.0596L9.92862 28.1344V28.082L9.92114 28.0596Z" fill="#3D0102"/>
<path d="M9.95108 27.3823C9.95108 27.3229 9.95108 27.256 9.9436 27.1816C9.9436 27.2783 9.9436 27.3526 9.9436 27.4269C9.9436 27.4418 9.95856 27.4715 9.95856 27.3897L9.95108 27.3823Z" fill="#3D0102"/>
<path d="M9.95865 26.9365C9.95865 26.9739 9.95865 27.0113 9.95117 27.0412C9.95117 27.0113 9.96613 26.944 9.95865 26.9365Z" fill="#3D0102"/>
<path d="M9.95108 27.6506C9.95108 27.6506 9.95108 27.5983 9.9436 27.5684C9.9436 27.5983 9.9436 27.6282 9.9436 27.6731C9.9436 27.6731 9.9436 27.6581 9.9436 27.6506H9.95108Z" fill="#3D0102"/>
<path d="M9.84644 26.2155C9.84644 26.2155 9.87636 26.3865 9.8614 26.5277C9.86888 26.6615 9.92124 26.5723 9.94368 26.4534C9.94368 26.4534 9.92872 26.4534 9.92124 26.3122C9.91376 26.3642 9.90628 26.6243 9.89132 26.5054C9.89132 26.3196 9.89132 26.3567 9.90628 26.2601C9.89132 26.3345 9.88384 26.0223 9.85392 26.0669V26.2304C9.85392 26.2304 9.85392 26.1709 9.85392 26.223L9.84644 26.2155Z" fill="#3D0102"/>
<path d="M9.9436 26.7142V26.7737C9.9436 26.7068 9.95108 26.6622 9.96604 26.573C9.96604 26.4764 9.95108 26.4541 9.95108 26.4541V26.7365V26.7142H9.9436Z" fill="#3D0102"/>
<path d="M9.94365 27.0336C9.92869 26.989 9.92121 26.8478 9.90625 26.937C9.90625 27.1079 9.92121 27.0559 9.92869 27.1525C9.92869 26.8775 9.93617 27.2342 9.94365 27.0336C9.94365 27.1005 9.94365 27.1376 9.94365 27.1822C9.94365 27.1376 9.94365 27.093 9.94365 27.041V27.0484V27.0336C9.94365 26.9518 9.94365 27.0187 9.94365 27.0484V26.7734C9.93617 26.8478 9.93617 26.8998 9.93617 27.0336H9.94365Z" fill="#3D0102"/>
<path d="M9.87629 28.2894C9.87629 28.2894 9.88377 28.3266 9.87629 28.3935C9.87629 28.453 9.87629 28.3935 9.86133 28.3935C9.86133 28.4307 9.86881 28.5273 9.87629 28.4084V28.3861C9.87629 28.2746 9.89873 28.1334 9.89873 28.1557C9.88377 28.1854 9.87629 28.2151 9.86133 28.2894H9.87629Z" fill="#3D0102"/>
<path d="M9.90623 27.6503V27.4199L9.88379 27.5388H9.89127C9.89127 27.6652 9.89127 27.6355 9.90623 27.6503Z" fill="#3D0102"/>
<path d="M9.95108 26.4097L9.96604 26.4397L9.9436 26.3125L9.95108 26.4097Z" fill="#3D0102"/>
<path d="M9.95117 26.1201L9.96613 26.1275L9.95865 26.0527L9.95117 26.1201Z" fill="#3D0102"/>
<path d="M9.95117 18.8723C9.96613 18.7757 9.98857 18.6642 9.96613 18.6791L9.95117 18.7088C9.95117 18.7757 9.95117 18.8277 9.95117 18.8723Z" fill="#3D0102"/>
<path d="M13.1827 17.2002H13.1528C13.1528 17.2002 13.1079 17.2002 13.0854 17.2077C13.1154 17.2077 13.1453 17.2077 13.1827 17.2002Z" fill="#3D0102"/>
<path d="M14.4917 23.0872L14.5067 23.162C14.5067 23.0423 14.4992 23.0946 14.4917 23.0872Z" fill="#3D0102"/>
<path d="M9.94366 23.0938C9.94366 22.9824 9.94366 22.9303 9.95114 22.8857C9.94366 22.9898 9.9287 23.0716 9.94366 23.0938Z" fill="#3D0102"/>
<path d="M14.3123 20.2553C14.3123 20.2927 14.3197 20.3152 14.3197 20.3152C14.3197 20.2703 14.3197 20.2478 14.3123 20.2553Z" fill="#3D0102"/>
<path d="M9.95874 22.6406C9.95874 22.6406 9.95874 22.6704 9.95874 22.6852C9.95874 22.7595 9.95874 22.8116 9.95874 22.8859C9.95874 22.8116 9.96622 22.7224 9.95874 22.6406Z" fill="#3D0102"/>
<path d="M9.89884 25.2353C9.89884 25.2353 9.89884 25.2129 9.89136 25.2129C9.89136 25.2129 9.89136 25.2279 9.89884 25.2353Z" fill="#3D0102"/>
<path d="M10.056 17.126C9.98868 17.1409 9.86899 17.1409 9.79419 17.1409C9.79419 17.1559 9.79419 17.1709 9.79419 17.1858L9.80915 17.1559L9.88395 17.1858L10.0485 17.126H10.056Z" fill="#3D0102"/>
<path d="M14.4843 21.6081L14.4992 21.452C14.5217 21.6453 14.5142 21.7791 14.5366 21.6304C14.4843 21.6081 14.5366 21.0135 14.4843 20.9912V20.8872C14.4843 20.8872 14.4992 20.9243 14.4992 20.9541C14.5217 20.7534 14.4618 20.8054 14.4693 20.5453C14.4693 20.4561 14.4768 20.3892 14.4843 20.4561L14.4693 20.2554C14.4693 20.196 14.4768 20.2108 14.4768 20.2703V19.9581C14.4768 19.8987 14.4544 19.8095 14.4544 19.7649C14.4544 19.6831 14.4544 19.802 14.4693 19.7872L14.4544 19.6162C14.4693 19.5493 14.4768 19.6905 14.4768 19.8095C14.5292 19.6534 14.4618 19.6682 14.4918 19.3264V19.4899C14.5292 19.3858 14.5142 19.2595 14.5292 19.0737C14.5217 19.1182 14.4843 19.4378 14.4768 19.252C14.4768 19.2 14.4768 19.1331 14.4768 19.0291C14.4918 19.0291 14.4918 18.9324 14.4918 18.8061H14.5142C14.5142 18.6797 14.4992 18.6946 14.4843 18.6128C14.4843 18.4642 14.5067 18.4345 14.5217 18.3973C14.5217 18.1595 14.4918 18.5608 14.4918 18.2784C14.4992 18.0851 14.4918 17.9439 14.4768 17.7061C14.4843 17.5723 14.4918 17.7284 14.4992 17.6838L14.4843 17.5649C14.4843 17.5649 14.4843 17.5426 14.4918 17.55C14.4918 17.446 14.4693 17.5426 14.4618 17.3791C14.4544 17.3642 14.4618 17.2824 14.4618 17.1561C14.2973 17.1487 14.1551 17.1338 14.0429 17.1561C13.9906 17.1561 14.0654 17.1412 14.0504 17.1338C13.7736 17.1561 13.811 17.1487 13.5866 17.171L13.3921 17.1561C13.5343 17.171 13.3547 17.1932 13.1977 17.2081C13.25 17.2155 13.2949 17.223 13.3173 17.2304L13.063 17.2453C13.063 17.2453 13.063 17.2304 13.1004 17.223H13.0555C12.9658 17.223 13.0106 17.2081 13.078 17.1932L13.1677 17.2081C13.2276 17.1932 13.2874 17.1784 13.2725 17.1635C13.2425 17.1635 13.2126 17.1635 13.1902 17.1635C13.2051 17.1635 13.2201 17.1635 13.2126 17.1561C13.2051 17.1561 13.1752 17.1561 13.1378 17.1635L13.078 17.1412H13.063H12.7339C12.4945 17.1635 12.2925 17.2081 11.911 17.2155C12.0008 17.1932 11.9335 17.1858 11.9335 17.1635C12.0382 17.1858 12.2252 17.1561 12.4197 17.1635C12.315 17.1635 12.3374 17.1487 12.3673 17.1487L12.0232 17.171C12.0232 17.171 11.9484 17.1561 11.8587 17.1487C11.926 17.1858 11.5969 17.171 11.4547 17.1858C11.4472 17.171 11.4772 17.1635 11.6492 17.1635C11.4622 17.1338 11.4024 17.2081 11.2154 17.1858C11.2602 17.1858 11.2827 17.1858 11.2976 17.1858C11.2004 17.1932 10.961 17.1858 11.0134 17.1784H11.0583C10.7815 17.1784 10.2055 17.1784 10.1681 17.2081C10.1681 17.2081 10.2055 17.171 10.2205 17.1635L9.86889 17.2378L9.89881 17.3865C9.89881 17.3865 9.86141 17.3939 9.84644 17.4014C9.824 17.4014 9.80904 17.4162 9.80156 17.2304C9.80156 17.3419 9.79408 17.4385 9.80156 17.5649C9.80156 17.5203 9.83896 17.4534 9.83896 17.5128C9.80904 17.6838 9.824 17.6318 9.80156 17.8399C9.80156 17.773 9.84644 17.8473 9.84644 17.9514C9.84644 17.9365 9.80904 17.9588 9.80156 17.9216L9.83896 18.1892C9.83896 18.1223 9.80156 18.1743 9.79408 18.2338C9.80156 18.2041 9.79408 18.4642 9.79408 18.5385V18.427C9.79408 18.7243 9.86141 18.7243 9.86141 19.0216C9.85392 18.9845 9.80904 18.9324 9.80156 19.0811C9.824 19.148 9.89881 19.3858 9.91377 19.6534L9.89881 19.7054L9.91377 19.9061C9.88385 19.7797 9.81652 19.423 9.79408 19.2297C9.7866 19.3412 9.77912 19.2595 9.77912 19.4304C9.77164 19.4899 9.76416 19.3412 9.76416 19.2892V19.6831C9.76416 19.6831 9.77912 19.9804 9.80156 19.9655L9.77912 19.5419C9.77912 19.5419 9.84644 19.7872 9.84644 20.0696C9.83896 20.1439 9.80156 20.0176 9.79408 20.025C9.80156 20.0622 9.80904 20.2851 9.80156 20.3149L9.7866 20.196C9.77912 20.352 9.81652 20.4487 9.79408 20.6345C9.79408 20.7014 9.76416 20.8277 9.77912 20.8351C9.80904 20.7311 9.89133 20.7088 9.91377 20.7831C9.91377 20.8054 9.88385 21.1176 9.87637 21.1919C9.85392 21.296 9.824 21.0358 9.80904 21.125C9.80904 21.125 9.824 21.1845 9.824 21.2142C9.824 21.2811 9.80156 21.1845 9.80904 21.3331C9.83148 21.3554 9.80904 21.6304 9.83148 21.4C9.83148 21.5412 9.83148 21.5487 9.83148 21.7196C9.84644 21.6676 9.88385 21.8682 9.89133 22.0169C9.89133 22.0095 9.87637 22.0392 9.87637 22.0541C9.87637 22.3291 9.86889 22.5223 9.86141 22.7824C9.86141 22.8047 9.84644 22.9385 9.83896 22.8865C9.83896 22.9237 9.85392 22.9608 9.85392 23.05C9.83148 23.2135 9.85392 22.8642 9.824 22.9831C9.83896 22.9905 9.84644 23.1987 9.85392 23.325C9.87637 23.2878 9.85392 23.05 9.85392 22.9237C9.88385 22.9237 9.91377 23.1318 9.92873 23.4216C9.93621 23.652 9.90629 23.5182 9.91377 23.5628C9.91377 23.9865 9.96613 23.927 9.94369 24.2838C9.92125 24.425 9.90629 24.2838 9.89133 24.321C9.89133 24.1351 9.90629 24.0385 9.90629 23.9122V24.0682C9.89133 24.0088 9.88385 23.8824 9.89133 23.8155C9.87637 23.9345 9.89133 24.5365 9.86889 24.8635C9.86889 24.923 9.88385 25.0196 9.89133 24.975V24.871C9.90629 24.7743 9.91377 25.0642 9.91377 24.9378C9.92125 25.0791 9.94369 25.2351 9.93621 25.4284L9.91377 25.4655C9.91377 25.4655 9.92873 25.3392 9.91377 25.2797C9.92125 25.3615 9.88385 25.5845 9.91377 25.6737L9.92873 25.5324C9.93621 25.6737 9.96613 25.8446 9.95865 26.023C9.98109 25.9412 9.95865 25.9858 9.98109 25.8595C9.95117 25.9635 9.98109 25.4135 9.95117 25.5845C9.98109 25.4581 9.96613 25.3615 9.98857 25.198C9.98857 25.198 9.97361 25.2574 9.98109 25.1088C9.98109 25.1014 9.98109 25.0865 9.98109 25.0791C9.98109 25.1162 9.98109 25.1385 9.97361 25.1534C9.95865 25.0791 9.95865 24.8487 9.95117 24.7669C9.95117 24.6777 9.95865 24.8041 9.96613 24.7595L9.95117 24.6405C9.95117 24.6405 9.98109 24.4101 9.98857 24.6108V24.425C9.99605 24.3135 10.0035 24.1649 9.98857 24.0757C9.98857 23.9865 9.97361 23.8527 9.98857 23.9345V23.6446C9.98857 23.3622 9.95865 23.0574 9.98857 22.7304C9.98857 22.6338 9.98109 22.5372 9.98857 22.3737L10.0035 22.3439C10.0035 22.2176 10.0185 21.9723 10.0035 21.9203C10.0409 21.7865 10.011 21.3257 10.0185 21.1027H10.0035C10.0035 20.9615 10.0035 20.8277 9.98857 20.6196L9.97361 20.6345C9.95865 20.4784 9.98857 20.2257 9.98109 19.973C9.98109 19.9878 9.98109 20.0547 9.98109 20.0993C10.0185 19.7946 9.95117 19.4601 9.98109 19.1926C9.98109 19.1257 9.98109 19.0737 9.98109 19.0291C9.98109 19.0291 9.98109 19.0365 9.98109 19.0439C9.98109 19.0365 9.98109 19.0291 9.98109 19.0142C9.98109 18.9845 9.98109 18.9473 9.98857 18.9176C9.98857 18.9547 9.98857 18.9845 9.98109 18.9993C9.98109 18.9547 9.98109 18.8878 9.98109 18.7912L9.99605 18.7615C9.99605 18.7615 9.99605 18.7541 9.99605 18.7466C9.99605 18.6723 9.98857 18.6872 9.97361 18.7243C9.97361 18.6946 9.97361 18.6574 9.96613 18.6203C9.99605 18.5608 9.95865 18.4122 9.98857 18.3304C9.97361 18.2784 9.98109 17.9365 9.94369 17.8919C9.94369 17.8919 9.94369 17.8696 9.94369 17.9068C9.94369 17.8176 9.94369 17.7358 9.94369 17.6541L9.96613 17.6169L9.93621 17.4237C9.95117 17.3196 9.95865 17.327 9.97361 17.3865C9.97361 17.3568 9.96613 17.3345 9.96613 17.3196C10.0858 17.3122 10.0335 17.3196 10.2504 17.2973L10.2354 17.3122C10.3177 17.3122 10.4524 17.2899 10.5047 17.3047C10.6917 17.3345 11.4472 17.3047 11.9335 17.3345C11.8362 17.2899 12.1579 17.3568 12.1803 17.3196C12.2102 17.327 12.2776 17.3345 12.1953 17.3419C12.4421 17.3345 12.5693 17.3568 12.7414 17.327C12.7713 17.3345 12.689 17.3419 12.7114 17.3493C12.7339 17.3493 12.7937 17.3419 12.8162 17.3493C12.8386 17.3493 12.7788 17.3568 12.7414 17.3642C12.9957 17.3642 13.0181 17.3345 13.0406 17.3047C13.1677 17.3196 13.2351 17.3196 13.3248 17.3047C13.3697 17.3122 13.4445 17.327 13.2874 17.327C13.3772 17.327 13.826 17.3419 13.841 17.3196C13.8709 17.3196 13.9681 17.3196 13.9906 17.3196C14.1701 17.3196 14.1851 17.3196 14.3646 17.3196H14.3272C14.3272 17.3196 14.3721 17.3047 14.402 17.3047C14.402 17.3568 14.402 17.4237 14.402 17.5054C14.3796 17.8622 14.4095 17.6541 14.387 18.0108L14.402 17.9885C14.402 17.9885 14.3796 18.3007 14.3945 18.5088V18.4345C14.417 18.546 14.3571 18.7466 14.3496 18.8581C14.3496 18.8804 14.3496 18.821 14.3422 18.7838C14.3197 19.0811 14.3646 18.821 14.3721 19.0439C14.3571 19.0811 14.3422 18.9919 14.3422 19.1405C14.3347 19.2149 14.3796 19.5716 14.3571 19.7723C14.3646 19.7277 14.3796 19.6831 14.3796 19.7872C14.3796 19.9432 14.3422 20.2108 14.3796 20.352C14.3796 20.3743 14.3796 20.3818 14.3796 20.3818C14.387 20.5007 14.3945 20.7682 14.4095 20.8426C14.3496 20.9541 14.4394 21.5858 14.387 21.5858V21.9574V21.95C14.387 22.1878 14.3945 22.2696 14.4095 22.3514C14.4095 22.4034 14.402 22.3662 14.3945 22.3588C14.387 22.7007 14.387 22.7378 14.4095 23.0277L14.3945 23.0574C14.402 23.1392 14.3646 23.5554 14.3945 23.8899C14.3945 23.8899 14.3945 23.8824 14.387 23.8527C14.4095 24.2318 14.3347 24.7595 14.402 24.9007L14.417 25.1534C14.417 24.8264 14.4469 25.198 14.4544 25.0716C14.4544 25.198 14.4319 25.3987 14.4319 25.2426V25.2203C14.402 25.1608 14.4244 25.6216 14.402 25.6142C14.402 26.2385 14.387 26.8851 14.387 27.4723L14.417 27.4054V27.6135C14.4095 27.6655 14.3945 27.6878 14.3945 27.5392C14.3796 27.621 14.4095 27.7919 14.4095 27.7919C14.402 28.0818 14.3796 27.6804 14.3796 27.7696V27.8885V27.8588C14.387 27.9554 14.402 27.9628 14.402 28.1412C14.402 28.2527 14.387 28.2007 14.387 28.2453C14.387 28.2453 14.387 28.2601 14.387 28.3122V28.5723L14.402 28.4682C14.4095 28.5872 14.402 28.7135 14.4244 28.5946C14.387 28.773 14.4095 29.5757 14.402 29.6797C14.417 29.8432 14.417 30.0068 14.417 30.2C14.417 30.148 14.4469 30.1182 14.4394 30.2892C14.3945 30.2297 14.417 30.6014 14.387 30.7426C14.4095 30.6162 14.387 31.2331 14.4244 31.0399C14.4244 31.1811 14.4095 31.0473 14.3945 31.1588C14.3945 31.2926 14.3945 31.3743 14.3945 31.471C14.3945 31.5527 14.3945 31.6493 14.3945 31.746C14.3272 31.746 14.2674 31.746 14.2075 31.746C14.1177 31.746 14.0355 31.746 13.9457 31.746C13.9457 31.746 14.013 31.7608 13.9158 31.7682L13.6914 31.7385C13.6091 31.7385 13.6166 31.7757 13.4595 31.7534C13.4819 31.7534 13.5118 31.7682 13.4595 31.7682C12.6291 31.7385 11.7614 31.7905 10.9161 31.7385C11.0283 31.7534 10.9535 31.7534 10.8638 31.7534C10.9236 31.7534 10.8638 31.7682 10.8713 31.7757L10.5197 31.7534C10.4524 31.7757 10.1382 31.7534 10.1008 31.7757H10.213C10.0634 31.798 10.4224 31.8277 10.4 31.8649C10.5646 31.8351 10.8413 31.9095 11.1106 31.8649C11.1705 31.8649 11.0583 31.8723 11.0882 31.8872C11.1555 31.8723 11.2378 31.8723 11.3949 31.8797H11.3799C11.8138 31.8797 12.0008 31.8946 12.4945 31.902L12.4571 31.8872C12.5618 31.8872 12.5843 31.8946 12.6366 31.902C12.7563 31.8797 12.3374 31.902 12.4496 31.8723C12.5917 31.9095 13.1902 31.8723 13.2874 31.9095C13.452 31.9095 13.2425 31.8872 13.3996 31.8872H13.4445H13.4819C13.5866 31.8872 13.639 31.902 13.6465 31.9095C13.6166 31.9095 13.5717 31.9095 13.5492 31.9095C13.6839 31.9243 13.9382 31.9095 13.9831 31.9095H13.826C14.0654 31.902 14.2973 31.902 14.5366 31.902C14.5366 31.7459 14.5366 31.5824 14.5366 31.4264C14.5366 31.3149 14.5366 31.196 14.5292 31.0547V31.0845C14.5067 30.7574 14.5292 30.8243 14.5292 30.4676V30.4824C14.5292 30.4081 14.5217 30.3189 14.5217 30.2223C14.5292 30.3115 14.5366 30.0514 14.5516 30.1703C14.5366 29.821 14.5366 29.9993 14.5067 29.7615L14.5217 29.7095C14.5067 29.6277 14.5067 29.6203 14.4992 29.4493C14.5142 29.598 14.5217 29.3378 14.5366 29.5014C14.5666 29.1297 14.5067 28.9439 14.5516 28.773C14.5142 28.602 14.5292 29.0926 14.5217 29.0034C14.5067 29.0851 14.4918 28.8622 14.4992 28.7432C14.4992 28.6243 14.5441 28.5426 14.5441 28.2378C14.5441 28.2601 14.5441 28.275 14.5441 28.2973C14.5516 28.1858 14.5292 28.0743 14.5441 27.9405C14.5217 27.8662 14.5441 27.7622 14.5142 27.7399V28.0149C14.5142 27.8588 14.4768 27.7101 14.4992 27.4574C14.4992 27.4797 14.5142 27.5541 14.5142 27.6061C14.5217 27.5318 14.5142 27.4649 14.5142 27.3831C14.5441 27.4054 14.5142 27.7176 14.5441 27.8811C14.5591 27.7993 14.5217 27.5689 14.5516 27.6507C14.5142 27.5318 14.5516 27.3534 14.5292 27.1527L14.5441 27.1676C14.5441 27.1676 14.5366 27.071 14.5366 27.0115L14.5591 27.1155C14.5366 26.952 14.574 26.796 14.5591 26.6399C14.5591 26.9669 14.5366 26.7142 14.5292 26.8554C14.5067 26.4466 14.574 26.625 14.5666 26.1642C14.5666 26.2237 14.5591 26.3946 14.5516 26.298C14.5516 26.2088 14.5591 26.0973 14.574 26.0453C14.574 25.7405 14.5591 26.0899 14.5441 25.9635C14.5666 25.8595 14.5366 25.8149 14.5292 25.6811H14.5441C14.5516 25.3392 14.5067 25.5919 14.5217 25.2797L14.5441 25.4135V25.25L14.5591 25.2797C14.5441 25.1014 14.5516 25.0493 14.5591 24.8784C14.5441 24.9155 14.5292 24.8561 14.5292 24.7C14.5366 24.596 14.5441 24.7595 14.5441 24.5439C14.5516 24.596 14.5666 24.648 14.5516 24.7372L14.5666 24.7966C14.5815 24.6851 14.5666 24.5142 14.5666 24.4399C14.5666 24.4622 14.5666 24.4845 14.5666 24.5216L14.5441 24.2095C14.5441 24.1574 14.5591 24.202 14.5591 24.2392C14.5591 24.1946 14.5516 24.1054 14.5441 24.0385C14.5591 24.0608 14.574 24.0534 14.5815 24.1872L14.5666 23.8899C14.5666 23.8899 14.5815 23.7338 14.589 23.7784C14.5965 23.6149 14.5591 23.3696 14.574 23.1541C14.574 23.1392 14.574 23.1169 14.574 23.0723C14.574 22.8642 14.5965 22.6858 14.574 22.4405L14.5965 22.2993C14.5965 22.1061 14.5666 22.4851 14.5516 22.1655C14.5441 21.9426 14.574 22.0838 14.5815 22.002C14.5666 21.8905 14.5441 21.6973 14.5666 21.4892C14.5666 21.6007 14.5666 21.6081 14.5666 21.675L14.4843 21.6081ZM14.4693 19.2446C14.4693 19.2892 14.4843 19.3784 14.4693 19.4155C14.4469 19.3635 14.4618 19.3264 14.4693 19.2446ZM12.8311 17.171C12.8311 17.171 12.9209 17.171 12.9807 17.171C12.9358 17.171 12.891 17.171 12.8311 17.171ZM9.94369 24.2466C9.94369 24.1426 9.94369 24.1723 9.94369 24.2466V24.2466ZM9.93621 24.4547C9.93621 24.4547 9.93621 24.477 9.93621 24.4622C9.93621 24.4473 9.93621 24.4027 9.93621 24.3432C9.93621 24.3581 9.92873 24.3878 9.93621 24.4473V24.4547ZM14.3197 28.2007V28.1561C14.3272 28.2527 14.3197 28.223 14.3197 28.2007Z" fill="#3D0102"/>
<path d="M13.2424 17.1484C13.2424 17.1484 13.2574 17.1484 13.2649 17.1559C13.2798 17.1559 13.2798 17.1559 13.2424 17.1484Z" fill="#3D0102"/>
<path d="M9.78662 21.177C9.78662 21.1321 9.78662 21.1097 9.7941 21.0947C9.7941 21.0947 9.78662 21.1097 9.78662 21.177Z" fill="#3D0102"/>
<path d="M9.96622 25.577V25.4424C9.96622 25.5097 9.96622 25.5321 9.95874 25.5621C9.95874 25.5621 9.96622 25.5321 9.96622 25.577Z" fill="#3D0102"/>
<path d="M9.86133 26.7583C9.86133 26.7583 9.86133 26.7807 9.86133 26.8181H9.86881C9.86881 26.7283 9.86881 26.6685 9.86133 26.7583Z" fill="#3D0102"/>
<path d="M9.90616 25.7031C9.90616 25.7031 9.89868 25.7997 9.90616 25.8964V25.8815C9.90616 25.8815 9.92112 25.8072 9.90616 25.7106V25.7031Z" fill="#3D0102"/>
<path d="M9.89868 25.9189C9.89868 25.9189 9.89868 25.9788 9.89868 26.0087C9.90616 26.0162 9.89868 25.9713 9.89868 25.9189Z" fill="#3D0102"/>
<path d="M9.94363 24.7226C9.94363 24.7675 9.95859 24.7525 9.95859 24.775C9.97355 24.8273 9.93615 24.4758 9.94363 24.7226Z" fill="#3D0102"/>
<path d="M9.86133 25.7776L9.87629 25.7477L9.86133 25.6953V25.7776Z" fill="#3D0102"/>
<path d="M9.854 25.5705L9.86148 25.5256V25.4209L9.854 25.5705Z" fill="#3D0102"/>
<path d="M9.87629 23.3999V23.2354C9.87629 23.2354 9.86133 23.2653 9.86133 23.3251C9.86133 23.3625 9.86133 23.4298 9.87629 23.3999Z" fill="#3D0102"/>
<path d="M9.83145 23.8971C9.83145 23.8522 9.83894 23.8522 9.84642 23.8223H9.82397L9.83145 23.8971Z" fill="#3D0102"/>
<path d="M9.82404 23.4147C9.82404 23.4147 9.80908 23.1753 9.80908 23.3847C9.80908 23.3997 9.82404 23.5718 9.82404 23.4147Z" fill="#3D0102"/>
<path d="M9.854 20.917V20.9619L9.89141 20.9544L9.854 20.917Z" fill="#3D0102"/>
<path d="M9.76415 18.7162C9.75667 18.9094 9.78659 18.7608 9.77911 18.9392C9.78659 18.9838 9.78659 18.7905 9.79407 18.8425C9.78659 18.7236 9.79407 18.6642 9.76415 18.7162Z" fill="#3D0102"/>
<path d="M10.2129 31.6637L10.0857 31.6562L10.168 31.6712L10.2129 31.6637Z" fill="#3D0102"/>
<path d="M9.96605 31.6933L9.93613 31.6709L9.86133 31.6933C9.86133 31.6933 9.94361 31.6933 9.96605 31.6933Z" fill="#3D0102"/>
<path d="M14.5142 18.8945C14.5142 18.8945 14.5142 18.9319 14.5142 18.9918L14.5291 18.8945H14.5142Z" fill="#3D0102"/>
<path d="M14.4992 20.6041V20.5742L14.4768 20.6341L14.4992 20.6041Z" fill="#3D0102"/>
<path d="M14.5293 22.0474C14.5293 21.9875 14.5293 21.9202 14.5293 21.8604C14.5293 21.9875 14.5068 22.0623 14.5293 22.0474Z" fill="#3D0102"/>
<path d="M12.1055 15.3053C13.5866 15.3053 14.7834 14.1012 14.7834 12.6222C14.7834 11.1431 13.5866 9.93164 12.1055 9.93164C10.6244 9.93164 9.42749 11.1357 9.42749 12.6222C9.42749 14.1087 10.6244 15.3053 12.1055 15.3053Z" fill="#01193D"/>
<path d="M12.083 15.2161C12.083 15.2161 12.098 15.2012 12.1054 15.2012C12.068 15.2012 12.0905 15.2236 12.083 15.2161Z" fill="#3D0102"/>
<path d="M11.6866 15.2165L11.694 15.209L11.6267 15.2165H11.6866Z" fill="#3D0102"/>
<path d="M11.3125 15.127C11.3125 15.127 11.4471 15.1569 11.507 15.1868H11.5145H11.5519C11.4696 15.1718 11.3649 15.1569 11.3125 15.1344V15.127Z" fill="#3D0102"/>
<path d="M11.1479 15.0078C11.1479 15.0078 11.1031 15.0078 11.1928 15.0303C11.1853 15.0303 11.1779 15.0303 11.1554 15.0153L11.1479 15.0078Z" fill="#3D0102"/>
<path d="M11.0135 14.9563L11.0658 14.9713C11.0658 14.9713 11.0209 14.9414 11.0359 14.9414C10.9835 14.9264 10.991 14.9339 11.0135 14.9563Z" fill="#3D0102"/>
<path d="M11.0433 14.9788L10.991 14.9639C10.991 14.9639 10.991 14.9788 11.0134 14.9713C11.0134 14.9713 11.0134 14.9713 11.0433 14.9788Z" fill="#3D0102"/>
<path d="M11.0732 14.9932C11.0732 14.9932 11.1331 15.0306 11.0732 15.0156C11.1705 15.0455 11.1555 15.0306 11.0732 14.9932Z" fill="#3D0102"/>
<path d="M11.29 15.1496L11.3274 15.1721H11.3648C11.3648 15.1721 11.29 15.1422 11.29 15.1496Z" fill="#3D0102"/>
<path d="M10.7441 14.793C10.7441 14.793 10.7441 14.8154 10.7441 14.8229L10.7815 14.8379C10.7815 14.8379 10.7366 14.8004 10.7366 14.793H10.7441Z" fill="#3D0102"/>
<path d="M10.7516 14.8222L10.6992 14.7998C10.7441 14.8297 10.7516 14.8297 10.7516 14.8222Z" fill="#3D0102"/>
<path d="M10.946 14.9713L11.0358 15.0013L10.9236 14.9639L10.946 14.9713Z" fill="#3D0102"/>
<path d="M10.5647 14.6667L10.6021 14.6816L10.5422 14.6592L10.5647 14.6667Z" fill="#3D0102"/>
<path d="M10.4524 14.5846C10.4524 14.5846 10.4374 14.5472 10.4599 14.5621C10.43 14.5397 10.4 14.5247 10.3701 14.5098C10.4 14.5247 10.4225 14.5546 10.4449 14.5846H10.4524Z" fill="#3D0102"/>
<path d="M10.3328 14.4805C10.3328 14.4805 10.3627 14.4954 10.3776 14.5029C10.3627 14.4954 10.3477 14.4879 10.3328 14.4805Z" fill="#3D0102"/>
<path d="M10.6168 14.7405C10.6168 14.7405 10.6168 14.7256 10.5869 14.7031V14.7256L10.6168 14.7405Z" fill="#3D0102"/>
<path d="M10.6019 14.733C10.6019 14.733 10.5719 14.7106 10.5645 14.7031C10.5645 14.7031 10.5794 14.7181 10.6019 14.733Z" fill="#3D0102"/>
<path d="M10.8189 14.8896C10.8189 14.8896 10.7217 14.8522 10.774 14.8971C10.7965 14.8971 10.774 14.8746 10.8189 14.8896Z" fill="#3D0102"/>
<path d="M10.6318 14.7773C10.6318 14.7773 10.6618 14.7998 10.6842 14.8147C10.6842 14.8147 10.6842 14.7998 10.6992 14.8073C10.6767 14.7998 10.6543 14.7923 10.6393 14.7773H10.6318Z" fill="#3D0102"/>
<path d="M10.6094 14.7627L10.6318 14.7777L10.6169 14.7627H10.6094Z" fill="#3D0102"/>
<path d="M10.4001 14.5621C10.4001 14.5621 10.3552 14.5322 10.3328 14.5098C10.3702 14.5472 10.3926 14.5696 10.4076 14.5846C10.4076 14.5846 10.43 14.5846 10.4076 14.5621H10.4001Z" fill="#3D0102"/>
<path d="M10.1082 14.2793V14.2871L10.116 14.2793H10.1082Z" fill="#3D0102"/>
<path d="M10.3999 14.5918C10.3999 14.5918 10.4298 14.6217 10.4448 14.6292C10.4223 14.6142 10.4074 14.5993 10.3999 14.5918Z" fill="#3D0102"/>
<path d="M10.2654 14.4287C10.2654 14.4287 10.2803 14.4512 10.2878 14.4661C10.2878 14.4512 10.2654 14.4287 10.2654 14.4287Z" fill="#3D0102"/>
<path d="M10.4823 14.637C10.4823 14.637 10.4599 14.6296 10.4524 14.6221C10.4599 14.6221 10.4748 14.637 10.4898 14.6445L10.4823 14.637Z" fill="#3D0102"/>
<path d="M9.97361 14.2577C9.97361 14.2577 10.0335 14.3026 10.0709 14.3549C10.1157 14.3923 10.1307 14.3325 10.1157 14.2801C10.1157 14.2801 10.1008 14.2801 10.0634 14.2427C10.0634 14.2652 10.1382 14.3549 10.0933 14.325C10.0335 14.2652 10.0559 14.2726 10.0409 14.2352C10.0409 14.2726 9.95865 14.1679 9.95117 14.1978L10.0035 14.2502C10.0035 14.2502 9.98109 14.2352 9.98857 14.2502L9.97361 14.2577Z" fill="#3D0102"/>
<path d="M10.183 14.3691L10.1979 14.384C10.1979 14.384 10.168 14.3391 10.153 14.3092C10.1231 14.2868 10.1082 14.2793 10.1082 14.2793L10.1904 14.3691H10.183Z" fill="#3D0102"/>
<path d="M10.2802 14.4661C10.2802 14.4661 10.2129 14.4212 10.2204 14.4661C10.2727 14.5184 10.2653 14.496 10.3027 14.5184C10.2129 14.4436 10.3326 14.5334 10.2802 14.4736C10.3101 14.496 10.3176 14.5035 10.3326 14.511C10.3251 14.496 10.3101 14.481 10.2952 14.4661H10.2877C10.2653 14.4436 10.2877 14.4661 10.2952 14.4661C10.2653 14.4436 10.2353 14.4137 10.2129 14.3838C10.2279 14.4062 10.2503 14.4287 10.2877 14.4661H10.2802Z" fill="#3D0102"/>
<path d="M10.6617 14.86C10.6617 14.86 10.6767 14.86 10.7066 14.875C10.7215 14.89 10.7066 14.875 10.7066 14.8825C10.7215 14.8825 10.7664 14.9049 10.7215 14.8675H10.7141C10.6767 14.8376 10.6318 14.7852 10.6393 14.7927C10.6393 14.8152 10.6467 14.8226 10.6692 14.8526L10.6617 14.86Z" fill="#3D0102"/>
<path d="M10.4524 14.6741C10.4524 14.6741 10.4 14.6367 10.3701 14.6143L10.4 14.6591C10.4374 14.6891 10.4374 14.6741 10.4449 14.6741H10.4524Z" fill="#3D0102"/>
<path d="M10.1083 14.2653H10.1307L10.0784 14.2354L10.1083 14.2653Z" fill="#3D0102"/>
<path d="M10.0335 14.1686L10.041 14.1611L10.0186 14.1387L10.0335 14.1686Z" fill="#3D0102"/>
<path d="M9.89868 11.263C9.89868 11.263 9.97349 11.2031 9.95852 11.2031H9.93608C9.93608 11.2031 9.91364 11.248 9.89868 11.263Z" fill="#3D0102"/>
<path d="M11.5745 9.9834H11.5596L11.5371 10.0058C11.5521 10.0058 11.5596 9.99088 11.5745 9.9834Z" fill="#3D0102"/>
<path d="M14.4021 11.0466L14.432 11.0691C14.4021 11.0242 14.4096 11.0466 14.4021 11.0466Z" fill="#3D0102"/>
<path d="M9.5397 12.9872C9.5397 12.9872 9.5397 12.9199 9.5397 12.8975C9.5397 12.9423 9.53222 12.9797 9.5397 12.9872Z" fill="#3D0102"/>
<path d="M13.3623 10.3402H13.3848C13.3698 10.3402 13.3549 10.3328 13.3623 10.3402Z" fill="#3D0102"/>
<path d="M9.5249 12.793C9.5249 12.793 9.5249 12.8079 9.5249 12.8154C9.5249 12.8528 9.5249 12.8753 9.53238 12.8977C9.53238 12.8678 9.53238 12.8304 9.53238 12.793H9.5249Z" fill="#3D0102"/>
<path d="M12.4497 15.2087C12.4497 15.2087 12.4796 15.2087 12.5021 15.2012C12.4946 15.2012 12.4796 15.2012 12.4497 15.2087Z" fill="#3D0102"/>
<path d="M9.78653 13.7672C9.78653 13.7672 9.77905 13.7448 9.77905 13.7373C9.77905 13.7448 9.77905 13.7597 9.78653 13.7672Z" fill="#3D0102"/>
<path d="M9.79419 13.7598C9.79419 13.7598 9.79419 13.7747 9.80167 13.7822C9.80167 13.7822 9.80167 13.7822 9.79419 13.7598Z" fill="#3D0102"/>
<path d="M9.75659 13.6924C9.75659 13.6924 9.76407 13.7148 9.77155 13.7298C9.77155 13.7223 9.76407 13.7148 9.75659 13.6999V13.6924Z" fill="#3D0102"/>
<path d="M10.2954 10.5264C10.2729 10.5712 10.2579 10.5862 10.228 10.6012H10.2804L10.2879 10.5264H10.2954Z" fill="#3D0102"/>
<path d="M13.9457 10.5486L13.9008 10.4892C13.9831 10.5338 14.0205 10.5784 13.9831 10.5189C13.9457 10.5412 13.7587 10.3405 13.7213 10.3777L13.6914 10.3405L13.7138 10.3554C13.654 10.2811 13.639 10.3405 13.5418 10.2736C13.5118 10.2513 13.4894 10.229 13.5118 10.2365L13.4295 10.1993C13.4295 10.1993 13.4146 10.177 13.437 10.1993C13.3996 10.177 13.3547 10.1622 13.3099 10.1399C13.3099 10.1399 13.2425 10.125 13.2201 10.125C13.1902 10.1027 13.2351 10.125 13.2351 10.125L13.1603 10.1027C13.1603 10.1027 13.1977 10.0953 13.25 10.1176C13.2051 10.0432 13.1902 10.0953 13.048 10.0209L13.1228 10.0432C13.0854 9.99864 13.0331 9.99121 12.9583 9.94661C12.9732 9.96148 13.1004 10.0432 13.0181 10.0284C12.9957 10.0135 12.9658 10.0061 12.9209 9.99864C12.9209 9.98377 12.8835 9.97634 12.8236 9.96148V9.93918C12.7713 9.93175 12.7713 9.93918 12.7339 9.93918C12.6665 9.91688 12.6591 9.90202 12.6441 9.87972C12.5394 9.85742 12.7114 9.91688 12.5843 9.90202C12.4945 9.87972 12.4347 9.87229 12.3224 9.87972C12.2626 9.87229 12.3374 9.86485 12.315 9.85742L12.2551 9.87229V9.86485C12.2102 9.86485 12.2551 9.88715 12.1803 9.88715C12.1579 9.90945 12.0307 9.84999 11.9409 9.88715C11.9185 9.88715 11.9484 9.87229 11.9409 9.86485C11.8138 9.88715 11.8362 9.87972 11.739 9.92431H11.6492C11.7165 9.92431 11.6343 9.96148 11.5744 9.99121C11.5969 9.99121 11.6193 9.99864 11.6343 9.99864C11.5969 10.0061 11.5594 10.0209 11.5295 10.0284C11.5146 10.0284 11.5295 10.0209 11.537 10.0061H11.522C11.4846 10.0209 11.4996 10.0061 11.522 9.98377H11.5669C11.5669 9.98377 11.6118 9.95404 11.6043 9.93918C11.6043 9.93918 11.5819 9.94661 11.5669 9.95404C11.5669 9.95404 11.5744 9.94661 11.5669 9.94661C11.5669 9.94661 11.552 9.94661 11.537 9.96148L11.5071 9.94661V9.96148L11.3575 9.98377C11.2602 10.0358 11.1854 10.1027 11.0358 10.177C11.0657 10.1399 11.0358 10.1473 11.0283 10.125C11.0807 10.125 11.148 10.073 11.2303 10.0432C11.1854 10.0581 11.1929 10.0432 11.2004 10.0358L11.0583 10.1101C11.0583 10.1101 11.0209 10.1101 10.9835 10.1176C11.0283 10.1399 10.8862 10.1919 10.8339 10.229C10.8264 10.2216 10.8339 10.1993 10.9012 10.1696C10.8114 10.1844 10.8189 10.2513 10.7366 10.2736C10.7516 10.2662 10.759 10.2588 10.7665 10.2513C10.7366 10.2811 10.6394 10.3331 10.6543 10.3108H10.6693C10.5571 10.3554 10.3551 10.5263 10.3626 10.5561C10.3626 10.5561 10.3476 10.5189 10.3551 10.504L10.2579 10.727C10.2579 10.727 10.1531 10.7047 10.2205 10.623C10.198 10.6378 10.1606 10.6601 10.1307 10.7122C10.1457 10.6973 10.1905 10.7047 10.1756 10.7196C10.1008 10.7567 10.1307 10.7493 10.0484 10.8013C10.0709 10.779 10.0783 10.8311 10.0484 10.8682C10.0484 10.8608 10.0185 10.8459 10.026 10.8311C10.011 10.8682 9.99605 10.9054 9.98109 10.95C9.99605 10.9203 9.95865 10.9277 9.92872 10.9426C9.94369 10.9426 9.86888 11.0243 9.84644 11.054L9.88384 11.0169C9.79408 11.1209 9.85392 11.1581 9.7866 11.2696C9.7866 11.2547 9.76416 11.2101 9.72675 11.2696C9.72675 11.3067 9.7492 11.4405 9.71179 11.5446L9.68935 11.5594C9.68935 11.5594 9.67439 11.6189 9.66691 11.6486C9.65195 11.5892 9.66691 11.4182 9.68187 11.329C9.65195 11.3736 9.66691 11.329 9.62951 11.4034C9.60707 11.4257 9.62951 11.3588 9.64447 11.3365L9.56219 11.4926C9.56219 11.4926 9.53226 11.6263 9.55471 11.6263C9.56967 11.5594 9.59211 11.5 9.60707 11.4405C9.63699 11.4405 9.61455 11.5669 9.57715 11.6858C9.55471 11.7155 9.54722 11.6486 9.53974 11.6486C9.53974 11.6635 9.5173 11.7676 9.50234 11.775V11.723C9.47242 11.7899 9.50234 11.8419 9.45746 11.9162C9.44998 11.9459 9.4051 11.9905 9.42006 11.998C9.45746 11.9608 9.53974 11.9682 9.55471 11.998C9.55471 12.0054 9.50234 12.1094 9.4799 12.1615C9.44998 12.2061 9.4425 12.0797 9.41258 12.1169C9.41258 12.1169 9.42006 12.1466 9.42006 12.1615C9.41258 12.1912 9.4051 12.1466 9.39762 12.2135C9.42006 12.2284 9.37518 12.3473 9.41258 12.2507C9.41258 12.3176 9.39014 12.3176 9.39014 12.3919C9.4051 12.3696 9.4425 12.4662 9.4425 12.5257C9.4425 12.5257 9.42754 12.5331 9.42006 12.5405C9.4051 12.6669 9.41258 12.7412 9.42006 12.8601C9.42006 12.875 9.41258 12.9344 9.39762 12.9047C9.39762 12.9196 9.41258 12.9344 9.42006 12.9716C9.41258 13.0459 9.4051 12.8899 9.39014 12.9493C9.4051 12.9493 9.42754 13.0459 9.4425 13.098C9.46494 13.0757 9.42754 12.979 9.41258 12.9196C9.4425 12.9196 9.48738 13.0013 9.5173 13.1203C9.53974 13.2169 9.50982 13.1649 9.5173 13.1797C9.56219 13.3581 9.59959 13.3209 9.62951 13.4696C9.62951 13.5365 9.59211 13.4844 9.58463 13.4993C9.54722 13.425 9.55471 13.3804 9.53974 13.3209V13.3878C9.53974 13.3878 9.5173 13.3135 9.5173 13.2838C9.50982 13.3432 9.59959 13.5885 9.65195 13.7297C9.66691 13.752 9.69683 13.7892 9.68935 13.7669L9.66691 13.7297C9.66691 13.6851 9.72675 13.7966 9.70431 13.7446C9.74171 13.7966 9.77912 13.8486 9.81652 13.923V13.9453C9.81652 13.9453 9.7866 13.8932 9.77164 13.8709C9.79408 13.9007 9.81652 13.9973 9.8614 14.0196L9.84644 13.9601C9.89132 14.0047 9.94369 14.0567 9.98109 14.1236C9.98109 14.0865 9.96613 14.1088 9.95865 14.0567C9.95865 14.1162 9.8614 13.8932 9.86888 13.975C9.86888 13.9155 9.824 13.8932 9.81652 13.8115C9.81652 13.8115 9.81652 13.8412 9.79408 13.7817L9.77912 13.7743C9.77912 13.7892 9.77912 13.804 9.77912 13.8115C9.7492 13.7892 9.70431 13.7 9.68187 13.6703C9.66691 13.6331 9.69683 13.6777 9.69683 13.6628C9.68187 13.648 9.67439 13.6331 9.66691 13.6182C9.68187 13.6108 9.65943 13.5142 9.69683 13.5959L9.66691 13.5216C9.66691 13.477 9.63699 13.4176 9.62203 13.3804C9.62203 13.3432 9.58463 13.2912 9.59959 13.3209L9.56219 13.202C9.53974 13.0831 9.48738 12.9567 9.50982 12.8155C9.50982 12.7784 9.49486 12.7338 9.49486 12.6669L9.50982 12.652C9.50234 12.6 9.53226 12.4959 9.50982 12.4736C9.54722 12.4216 9.53974 12.2209 9.56219 12.1317H9.54722C9.55471 12.0797 9.56219 12.0277 9.58463 11.9236H9.56967C9.56967 11.8493 9.63699 11.7601 9.66691 11.6561C9.66691 11.6635 9.65943 11.6932 9.65195 11.7081C9.72675 11.5966 9.73423 11.448 9.81652 11.3513C9.824 11.3216 9.83896 11.3067 9.85392 11.2919L9.88384 11.2547C9.86888 11.2622 9.8614 11.277 9.8614 11.277C9.8614 11.2622 9.87636 11.2399 9.90628 11.1953H9.92872C9.92872 11.1953 9.92872 11.1953 9.92872 11.1878C9.95117 11.1655 9.92872 11.1581 9.91376 11.1655C9.91376 11.1507 9.92124 11.1432 9.92872 11.1209C9.96613 11.1209 9.97361 11.0466 10.0185 11.0317C10.0185 11.002 10.1157 10.8905 10.1083 10.8608C10.1083 10.8608 10.1232 10.8608 10.1083 10.8682C10.1382 10.8459 10.1606 10.8162 10.1831 10.7865H10.213C10.213 10.7865 10.2354 10.7344 10.2504 10.7122C10.2953 10.6899 10.3177 10.6824 10.2953 10.727C10.3626 10.6304 10.3626 10.6527 10.4224 10.5635V10.5784C10.4224 10.5784 10.4898 10.504 10.5197 10.504C10.5945 10.4669 10.8563 10.2736 11.0583 10.2142C11.0059 10.1919 11.1555 10.1919 11.148 10.1622C11.163 10.1622 11.1929 10.1622 11.163 10.1844C11.2602 10.1399 11.3126 10.1399 11.3799 10.1027C11.3949 10.1027 11.365 10.125 11.3799 10.125C11.3874 10.125 11.4098 10.1101 11.4248 10.1101C11.4398 10.1101 11.4098 10.125 11.3949 10.1324C11.4996 10.1027 11.4996 10.073 11.4996 10.0432C11.5594 10.0432 11.5819 10.0358 11.6193 10.0135C11.6417 10.0135 11.6717 10.0209 11.6043 10.0358C11.6417 10.0358 11.8362 10.0135 11.8362 9.99121C11.8512 9.99121 11.8886 9.99121 11.9035 9.99121C11.9858 9.99121 11.9933 9.99121 12.0831 9.98377H12.0606C12.0606 9.98377 12.128 9.97634 12.2028 9.97634C12.3598 10.0061 12.2701 9.96891 12.4197 10.0061V9.99121C12.4197 9.99121 12.5469 10.0358 12.6366 10.0358L12.6067 10.0209C12.6591 10.0209 12.7264 10.1027 12.7713 10.1176C12.7788 10.1176 12.7563 10.1176 12.7413 10.1176C12.861 10.1696 12.7638 10.1027 12.8536 10.1176C12.8685 10.1324 12.8236 10.1399 12.8835 10.1622C12.9059 10.1844 13.0705 10.1844 13.1453 10.2439C13.1303 10.229 13.1154 10.2067 13.1603 10.2216C13.2201 10.2513 13.3099 10.3331 13.3772 10.3331V10.348C13.4221 10.3703 13.5268 10.4223 13.5642 10.4297C13.5642 10.504 13.841 10.6007 13.8036 10.6453L13.9232 10.7493C13.9906 10.8236 14.0205 10.8459 14.0579 10.8608C14.0729 10.8831 14.0579 10.8682 14.0579 10.8682C14.1551 10.9872 14.1551 11.002 14.2524 11.0838V11.1061C14.2524 11.1061 14.3422 11.2993 14.4244 11.4182C14.4244 11.4182 14.4244 11.4182 14.4095 11.4108C14.5067 11.5446 14.5217 11.7824 14.5965 11.8196C14.6189 11.8493 14.6264 11.8865 14.6414 11.9162C14.6114 11.775 14.6713 11.9311 14.6713 11.8716C14.6862 11.9236 14.6862 12.0203 14.6713 11.9534V11.9385C14.6339 11.9236 14.7087 12.1094 14.6713 12.1094C14.7237 12.377 14.7087 12.652 14.6862 12.9047L14.7162 12.875L14.7012 12.9642C14.7012 12.9642 14.6788 12.9939 14.6862 12.927C14.6638 12.9567 14.6862 13.0311 14.6862 13.0385C14.6563 13.1574 14.6638 12.9865 14.6563 13.0236V13.0757V13.0682C14.6563 13.1128 14.6788 13.1203 14.6563 13.1946C14.6414 13.2392 14.6339 13.2169 14.6264 13.2317C14.6264 13.2317 14.6264 13.2317 14.6189 13.2615L14.589 13.373L14.6189 13.3358C14.6189 13.3878 14.589 13.4399 14.6264 13.3953C14.574 13.4622 14.4618 13.7892 14.4244 13.8189C14.4095 13.8932 14.3646 13.9453 14.3197 14.0196C14.3347 14.0047 14.3646 14.0047 14.3197 14.0642C14.2973 14.0196 14.2225 14.1682 14.1626 14.1905C14.215 14.1608 14.0355 14.3615 14.1177 14.3169C14.0729 14.3615 14.1028 14.3094 14.0579 14.3392C13.9756 14.4655 13.826 14.5696 13.6839 14.6811C13.6839 14.6811 13.7138 14.6811 13.6839 14.7108L13.5866 14.7405C13.5866 14.7405 13.5866 14.7926 13.5118 14.8074C13.5193 14.8074 13.5418 14.8074 13.5193 14.8223C13.2051 14.9932 12.8685 15.1865 12.4945 15.1865C12.5469 15.1865 12.5095 15.1939 12.4795 15.2013C12.502 15.2013 12.4795 15.2162 12.487 15.2236H12.3299C12.3299 15.2236 12.1654 15.2311 12.1504 15.2534H12.1953C12.128 15.2757 12.2925 15.298 12.285 15.3351C12.3598 15.3054 12.487 15.3574 12.5992 15.298C12.6291 15.298 12.5768 15.3128 12.5992 15.3203C12.6291 15.3054 12.6591 15.2905 12.7339 15.2757C12.9209 15.2311 13.0106 15.2162 13.2126 15.1344H13.1902C13.2351 15.1047 13.2425 15.1047 13.265 15.1047C13.3024 15.0601 13.1453 15.1642 13.1752 15.1122C13.25 15.1196 13.4744 14.9635 13.5268 14.9709C13.5866 14.9338 13.4969 14.9709 13.5642 14.9263H13.5866L13.5941 14.904C13.639 14.8817 13.6614 14.8743 13.6689 14.8817C13.6614 14.8817 13.6465 14.904 13.6315 14.9115C13.6914 14.8817 13.7736 14.8 13.7886 14.7926L13.7288 14.8297C13.8858 14.7108 14.0654 14.5399 14.1776 14.3838H14.1626C14.2449 14.2649 14.2449 14.302 14.3347 14.1682C14.3347 14.1682 14.3646 14.1013 14.387 14.0716C14.3721 14.1088 14.4394 14.0122 14.4244 14.0716C14.4918 13.9304 14.4544 13.9973 14.4768 13.8932L14.4992 13.8784C14.4992 13.8412 14.4992 13.8338 14.5292 13.7594C14.5142 13.8263 14.5666 13.7223 14.5516 13.7966C14.6563 13.6554 14.6189 13.5513 14.6862 13.4993C14.6788 13.4176 14.6189 13.6257 14.6264 13.5885C14.604 13.6182 14.6264 13.5216 14.6414 13.4696C14.6638 13.4176 14.7087 13.3953 14.7461 13.2615C14.7461 13.2615 14.7461 13.2838 14.7461 13.2912C14.7685 13.2466 14.7611 13.1946 14.7835 13.1351C14.7685 13.098 14.7985 13.0534 14.7685 13.0385L14.7536 13.1649C14.7536 13.0905 14.7311 13.0236 14.7685 12.9122C14.7685 12.9196 14.7685 12.9567 14.7685 12.979C14.7835 12.9493 14.7685 12.9122 14.7835 12.8824C14.8134 12.8973 14.7685 13.0311 14.7835 13.1128C14.7985 13.0757 14.7835 12.9716 14.8059 13.0088C14.776 12.9493 14.8284 12.875 14.8059 12.7784H14.8209C14.8209 12.7784 14.8134 12.7412 14.8209 12.7115L14.8433 12.7635C14.8284 12.6892 14.8733 12.6223 14.8508 12.548C14.8508 12.6966 14.8359 12.5851 14.8209 12.6446C14.791 12.4588 14.8658 12.5405 14.8433 12.3324C14.8433 12.3622 14.8433 12.4365 14.8284 12.3919C14.8284 12.3547 14.8284 12.3027 14.8284 12.273C14.8059 12.1392 14.8134 12.2953 14.7985 12.2432C14.8134 12.1912 14.7835 12.1763 14.7611 12.1169H14.776C14.7611 11.9608 14.7311 12.0797 14.7162 11.9385L14.7536 11.9905L14.7311 11.9236H14.7536C14.7162 11.8567 14.7237 11.8344 14.7012 11.7601C14.7012 11.7824 14.6713 11.7601 14.6414 11.6932C14.6414 11.6486 14.6638 11.7155 14.6264 11.6189C14.6414 11.6338 14.6638 11.6561 14.6638 11.7007C14.6638 11.7007 14.6788 11.7155 14.6862 11.723C14.6862 11.6709 14.6414 11.604 14.6339 11.5669C14.6339 11.5817 14.6414 11.5966 14.6414 11.604C14.6189 11.5594 14.5965 11.5223 14.5666 11.4851C14.5666 11.4628 14.574 11.4777 14.589 11.4851C14.574 11.4628 14.5591 11.448 14.5366 11.4108C14.5516 11.4108 14.5666 11.4108 14.5965 11.4554L14.5217 11.3365C14.5217 11.3365 14.5067 11.2622 14.5217 11.277C14.4918 11.2101 14.402 11.1284 14.3571 11.0392C14.3571 11.0392 14.3422 11.0317 14.3272 11.0169C14.2748 10.9426 14.2449 10.8534 14.1477 10.7865L14.1252 10.7196C14.0654 10.6601 14.1626 10.8013 14.0579 10.7047C13.9831 10.6378 14.0504 10.6601 14.028 10.6304C13.9831 10.6007 13.9008 10.5635 13.841 10.4817C13.8709 10.4966 13.8858 10.5189 13.9083 10.5338L13.9457 10.5486ZM13.0181 10.0135C13.0181 10.0135 13.0854 10.0209 13.0929 10.0358C13.063 10.0432 13.048 10.0358 13.0181 10.0135ZM11.4173 9.99121C11.4173 9.99121 11.4547 9.97634 11.4846 9.97634C11.4697 9.97634 11.4472 9.98377 11.4173 9.99121ZM9.65195 13.4622C9.64447 13.4176 9.65195 13.4324 9.65195 13.4622V13.4622ZM9.67439 13.5513C9.67439 13.5513 9.67439 13.5513 9.68187 13.5513C9.68187 13.5513 9.66691 13.529 9.65943 13.5067C9.65943 13.5142 9.65943 13.529 9.67439 13.5513ZM14.6339 13.2392V13.2243C14.6339 13.2615 14.6339 13.254 14.6339 13.2392Z" fill="#3D0102"/>
<path d="M11.5894 9.92383L11.5972 9.93165C11.605 9.93165 11.5972 9.93165 11.5894 9.92383Z" fill="#3D0102"/>
<path d="M9.39014 12.1468C9.39014 12.1468 9.39762 12.1169 9.4051 12.1094C9.4051 12.1094 9.39762 12.1094 9.39014 12.1468Z" fill="#3D0102"/>
<path d="M9.91387 13.9677L9.87646 13.9229C9.87646 13.9229 9.89143 13.9603 9.89891 13.9677C9.89891 13.9677 9.89891 13.9528 9.91387 13.9677Z" fill="#3D0102"/>
<path d="M10.1381 14.4363C10.1381 14.4363 10.1381 14.4363 10.1606 14.4513C10.1606 14.4513 10.1157 14.3989 10.1381 14.4363Z" fill="#3D0102"/>
<path d="M9.89136 14.042C9.89136 14.042 9.90632 14.0869 9.92876 14.1168C9.9512 14.1168 9.92128 14.0869 9.89136 14.0495V14.042Z" fill="#3D0102"/>
<path d="M9.93628 14.124C9.93628 14.124 9.95124 14.139 9.95872 14.1539C9.9662 14.1539 9.95124 14.139 9.93628 14.124Z" fill="#3D0102"/>
<path d="M9.72664 13.6558C9.72664 13.6558 9.74908 13.6558 9.74908 13.6707C9.77153 13.6857 9.67428 13.566 9.72664 13.6558Z" fill="#3D0102"/>
<path d="M9.86896 14.1019L9.87645 14.0794L9.854 14.0645L9.86896 14.1019Z" fill="#3D0102"/>
<path d="M9.71924 13.8045L9.74168 13.8644C9.74168 13.8644 9.74168 13.8644 9.75664 13.8793C9.74168 13.8419 9.72672 13.7971 9.71924 13.8045Z" fill="#3D0102"/>
<path d="M9.75659 13.8779C9.75659 13.8779 9.77903 13.9153 9.78651 13.9228C9.78651 13.9228 9.77155 13.9004 9.75659 13.8779Z" fill="#3D0102"/>
<path d="M9.81654 14.0198L9.80906 14.0048L9.78662 13.96L9.81654 14.0198Z" fill="#3D0102"/>
<path d="M9.49485 13.1285L9.47989 13.0537C9.47989 13.0537 9.47241 13.0687 9.47989 13.0911C9.47989 13.1061 9.49485 13.136 9.49485 13.121V13.1285Z" fill="#3D0102"/>
<path d="M9.49485 13.3587C9.49485 13.3587 9.49485 13.3362 9.49485 13.3213H9.47241L9.48737 13.3587H9.49485Z" fill="#3D0102"/>
<path d="M9.44254 13.1504C9.44254 13.1504 9.40514 13.0457 9.42758 13.1429C9.42758 13.1429 9.45002 13.2252 9.44254 13.1504Z" fill="#3D0102"/>
<path d="M9.47989 12.043L9.47241 12.0654H9.50981L9.47989 12.043Z" fill="#3D0102"/>
<path d="M9.77901 11.1059C9.72665 11.1807 9.78649 11.1358 9.73413 11.2031C9.73413 11.2256 9.77901 11.1508 9.77153 11.1732C9.79397 11.1209 9.80893 11.0984 9.77153 11.1059H9.77901Z" fill="#3D0102"/>
<path d="M9.77164 11.166C9.77164 11.166 9.77164 11.181 9.76416 11.1959C9.76416 11.1885 9.76416 11.1735 9.77164 11.166Z" fill="#3D0102"/>
<path d="M12.2552 15.2087L12.1953 15.2012L12.2327 15.2161L12.2552 15.2087Z" fill="#3D0102"/>
<path d="M12.1504 15.2383L12.1354 15.2158L12.1055 15.2383C12.1055 15.2383 12.1429 15.2383 12.1504 15.2383Z" fill="#3D0102"/>
<path d="M12.876 9.92383C12.876 9.92383 12.8984 9.93879 12.9209 9.94627L12.8835 9.92383H12.876Z" fill="#3D0102"/>
<path d="M13.5866 10.2585L13.5791 10.251L13.5866 10.2809V10.2585Z" fill="#3D0102"/>
<path d="M14.1253 10.6604C14.1253 10.6604 14.0804 10.623 14.0654 10.6006C14.1103 10.638 14.1103 10.6829 14.1253 10.6604Z" fill="#3D0102"/>
<path d="M21.6357 24.1208C21.6357 22.0769 22.5857 20.858 24.3959 20.858C26.064 20.858 26.8644 22.0249 26.8644 24.1208V31.7539H31.3751V22.5451C31.3751 18.6505 29.1534 16.7627 26.0491 16.7627C22.9447 16.7627 21.6357 19.1634 21.6357 19.1634V17.2012H17.2896V31.7465H21.6357V24.1134V24.1208Z" fill="#01193D"/>
<path d="M21.5457 24.2099C21.5457 24.0977 21.5308 24.1351 21.5308 24.1201C21.5308 24.3146 21.5532 24.2099 21.5457 24.2099Z" fill="#3D0102"/>
<path d="M21.5832 26.1045L21.5757 26.0674L21.5906 26.3498L21.5832 26.1045Z" fill="#3D0102"/>
<path d="M21.5831 27.8737C21.6055 27.7028 21.5831 27.2345 21.5831 26.9149V26.8629L21.5681 26.7217C21.5681 27.1082 21.5831 27.6061 21.5756 27.8737H21.5831Z" fill="#3D0102"/>
<path d="M21.5234 28.8177C21.5309 28.7582 21.5309 29.0184 21.5234 28.5947C21.5234 28.617 21.5234 28.6245 21.5234 28.6319C21.5234 28.6691 21.5234 28.7211 21.5234 28.8103V28.8177Z" fill="#3D0102"/>
<path d="M21.5233 28.6402C21.5159 28.7599 21.5233 28.4532 21.5233 28.6402V28.6402Z" fill="#3D0102"/>
<path d="M21.5307 29.5011V29.2559C21.5158 29.3079 21.5158 29.5234 21.5083 29.4417C21.5083 29.6944 21.5158 29.6423 21.5307 29.5011Z" fill="#3D0102"/>
<path d="M21.5383 29.3307V29.5982C21.5383 29.5982 21.5608 29.5611 21.5383 29.4719C21.5458 29.4942 21.5383 29.4422 21.5383 29.3232V29.3307Z" fill="#3D0102"/>
<path d="M21.5457 29.1823C21.5457 29.0411 21.5532 28.8702 21.5607 29.1154C21.5607 28.6472 21.5382 28.7141 21.5457 29.1823Z" fill="#3D0102"/>
<path d="M21.5159 31.0256C21.5159 31.0256 21.5308 30.9438 21.5383 30.9215V30.7432C21.5308 30.8398 21.5233 31.0107 21.5159 31.0256Z" fill="#3D0102"/>
<path d="M21.5383 30.9283V31.2033C21.5458 30.9581 21.5383 30.9135 21.5383 30.9283Z" fill="#3D0102"/>
<path d="M21.5758 29.777L21.5608 29.3311L21.5832 29.8588L21.5758 29.777Z" fill="#3D0102"/>
<path d="M21.3213 31.6344L21.4784 31.627L21.2017 31.6419L21.3213 31.6344Z" fill="#3D0102"/>
<path d="M20.6256 31.6426C20.7378 31.6351 20.4685 31.6276 20.5882 31.6201C20.4386 31.6201 20.2665 31.6351 20.0945 31.6426C20.2516 31.6426 20.4087 31.6426 20.6256 31.6426Z" fill="#3D0102"/>
<path d="M19.8552 31.6419C19.9225 31.6419 20.0048 31.6419 20.0946 31.627C20.0273 31.627 19.9525 31.627 19.8552 31.6419Z" fill="#3D0102"/>
<path d="M21.5459 31.6348C21.5459 31.6348 21.5459 31.6422 21.5384 31.6572H21.501C21.501 31.6572 21.5234 31.6572 21.5384 31.6647V31.6348H21.5459Z" fill="#3D0102"/>
<path d="M21.5681 30.4902C21.5756 30.6463 21.5831 30.9808 21.598 30.6612C21.5906 30.5497 21.5831 30.7281 21.5681 30.4902Z" fill="#3D0102"/>
<path d="M21.5683 31.5006V31.2108C21.5683 31.2108 21.5683 31.2702 21.5608 31.1885V31.5006H21.5683Z" fill="#3D0102"/>
<path d="M20.3564 31.6569C20.1844 31.6569 20.0796 31.6569 19.9375 31.6644C20.1095 31.6644 20.2816 31.6644 20.4387 31.6644C20.4611 31.6644 20.5359 31.6494 20.3564 31.6494V31.6569Z" fill="#3D0102"/>
<path d="M18.4114 31.6641L18.4338 31.6715L18.4413 31.6641H18.4114Z" fill="#3D0102"/>
<path d="M20.9024 31.6572C20.85 31.6572 20.7902 31.6572 20.7378 31.6647C20.8126 31.6647 20.8799 31.6647 20.9472 31.6647C20.9323 31.6647 20.9173 31.6647 20.9024 31.6647V31.6572Z" fill="#3D0102"/>
<path d="M17.9478 31.7691C17.9478 31.7691 18.2994 31.7392 18.5836 31.7542C18.8604 31.7467 18.6809 31.6943 18.434 31.6719C18.4265 31.6719 18.4265 31.6868 18.1423 31.6943C18.2395 31.7018 18.7781 31.7093 18.5387 31.7242C18.1572 31.7242 18.2246 31.7242 18.045 31.7093C18.2021 31.7242 17.5588 31.7317 17.6411 31.7616H17.9777C17.9777 31.7616 17.8655 31.7616 17.9553 31.7616L17.9478 31.7691Z" fill="#3D0102"/>
<path d="M18.9799 31.6719H19.0996C18.9949 31.6719 18.8976 31.6569 18.6882 31.6494C18.4937 31.6494 18.4488 31.6644 18.4338 31.6644H19.0173H18.9799V31.6719Z" fill="#3D0102"/>
<path d="M19.6307 31.6719C19.5409 31.6868 19.2567 31.6943 19.4287 31.7093C19.7728 31.7093 19.6681 31.6943 19.8776 31.6868C19.3165 31.6868 20.0346 31.6794 19.6307 31.6719C19.7504 31.6719 19.8401 31.6719 19.9299 31.6719H19.6382H19.6531C19.6756 31.6719 19.6831 31.6719 19.6531 31.6719H19.6382C19.6382 31.6719 19.6232 31.6719 19.6157 31.6719C19.4512 31.6719 19.5933 31.6719 19.6382 31.6719H19.0771C19.2043 31.6794 19.3464 31.6794 19.6083 31.6794L19.6307 31.6719Z" fill="#3D0102"/>
<path d="M21.6206 31.1811C21.6206 31.144 21.6131 31.1068 21.6206 30.973C21.6206 30.8615 21.6206 30.973 21.6355 30.973C21.6355 30.8913 21.6281 30.698 21.6206 30.9433V30.9805C21.6206 31.2034 21.5981 31.4933 21.5981 31.4561C21.6131 31.3892 21.6206 31.3298 21.6355 31.1811H21.6206Z" fill="#3D0102"/>
<path d="M20.9025 31.709H20.4387L20.6781 31.7314H20.6631C20.9249 31.7314 20.8726 31.7165 20.9025 31.709Z" fill="#3D0102"/>
<path d="M18.3591 31.6575L18.419 31.6426L18.1497 31.665L18.3591 31.6575Z" fill="#3D0102"/>
<path d="M17.7532 31.6644L17.7757 31.6494L17.6111 31.6569L17.7532 31.6644Z" fill="#3D0102"/>
<path d="M31.345 21.1104C31.3599 21.1552 31.3599 21.2001 31.3674 21.245C31.3674 21.1777 31.3525 21.1403 31.345 21.1104Z" fill="#3D0102"/>
<path d="M31.1058 20.1367L31.0908 20.1143C31.1058 20.1591 31.1133 20.1741 31.1058 20.1367Z" fill="#3D0102"/>
<path d="M17.3792 17.4319C17.3792 17.3346 17.3866 17.3271 17.3941 17.3122C17.4091 17.3122 17.424 17.3122 17.424 17.3196C17.454 17.3196 17.4689 17.3196 17.4614 17.3196C17.439 17.3196 17.4166 17.3122 17.4166 17.3047C17.4016 17.3047 17.3866 17.3047 17.3792 17.3047C17.3792 17.3496 17.3792 17.387 17.3792 17.4319Z" fill="#3D0102"/>
<path d="M24.4557 16.9932L24.3958 17.0081C24.3509 17.0306 24.3135 17.0455 24.2761 17.068C24.3285 17.0455 24.3883 17.0231 24.4557 16.9932Z" fill="#3D0102"/>
<path d="M24.5754 16.8961L24.8373 16.8438C24.7624 16.8587 24.6802 16.8737 24.5754 16.8961Z" fill="#3D0102"/>
<path d="M31.4722 26.4989L31.4871 26.656C31.4871 26.4091 31.4796 26.5138 31.4722 26.4989Z" fill="#3D0102"/>
<path d="M17.3716 26.0457C17.3716 25.8525 17.3716 25.7261 17.3791 25.6221C17.3716 25.8302 17.3567 25.9937 17.3716 26.0457Z" fill="#3D0102"/>
<path d="M31.1057 20.7607C31.1282 20.8429 31.1356 20.8729 31.1356 20.8729C31.1132 20.7906 31.1057 20.7457 31.1057 20.7607Z" fill="#3D0102"/>
<path d="M17.3792 25.124C17.3792 25.124 17.3792 25.1835 17.3792 25.2132C17.3792 25.347 17.3792 25.4659 17.3792 25.6146C17.3792 25.4659 17.3866 25.2875 17.3792 25.124Z" fill="#3D0102"/>
<path d="M26.3707 22.0696C26.3707 22.0696 26.3557 22.0472 26.3557 22.0322C26.3557 22.0322 26.3557 22.0472 26.3707 22.0696Z" fill="#3D0102"/>
<path d="M21.8301 22.47C21.845 22.418 21.8899 22.3288 21.9198 22.2471C21.9049 22.2842 21.8675 22.3511 21.8301 22.47Z" fill="#3D0102"/>
<path d="M17.3268 30.4088C17.3268 30.4088 17.3268 30.3639 17.3193 30.3564C17.3193 30.3639 17.3193 30.3864 17.3268 30.4088Z" fill="#3D0102"/>
<path d="M20.8726 17.127C20.6781 17.1494 20.5659 17.1419 20.4163 17.1419L20.5659 17.1868L20.8726 17.127Z" fill="#3D0102"/>
<path d="M31.4648 23.4739L31.4797 23.1543C31.5022 23.5408 31.4947 23.8232 31.5171 23.5185C31.4648 23.4739 31.5171 22.2699 31.4498 22.2178V22.0023C31.4498 22.0617 31.4498 22.0766 31.4573 22.1361C31.4648 21.7199 31.4049 21.8313 31.36 21.2962C31.3451 21.1104 31.3152 20.984 31.3526 21.103L31.2553 20.6942C31.2329 20.5753 31.2478 20.605 31.2703 20.7239C31.2329 20.5158 31.1581 20.3151 31.0982 20.107C31.0683 20.0253 30.986 19.8394 30.9411 19.7428C30.8888 19.5942 30.9785 19.8172 30.9636 19.7726L30.8214 19.453C30.7766 19.3192 30.9037 19.5793 30.9935 19.8097C30.9112 19.4901 30.8962 19.5347 30.5596 18.903C30.627 18.9922 30.6718 19.0962 30.7317 19.1928C30.6569 18.9847 30.5073 18.7692 30.2903 18.4496C30.3427 18.5239 30.6943 19.1036 30.4624 18.7915C30.3951 18.7023 30.3352 18.5685 30.1856 18.4273C30.1931 18.4199 30.0659 18.2563 29.8864 18.078H29.9163C29.7069 17.8922 29.7143 17.9144 29.5872 17.8178C29.3403 17.632 29.2954 17.58 29.2506 17.528C28.8391 17.253 29.5273 17.7286 29.0262 17.4239C28.6746 17.2158 28.4053 17.0894 27.934 16.9631C27.6647 16.8739 27.9864 16.9631 27.8891 16.9259C27.8069 16.9111 27.7246 16.8813 27.6423 16.8739C27.5824 16.859 27.6049 16.859 27.6124 16.859C27.4029 16.8219 27.5899 16.8739 27.2608 16.8144C27.171 16.8144 26.5875 16.6807 26.1686 16.703C26.0639 16.6955 26.221 16.6881 26.1836 16.6807C25.6151 16.7178 25.6899 16.6807 25.2336 16.7773C25.099 16.7922 24.9718 16.7996 24.8371 16.8293C25.1214 16.7773 24.7623 16.8813 24.4556 16.9854C24.5604 16.9631 24.6501 16.9482 24.7025 16.9408C24.5379 16.978 24.3734 17.0374 24.2163 17.1043C24.1564 17.1192 24.2013 17.1043 24.2761 17.0597C24.2462 17.0746 24.2163 17.082 24.1863 17.0969C24.0068 17.1489 24.0966 17.1043 24.2163 17.0523C24.2761 17.0374 24.336 17.0226 24.3958 17.0077C24.508 16.9482 24.6277 16.9185 24.5978 16.9036C24.5454 16.9185 24.493 16.9334 24.4332 16.9557C24.4631 16.9408 24.4856 16.9334 24.4706 16.9334C24.4556 16.9334 24.4033 16.9631 24.321 16.9928L24.2013 17.0077L24.1789 17.03C23.9619 17.0969 23.7525 17.1935 23.543 17.2901C23.1241 17.5428 22.78 17.803 22.2489 18.353C22.3686 18.2043 22.2489 18.3009 22.2489 18.2786C22.406 18.1374 22.6753 17.855 23.0044 17.632C22.8249 17.7435 22.8623 17.7212 22.8997 17.6766C22.7127 17.8253 22.5332 17.9813 22.3611 18.1523C22.3611 18.13 22.2414 18.2489 22.1068 18.3827C22.234 18.2861 21.7403 18.8361 21.6954 18.9624C21.7103 18.9253 21.7029 18.8955 21.8525 18.7097C21.7403 18.8286 21.7477 18.8509 21.6804 18.9699C21.6505 19.0219 21.658 18.8807 21.658 18.7692C21.658 18.8286 21.658 18.8584 21.658 18.8732C21.6505 18.8063 21.658 18.2563 21.6655 18.3901V18.4719C21.6655 18.1226 21.6655 17.5874 21.6655 17.1563C21.5084 17.1563 21.3737 17.1563 21.2391 17.1638C21.1418 17.1638 21.082 17.1712 21.0595 17.1786C21.0595 17.1786 21.1343 17.1415 21.1718 17.134L20.1544 17.2381C20.2442 17.2084 19.9001 17.1489 20.3714 17.134C20.2367 17.134 20.0647 17.1266 19.7804 17.134C19.8702 17.134 20.0123 17.1712 19.8851 17.1712C19.541 17.1415 19.6458 17.1563 19.2119 17.134C19.354 17.134 19.1969 17.1786 18.98 17.1786C19.0174 17.1786 18.965 17.1415 19.0398 17.134L18.4938 17.1712C18.6284 17.1712 18.5162 17.134 18.3965 17.1266C18.4564 17.134 17.9253 17.1266 17.7757 17.1266H18.0075C17.5961 17.1266 17.4989 17.1563 17.2371 17.1712C17.2445 17.3199 17.252 17.4462 17.252 17.6692C17.2445 17.5949 17.1997 17.4908 17.1922 17.7955C17.2146 17.9367 17.2894 18.4199 17.3044 18.9624L17.2894 19.0665L17.3044 19.4827C17.2745 19.2226 17.2071 18.5016 17.1847 18.1077C17.1772 18.3381 17.1697 18.1746 17.1697 18.5165C17.1623 18.6354 17.1548 18.3307 17.1548 18.2266V19.0293C17.1548 19.0293 17.1697 19.6388 17.1922 19.609L17.1697 18.7394C17.1697 18.7394 17.2371 19.2449 17.2371 19.8097C17.2296 19.9509 17.1922 19.6982 17.1847 19.7131C17.1922 19.7874 17.1997 20.2482 17.1922 20.3003L17.1772 20.0624C17.1697 20.3746 17.2071 20.5753 17.1847 20.9543C17.1847 21.0881 17.1548 21.3482 17.1697 21.3705C17.1997 21.155 17.282 21.1178 17.3044 21.259C17.3044 21.3036 17.2745 21.8685 17.267 22.0989C17.2445 22.3144 17.2146 21.7719 17.1997 21.9577C17.1997 21.9651 17.2146 22.084 17.2146 22.1361C17.2146 22.2699 17.1922 22.0766 17.1997 22.3813C17.2221 22.4334 17.1997 22.9908 17.2221 22.5226C17.2221 22.8124 17.2221 22.8347 17.2221 23.1766C17.2371 23.0651 17.2745 23.4813 17.282 23.7786C17.282 23.7638 17.267 23.8307 17.267 23.8604C17.267 24.4476 17.2595 24.7894 17.252 25.3394C17.252 25.3915 17.2371 25.659 17.2296 25.5476C17.2296 25.6293 17.2445 25.7036 17.2445 25.8746C17.2221 26.209 17.2445 25.4881 17.2146 25.7482C17.2296 25.7705 17.2371 26.1942 17.2445 26.4394C17.267 26.3651 17.2445 25.8746 17.2445 25.6293C17.2745 25.6293 17.3044 26.053 17.3194 26.6401C17.3268 27.1009 17.2969 26.8408 17.3044 26.9226C17.3044 27.7921 17.3568 27.6658 17.3343 28.3867C17.3119 28.6766 17.2969 28.4016 17.282 28.4611C17.282 28.082 17.2969 27.8813 17.2969 27.6286V27.9408C17.282 27.8219 17.2745 27.5692 17.282 27.428C17.267 27.6658 17.282 28.8996 17.2595 29.5685C17.2595 29.6874 17.2745 29.8955 17.282 29.7989V29.5834C17.2969 29.3901 17.3044 29.9847 17.3044 29.7171C17.3119 29.9996 17.3343 30.3192 17.3268 30.7205L17.3044 30.7949C17.3044 30.7949 17.3194 30.5347 17.3044 30.4158C17.3119 30.5867 17.2745 31.0327 17.3044 31.2185L17.3194 30.9361C17.3268 31.159 17.3418 31.4638 17.3493 31.6793C17.3792 31.6793 17.4091 31.6793 17.4465 31.6793C17.3568 31.6644 17.3942 31.6719 17.3568 31.6719C17.3568 31.6644 17.3568 31.6421 17.3717 31.605C17.3418 31.828 17.3717 30.6908 17.3418 31.0476C17.3717 30.7874 17.3568 30.6016 17.3792 30.2597C17.3792 30.2672 17.3642 30.3786 17.3717 30.0813C17.3717 30.059 17.3717 30.0293 17.3717 30.0144C17.3717 30.007 17.3717 29.9996 17.3717 29.9922V30.007C17.3717 30.0813 17.3717 30.1334 17.3642 30.1557C17.3493 30.007 17.3493 29.5313 17.3418 29.3678C17.3418 29.1894 17.3493 29.4421 17.3568 29.3455L17.3418 29.1077C17.3418 29.1077 17.3717 28.6394 17.3792 29.0557V28.6766C17.3867 28.4536 17.3942 28.1489 17.3792 27.9631C17.3792 27.7847 17.3642 27.5171 17.3792 27.6732V27.0861C17.3792 26.5063 17.3493 25.8894 17.3792 25.2205C17.3792 25.0124 17.3792 24.8266 17.3792 24.4922L17.3942 24.4253C17.3942 24.1726 17.4091 23.6672 17.3942 23.5631C17.4316 23.2955 17.4016 22.3442 17.4091 21.8982L17.3942 21.8834C17.3942 21.5861 17.3942 21.3036 17.3792 20.9097L17.3642 20.932C17.3493 20.605 17.3792 20.0922 17.3717 19.5793C17.3717 19.6165 17.3717 19.7428 17.3717 19.8394C17.4091 19.2226 17.3418 18.5388 17.3717 17.9813C17.3717 17.8401 17.3717 17.7435 17.3717 17.6469C17.3717 17.6617 17.3717 17.6692 17.3717 17.684C17.3717 17.6692 17.3717 17.6469 17.3717 17.6246C17.3717 17.5651 17.3717 17.4982 17.3792 17.4313C17.3792 17.4982 17.3792 17.5577 17.3717 17.5949C17.3717 17.5205 17.3717 17.409 17.3717 17.2901H17.3942C17.3942 17.2901 17.4166 17.2976 17.4316 17.305H17.454C17.6111 17.305 17.5812 17.2976 17.4989 17.2827C17.5662 17.2827 17.641 17.2827 17.7083 17.2753C17.8355 17.305 18.1272 17.2678 18.3068 17.2976C18.4115 17.2827 19.1146 17.2901 19.1969 17.253C19.1969 17.253 19.2493 17.253 19.1595 17.253C19.3391 17.253 19.5186 17.253 19.6757 17.253L19.7505 17.2753L20.1395 17.2455C20.3788 17.2604 20.4761 17.2678 20.2367 17.2827C20.8501 17.2604 20.6182 17.2678 21.1792 17.2455L21.1568 17.2604C21.269 17.2604 21.4859 17.253 21.5907 17.2455C21.5907 17.2604 21.5907 17.2753 21.5907 17.2976C21.5832 17.3942 21.5757 17.6989 21.5757 18.0334C21.5757 18.2043 21.5757 18.3976 21.5757 18.5908C21.5757 18.7543 21.5682 19.178 21.5832 19.3712C21.7178 19.1334 21.8973 18.8658 21.9946 18.7543C22.0918 18.628 22.204 18.5165 22.3013 18.4124C22.1367 18.5165 22.6379 18.1003 22.6454 18.0631C22.6903 18.0334 22.8025 17.9516 22.6903 18.0631C23.0718 17.7361 23.2962 17.6246 23.5804 17.4388C23.6328 17.4165 23.4982 17.5057 23.543 17.4834C23.5804 17.4611 23.6777 17.3942 23.73 17.3793C23.7749 17.3644 23.6702 17.4165 23.6029 17.4611C24.0517 17.2307 24.0966 17.1935 24.119 17.1563C24.3734 17.082 24.4856 17.03 24.6651 16.978C24.7549 16.9631 24.9045 16.9408 24.5978 17.0151C24.6875 17.0003 24.9493 16.9185 25.2037 16.8962C25.4505 16.8516 25.6899 16.8442 25.6974 16.8293C25.7572 16.8293 25.9517 16.8219 25.9966 16.8144C26.4005 16.8293 26.4379 16.8144 26.8269 16.859L26.7147 16.8442C26.8718 16.8442 27.0439 16.859 27.358 16.9334H27.3505C27.7096 17.0151 27.7844 17.0449 27.8592 17.0672C27.934 17.0969 28.0163 17.0894 28.338 17.2455L28.308 17.2158C28.3903 17.2009 28.8915 17.4834 29.2356 17.7212L29.1159 17.6246C29.2132 17.684 29.3328 17.7881 29.4525 17.8922C29.5647 18.0036 29.6695 18.13 29.7518 18.2043C29.7892 18.2415 29.6919 18.1523 29.6395 18.1077C30.051 18.5313 29.7143 18.1374 30.021 18.457C30.0659 18.5239 29.9313 18.3976 30.1258 18.6205C30.1856 18.7023 30.2903 18.8509 30.4399 19.0516C30.5596 19.2672 30.7167 19.505 30.7691 19.7057C30.7466 19.6165 30.7167 19.5347 30.8065 19.7205C30.9411 20.0104 31.0608 20.5381 31.1356 20.8131C31.1356 20.8503 31.1356 20.8726 31.1356 20.8726C31.2104 21.103 31.2628 21.6455 31.3002 21.7942C31.2703 22.0171 31.3675 23.3104 31.3002 23.303V24.0536V24.0313C31.3002 24.5144 31.3077 24.678 31.3226 24.8489C31.3226 24.9604 31.3151 24.8786 31.3077 24.8712C31.3002 25.5699 31.3002 25.6442 31.3226 26.2313L31.3077 26.2908C31.3151 26.4469 31.2777 27.309 31.3077 27.9928C31.3077 27.9928 31.3077 27.9705 31.3002 27.9185C31.3226 28.6915 31.2478 29.7692 31.3152 30.059L31.3301 30.5719C31.3301 29.9104 31.36 30.6685 31.3675 30.4009C31.3675 30.6611 31.3451 31.0699 31.3451 30.7503V30.6982C31.3152 30.5793 31.3376 31.5232 31.3152 31.5009V31.6942C30.1183 31.6942 28.9364 31.6793 27.8069 31.6793L27.949 31.709H27.5226C27.4104 31.7016 27.373 31.6867 27.6797 31.6867C27.5226 31.6719 27.171 31.7016 27.1561 31.7016C26.9915 31.7016 26.9616 31.7016 26.969 31.6942C26.969 31.6942 26.9765 31.6942 27.0289 31.6867C27.1411 31.6867 27.2982 31.6719 27.2084 31.6719H26.984H27.0139C26.984 31.6719 26.9541 31.6719 26.9316 31.6793C26.9316 31.657 26.9316 31.6421 26.9242 31.5901C26.9242 31.5158 26.9242 31.434 26.9242 31.3151C26.9242 31.0847 26.9391 31.1962 26.9391 31.107C26.9391 31.107 26.9391 31.0773 26.9391 30.9658V30.4307L26.9242 30.6462C26.9167 30.4084 26.9242 30.1408 26.9017 30.3861C26.9391 30.0219 26.9167 28.3867 26.9242 28.1638C26.9092 27.8293 26.9092 27.5023 26.9092 27.0935C26.9092 27.1976 26.8793 27.257 26.8868 26.9077C26.9316 27.034 26.9092 26.2685 26.9391 25.9786C26.9167 26.2313 26.9391 24.9827 26.9017 25.3766C26.9017 25.0867 26.9167 25.3617 26.9316 25.1388C26.8942 24.4476 27.0065 23.5928 26.7895 22.7381C26.782 22.7232 26.8045 22.8719 26.7521 22.6935C26.7222 22.5449 26.6923 22.3888 26.6399 22.2476C26.5726 22.084 26.5501 22.1138 26.4155 21.8239C26.4379 21.8611 26.4679 21.928 26.4005 21.8239C26.1836 21.4523 25.847 21.1327 25.4281 20.9766C25.0167 20.8057 24.5604 20.7685 24.1265 20.8057C23.2363 20.8354 22.3686 21.3557 21.9572 22.1435C22.0918 21.9428 22.0021 22.0766 21.9273 22.2401C21.9796 22.1361 21.9422 22.2476 21.9572 22.2327C21.845 22.4482 21.7552 22.6786 21.6954 22.9165C21.6655 23.0503 21.5757 23.6894 21.5981 23.7638L21.6131 23.5334C21.6056 23.8381 21.7178 23.1171 21.7552 23.1692C21.7851 22.8347 21.9871 22.3144 22.2788 21.8536C22.3537 21.7644 22.2265 21.9428 22.2788 21.8982C22.3462 21.7793 22.4434 21.6381 22.6828 21.4449L22.6603 21.4672C22.9895 21.1922 23.2962 21.0807 23.6029 20.9989C23.9171 20.932 24.2611 20.8874 24.7474 20.9394C24.7249 20.932 24.7025 20.9172 24.6801 20.9172C24.8895 20.9469 24.9344 20.9543 25.0241 20.984C25.271 20.9915 24.4482 20.8874 24.6651 20.9023C24.7997 20.932 25.1738 20.9692 25.4954 21.1401C25.8171 21.2962 26.0639 21.5489 26.1013 21.6381C26.3033 21.8834 26.0639 21.5489 26.2509 21.8016L26.2883 21.8759L26.3407 21.9354C26.4379 22.1212 26.4679 22.2253 26.4604 22.2327C26.4454 22.1807 26.3931 22.1063 26.3706 22.0543C26.4903 22.2922 26.6474 22.7678 26.6549 22.8644C26.6399 22.7604 26.61 22.6638 26.5875 22.5672C26.8643 23.407 26.7671 24.5219 26.8045 25.384V25.3171C26.8269 25.9786 26.8045 25.8449 26.8045 26.5732V26.5435C26.8045 26.6922 26.812 26.8854 26.812 27.0786C26.8045 26.8928 26.797 27.4205 26.782 27.1827C26.797 27.8962 26.797 27.5394 26.8269 28.0077L26.812 28.1192C26.8269 28.2827 26.8269 28.2976 26.8344 28.6543C26.8194 28.357 26.812 28.8847 26.797 28.5503C26.7671 29.3084 26.8269 29.68 26.782 30.0293C26.8194 30.3786 26.8045 29.3678 26.812 29.5685C26.8269 29.405 26.8419 29.8584 26.8344 30.0962C26.8344 30.3415 26.7895 30.5124 26.7895 31.1219C26.7895 31.0699 26.7895 31.055 26.7895 30.9955C26.7895 31.107 26.7895 31.2185 26.7895 31.3374C26.7895 31.4712 26.7895 31.5381 26.7895 31.7908V31.8057C27.0813 31.7834 27.2009 31.8057 27.2683 31.7834H26.812V31.5753C26.812 31.6347 26.812 31.709 26.812 31.7834C26.9616 31.7834 27.1336 31.7685 27.2907 31.7611C27.4478 31.7611 27.6273 31.7611 27.8443 31.7611C27.762 31.7611 27.6273 31.7759 27.5376 31.7759C27.747 31.7759 27.7769 31.7759 27.9939 31.7759C27.9415 31.8057 27.3281 31.7759 26.9466 31.8057C27.1486 31.8205 27.6049 31.7834 27.4403 31.8131C27.6872 31.7759 28.0462 31.8131 28.4651 31.7908L28.4352 31.8057C28.5025 31.8057 28.6596 31.8057 28.7569 31.7982L28.5399 31.8205C28.8765 31.7982 29.1907 31.8354 29.5124 31.8205C28.8317 31.8205 29.3628 31.7982 29.071 31.7908C29.9088 31.7685 29.5498 31.8354 30.4848 31.828C30.3577 31.828 30.0061 31.8205 30.2081 31.8131C30.3876 31.8131 30.6195 31.8205 30.7317 31.8354C31.3526 31.8354 30.6344 31.8205 30.9037 31.8057C31.1057 31.8205 31.1281 31.8057 31.4274 31.7982C31.4274 31.7388 31.4274 31.6867 31.4274 31.6347H31.4423C31.4498 30.9063 31.4049 31.4415 31.4199 30.8023L31.4423 31.0699V30.7428L31.4573 30.8097C31.4423 30.453 31.4498 30.3415 31.4573 29.9922C31.4423 30.0739 31.4274 29.9476 31.4274 29.6354C31.4348 29.4199 31.4423 29.7543 31.4423 29.3158C31.4498 29.4124 31.4648 29.5239 31.4498 29.7171L31.4648 29.8361C31.4797 29.6057 31.4648 29.2638 31.4648 29.1003C31.4648 29.1523 31.4648 29.2192 31.4648 29.2712L31.4423 28.632C31.4423 28.528 31.4573 28.6097 31.4573 28.6915C31.4573 28.5726 31.4573 28.4462 31.4423 28.2827C31.4573 28.3347 31.4722 28.3199 31.4797 28.5874L31.4648 27.978C31.4648 27.9408 31.4797 27.6658 31.4872 27.7476C31.4947 27.4131 31.4573 26.9226 31.4722 26.4692C31.4722 26.4246 31.4722 26.38 31.4722 26.3057C31.4722 25.882 31.4947 25.5104 31.4722 25.0124L31.4947 24.73C31.4947 24.3361 31.4648 25.109 31.4498 24.4624C31.4423 24.0016 31.4722 24.2915 31.4797 24.128C31.4648 23.8976 31.4423 23.5036 31.4648 23.08C31.4648 23.2435 31.4648 23.3253 31.4648 23.459V23.4739ZM30.4624 18.7989C30.5222 18.8732 30.6344 19.0293 30.6494 19.0962C30.5821 19.007 30.5522 18.9327 30.4624 18.7989ZM23.7824 17.2232C23.8422 17.1935 23.947 17.1415 24.0592 17.1043C23.9769 17.1415 23.9096 17.1712 23.7824 17.2232ZM17.3717 28.3942C17.3717 28.3942 17.3717 28.3942 17.3717 28.3867C17.3717 28.1786 17.3717 28.253 17.3717 28.3942ZM17.3642 28.8253C17.3642 28.8699 17.3642 28.8624 17.3642 28.8476C17.3642 28.8178 17.3642 28.7212 17.3642 28.6097C17.3642 28.6394 17.3568 28.6989 17.3642 28.8253ZM26.9316 31.0624V31.1442C26.9242 30.9509 26.9316 31.0104 26.9316 31.0624Z" fill="#3D0102"/>
<path d="M24.5603 16.9038C24.5603 16.9038 24.5977 16.9038 24.6052 16.9038C24.6426 16.8888 24.6426 16.8888 24.5603 16.9038Z" fill="#3D0102"/>
<path d="M17.2146 22.1301C17.2146 22.0627 17.2146 22.0104 17.2221 21.958C17.2221 21.958 17.2146 21.9954 17.2146 22.1301Z" fill="#3D0102"/>
<path d="M17.3942 31.1148V30.8398C17.3942 30.9588 17.3867 31.0108 17.3867 31.0925C17.3867 31.0925 17.3942 31.0331 17.3942 31.1223V31.1148Z" fill="#3D0102"/>
<path d="M19.0624 31.7533C19.1147 31.7533 19.1372 31.7533 19.1895 31.7533H19.182C19.01 31.7458 18.8903 31.7533 19.0698 31.7533H19.0624Z" fill="#3D0102"/>
<path d="M17.3344 31.3668C17.3344 31.3668 17.3269 31.5972 17.3344 31.7087V31.6864C17.3344 31.6864 17.3493 31.6715 17.3493 31.6269C17.3493 31.5675 17.3493 31.4709 17.3493 31.3594L17.3344 31.3668Z" fill="#3D0102"/>
<path d="M17.3643 31.7094C17.4166 31.7094 17.469 31.7094 17.5213 31.7094C17.5513 31.7019 17.4316 31.7094 17.3643 31.7094Z" fill="#3D0102"/>
<path d="M17.3716 29.3679C17.3716 29.4571 17.3866 29.4273 17.3866 29.4794C17.4015 29.5834 17.3641 28.8699 17.3716 29.3679Z" fill="#3D0102"/>
<path d="M17.2896 31.5243L17.3045 31.4569L17.2896 31.3447V31.5243Z" fill="#3D0102"/>
<path d="M17.282 31.0997L17.2895 31.0105V30.7949L17.282 31.0997Z" fill="#3D0102"/>
<path d="M17.3045 26.6626V26.3281C17.3045 26.3281 17.2896 26.3876 17.2896 26.5139C17.2896 26.5957 17.2896 26.722 17.3045 26.67V26.6626Z" fill="#3D0102"/>
<path d="M17.2521 27.6887C17.2521 27.5989 17.2596 27.5914 17.2671 27.5391H17.2446L17.2521 27.6887Z" fill="#3D0102"/>
<path d="M17.252 26.6997C17.252 26.6997 17.2371 26.2091 17.2371 26.6402C17.2371 26.6774 17.252 27.0118 17.252 26.6997Z" fill="#3D0102"/>
<path d="M17.282 21.6084V21.6982L17.3119 21.6832L17.282 21.6084Z" fill="#3D0102"/>
<path d="M17.3417 17.1113C17.2819 17.1113 17.2295 17.1113 17.1921 17.1113C17.1921 17.3417 17.1921 17.3566 17.1996 17.3715C17.1996 17.3863 17.2071 17.4161 17.1996 17.5796C17.2071 17.6762 17.2071 17.2823 17.2146 17.3789C17.2146 17.2748 17.2146 17.2005 17.2146 17.1336C17.4016 17.1336 17.4764 17.1336 17.3417 17.1113Z" fill="#3D0102"/>
<path d="M21.5907 23.3994L21.5608 23.6595L21.5832 23.4886L21.5907 23.3994Z" fill="#3D0102"/>
<path d="M21.5832 23.8975L21.5608 23.9569L21.5758 24.113C21.5758 24.0535 21.5758 23.9421 21.5832 23.8975Z" fill="#3D0102"/>
<path d="M30.0435 18.1966L30.0286 18.1816C30.0286 18.1816 30.0884 18.2639 30.1707 18.3612L30.0435 18.1966Z" fill="#3D0102"/>
<path d="M31.4124 21.43L31.4049 21.3701L31.3975 21.4898L31.4124 21.43Z" fill="#3D0102"/>
<path d="M31.5097 24.3732C31.5097 24.2543 31.5097 24.1131 31.5097 23.9941C31.5097 24.2543 31.4873 24.4104 31.5097 24.3732Z" fill="#3D0102"/>
</g>
<defs>
<clipPath id="clip0_1_61882">
<rect x="9.39014" y="9.85742" width="22.1195" height="22" fill="white"/>
</clipPath>
</defs>
</svg>
