<svg width="205" height="111" viewBox="0 0 205 111" fill="none" xmlns="http://www.w3.org/2000/svg">
<path d="M16.8634 58.8796L22.556 75.4604L24.7582 79.7703C25.0003 80.2223 25.0649 80.6516 24.9487 81.0616C24.8324 81.4716 24.5354 81.7137 24.0575 81.7912L16.3274 83.0503C15.9044 83.1181 15.6041 82.8598 15.4298 82.2755L11.9167 67.6736L9.79206 69.7398L9.25929 76.4612L9.21086 82.8598C9.21732 83.4732 9.17211 83.8606 9.07847 84.0188C8.98161 84.1802 8.72329 84.2932 8.3003 84.361L2.46885 85.3102C1.90379 85.4005 1.65839 85.0325 1.72297 84.2028L2.48499 75.6606L4.16404 55.5414L4.40298 44.6296C4.41912 44.0549 4.4611 43.7192 4.52568 43.6255L4.57734 43.4932L11.3549 42.1437C11.6681 42.0533 11.8876 42.0985 12.0103 42.2825C12.133 42.4666 12.1653 42.7894 12.1007 43.251L11.2322 51.5641L10.6542 58.8473L10.7026 58.7795L18.8977 41.653C19.1366 41.0816 19.495 40.7555 19.9761 40.678L26.9054 39.5481C27.2703 39.49 27.4898 39.6062 27.5641 39.9C27.6384 40.1938 27.5318 40.5715 27.2444 41.0267L22.2331 49.033L16.8667 58.8796H16.8634Z" fill="white" fill-opacity="0.5"/>
<path d="M44.0376 63.2344L47.9608 72.6709L49.8239 75.9929C50.3857 76.9679 50.1887 77.5296 49.2297 77.6878L41.6256 78.9275C41.2026 78.9953 40.9023 78.7596 40.7247 78.214L37.1148 65.9011L35.8039 65.6234L35.2808 72.2222L35.2323 78.6208C35.2388 79.2342 35.1936 79.6216 35.1 79.7798C35.0031 79.9412 34.7448 80.0542 34.3218 80.122L28.4903 81.0711C27.9253 81.1648 27.6799 80.7935 27.7445 79.9638L28.5065 71.4215L30.1855 51.3024L30.4245 40.3873C30.4438 39.7707 30.4858 39.4155 30.5504 39.3219L30.5988 39.2541L33.4823 38.6601C36.0073 37.3074 38.6647 36.4035 41.4545 35.9483C44.8061 35.4027 47.2052 36.2614 48.6518 38.5245C50.0983 40.7876 50.6085 44.6164 50.1823 50.011C49.9853 52.5001 49.3331 54.9408 48.2255 57.333C47.118 59.7252 45.7264 61.6945 44.0473 63.2377L44.0376 63.2344ZM39.9659 46.2048C39.0941 46.3468 38.1997 46.5761 37.2859 46.8892L37.2504 47.325L36.4464 57.4718L38.8487 57.6945C41.5158 57.0134 42.9915 54.8697 43.2788 51.2572C43.5597 47.7318 42.4555 46.0466 39.9692 46.2048H39.9659Z" fill="white" fill-opacity="0.5"/>
<path d="M76.689 73.21L70.3959 74.2366C69.8889 74.3206 69.6048 74.0397 69.5467 73.3908L68.7427 67.7476L59.3207 69.2843L57.548 75.3472C57.3833 76.0284 57.0475 76.4126 56.5406 76.4933L51.2612 77.3552C50.5864 77.465 50.383 77.0292 50.6574 76.0413L52.7078 69.6233L61.865 40.3614L63.444 34.6343C63.641 33.9079 63.9768 33.5044 64.4579 33.4237L70.1182 32.5003C70.5961 32.4229 70.877 32.7263 70.9642 33.4075L71.6616 38.8247L76.279 65.7816L77.4801 71.6669C77.6868 72.5773 77.422 73.0906 76.6923 73.21H76.689ZM67.4123 57.7042L66.3339 46.576L65.8269 46.66L62.4269 58.5177L67.4123 57.7042Z" fill="white" fill-opacity="0.5"/>
<path d="M103.702 27.0285C104.163 27.1576 104.309 27.6257 104.131 28.4328L101.964 38.925C101.829 39.561 101.712 39.9193 101.609 39.9968C101.506 40.0743 101.264 40.042 100.886 39.9C98.7483 39.1413 96.7787 38.9121 94.9769 39.2059C92.8071 39.561 91.0602 40.6425 89.7364 42.4568C88.4093 44.2712 87.6182 46.8377 87.3534 50.1565C87.0919 53.4785 87.4955 55.9998 88.5675 57.7302C89.6395 59.4607 91.3444 60.1354 93.6821 59.7544C96.1878 59.3444 98.3221 58.0144 100.085 55.761C100.453 55.3316 100.679 55.112 100.763 55.0991C100.905 55.0765 101.005 55.3897 101.063 56.0321L102.31 64.4905C102.394 65.1749 102.252 65.7495 101.88 66.2176C99.3231 69.3782 96.0296 71.2894 92.0031 71.9448C87.7215 72.6421 84.5443 71.3378 82.4713 68.032C80.3983 64.7261 79.646 59.5026 80.211 52.3647C80.7955 44.9782 82.5294 39.0864 85.4064 34.6829C88.2834 30.2827 92.2453 27.6709 97.2856 26.8477C99.7622 26.4441 101.9 26.5055 103.692 27.0317L103.702 27.0285Z" fill="white" fill-opacity="0.5"/>
<path d="M120.234 42.0243L125.923 58.6052L128.125 62.9151C128.368 63.367 128.432 63.7964 128.316 64.2064C128.2 64.6164 127.903 64.8585 127.425 64.936L119.695 66.1951C119.272 66.2629 118.971 66.0046 118.797 65.4203L115.284 50.8184L113.159 52.8845L112.626 59.606L112.578 66.0046C112.585 66.618 112.539 67.0054 112.446 67.1636C112.349 67.325 112.09 67.438 111.667 67.5058L105.836 68.4549C105.271 68.5453 105.026 68.1773 105.09 67.3476L105.852 58.8053L107.531 38.6862L107.77 27.7711C107.786 27.1964 107.828 26.8607 107.893 26.767L107.945 26.6347L114.722 25.282C115.035 25.1916 115.255 25.2368 115.378 25.4208C115.5 25.6048 115.533 25.9277 115.468 26.3893L114.599 34.7024L114.021 41.9856L114.07 41.9178L122.265 24.7913C122.504 24.2199 122.862 23.8938 123.343 23.8163L130.273 22.6864C130.637 22.6283 130.857 22.7445 130.931 23.0383C131.006 23.3321 130.899 23.7098 130.612 24.165L125.597 32.1713L120.231 42.0178L120.234 42.0243Z" fill="white" fill-opacity="0.5"/>
<path d="M144.481 19.148C147.665 18.6282 149.89 19.4644 151.162 21.6532C152.434 23.842 152.854 27.6741 152.418 33.1526C152.286 35.5093 151.75 37.9016 150.807 40.3261C149.864 42.7538 148.601 44.8425 147.016 46.5955C145.431 48.3486 143.765 49.3687 142.021 49.6528C141.12 49.8013 140.142 49.8562 139.089 49.8239L138.65 55.3638L138.601 61.7624C138.608 62.3758 138.563 62.7632 138.469 62.9214C138.372 63.0796 138.114 63.1958 137.691 63.2636L131.859 64.2127C131.294 64.3031 131.049 63.9351 131.114 63.1054L131.876 54.5632L133.555 34.444L133.794 23.5321C133.787 22.9187 133.813 22.5668 133.878 22.4732L133.968 22.3957L136.851 21.8017C137.839 21.2723 139.147 20.7331 140.775 20.1778C142.176 19.6645 143.413 19.3159 144.485 19.1415L144.481 19.148ZM143.035 39.5383C145.092 39.2026 146.264 37.1913 146.558 33.4948C146.664 32.168 146.448 31.1155 145.912 30.344C145.376 29.5724 144.52 29.2399 143.342 29.3496C142.47 29.4917 141.575 29.7209 140.662 30.034L140.626 30.4699L139.89 39.745C140.804 39.8031 141.85 39.732 143.035 39.5383Z" fill="white" fill-opacity="0.5"/>
<path d="M196.893 11.8324L204.174 10.4604C204.736 10.37 204.985 10.738 204.92 11.5677L204.184 20.8428C204.116 21.7145 203.803 22.1535 203.244 22.1632L197.565 22.7831L197.526 24.3262L195.805 46.0499L195.966 52.413C195.973 53.0264 195.928 53.4138 195.834 53.572C195.737 53.7302 195.479 53.8464 195.056 53.9142L189.014 54.8989C188.449 54.9893 188.201 54.6212 188.268 53.7916L189.031 45.2493L190.484 27.4416L190.806 23.8872L185.12 25.1204C184.694 25.2302 184.455 25.2495 184.407 25.1753C184.358 25.101 184.355 24.7524 184.407 24.1325L185.143 14.8574C185.207 14.0277 185.524 13.5661 186.086 13.4757L193.341 12.4168L196.89 11.8389L196.893 11.8324Z" fill="white" fill-opacity="0.5"/>
<path d="M15.9951 59.2406L21.6877 75.8215L23.8898 80.1314C24.132 80.5834 24.1966 81.0127 24.0803 81.4227C23.9641 81.8295 23.6671 82.0749 23.1892 82.1524L15.4591 83.4114C15.0361 83.4792 14.7358 83.2209 14.5615 82.6366L11.0484 68.0347L8.92374 70.1009L8.39097 76.8223L8.34254 83.2209C8.349 83.8343 8.30379 84.2217 8.21015 84.3799C8.11328 84.5381 7.85497 84.6543 7.43198 84.7221L1.60053 85.6713C1.03547 85.7649 0.78684 85.3936 0.854648 84.5639L1.61667 76.0217L3.29572 55.9025L3.53466 44.9874C3.5508 44.4127 3.59278 44.077 3.65736 43.9834L3.70902 43.851L10.4865 42.4983C10.7998 42.4079 11.0193 42.4531 11.142 42.6371C11.2647 42.8211 11.297 43.144 11.2324 43.6056L10.3639 51.9187L9.78587 59.2019L9.8343 59.1341L18.0293 42.0076C18.2683 41.4362 18.6267 41.1101 19.1078 41.0326L26.0371 39.9027C26.4019 39.8414 26.6215 39.9608 26.6958 40.2546C26.7701 40.5484 26.6635 40.9261 26.3761 41.3813L21.3616 49.3876L15.9951 59.2309V59.2406Z" fill="white"/>
<path d="M43.1725 63.5956L47.0957 73.0321L48.9588 76.3541C49.5206 77.329 49.3237 77.8908 48.3647 78.049L40.7605 79.2886C40.3376 79.3564 40.0373 79.1208 39.8564 78.5752L36.2465 66.2622L34.9355 65.9846L34.4125 72.5833L34.364 78.982C34.3705 79.5953 34.3253 79.9827 34.2316 80.1409C34.1348 80.2991 33.8765 80.4121 33.4535 80.4831L27.622 81.4323C27.057 81.5227 26.8083 81.1546 26.8761 80.325L27.6382 71.7827L29.3172 51.6636L29.5562 40.7485C29.5755 40.1319 29.6175 39.7767 29.6821 39.6831L29.7305 39.6153L32.6139 39.0213C35.139 37.6686 37.7964 36.7614 40.5862 36.3095C43.9378 35.7639 46.3369 36.6226 47.7835 38.8825C49.23 41.1456 49.7402 44.9744 49.3107 50.369C49.1138 52.8581 48.4615 55.2987 47.354 57.6909C46.2465 60.0831 44.8548 62.0524 43.1758 63.5956H43.1725ZM39.1009 46.5627C38.2291 46.7048 37.3346 46.934 36.4209 47.2472L36.3853 47.683L35.5813 57.8297L37.9837 58.0525C40.6508 57.3713 42.1264 55.2277 42.4138 51.6151C42.6947 48.0898 41.5904 46.4046 39.1041 46.5627H39.1009Z" fill="white"/>
<path d="M75.8251 73.5682L69.5287 74.5949C69.0217 74.6788 68.7376 74.3979 68.6795 73.749L67.8755 68.1058L58.4535 69.6425L56.6808 75.7054C56.5161 76.3866 56.1803 76.7708 55.6734 76.8515L50.3941 77.7135C49.7192 77.8232 49.5158 77.3874 49.7902 76.3995L51.8406 69.9815L60.9979 40.7196L62.5768 34.9957C62.7738 34.2693 63.1096 33.8658 63.5907 33.7851L69.251 32.8618C69.7289 32.7843 70.0098 33.0877 70.097 33.7689L70.7944 39.1861L75.4118 66.143L76.6129 72.0283C76.8196 72.9387 76.5548 73.452 75.8251 73.5715V73.5682ZM66.5452 58.0624L65.4667 46.9342L64.9598 47.0181L61.5597 58.8759L66.5452 58.0624Z" fill="white"/>
<path d="M102.832 27.3865C103.294 27.5157 103.436 27.9838 103.262 28.7909L101.095 39.2831C100.963 39.919 100.843 40.2774 100.74 40.3549C100.637 40.4324 100.395 40.4001 100.017 40.258C97.8792 39.4994 95.9095 39.2701 94.1078 39.5607C91.938 39.9158 90.1911 40.9973 88.8672 42.8117C87.5434 44.626 86.7491 47.1926 86.4843 50.5113C86.2195 53.8333 86.6264 56.3547 87.6984 58.0851C88.7704 59.8155 90.4752 60.4902 92.813 60.1093C95.3186 59.6993 97.453 58.3692 99.216 56.1158C99.5841 55.6864 99.8101 55.4669 99.894 55.454C100.036 55.4314 100.136 55.7413 100.194 56.387L101.441 64.8453C101.525 65.5297 101.383 66.1043 101.011 66.5725C98.4539 69.733 95.1604 71.641 91.1339 72.2996C86.8524 72.9969 83.6751 71.6926 81.6022 68.3868C79.5292 65.0809 78.7768 59.8574 79.3419 52.7195C79.9263 45.333 81.6603 39.4413 84.5372 35.0378C87.4142 30.6375 91.3761 28.0257 96.4165 27.2025C98.8963 26.799 101.031 26.8603 102.823 27.3865H102.832Z" fill="white"/>
<path d="M119.366 42.3852L125.055 58.9661L127.257 63.276C127.499 63.7279 127.564 64.1573 127.448 64.5673C127.331 64.9773 127.034 65.2194 126.556 65.2969L118.826 66.556C118.403 66.6238 118.106 66.3655 117.929 65.7812L114.416 51.1793L112.291 53.2454L111.758 59.9669L111.71 66.3655C111.716 66.9789 111.671 67.3663 111.577 67.5245C111.48 67.6827 111.222 67.7989 110.799 67.8667L104.968 68.8158C104.403 68.9062 104.154 68.5382 104.222 67.7085L104.984 59.1662L106.663 39.047L106.902 28.1319C106.918 27.5573 106.96 27.2215 107.025 27.1279L107.076 26.9956L113.854 25.6461C114.167 25.5557 114.387 25.6009 114.509 25.7849C114.632 25.9689 114.664 26.2918 114.6 26.7534L113.731 35.0665L113.153 42.3497L113.201 42.2819L121.397 25.1554C121.635 24.584 121.994 24.2579 122.475 24.1804L129.404 23.0505C129.769 22.9924 129.989 23.1086 130.063 23.4024C130.137 23.6962 130.031 24.0739 129.743 24.5291L124.729 32.5354L119.362 42.3787L119.366 42.3852Z" fill="white"/>
<path d="M143.616 19.5089C146.796 18.9891 149.024 19.8253 150.296 22.0141C151.569 24.203 151.988 28.035 151.552 33.5136C151.42 35.8703 150.884 38.2625 149.941 40.687C148.998 43.1147 147.733 45.2035 146.15 46.9565C144.565 48.7095 142.899 49.7296 141.155 50.0137C140.254 50.1622 139.276 50.2171 138.223 50.1848L137.784 55.7247L137.736 62.1233C137.742 62.7367 137.697 63.1241 137.603 63.2823C137.507 63.4405 137.248 63.5567 136.825 63.6245L130.997 64.5737C130.432 64.6641 130.183 64.296 130.251 63.4663L131.013 54.9241L132.692 34.8049L132.931 23.8898C132.925 23.2764 132.951 22.9245 133.015 22.8309L133.106 22.7534L135.989 22.1594C136.977 21.6299 138.285 21.0908 139.912 20.5355C141.313 20.0222 142.55 19.6736 143.622 19.4992L143.616 19.5089ZM142.166 39.896C144.223 39.5603 145.395 37.549 145.689 33.8525C145.795 32.5257 145.579 31.4732 145.043 30.7017C144.507 29.9301 143.651 29.5976 142.473 29.7073C141.598 29.8494 140.706 30.0786 139.793 30.3917L139.757 30.8276L139.021 40.1027C139.935 40.1575 140.981 40.0897 142.166 39.896Z" fill="white"/>
<path d="M196.026 12.1937L203.307 10.8216C203.869 10.7312 204.117 11.0993 204.053 11.929L203.316 21.2041C203.249 22.0757 202.935 22.5148 202.377 22.5245L196.7 23.1443L196.662 24.6875L194.941 46.4112L195.102 52.7743C195.109 53.3877 195.063 53.7751 194.97 53.9333C194.873 54.0915 194.614 54.2077 194.191 54.2755L188.15 55.2601C187.585 55.3505 187.336 54.9825 187.404 54.1528L188.163 45.6105L189.616 27.8029L189.939 24.2484L184.253 25.4817C183.827 25.5914 183.588 25.6108 183.539 25.5365C183.488 25.4623 183.491 25.1136 183.539 24.4906L184.275 15.2154C184.34 14.3858 184.656 13.9241 185.218 13.8337L192.474 12.7748L196.022 12.1969L196.026 12.1937Z" fill="white"/>
<path d="M200.421 76.4443L1.00586 108.563L1.02846 110.784L200.444 78.6655L200.421 76.4443Z" fill="white" fill-opacity="0.5"/>
<path d="M199.44 76.8157L1.6875 108.454L1.70365 110.675L199.46 79.0368L199.44 76.8157Z" fill="white"/>
<path d="M7.8167 91.615C9.21482 91.389 10.2287 91.8409 10.8616 92.9741C11.4945 94.1073 11.714 95.8699 11.5235 98.2654C11.3685 100.309 10.8164 102.072 9.86707 103.55C8.94036 105.016 7.82639 105.852 6.5219 106.065L6.0311 106.084C5.72112 106.123 5.33042 106.146 4.86546 106.156L3.84188 106.204L3.30266 106.291C3.11538 106.32 3.02819 106.204 3.04757 105.933L3.2736 103.169L3.77085 96.6577L3.81606 93.1258C3.82251 92.9257 3.83543 92.8127 3.8548 92.7804L3.87094 92.7578L4.90744 92.548C5.90195 92.0831 6.87062 91.7731 7.8167 91.6182V91.615ZM6.70594 102.75C7.42276 102.633 7.97168 102.34 8.3527 101.865C8.81121 101.326 9.09535 100.312 9.20191 98.8207C9.29878 97.4906 9.16962 96.4833 8.81767 95.7957C8.46571 95.108 7.90065 94.8369 7.12571 94.9757C6.80282 95.0273 6.47669 95.1016 6.14411 95.1952L6.13119 95.3566L5.59197 102.834C6.06016 102.824 6.42826 102.798 6.70272 102.753L6.70594 102.75Z" fill="white" fill-opacity="0.5"/>
<path d="M14.6697 100.819L15.816 100.632L17.4401 100.031C17.5822 99.9798 17.6726 99.9798 17.7049 100.031C17.7404 100.08 17.7404 100.206 17.7049 100.409L17.2335 103.654C17.2044 103.912 17.0978 104.054 16.9073 104.083L12.332 104.826C12.1447 104.855 12.0575 104.738 12.0769 104.467L12.3029 101.704L12.8001 95.1921L12.8454 91.6603C12.8421 91.4601 12.8486 91.3471 12.8712 91.3181L12.9002 91.2922L15.4576 90.7789L18.2021 90.1752C18.3055 90.1462 18.3797 90.1591 18.4217 90.2204C18.4637 90.2818 18.4766 90.3851 18.454 90.5336L18.0956 93.5779C18.0665 93.8362 17.9632 93.9782 17.7856 94.0073L15.125 94.3979L15.0023 96.1122L16.9816 95.6505C17.1237 95.615 17.2173 95.6344 17.2625 95.7151C17.3077 95.7958 17.3174 95.9346 17.2948 96.138L17.0365 98.3688C16.9977 98.64 16.888 98.7917 16.7104 98.8208L14.7892 99.0532L14.66 100.826L14.6697 100.819Z" fill="white" fill-opacity="0.5"/>
<path d="M21.106 103.799C20.2568 103.938 19.4366 103.776 18.6488 103.321C18.5229 103.234 18.4647 103.092 18.4712 102.892L18.61 99.7828C18.6165 99.5697 18.6391 99.4438 18.6778 99.4019C18.7166 99.3631 18.8005 99.3793 18.9265 99.4503C19.9081 99.9539 20.8089 100.141 21.6291 100.009C22.0908 99.9345 22.4137 99.8183 22.5978 99.6634C22.7818 99.5084 22.8851 99.2824 22.9045 98.9854C22.9239 98.7174 22.8076 98.5044 22.559 98.343C22.3621 98.23 22.2361 98.1622 22.1812 98.146C22.0908 98.0944 21.91 98.0169 21.6388 97.9168L21.0382 97.694C20.2148 97.3357 19.6401 96.9063 19.3172 96.3995C18.9943 95.8926 18.8619 95.1049 18.92 94.0331C19.0137 92.6094 19.427 91.4891 20.1567 90.6659C20.8961 89.8427 21.8196 89.3423 22.9239 89.1615C23.7279 89.0323 24.5125 89.0711 25.281 89.2777C25.4457 89.3164 25.507 89.4585 25.4586 89.7071L24.8935 92.7062C24.8483 92.9387 24.8064 93.0646 24.7676 93.0839C24.7192 93.0904 24.6417 93.0775 24.5319 93.042C23.8667 92.8321 23.1628 92.7869 22.4266 92.9064C21.9455 92.9839 21.6065 93.1001 21.416 93.2486C21.2222 93.4003 21.1157 93.6102 21.0963 93.8781C21.1157 94.1138 21.1803 94.2784 21.2933 94.3753C21.4031 94.4689 21.6646 94.5916 22.0715 94.7369C22.5816 94.9209 23.0401 95.1114 23.4437 95.3115C23.7602 95.4471 24.0637 95.6376 24.3543 95.8797C24.6966 96.1961 24.9323 96.5674 25.0647 96.9903C25.1971 97.4132 25.2358 98.0007 25.1809 98.753C25.0776 100.177 24.6449 101.329 23.8829 102.211C23.1273 103.089 22.2006 103.618 21.0931 103.799H21.106Z" fill="white" fill-opacity="0.5"/>
<path d="M28.9841 92.0669L28.687 94.4462L28.2834 100.047L28.2124 101.81C28.2059 102.023 28.1768 102.156 28.1284 102.201C28.0767 102.249 27.9831 102.285 27.841 102.307L26.2266 102.569C26.0361 102.598 25.9521 102.482 25.9715 102.21L26.1749 99.3695L26.5172 94.7949L26.4268 92.7578C26.4235 92.5609 26.43 92.4446 26.4526 92.4156L26.4849 92.3704L28.7322 91.7086C28.8355 91.6795 28.9098 91.6924 28.9518 91.7505C28.9938 91.8119 29.0067 91.9152 28.9841 92.0637V92.0669ZM26.7787 90.2945C26.5559 89.9588 26.4655 89.4875 26.5107 88.8837C26.5559 88.28 26.7077 87.7958 26.9724 87.4342C27.2372 87.0726 27.5892 86.8563 28.0348 86.7853C28.4771 86.7143 28.8097 86.8208 29.026 87.1017C29.2424 87.3858 29.3296 87.8281 29.2876 88.4318C29.2456 89.0355 29.0842 89.5488 28.8065 89.962C28.5288 90.3785 28.1768 90.6206 27.7538 90.6916C27.3276 90.7594 27.0047 90.6271 26.7819 90.2913L26.7787 90.2945Z" fill="white" fill-opacity="0.5"/>
<path d="M33.4228 95.9279L33.8264 93.4517C33.8716 93.1935 33.9846 93.0482 34.1654 93.0191L37.3524 92.5026C37.5397 92.4735 37.6268 92.5898 37.6075 92.8577L37.1393 99.3467C37.1263 99.534 37.0618 99.7115 36.9488 99.8762C36.0802 100.919 34.9759 101.552 33.6327 101.768C32.1796 102.004 31.1012 101.587 30.4037 100.519C29.7063 99.45 29.4415 97.7616 29.6062 95.4501C29.7773 93.0579 30.3391 91.1499 31.2917 89.7197C32.2442 88.2896 33.5648 87.4405 35.2568 87.1661C36.0866 87.0305 36.8067 87.0467 37.4105 87.2145C37.5655 87.2565 37.6139 87.4082 37.559 87.6697L36.8648 91.0692C36.8228 91.2758 36.7841 91.392 36.7486 91.4179C36.713 91.4437 36.6323 91.434 36.5064 91.3888C35.7863 91.1467 35.1244 91.0757 34.5206 91.1725C33.7941 91.292 33.2097 91.6439 32.7705 92.2314C32.3314 92.819 32.0731 93.6519 31.9956 94.7269C31.9181 95.802 32.0634 96.6188 32.4283 97.1773C32.7931 97.7358 33.3679 97.9521 34.1525 97.8229C34.6724 97.739 35.147 97.5356 35.5829 97.2128L35.6798 95.8633L33.6875 96.325C33.5455 96.3605 33.4583 96.3573 33.4228 96.3088C33.3905 96.2604 33.3873 96.1345 33.4228 95.9311V95.9279Z" fill="white" fill-opacity="0.5"/>
<path d="M47.3745 88.012L46.7448 96.7351L46.8191 98.7948C46.8223 98.9917 46.8094 99.1176 46.7771 99.1693C46.7448 99.2209 46.6576 99.2596 46.5155 99.2822L44.7009 99.576C44.5394 99.6019 44.4329 99.5341 44.3812 99.3694L43.6999 97.568L41.7529 93.7004L41.656 93.4776L41.6463 93.4195L41.4203 93.455L41.1168 97.6648L41.1943 99.7019C41.1975 99.9021 41.1846 100.025 41.1523 100.076C41.12 100.128 41.0328 100.167 40.8908 100.189L38.9082 100.512C38.7177 100.545 38.6337 100.425 38.6531 100.154L38.8533 97.3937L39.2343 92.3122L39.1601 87.347C39.1633 87.1468 39.173 87.0403 39.1827 87.0241L39.1988 86.9822L41.3428 86.5754C41.5043 86.5496 41.6108 86.6174 41.6625 86.782L42.2792 88.3155L44.604 92.7771L44.759 92.7513L44.9624 89.9523V86.4269C44.9624 86.23 44.9624 86.1234 44.9754 86.1073L45.0076 86.0621L47.3357 85.6037C47.5424 85.5714 47.6263 85.6941 47.5876 85.9814L47.3712 88.0088L47.3745 88.012Z" fill="white" fill-opacity="0.5"/>
<path d="M59.7379 97.1388L57.6262 97.481C57.455 97.5068 57.3614 97.4196 57.3388 97.2098L57.0514 95.3858L53.8935 95.8991L53.3188 97.8651C53.2639 98.0847 53.1541 98.2106 52.983 98.2364L51.2135 98.5237C50.9875 98.5592 50.9165 98.4172 51.0069 98.0976L51.6753 96.0185L54.6556 86.5336L55.1657 84.6773C55.2303 84.4416 55.3401 84.3092 55.5015 84.2834L57.4001 83.9767C57.5616 83.9509 57.6552 84.0478 57.6875 84.2673L57.9394 86.0203L59.5797 94.7369L60.0027 96.6384C60.0737 96.9322 59.9865 97.1 59.7411 97.1388H59.7379ZM56.5703 92.1348L56.1732 88.5352L56.002 88.561L54.8977 92.4028L56.5703 92.1316V92.1348Z" fill="white" fill-opacity="0.5"/>
<path d="M68.4189 88.8032L68.0734 93.578L68.0024 95.3407C67.9959 95.5537 67.9701 95.6861 67.9184 95.7313C67.8668 95.7797 67.7731 95.8152 67.6311 95.8378L66.0166 96.0993C65.8261 96.1316 65.7421 96.0122 65.7615 95.741L66.1135 90.8436C66.1781 89.9429 65.8842 89.5458 65.232 89.6523C64.7024 89.7362 64.1922 89.9203 63.695 90.2011L63.3947 94.3528L63.3237 96.1155C63.3172 96.3286 63.2882 96.4609 63.2397 96.5061C63.1881 96.5545 63.0944 96.59 62.9523 96.6126L61.3379 96.8741C61.1474 96.9032 61.0634 96.787 61.0828 96.5158L61.2862 93.6748L61.6027 89.5006L61.5413 87.0599C61.5381 86.863 61.5445 86.7468 61.5671 86.7177L61.5994 86.6725L63.4496 86.0753C63.6401 86.0172 63.7402 86.1205 63.7499 86.3852L63.7725 87.6346C64.8897 86.3917 65.8261 85.7105 66.5817 85.5878C67.3275 85.4683 67.841 85.6717 68.1251 86.2044C68.4092 86.7371 68.5061 87.5991 68.4222 88.7936L68.4189 88.8032Z" fill="white" fill-opacity="0.5"/>
<path d="M74.0882 80.8741C75.4863 80.6481 76.5002 81.1001 77.133 82.2333C77.7659 83.3664 77.9855 85.1291 77.795 87.5213C77.64 89.5649 77.0879 91.3276 76.1386 92.8094C75.2118 94.275 74.0979 95.1112 72.7934 95.3243L72.3026 95.3436C71.9926 95.3792 71.6019 95.405 71.1369 95.4147L70.1134 95.4599L69.5741 95.547C69.3869 95.5761 69.2997 95.4599 69.3191 95.1887L69.5451 92.4252L70.0423 85.9136L70.0875 82.3818C70.0908 82.1816 70.1069 82.0654 70.1263 82.0363L70.1424 82.0137L71.1789 81.8071C72.1734 81.339 73.1421 81.0323 74.0882 80.8773V80.8741ZM72.9774 92.0055C73.6942 91.8893 74.2432 91.5955 74.6242 91.1209C75.0827 90.5818 75.3668 89.5681 75.4734 88.0766C75.5703 86.7465 75.4411 85.7393 75.0891 85.0516C74.7372 84.364 74.1721 84.0928 73.3972 84.2316C73.0743 84.2833 72.7482 84.3575 72.4156 84.4511L72.4027 84.6126L71.8635 92.0895C72.3316 92.0798 72.6997 92.0539 72.9742 92.0087L72.9774 92.0055Z" fill="white" fill-opacity="0.5"/>
<path d="M86.594 78.8468C87.9922 78.6208 89.0061 79.0728 89.6389 80.2059C90.2718 81.3391 90.4914 83.1017 90.3009 85.4972C90.1459 87.5407 89.5937 89.3034 88.6444 90.7853C87.7177 92.2509 86.6037 93.0871 85.2992 93.3002L84.8084 93.3195C84.4985 93.355 84.1078 93.3809 83.6428 93.3873L82.6192 93.4357L82.08 93.5229C81.8927 93.552 81.8055 93.4357 81.8249 93.1646L82.0509 90.4011L82.5482 83.8895L82.5934 80.3576C82.5999 80.1575 82.6128 80.0413 82.6321 80.0122L82.6483 79.9896L83.6848 79.7798C84.6793 79.3149 85.648 79.005 86.594 78.85V78.8468ZM85.4865 89.9782C86.2034 89.8619 86.7523 89.5682 87.1333 89.0936C87.5918 88.5545 87.8759 87.5407 87.9825 86.0492C88.0794 84.7192 87.9502 83.7119 87.5982 83.0243C87.2463 82.3366 86.6812 82.0655 85.9063 82.2043C85.5834 82.2559 85.2573 82.3302 84.9247 82.4238L84.9118 82.5852L84.3725 90.0621C84.8407 90.0524 85.2088 90.0266 85.4833 89.9814L85.4865 89.9782Z" fill="white" fill-opacity="0.5"/>
<path d="M93.9587 81.5361L93.6616 83.9154L93.258 89.5167L93.187 91.2793C93.1805 91.4924 93.1547 91.6248 93.103 91.67C93.0513 91.7184 92.9577 91.7539 92.8156 91.7765L91.2012 92.038C91.0107 92.0671 90.9267 91.9508 90.9461 91.6797L91.1495 88.8387L91.4918 84.2641L91.4014 82.227C91.3981 82.0301 91.4046 81.9139 91.4272 81.8848L91.4595 81.8396L93.7068 81.1778C93.8101 81.1487 93.8844 81.1617 93.9264 81.223C93.9684 81.2843 93.9813 81.3876 93.9587 81.5361ZM91.7533 79.7605C91.5305 79.4248 91.4401 78.9535 91.4853 78.3498C91.5305 77.746 91.6823 77.2618 91.947 76.9002C92.2118 76.5386 92.5638 76.3223 93.0094 76.2513C93.455 76.1803 93.7843 76.2868 94.0006 76.5677C94.217 76.8518 94.3042 77.2941 94.2622 77.901C94.2202 78.5047 94.0588 79.0148 93.7811 79.4312C93.5034 79.8477 93.1514 80.0898 92.7285 80.1609C92.3022 80.2287 91.9793 80.0963 91.7565 79.7605H91.7533Z" fill="white" fill-opacity="0.5"/>
<path d="M98.4004 85.3939L98.804 82.9177C98.8492 82.6594 98.9622 82.5142 99.143 82.4851L102.33 81.9686C102.52 81.9395 102.604 82.0557 102.585 82.3269L102.117 88.8159C102.104 89.0032 102.039 89.1807 101.923 89.3454C101.055 90.3882 99.9502 91.0209 98.607 91.2372C97.154 91.4729 96.0755 91.0564 95.3781 89.9878C94.6806 88.9192 94.4159 87.2308 94.5805 84.9193C94.7517 82.5271 95.3135 80.6191 96.266 79.1889C97.2186 77.7588 98.5392 76.9097 100.231 76.6353C101.061 76.4997 101.781 76.5159 102.385 76.6837C102.54 76.7257 102.592 76.8774 102.533 77.1389L101.839 80.5352C101.797 80.7418 101.758 80.858 101.723 80.8838C101.687 80.9097 101.607 80.9 101.481 80.8548C100.761 80.6127 100.099 80.5416 99.495 80.6385C98.7685 80.7579 98.184 81.1098 97.7449 81.6974C97.3058 82.2882 97.0474 83.1179 96.9699 84.1929C96.8924 85.268 97.0378 86.0847 97.4026 86.6432C97.7675 87.2018 98.3423 87.4181 99.1269 87.2889C99.6467 87.205 100.121 87.0016 100.557 86.6788L100.654 85.3293L98.6619 85.791C98.5198 85.8265 98.4327 85.8232 98.3971 85.7748C98.3649 85.7264 98.3616 85.6005 98.3971 85.3971L98.4004 85.3939Z" fill="white" fill-opacity="0.5"/>
<path d="M106.455 79.5086L106.157 81.8879L105.754 87.4891L105.683 89.2518C105.676 89.4648 105.647 89.5972 105.599 89.6424C105.547 89.6908 105.454 89.7263 105.311 89.7489L103.697 90.0104C103.507 90.0395 103.423 89.9233 103.442 89.6521L103.645 86.8111L103.988 82.2365L103.897 80.1994C103.894 80.0025 103.9 79.8863 103.923 79.8572L103.955 79.812L106.203 79.1502C106.306 79.1212 106.38 79.1341 106.422 79.1954C106.464 79.2567 106.477 79.3601 106.455 79.5086ZM104.252 77.7362C104.03 77.4004 103.939 76.9291 103.984 76.3254C104.03 75.7217 104.181 75.2374 104.446 74.8759C104.711 74.5143 105.063 74.298 105.508 74.227C105.951 74.1559 106.283 74.2592 106.5 74.5433C106.716 74.8274 106.803 75.2697 106.761 75.8767C106.719 76.4804 106.558 76.9904 106.28 77.4069C106.002 77.8234 105.651 78.0655 105.228 78.1365C104.801 78.2043 104.478 78.0719 104.256 77.7362H104.252Z" fill="white" fill-opacity="0.5"/>
<path d="M111.284 75.2406L113.725 74.7854C113.912 74.7563 114 74.8725 113.98 75.1437L113.764 78.1461C113.745 78.427 113.641 78.5722 113.454 78.5755L111.549 78.7853L111.542 79.2857L111.035 86.3171L111.11 88.3768C111.113 88.5769 111.1 88.6996 111.068 88.7513C111.035 88.8029 110.948 88.8417 110.806 88.8643L108.782 89.1936C108.591 89.2258 108.507 89.1064 108.527 88.8352L108.753 86.0717L109.182 80.3059L109.279 79.1566L107.374 79.5666C107.232 79.6021 107.151 79.6085 107.135 79.5859C107.119 79.5633 107.116 79.4503 107.132 79.247L107.348 76.2446C107.367 75.9766 107.471 75.8249 107.661 75.7958L110.096 75.4407L111.287 75.247L111.284 75.2406Z" fill="white" fill-opacity="0.5"/>
<path d="M121.968 87.0499L119.857 87.3921C119.686 87.4179 119.589 87.3307 119.569 87.1209L119.282 85.2936L116.124 85.8069L115.549 87.773C115.494 87.9958 115.385 88.1184 115.213 88.1475L113.444 88.4348C113.218 88.4703 113.147 88.3315 113.237 88.0119L113.906 85.9328L116.886 76.4479L117.396 74.5916C117.461 74.3559 117.571 74.2236 117.732 74.1977L119.631 73.891C119.792 73.8652 119.886 73.9621 119.918 74.1816L120.17 75.9346L121.81 84.6512L122.233 86.5527C122.304 86.8465 122.217 87.0143 121.972 87.0531L121.968 87.0499ZM118.801 82.0491L118.4 78.4495L118.229 78.4785L117.125 82.3203L118.798 82.0491H118.801Z" fill="white" fill-opacity="0.5"/>
<path d="M126.826 82.6403L128.45 82.0365C128.595 81.9881 128.682 81.9849 128.715 82.0365C128.747 82.0882 128.75 82.2109 128.715 82.4143L128.243 85.6555C128.214 85.9138 128.108 86.0559 127.917 86.0849L123.342 86.8274C123.154 86.8565 123.067 86.7403 123.087 86.4691L123.313 83.7056L123.81 77.194L123.855 73.6622C123.862 73.462 123.874 73.3458 123.894 73.3167L123.91 73.2941L126.183 72.8454C126.287 72.8163 126.361 72.8293 126.403 72.8906C126.445 72.9487 126.458 73.0552 126.435 73.2037L126.17 75.8962L125.67 82.8275L126.816 82.6403H126.826Z" fill="white" fill-opacity="0.5"/>
<path d="M135.356 85.2807C134.507 85.4195 133.687 85.2581 132.899 84.8029C132.776 84.7157 132.715 84.5736 132.721 84.3735L132.86 81.2646C132.866 81.0515 132.889 80.9256 132.931 80.8868C132.97 80.8481 133.054 80.8642 133.18 80.9353C134.161 81.4389 135.062 81.6261 135.882 81.4938C136.344 81.4195 136.667 81.3033 136.851 81.1483C137.035 80.9934 137.138 80.7674 137.158 80.4704C137.177 80.2024 137.061 79.9894 136.812 79.8312C136.615 79.7182 136.489 79.6504 136.434 79.6342C136.344 79.5826 136.163 79.5051 135.892 79.405L135.291 79.1823C134.468 78.8239 133.893 78.3945 133.57 77.8877C133.247 77.3808 133.115 76.5931 133.173 75.5213C133.267 74.0976 133.68 72.9774 134.41 72.1541C135.149 71.3309 136.073 70.8305 137.177 70.6497C137.981 70.5206 138.766 70.5593 139.534 70.7659C139.699 70.8047 139.76 70.9467 139.712 71.1953L139.147 74.1944C139.102 74.4269 139.06 74.5528 139.021 74.5722C138.972 74.5786 138.895 74.5657 138.785 74.5302C138.12 74.3203 137.416 74.2752 136.68 74.3946C136.199 74.4721 135.86 74.5883 135.669 74.7368C135.475 74.8885 135.369 75.0984 135.35 75.3663C135.369 75.602 135.433 75.7667 135.543 75.8635C135.653 75.9571 135.911 76.0798 136.321 76.2251C136.832 76.4091 137.29 76.5996 137.694 76.7997C138.01 76.9353 138.314 77.1226 138.604 77.3679C138.947 77.6843 139.182 78.0556 139.315 78.4785C139.447 78.9014 139.486 79.489 139.434 80.2412C139.331 81.6649 138.898 82.8174 138.136 83.6988C137.381 84.5769 136.454 85.1063 135.346 85.2871L135.356 85.2807Z" fill="white" fill-opacity="0.5"/>
<path d="M148.669 75.7733C148.491 78.0977 147.946 79.9928 147.028 81.4552C146.131 82.8886 145.007 83.7151 143.657 83.9346C142.363 84.1444 141.41 83.7022 140.8 82.6045C140.19 81.5101 139.96 79.8669 140.119 77.678C140.29 75.2858 140.832 73.3553 141.74 71.8799C142.637 70.4207 143.761 69.5813 145.114 69.3618C146.418 69.1519 147.377 69.62 147.994 70.7661C148.624 71.8863 148.846 73.5554 148.669 75.7733ZM144.294 80.1477C144.946 80.0412 145.424 79.7184 145.727 79.1792C146.031 78.6401 146.218 77.8911 146.289 76.9387C146.389 75.5279 146.292 74.5175 145.995 73.9105C145.698 73.3004 145.175 73.0582 144.432 73.1777C143.8 73.281 143.338 73.5845 143.05 74.0881C142.763 74.5917 142.582 75.3568 142.508 76.377C142.405 77.8007 142.495 78.8144 142.779 79.4181C143.063 80.0218 143.567 80.2672 144.294 80.1477Z" fill="white" fill-opacity="0.5"/>
<path d="M152.947 78.4043L154.571 77.8039C154.717 77.7522 154.804 77.7522 154.836 77.8006C154.868 77.8491 154.872 77.975 154.836 78.1784L154.365 81.4196C154.336 81.6779 154.229 81.82 154.039 81.8522L149.463 82.5948C149.273 82.6238 149.189 82.5076 149.208 82.2364L149.434 79.4729L149.931 72.9613L149.977 69.4295C149.98 69.2293 149.993 69.1131 150.015 69.0841L150.031 69.0615L152.305 68.6127C152.408 68.5837 152.482 68.5966 152.524 68.6579C152.566 68.716 152.579 68.8226 152.556 68.9711L152.292 71.6635L151.791 78.5948L152.937 78.4076L152.947 78.4043Z" fill="white" fill-opacity="0.5"/>
<path d="M162.049 67.1115L164.193 66.6821C164.287 66.653 164.361 66.6692 164.406 66.7273C164.455 66.7854 164.468 66.8887 164.448 67.0404L164.183 69.7329L163.851 74.3269C163.683 76.6513 163.247 78.3559 162.543 79.4374C161.83 80.5092 160.767 81.1581 159.35 81.3905C156.896 81.7876 155.811 79.9991 156.095 76.0218L156.392 71.912L156.379 68.3899C156.376 68.1897 156.382 68.0767 156.405 68.0477L156.421 68.0251L158.765 67.5667C158.859 67.5376 158.93 67.5537 158.978 67.6119C159.027 67.67 159.04 67.7733 159.017 67.925L158.752 70.6175L158.459 74.6884C158.323 76.8062 158.723 77.7974 159.66 77.6585C160.328 77.5649 160.796 77.3131 161.058 76.9031C161.319 76.4963 161.484 75.7764 161.549 74.7433L161.817 70.837L161.804 67.515C161.804 67.515 161.804 67.4763 161.794 67.4375C161.788 67.2664 161.807 67.1696 161.855 67.1502C161.875 67.1502 161.91 67.1405 161.968 67.1308C161.997 67.1276 162.02 67.1211 162.039 67.1179L162.049 67.1115Z" fill="white" fill-opacity="0.5"/>
<path d="M168.968 65.8914L171.409 65.4362C171.597 65.4072 171.684 65.5234 171.665 65.7946L171.448 68.797C171.429 69.0778 171.326 69.2231 171.138 69.2263L169.233 69.4362L169.227 69.9366L168.72 76.9679L168.794 79.0276C168.797 79.2246 168.784 79.3505 168.752 79.4021C168.72 79.4538 168.633 79.4925 168.494 79.5151L166.469 79.8444C166.279 79.8735 166.195 79.7572 166.214 79.4861L166.44 76.7226L166.87 70.9567L166.966 69.8074L165.061 70.2174C164.919 70.253 164.839 70.2594 164.822 70.2368C164.806 70.2142 164.803 70.1012 164.819 69.8978L165.036 66.8955C165.055 66.6275 165.158 66.4758 165.349 66.4467L167.783 66.0916L168.975 65.8979L168.968 65.8914Z" fill="white" fill-opacity="0.5"/>
<path d="M174.634 68.4578L174.337 70.8372L173.934 76.4384L173.863 78.2011C173.856 78.4141 173.827 78.5465 173.779 78.5917C173.73 78.6369 173.633 78.6756 173.491 78.6982L171.877 78.9597C171.686 78.992 171.602 78.8726 171.622 78.6014L171.825 75.7604L172.171 71.1858L172.08 69.1487C172.077 68.9518 172.084 68.8356 172.106 68.8065L172.139 68.7613L174.386 68.0995C174.489 68.0704 174.563 68.0834 174.605 68.1447C174.647 68.206 174.66 68.3093 174.638 68.4578H174.634ZM172.432 66.6822C172.21 66.3465 172.119 65.8752 172.164 65.2715C172.206 64.6677 172.361 64.1835 172.626 63.8219C172.891 63.4603 173.246 63.244 173.688 63.173C174.134 63.102 174.463 63.2053 174.68 63.4894C174.896 63.7735 174.983 64.2158 174.941 64.8195C174.899 65.4232 174.738 65.9333 174.46 66.3497C174.182 66.7662 173.83 67.0083 173.407 67.0793C172.981 67.1471 172.658 67.0148 172.436 66.679L172.432 66.6822Z" fill="white" fill-opacity="0.5"/>
<path d="M183.804 70.0786C183.626 72.4031 183.081 74.2981 182.164 75.7606C181.266 77.194 180.142 78.0204 178.793 78.2399C177.498 78.4498 176.545 78.0075 175.935 76.9099C175.325 75.8122 175.095 74.1722 175.254 71.9834C175.425 69.5912 175.967 67.6606 176.875 66.1852C177.772 64.726 178.896 63.8867 180.249 63.6671C181.553 63.4573 182.512 63.9254 183.129 65.0715C183.759 66.1917 183.981 67.8608 183.804 70.0786ZM179.429 74.4531C180.081 74.3465 180.559 74.0237 180.862 73.4846C181.166 72.9454 181.353 72.1965 181.424 71.2441C181.524 69.8333 181.427 68.8228 181.13 68.2159C180.833 67.6057 180.31 67.3636 179.567 67.483C178.935 67.5864 178.473 67.8898 178.185 68.3934C177.898 68.8971 177.717 69.6622 177.643 70.6824C177.54 72.1061 177.63 73.1198 177.914 73.7235C178.198 74.3272 178.702 74.5725 179.429 74.4531Z" fill="white" fill-opacity="0.5"/>
<path d="M193.343 64.3514L192.713 73.0744L192.79 75.1341C192.794 75.331 192.781 75.457 192.748 75.5086C192.716 75.5603 192.629 75.599 192.49 75.6216L190.676 75.9154C190.514 75.9412 190.408 75.8734 190.356 75.7088L189.675 73.9073L187.727 70.0398L187.631 69.817L187.621 69.7589L187.395 69.7944L187.091 74.0042L187.169 76.0413C187.172 76.2382 187.159 76.3641 187.127 76.4158C187.095 76.4674 187.007 76.5062 186.865 76.5288L184.883 76.8516C184.692 76.8839 184.608 76.7644 184.628 76.4933L184.828 73.733L185.209 68.6516L185.131 63.6863C185.138 63.4862 185.144 63.3796 185.154 63.3635L185.17 63.3215L187.314 62.9148C187.476 62.8889 187.582 62.9567 187.634 63.1214L188.251 64.6548L190.575 69.1164L190.73 69.0906L190.931 66.2916V62.7663C190.931 62.5693 190.931 62.4628 190.944 62.4466L190.976 62.4014L193.304 61.943C193.511 61.9107 193.594 62.0334 193.556 62.3207L193.339 64.3481L193.343 64.3514Z" fill="white" fill-opacity="0.5"/>
<path d="M196.524 75.3633C195.674 75.5021 194.854 75.3407 194.066 74.8855C193.944 74.7983 193.882 74.6563 193.889 74.4561L194.028 71.3472C194.034 71.1341 194.057 71.0082 194.099 70.9662C194.138 70.9275 194.221 70.9437 194.347 71.0147C195.329 71.5183 196.23 71.7055 197.053 71.5732C197.515 71.4989 197.838 71.3827 198.022 71.2278C198.206 71.0728 198.309 70.8468 198.329 70.5498C198.348 70.2818 198.232 70.0688 197.983 69.9073C197.786 69.7943 197.66 69.7266 197.605 69.7104C197.515 69.6588 197.334 69.5813 197.063 69.4812L196.462 69.2584C195.639 68.9001 195.064 68.4707 194.741 67.9639C194.418 67.457 194.286 66.6693 194.344 65.5975C194.438 64.1738 194.848 63.0535 195.581 62.2303C196.32 61.4071 197.244 60.9067 198.348 60.7259C199.152 60.5967 199.937 60.6355 200.705 60.8421C200.87 60.8808 200.931 61.0229 200.883 61.2715L200.318 64.2706C200.272 64.5031 200.231 64.629 200.192 64.6483C200.143 64.6548 200.066 64.6419 199.956 64.6064C199.291 64.3965 198.587 64.3513 197.851 64.4708C197.37 64.5483 197.031 64.6645 196.84 64.813C196.646 64.9647 196.54 65.1746 196.52 65.4425C196.54 65.6782 196.604 65.8428 196.714 65.9397C196.824 66.0333 197.082 66.156 197.492 66.3013C198.003 66.4853 198.461 66.6758 198.865 66.8759C199.181 67.0115 199.485 67.1988 199.775 67.4441C200.117 67.7605 200.353 68.1317 200.486 68.5547C200.618 68.9776 200.657 69.5651 200.605 70.3174C200.502 71.7411 200.069 72.8936 199.307 73.7749C198.551 74.653 197.625 75.1825 196.517 75.3633H196.524Z" fill="white" fill-opacity="0.5"/>
<path d="M7.0836 91.7309C8.48172 91.5049 9.4956 91.9568 10.1285 93.09C10.7613 94.2231 10.9809 95.9858 10.7904 98.3781C10.6322 100.422 10.0833 102.184 9.13397 103.666C8.20727 105.132 7.09328 105.968 5.78879 106.181L5.298 106.2C4.98802 106.236 4.59732 106.262 4.13235 106.271L3.10555 106.317L2.56632 106.404C2.37904 106.433 2.29187 106.317 2.31124 106.045L2.53726 103.282L3.03452 96.7703L3.07973 93.2385C3.08619 93.0383 3.0991 92.9221 3.11847 92.8931L3.13461 92.8705L4.1711 92.6639C5.16561 92.1957 6.13429 91.8858 7.08037 91.7341L7.0836 91.7309ZM5.97285 102.865C6.68967 102.749 7.23859 102.455 7.6196 101.981C8.07811 101.442 8.36225 100.428 8.4688 98.9366C8.56567 97.6065 8.43652 96.5992 8.08457 95.9116C7.73261 95.2239 7.16754 94.9528 6.3926 95.0916C6.06971 95.1432 5.74358 95.2175 5.411 95.3111L5.3981 95.4725L4.85886 102.949C5.32706 102.94 5.69515 102.914 5.96961 102.869L5.97285 102.865Z" fill="white"/>
<path d="M13.9392 100.938L15.0855 100.751L16.7097 100.15C16.8517 100.099 16.9421 100.099 16.9744 100.147C17.0067 100.196 17.0099 100.322 16.9744 100.525L16.503 103.766C16.4739 104.024 16.3674 104.167 16.1769 104.196L11.6015 104.938C11.4142 104.967 11.327 104.851 11.3464 104.58L11.5724 101.816L12.0697 95.3047L12.1149 91.7728C12.1117 91.5727 12.1181 91.4597 12.1407 91.4306L12.1698 91.4048L14.7271 90.8915L17.4717 90.2878C17.575 90.2587 17.6493 90.2716 17.6912 90.333C17.7332 90.3943 17.7461 90.4976 17.7235 90.6461L17.3651 93.6905C17.3361 93.9455 17.2327 94.0908 17.0552 94.1198L14.3945 94.5105L14.2718 96.2247L16.2511 95.7631C16.3932 95.7276 16.4869 95.7469 16.5321 95.8276C16.5773 95.9084 16.5902 96.0472 16.5643 96.2506L16.306 98.4846C16.2673 98.7558 16.1575 98.9075 15.9799 98.9366L14.0587 99.169L13.9295 100.941L13.9392 100.938Z" fill="white"/>
<path d="M20.3755 103.915C19.5263 104.054 18.7062 103.892 17.9183 103.437C17.7924 103.35 17.7343 103.208 17.7407 103.008L17.8796 99.8987C17.886 99.6856 17.9086 99.5597 17.9506 99.5178C17.9893 99.479 18.0733 99.4952 18.1992 99.5662C19.1808 100.07 20.0817 100.257 20.9051 100.125C21.3668 100.05 21.6897 99.9342 21.8737 99.7793C22.0578 99.6243 22.1611 99.3983 22.1805 99.1013C22.1999 98.8334 22.0836 98.6203 21.835 98.4589C21.638 98.3459 21.5121 98.2781 21.4572 98.2619C21.3668 98.2103 21.186 98.1328 20.9148 98.0327L20.3142 97.81C19.4908 97.4516 18.916 97.0222 18.5932 96.5154C18.2703 96.0085 18.1379 95.2208 18.196 94.149C18.2896 92.7253 18.6997 91.605 19.4327 90.7818C20.1721 89.9586 21.0956 89.4582 22.1999 89.2774C23.0039 89.1482 23.7885 89.187 24.557 89.3936C24.7217 89.4323 24.783 89.5744 24.7378 89.823L24.1727 92.8221C24.1275 93.0546 24.0856 93.1805 24.0468 93.1999C23.9984 93.2063 23.9209 93.1934 23.8111 93.1579C23.1459 92.948 22.442 92.9028 21.7058 93.0223C21.2247 93.0998 20.8857 93.216 20.6952 93.3645C20.5047 93.513 20.3949 93.7261 20.3755 93.994C20.3949 94.2297 20.4595 94.3943 20.5693 94.4912C20.679 94.5848 20.9374 94.7075 21.3474 94.8528C21.8576 95.0368 22.3161 95.2273 22.7197 95.4274C23.0362 95.563 23.3397 95.7503 23.6303 95.9956C23.9726 96.312 24.2083 96.6833 24.3407 97.1062C24.473 97.5291 24.5118 98.1167 24.4601 98.8689C24.3568 100.293 23.9241 101.445 23.1621 102.326C22.4065 103.205 21.4798 103.734 20.3723 103.915H20.3755Z" fill="white"/>
<path d="M28.2499 92.1863L27.9529 94.5656L27.5493 100.167L27.4782 101.93C27.4718 102.143 27.4459 102.275 27.3943 102.32C27.3426 102.369 27.249 102.404 27.1069 102.427L25.4924 102.688C25.3019 102.717 25.218 102.601 25.2373 102.33L25.4408 99.4889L25.783 94.9111L25.6926 92.874C25.6894 92.6771 25.6958 92.5608 25.7184 92.5318L25.7507 92.4866L27.9981 91.8248C28.1014 91.7957 28.1757 91.8086 28.2176 91.87C28.2596 91.9313 28.2725 92.0346 28.2499 92.1831V92.1863ZM26.0446 90.4107C25.8218 90.075 25.7314 89.6037 25.7766 88.9999C25.8185 88.3962 25.9735 87.912 26.2383 87.5504C26.5031 87.1888 26.855 86.9725 27.3006 86.9015C27.7462 86.8305 28.0756 86.9338 28.2919 87.2179C28.5082 87.502 28.5954 87.9443 28.5534 88.5512C28.5082 89.1549 28.35 89.665 28.0723 90.0815C27.7947 90.4979 27.4427 90.74 27.0197 90.8111C26.5935 90.8789 26.2706 90.7465 26.0478 90.4107H26.0446Z" fill="white"/>
<path d="M32.6901 96.0441L33.0937 93.5679C33.1422 93.3096 33.2552 93.1644 33.4328 93.1353L36.6197 92.6188C36.807 92.5865 36.8942 92.7059 36.8748 92.9739L36.4066 99.4629C36.3937 99.6502 36.3291 99.8277 36.2129 99.9924C35.3443 101.035 34.24 101.668 32.9 101.884C31.447 102.12 30.3685 101.703 29.6711 100.635C28.9736 99.5662 28.7088 97.8778 28.8735 95.5663C29.0446 93.1741 29.6065 91.2661 30.559 89.8359C31.5115 88.4058 32.8322 87.5567 34.5241 87.2823C35.354 87.1467 36.074 87.1628 36.6778 87.3307C36.8328 87.3727 36.8845 87.5244 36.8264 87.7859L36.1321 91.1854C36.0902 91.392 36.0514 91.5082 36.0159 91.534C35.9804 91.5599 35.8997 91.5502 35.7737 91.505C35.0537 91.2629 34.3917 91.1918 33.7879 91.2887C33.0614 91.4081 32.477 91.76 32.0379 92.3476C31.5987 92.9352 31.3404 93.7681 31.2629 94.8431C31.1854 95.9182 31.3307 96.7349 31.6956 97.2935C32.0605 97.852 32.6352 98.0683 33.4198 97.9391C33.9397 97.8552 34.4176 97.6518 34.8503 97.329L34.9471 95.9795L32.9549 96.4412C32.8128 96.4767 32.7256 96.4734 32.6901 96.425C32.6546 96.3766 32.6546 96.2507 32.6901 96.0473V96.0441Z" fill="white"/>
<path d="M46.6466 88.1281L46.017 96.8512L46.0912 98.9109C46.0945 99.111 46.0816 99.2337 46.0493 99.2854C46.017 99.337 45.9298 99.3758 45.7909 99.3984L43.9763 99.6921C43.8148 99.718 43.7083 99.6502 43.6566 99.4855L42.9753 97.6841L41.0283 93.8165L40.9314 93.5938L40.9217 93.5356L40.6957 93.5712L40.3922 97.7809L40.4697 99.818C40.4729 100.015 40.46 100.141 40.4277 100.193C40.3954 100.244 40.3082 100.283 40.1661 100.306L38.1836 100.628C37.9931 100.657 37.9091 100.541 37.9285 100.27L38.1287 97.5098L38.5097 92.4283L38.4322 87.4631C38.4387 87.2629 38.4451 87.1564 38.4548 87.1403L38.471 87.0983L40.615 86.6915C40.7764 86.6657 40.883 86.7335 40.9346 86.8981L41.5514 88.4316L43.8762 92.8932L44.0312 92.8674L44.2346 90.0684V86.543C44.2346 86.3461 44.2346 86.2396 44.2475 86.2234L44.2798 86.1782L46.6079 85.7198C46.8145 85.6875 46.8985 85.8134 46.8597 86.0975L46.6434 88.1249L46.6466 88.1281Z" fill="white"/>
<path d="M59.0055 97.2545L56.8938 97.5967C56.7226 97.6225 56.629 97.5353 56.6064 97.3255L56.319 95.4982L53.1611 96.0115L52.5864 97.9776C52.5315 98.2004 52.4217 98.323 52.2505 98.3521L50.4811 98.6394C50.2551 98.6749 50.184 98.5361 50.2744 98.2165L50.9428 96.1374L53.9231 86.6525L54.4333 84.7962C54.4979 84.5605 54.6077 84.4282 54.7691 84.4023L56.6677 84.0956C56.8292 84.0698 56.9228 84.1667 56.9551 84.3862L57.207 86.136L58.8473 94.8526L59.2702 96.7541C59.3413 97.0478 59.2541 97.2157 59.0087 97.2545H59.0055ZM55.8379 92.2537L55.4407 88.6541L55.2696 88.6799L54.1653 92.5217L55.8379 92.2505V92.2537Z" fill="white"/>
<path d="M67.6852 88.9189L67.3397 93.6937L67.2687 95.4564C67.2622 95.6694 67.2364 95.8018 67.1847 95.847C67.1331 95.8954 67.0395 95.9309 66.8974 95.9535L65.2829 96.215C65.0924 96.2441 65.0084 96.1279 65.0278 95.8567L65.3798 90.9593C65.4444 90.0585 65.1505 89.6615 64.5015 89.768C63.972 89.8552 63.4586 90.0359 62.9645 90.3168L62.6642 94.4685L62.5932 96.2312C62.5868 96.4442 62.5577 96.5766 62.5093 96.6218C62.4576 96.6702 62.3639 96.7057 62.2219 96.7283L60.6074 96.9898C60.4169 97.0221 60.333 96.9027 60.3523 96.6315L60.5558 93.7905L60.8722 89.6163L60.8108 87.1756C60.8076 86.9755 60.8141 86.8625 60.8367 86.8334L60.869 86.7882L62.7191 86.191C62.9097 86.1329 63.0097 86.2362 63.0194 86.5009L63.042 87.7503C64.1592 86.5073 65.0956 85.8262 65.8512 85.7035C66.5971 85.5808 67.1105 85.7874 67.3946 86.3201C67.6788 86.8528 67.7756 87.7148 67.6917 88.9092L67.6852 88.9189Z" fill="white"/>
<path d="M73.3492 80.9903C74.7474 80.7643 75.7612 81.2163 76.3941 82.3495C77.027 83.4826 77.2465 85.2453 77.056 87.6375C76.8978 89.6811 76.3489 91.4438 75.3996 92.9256C74.4729 94.3913 73.3589 95.2274 72.0544 95.4405L71.5636 95.4598C71.2536 95.4986 70.863 95.5212 70.398 95.5309L69.3712 95.5793L68.832 95.6665C68.6447 95.6955 68.5575 95.5793 68.5769 95.3081L68.8029 92.5446L69.3001 86.033L69.3454 82.5012C69.3518 82.301 69.3647 82.188 69.3841 82.1558L69.4002 82.1332L70.4367 81.9233C71.4312 81.4584 72.3999 81.1485 73.346 80.9936L73.3492 80.9903ZM72.2385 92.1217C72.9553 92.0055 73.5042 91.7117 73.8852 91.2371C74.3437 90.698 74.6279 89.6843 74.7344 88.1928C74.8313 86.8627 74.7021 85.8555 74.3502 85.1678C73.9982 84.4802 73.4332 84.209 72.6582 84.3478C72.3353 84.3995 72.0092 84.4737 71.6766 84.5673L71.6637 84.7288L71.1245 92.2057C71.5927 92.196 71.9608 92.1701 72.2352 92.1249L72.2385 92.1217Z" fill="white"/>
<path d="M85.8609 78.9627C87.2591 78.7367 88.273 79.1887 88.9058 80.3219C89.5387 81.455 89.7583 83.2177 89.5678 85.6099C89.4095 87.6535 88.8606 89.4162 87.9113 90.898C86.9846 92.3637 85.8706 93.1998 84.5661 93.4129L84.0753 93.4323C83.7654 93.4678 83.3747 93.4936 82.9097 93.5033L81.8829 93.5485L81.3437 93.6356C81.1564 93.6647 81.0692 93.5485 81.0886 93.2773L81.3146 90.5138L81.8119 84.0022L81.8571 80.4704C81.8635 80.2702 81.8764 80.154 81.8958 80.1249L81.912 80.1023L82.9484 79.8957C83.943 79.4308 84.9116 79.1209 85.8577 78.966L85.8609 78.9627ZM84.7502 90.0941C85.467 89.9779 86.0159 89.6841 86.3969 89.2096C86.8555 88.6704 87.1396 87.6567 87.2462 86.1652C87.343 84.8351 87.2139 83.8279 86.8619 83.1402C86.51 82.4526 85.9449 82.1814 85.17 82.3202C84.8471 82.3719 84.5209 82.4461 84.1884 82.5398L84.1754 82.7012L83.6362 90.1781C84.1044 90.1684 84.4725 90.1426 84.747 90.0974L84.7502 90.0941Z" fill="white"/>
<path d="M93.2302 81.6521L92.9331 84.0314L92.5295 89.6326L92.4584 91.3953C92.452 91.6084 92.4262 91.7408 92.3745 91.7859C92.3228 91.8311 92.2292 91.8699 92.0871 91.8925L90.4726 92.154C90.2821 92.183 90.1982 92.0668 90.2176 91.7956L90.421 88.9547L90.7665 84.3801L90.6761 82.343C90.6728 82.1461 90.6793 82.0298 90.7019 82.0008L90.7342 81.9556L92.9815 81.2938C93.0849 81.2647 93.1591 81.2776 93.2011 81.3357C93.2431 81.3971 93.256 81.5004 93.2334 81.6489L93.2302 81.6521ZM91.0248 79.8765C90.802 79.5408 90.7116 79.0694 90.7568 78.4657C90.7988 77.862 90.9538 77.3778 91.2185 77.0162C91.4833 76.6546 91.8353 76.4383 92.2809 76.3673C92.7264 76.2963 93.0558 76.4028 93.2721 76.6837C93.4885 76.9678 93.5757 77.41 93.5337 78.0137C93.4885 78.6175 93.3303 79.1308 93.0526 79.544C92.7749 79.9604 92.4229 80.2026 91.9999 80.2736C91.5737 80.3414 91.2508 80.209 91.028 79.8733L91.0248 79.8765Z" fill="white"/>
<path d="M97.6686 85.5133L98.0722 83.0372C98.1207 82.7789 98.2337 82.6336 98.4113 82.6046L101.598 82.088C101.786 82.059 101.873 82.1752 101.853 82.4431L101.385 88.9322C101.372 89.1194 101.308 89.297 101.191 89.4616C100.323 90.5044 99.2185 91.1371 97.8785 91.3534C96.4255 91.5891 95.347 91.1726 94.6496 90.104C93.9521 89.0355 93.6873 87.347 93.852 85.0355C94.0232 82.6433 94.585 80.7353 95.5407 79.3052C96.4933 77.875 97.8139 77.0259 99.5059 76.7515C100.336 76.6159 101.056 76.6321 101.66 76.7999C101.815 76.8419 101.866 76.9936 101.808 77.2551L101.114 80.6546C101.072 80.8612 101.033 80.9775 100.998 81.0033C100.962 81.0291 100.881 81.0194 100.755 80.9742C100.035 80.7321 99.3735 80.6611 98.7697 80.7579C98.0432 80.8774 97.4587 81.2293 97.0196 81.8168C96.5805 82.4076 96.3221 83.2373 96.2447 84.3124C96.1672 85.3874 96.3125 86.2042 96.6773 86.7627C97.0422 87.3212 97.6169 87.5375 98.4016 87.4084C98.9214 87.3244 99.3993 87.121 99.832 86.7982L99.9289 85.4487L97.9366 85.9104C97.7945 85.9459 97.7041 85.9427 97.6719 85.8943C97.6363 85.8458 97.6363 85.7199 97.6719 85.5165L97.6686 85.5133Z" fill="white"/>
<path d="M105.72 79.6279L105.423 82.0073L105.02 87.6085L104.949 89.3712C104.942 89.5842 104.913 89.7166 104.865 89.7618C104.813 89.8102 104.719 89.8457 104.577 89.8683L102.963 90.1298C102.772 90.1621 102.688 90.0427 102.708 89.7715L102.911 86.9305L103.253 82.3559L103.163 80.3188C103.16 80.1187 103.166 80.0057 103.189 79.9766L103.221 79.9314L105.469 79.2696C105.572 79.2405 105.646 79.2535 105.688 79.3116C105.73 79.3729 105.743 79.4762 105.72 79.6247V79.6279ZM103.518 77.8523C103.295 77.5166 103.205 77.0453 103.25 76.4416C103.292 75.8378 103.447 75.3536 103.712 74.992C103.977 74.6304 104.329 74.4141 104.774 74.3431C105.22 74.2721 105.549 74.3754 105.766 74.6595C105.982 74.9436 106.069 75.3859 106.027 75.9896C105.982 76.5933 105.824 77.1034 105.546 77.5198C105.268 77.9363 104.916 78.1784 104.493 78.2494C104.067 78.3172 103.744 78.1849 103.521 77.8491L103.518 77.8523Z" fill="white"/>
<path d="M110.552 75.3597L112.993 74.9045C113.181 74.8754 113.268 74.9917 113.249 75.2628L113.032 78.2652C113.013 78.5461 112.909 78.6914 112.722 78.6946L110.817 78.9044L110.811 79.4048L110.304 86.4362L110.378 88.4959C110.381 88.6928 110.368 88.8187 110.336 88.8704C110.304 88.9221 110.217 88.9608 110.078 88.9834L108.053 89.3127C107.863 89.3417 107.779 89.2255 107.798 88.9543L108.024 86.1908L108.454 80.425L108.55 79.2725L106.645 79.6825C106.503 79.718 106.423 79.7244 106.406 79.7018C106.39 79.6792 106.387 79.5663 106.403 79.3629L106.62 76.3605C106.639 76.0925 106.742 75.9408 106.933 75.9117L109.367 75.5566L110.559 75.3629L110.552 75.3597Z" fill="white"/>
<path d="M121.236 87.1693L119.124 87.5115C118.953 87.5405 118.859 87.4502 118.837 87.2403L118.549 85.4163L115.392 85.9296L114.817 87.8957C114.762 88.1152 114.652 88.2411 114.481 88.2669L112.712 88.5543C112.486 88.5898 112.415 88.4477 112.505 88.1281L113.173 86.049L116.154 76.5641L116.664 74.7078C116.728 74.4721 116.838 74.3398 117 74.314L118.898 74.0073C119.06 73.9814 119.153 74.0783 119.186 74.2978L119.437 76.0508L121.078 84.7674L121.501 86.6689C121.572 86.9627 121.485 87.1305 121.239 87.1693H121.236ZM118.068 82.1653L117.671 78.5657L117.5 78.5948L116.396 82.4365L118.068 82.1653Z" fill="white"/>
<path d="M126.091 82.7561L127.716 82.1556C127.858 82.104 127.948 82.104 127.98 82.1556C128.013 82.2041 128.016 82.33 127.98 82.5333L127.509 85.7778C127.48 86.0361 127.373 86.1782 127.183 86.2072L122.607 86.9497C122.42 86.982 122.333 86.8626 122.352 86.5914L122.578 83.8279L123.076 77.3163L123.121 73.7845C123.127 73.5843 123.14 73.4713 123.159 73.439L123.176 73.4165L125.449 72.9677C125.552 72.9387 125.626 72.9516 125.668 73.0129C125.71 73.071 125.723 73.1776 125.701 73.3261L125.436 76.0185L124.935 82.9498L126.082 82.7626L126.091 82.7561Z" fill="white"/>
<path d="M134.624 85.3969C133.774 85.5357 132.954 85.3743 132.166 84.9191C132.04 84.8319 131.982 84.6899 131.989 84.4897L132.128 81.3808C132.134 81.1677 132.157 81.0418 132.195 80.9999C132.234 80.9611 132.318 80.9773 132.444 81.0483C133.426 81.5519 134.327 81.7392 135.15 81.6068C135.612 81.5325 135.935 81.4163 136.119 81.2614C136.303 81.1064 136.406 80.8804 136.425 80.5834C136.445 80.3154 136.328 80.1024 136.08 79.941C135.883 79.828 135.757 79.7602 135.702 79.744C135.612 79.6924 135.431 79.6149 135.16 79.5148L134.559 79.292C133.736 78.9337 133.161 78.5043 132.838 77.9975C132.515 77.4906 132.383 76.7029 132.441 75.6311C132.534 74.2074 132.948 73.0871 133.677 72.2639C134.417 71.4407 135.34 70.9403 136.448 70.7595C137.249 70.6303 138.037 70.6691 138.805 70.8757C138.97 70.9144 139.031 71.0565 138.986 71.3051L138.421 74.3042C138.376 74.5367 138.334 74.6626 138.295 74.6819C138.246 74.6884 138.169 74.6755 138.059 74.64C137.394 74.4301 136.69 74.3849 135.954 74.5044C135.473 74.5819 135.134 74.6981 134.943 74.8466C134.75 74.9983 134.643 75.2082 134.624 75.4761C134.643 75.7118 134.708 75.8764 134.817 75.9733C134.927 76.0669 135.185 76.1896 135.595 76.3349C136.106 76.5189 136.564 76.7094 136.968 76.9095C137.284 77.0451 137.588 77.2324 137.878 77.4777C138.221 77.7941 138.456 78.1653 138.589 78.5883C138.721 79.0112 138.76 79.5987 138.708 80.351C138.605 81.7747 138.172 82.9272 137.41 83.8085C136.655 84.6866 135.728 85.2161 134.62 85.3969H134.624Z" fill="white"/>
<path d="M147.935 75.8895C147.757 78.2139 147.212 80.1089 146.295 81.5714C145.397 83.0048 144.273 83.8312 142.924 84.0508C141.629 84.2606 140.676 83.8183 140.066 82.7207C139.453 81.6263 139.227 79.983 139.385 77.7942C139.556 75.402 140.098 73.4714 141.006 71.996C141.903 70.5368 143.027 69.6975 144.38 69.4779C145.684 69.2681 146.643 69.7362 147.26 70.8823C147.89 72.0025 148.113 73.6716 147.935 75.8895ZM143.56 80.2639C144.212 80.1574 144.69 79.8345 144.997 79.2954C145.3 78.7562 145.487 78.0073 145.558 77.0549C145.662 75.6441 145.562 74.6336 145.265 74.0267C144.968 73.4165 144.448 73.1744 143.702 73.2939C143.069 73.3972 142.607 73.7006 142.32 74.2042C142.032 74.7079 141.852 75.473 141.777 76.4932C141.674 77.9169 141.764 78.9306 142.049 79.5375C142.333 80.1412 142.836 80.3866 143.563 80.2671L143.56 80.2639Z" fill="white"/>
<path d="M152.214 78.5237L153.839 77.9232C153.981 77.8716 154.071 77.8716 154.103 77.9232C154.136 77.9716 154.139 78.0975 154.103 78.3009L153.632 81.5454C153.603 81.8037 153.496 81.9457 153.306 81.9748L148.73 82.7173C148.543 82.7464 148.456 82.6302 148.475 82.359L148.701 79.5955L149.199 73.0839L149.244 69.5521C149.25 69.3519 149.263 69.2389 149.283 69.2066L149.299 69.184L151.572 68.7353C151.675 68.7062 151.749 68.7191 151.791 68.7805C151.833 68.8386 151.846 68.9451 151.824 69.0936L151.559 71.7861L151.058 78.7174L152.205 78.5301L152.214 78.5237Z" fill="white"/>
<path d="M161.316 67.2309L163.461 66.8048C163.554 66.7757 163.628 66.7919 163.674 66.85C163.722 66.9081 163.735 67.0114 163.716 67.1631L163.451 69.8556L163.118 74.4496C162.95 76.774 162.514 78.4786 161.811 79.5601C161.097 80.6319 160.035 81.2808 158.617 81.5132C156.163 81.9103 155.078 80.1218 155.362 76.1477L155.659 72.038L155.646 68.5158C155.643 68.3157 155.65 68.2027 155.672 68.1736L155.688 68.151L158.033 67.6926C158.13 67.6635 158.201 67.6797 158.246 67.7378C158.294 67.7959 158.307 67.8992 158.288 68.0509L158.023 70.7434L157.729 74.8144C157.594 76.9322 157.994 77.9233 158.927 77.7845C159.595 77.6908 160.064 77.439 160.325 77.029C160.587 76.6222 160.751 75.9023 160.816 74.8693L161.084 70.9629L161.071 67.6409C161.071 67.6409 161.071 67.6022 161.065 67.5635C161.058 67.3923 161.078 67.2955 161.126 67.2761C161.145 67.2761 161.184 67.2664 161.239 67.2568C161.268 67.2535 161.291 67.2471 161.31 67.2438L161.316 67.2309Z" fill="white"/>
<path d="M168.238 66.0074L170.679 65.5522C170.866 65.5231 170.953 65.6394 170.934 65.9106L170.718 68.9129C170.698 69.1938 170.595 69.3391 170.408 69.3423L168.503 69.5521L168.496 70.0525L167.989 77.0839L168.064 79.1436C168.067 79.3438 168.054 79.4664 168.022 79.5181C167.989 79.5698 167.902 79.6085 167.763 79.6311L165.739 79.9604C165.548 79.9894 165.464 79.8732 165.484 79.602L165.71 76.8386L166.139 71.0727L166.236 69.9234L164.331 70.3334C164.189 70.3689 164.108 70.3754 164.092 70.3528C164.076 70.3302 164.073 70.2172 164.089 70.0138L164.305 67.0114C164.324 66.7435 164.428 66.5917 164.618 66.5627L167.053 66.2076L168.244 66.0139L168.238 66.0074Z" fill="white"/>
<path d="M173.902 68.5738L173.605 70.9531L173.201 76.5543L173.13 78.317C173.124 78.53 173.095 78.6624 173.046 78.7076C172.995 78.756 172.901 78.7915 172.759 78.8141L171.145 79.0756C170.954 79.1047 170.87 78.9885 170.889 78.7173L171.093 75.8763L171.435 71.2985L171.345 69.2614C171.342 69.0645 171.348 68.9482 171.371 68.9192L171.403 68.874L173.65 68.2122C173.754 68.1831 173.828 68.196 173.87 68.2574C173.912 68.3187 173.925 68.422 173.902 68.5705V68.5738ZM171.7 66.8014C171.477 66.4656 171.387 65.9943 171.432 65.3906C171.477 64.7869 171.629 64.3026 171.894 63.9411C172.158 63.5795 172.514 63.3632 172.956 63.2922C173.398 63.2211 173.731 63.3244 173.947 63.6085C174.164 63.8926 174.251 64.3349 174.209 64.9419C174.167 65.5456 174.005 66.0556 173.728 66.4721C173.45 66.8886 173.098 67.1307 172.675 67.2017C172.249 67.2695 171.926 67.1371 171.703 66.8014H171.7Z" fill="white"/>
<path d="M183.07 70.1944C182.892 72.5188 182.346 74.4139 181.429 75.8763C180.532 77.3097 179.408 78.1362 178.058 78.3557C176.764 78.5655 175.811 78.1232 175.201 77.0256C174.587 75.9312 174.361 74.2879 174.52 72.0991C174.691 69.7069 175.233 67.7763 176.14 66.301C177.038 64.8418 178.162 64.0024 179.515 63.7828C180.819 63.573 181.778 64.0411 182.395 65.1872C183.025 66.3074 183.247 67.9765 183.07 70.1944ZM178.691 74.5688C179.344 74.4623 179.821 74.1394 180.128 73.6003C180.432 73.0612 180.619 72.3122 180.69 71.3598C180.793 69.949 180.693 68.9385 180.396 68.3316C180.099 67.7215 179.576 67.4793 178.833 67.5988C178.201 67.7021 177.739 68.0055 177.451 68.5092C177.164 69.0128 176.983 69.7779 176.909 70.7981C176.806 72.2218 176.896 73.2355 177.18 73.8392C177.464 74.4429 177.968 74.6883 178.695 74.5688H178.691Z" fill="white"/>
<path d="M192.609 64.4674L191.979 73.1904L192.053 75.2501C192.057 75.447 192.044 75.5729 192.011 75.6246C191.979 75.6762 191.892 75.715 191.75 75.7376L189.935 76.0314C189.774 76.0572 189.667 75.9894 189.616 75.8247L188.934 74.0233L186.987 70.1557L186.89 69.933L186.881 69.8749L186.655 69.9104L186.351 74.1202L186.429 76.1573C186.432 76.3542 186.419 76.4801 186.387 76.5318C186.354 76.5834 186.267 76.6222 186.125 76.6448L184.143 76.9676C183.952 76.9966 183.868 76.8804 183.887 76.6092L184.088 73.849L184.469 68.7675L184.394 63.8023C184.398 63.6022 184.407 63.4956 184.417 63.4795L184.433 63.4375L186.577 63.0307C186.739 63.0049 186.845 63.0727 186.9 63.2373L187.517 64.7708L189.842 69.2324L189.997 69.2066L190.197 66.4076V62.8822C190.197 62.6853 190.197 62.5788 190.21 62.5626L190.242 62.5174L192.57 62.059C192.777 62.0267 192.861 62.1494 192.822 62.4367L192.606 64.4641L192.609 64.4674Z" fill="white"/>
<path d="M195.792 75.4827C194.943 75.6215 194.122 75.4601 193.335 75.0049C193.209 74.9177 193.151 74.7757 193.157 74.5755L193.296 71.4666C193.302 71.2535 193.325 71.1276 193.364 71.0856C193.402 71.0469 193.486 71.063 193.612 71.1341C194.594 71.6377 195.495 71.8249 196.318 71.6926C196.78 71.6183 197.103 71.5021 197.287 71.3471C197.471 71.1922 197.574 70.9662 197.594 70.6692C197.613 70.4012 197.497 70.1881 197.248 70.0267C197.051 69.9137 196.925 69.8459 196.87 69.8298C196.78 69.7781 196.599 69.7007 196.328 69.6006L195.727 69.3778C194.904 69.0195 194.329 68.5901 194.006 68.0832C193.683 67.5764 193.551 66.7887 193.609 65.7169C193.703 64.2931 194.116 63.1729 194.846 62.3497C195.585 61.5264 196.509 61.026 197.616 60.8453C198.417 60.7161 199.205 60.7549 199.973 60.9615C200.138 61.0002 200.199 61.1423 200.151 61.3908L199.586 64.39C199.541 64.6224 199.499 64.7483 199.46 64.7677C199.411 64.7742 199.334 64.7613 199.224 64.7257C198.559 64.5159 197.858 64.4707 197.119 64.5902C196.638 64.6676 196.299 64.7839 196.108 64.9324C195.914 65.0841 195.808 65.2939 195.789 65.5619C195.808 65.7976 195.873 65.9622 195.982 66.0591C196.092 66.1527 196.35 66.2754 196.76 66.4206C197.271 66.6047 197.729 66.7951 198.133 66.9953C198.449 67.1309 198.753 67.3181 199.043 67.5635C199.386 67.8799 199.621 68.2511 199.754 68.674C199.886 69.097 199.925 69.6845 199.873 70.4367C199.77 71.8604 199.337 73.013 198.575 73.8943C197.82 74.7724 196.893 75.3019 195.785 75.4827H195.792Z" fill="white"/>
<path d="M15.5775 25.719L14.9963 33.777V35.8464C15.006 36.0433 14.9931 36.1692 14.9608 36.2209C14.9285 36.2726 14.8413 36.3081 14.6993 36.3339L12.7458 36.6503C12.5552 36.6826 12.4713 36.5631 12.4907 36.2919L12.7167 33.5284L13.0008 29.7771L12.8878 29.7964L11.141 34.978L10.6857 36.6438C10.6211 36.8795 10.5049 37.0118 10.3337 37.0377L9.32955 37.1991C9.1681 37.2249 9.07446 37.1281 9.04217 36.9085L8.75157 34.7262L7.83132 30.6132L7.73122 30.6294L7.41479 35.0006V37.07C7.42448 37.2669 7.41156 37.3928 7.37927 37.4444C7.34698 37.4961 7.2598 37.5316 7.11773 37.5574L5.16423 37.8738C4.97695 37.9029 4.88977 37.7866 4.90914 37.5155L5.13517 34.752L5.63242 28.2404L5.67763 24.7085C5.67117 24.5116 5.67762 24.3954 5.70346 24.3663L5.73251 24.3405L8.28983 23.8272H8.30275V23.8659L10.2369 31.2202L10.4209 31.1717L13.1784 23.4366C13.2269 23.2816 13.2656 23.1848 13.2979 23.1396L13.314 23.117L15.5872 22.6682C15.6905 22.6392 15.7648 22.6521 15.8068 22.7134C15.8488 22.7748 15.8617 22.8781 15.8391 23.0266L15.5743 25.719H15.5775Z" fill="white" fill-opacity="0.5"/>
<path d="M16.0893 35.9301L17.6489 27.7107L18.6337 22.1935C18.666 21.9901 18.6886 21.8803 18.6983 21.8642L18.7273 21.8383L21.2233 21.4154L21.5333 21.3638V21.3831L20.8229 24.802L18.708 36.4757L18.4238 38.2933C18.4012 38.4709 18.3754 38.5806 18.3431 38.6258L18.314 38.6517L15.7341 39.0681C15.5275 39.1004 15.4532 38.968 15.5113 38.6678L16.0861 35.9269L16.0893 35.9301Z" fill="white" fill-opacity="0.5"/>
<path d="M23.7662 35.2651C22.9169 35.404 22.0968 35.2425 21.3089 34.7873C21.183 34.7002 21.1249 34.5581 21.1313 34.358L21.2702 31.249C21.2767 31.036 21.2993 30.9101 21.338 30.8681C21.3767 30.8294 21.4607 30.8455 21.5866 30.9165C22.5682 31.4234 23.4691 31.6074 24.2925 31.475C24.7542 31.4008 25.0771 31.2846 25.2611 31.1296C25.4452 30.9746 25.5485 30.7487 25.5679 30.4516C25.5873 30.1837 25.471 29.9706 25.2224 29.8092C25.0254 29.6962 24.8995 29.6284 24.8446 29.6123C24.7542 29.5606 24.5734 29.4831 24.3022 29.3831L23.7016 29.1603C22.8782 28.8019 22.3034 28.3693 21.9806 27.8657C21.6577 27.3589 21.5253 26.5711 21.5834 25.4993C21.677 24.0788 22.0903 22.9554 22.8201 22.1321C23.5595 21.3089 24.483 20.8053 25.5905 20.6277C26.3913 20.4986 27.1791 20.5373 27.9476 20.7439C28.1123 20.7827 28.1736 20.928 28.1252 21.1733L27.5601 24.1725C27.5149 24.4049 27.473 24.5308 27.4342 24.5502C27.3858 24.5566 27.3083 24.5437 27.1985 24.5082C26.5333 24.2984 25.8294 24.2532 25.0932 24.3726C24.6121 24.4501 24.2731 24.5663 24.0826 24.7148C23.8889 24.8666 23.7823 25.0764 23.7629 25.3444C23.7823 25.58 23.8469 25.7447 23.9567 25.8415C24.0664 25.9352 24.3248 26.0578 24.7348 26.2031C25.245 26.3871 25.7035 26.5776 26.1071 26.7778C26.4236 26.9133 26.7271 27.1006 27.0177 27.346C27.36 27.6623 27.5957 28.0336 27.7281 28.4565C27.8604 28.8794 27.8992 29.467 27.8475 30.2192C27.7442 31.6429 27.3115 32.7954 26.5495 33.6768C25.7939 34.5549 24.8672 35.0843 23.7597 35.2651H23.7662Z" fill="white" fill-opacity="0.5"/>
<path d="M14.8471 25.835L14.2659 33.893L14.2724 35.9624C14.2756 36.1594 14.2627 36.2853 14.2304 36.3369C14.1981 36.3886 14.1109 36.4241 13.9689 36.4499L12.0154 36.7663C11.8249 36.7953 11.7409 36.6791 11.7603 36.4079L11.9863 33.6445L12.2704 29.8931L12.1574 29.9125L10.4106 35.094L9.95531 36.7598C9.89073 36.9955 9.77449 37.1279 9.60336 37.1537L8.59915 37.3151C8.43771 37.3409 8.34407 37.2441 8.31178 37.0246L8.02118 34.8422L7.10094 30.7292L7.00084 30.7454L6.6844 35.1166V37.186C6.69409 37.3829 6.68118 37.5088 6.64889 37.5605C6.6166 37.6121 6.52942 37.6476 6.38734 37.6735L4.43384 37.9898C4.24333 38.0189 4.15937 37.9027 4.17875 37.6315L4.40478 34.868L4.90203 28.3564L4.94723 24.8246C4.94401 24.6276 4.95047 24.5114 4.97307 24.4824L5.00213 24.4565L7.55944 23.9432H7.57236V23.982L9.50648 31.3362L9.69377 31.2845L12.448 23.5494C12.4965 23.3944 12.5352 23.2975 12.5675 23.2523L12.5837 23.2298L14.8568 22.781C14.9601 22.752 15.0344 22.7649 15.0764 22.8262C15.1184 22.8875 15.1313 22.9909 15.1087 23.1394L14.8439 25.8318L14.8471 25.835Z" fill="white"/>
<path d="M15.3588 36.0498L16.9184 27.8304L17.9032 22.3131C17.9355 22.1097 17.9581 21.9999 17.9678 21.9838L17.9969 21.958L20.4928 21.5351L20.8028 21.4834V21.5028L20.0924 24.9248L17.9775 36.5986L17.6933 38.4162C17.6707 38.5937 17.6449 38.7035 17.6126 38.7487L17.5836 38.7745L15.0037 39.191C14.797 39.2233 14.7227 39.0909 14.7809 38.7907L15.3556 36.0498H15.3588Z" fill="white"/>
<path d="M23.0349 35.3815C22.1857 35.5203 21.3655 35.3589 20.5777 34.9037C20.4517 34.8165 20.3936 34.6745 20.3969 34.4743L20.5357 31.3654C20.5422 31.1523 20.5648 31.0264 20.6035 30.9845C20.6423 30.9457 20.7262 30.9619 20.8521 31.0329C21.8337 31.5365 22.7346 31.7237 23.558 31.5914C24.0197 31.5171 24.3426 31.4009 24.5267 31.246C24.7107 31.091 24.814 30.865 24.8334 30.568C24.8528 30.3 24.7365 30.087 24.4879 29.9288C24.2909 29.8158 24.165 29.748 24.1101 29.7318C24.0197 29.6802 23.8389 29.6027 23.5677 29.5026L22.9671 29.2799C22.1437 28.9215 21.569 28.4922 21.2461 27.9853C20.9232 27.4784 20.7908 26.6907 20.8489 25.6189C20.9425 24.1984 21.3559 23.075 22.0856 22.2517C22.825 21.4285 23.7485 20.9249 24.856 20.7473C25.66 20.6182 26.4446 20.6569 27.2131 20.8635C27.3778 20.9023 27.4391 21.0475 27.3907 21.2929L26.8257 24.292C26.7804 24.5245 26.7385 24.6504 26.6997 24.6698C26.6513 24.6762 26.5738 24.6633 26.464 24.6278C25.7989 24.418 25.0949 24.3728 24.3587 24.4922C23.8776 24.5697 23.5386 24.6859 23.3481 24.8344C23.1544 24.9861 23.0478 25.196 23.0284 25.4639C23.0478 25.6996 23.1124 25.8643 23.2222 25.9611C23.332 26.0547 23.5903 26.1774 24.0003 26.3227C24.5105 26.5067 24.969 26.6972 25.3726 26.8973C25.6891 27.0329 25.9926 27.2234 26.2832 27.4655C26.6255 27.7819 26.8612 28.1532 26.9936 28.5761C27.1259 28.999 27.1647 29.5866 27.113 30.3388C27.0097 31.7625 26.577 32.915 25.815 33.7964C25.0594 34.6745 24.1327 35.2039 23.0252 35.3847L23.0349 35.3815Z" fill="white"/>
<path d="M169.99 17.8531C168.934 18.0435 168.072 17.2074 168.072 15.9935V12.7135C168.072 11.4996 168.934 10.3503 169.99 10.1599C171.046 9.96939 171.908 10.8055 171.908 12.0194V15.2994C171.908 16.5133 171.046 17.6626 169.99 17.8531Z" fill="#ECF7FF"/>
<path d="M169.99 32.6778C168.934 32.8682 168.072 32.0321 168.072 30.8182V27.5382C168.072 26.3243 168.934 25.175 169.99 24.9846C171.046 24.7941 171.908 25.6302 171.908 26.8441V30.1241C171.908 31.338 171.046 32.4873 169.99 32.6778Z" fill="#FDFDFD" fill-opacity="0.5"/>
<path d="M171.399 34.3791C186.766 31.3186 184.128 58.4692 168.674 60.3287C152.995 62.2173 152.139 34.279 158.891 23.6577C162.607 16.9847 170.515 14.3987 176.039 16.4584C178.225 17.272 182.016 20.6553 182.016 25.4914C182.016 26.6762 180.786 27.6802 180.101 28.0515C179.194 28.5454 177.635 28.5422 177.17 27.9643C176.986 27.7351 176.995 27.3413 176.869 26.8667C175.587 22.0693 172.233 22.4309 170.553 22.6343C169.378 22.7731 166.666 23.1896 164.538 25.698C163.101 27.3897 161.89 29.4429 161.755 32.4195C161.616 35.4671 161.845 36.0966 164.325 35.7253C166.53 35.396 169.149 34.7891 171.396 34.3823L171.399 34.3791ZM170.153 53.2586C172.765 52.6968 174.525 51.257 175.568 49.5298C177.131 46.9407 177.157 43.2668 175.584 41.5396C174.829 40.7067 174.625 40.4226 173.04 40.2418C171.551 40.0739 164.925 40.3387 162.759 44.2385C161.083 47.257 161.952 51.7703 164.083 53.0746C165.807 54.1302 167.389 53.8494 170.153 53.2553V53.2586Z" fill="#ECF7FF" fill-opacity="0.5"/>
<path d="M170.417 34.3791C185.784 31.3186 183.145 58.4691 167.692 60.3287C152.012 62.2173 151.156 34.279 157.908 23.6577C161.625 16.9846 169.532 14.3987 175.057 16.4584C177.243 17.272 181.034 20.6553 181.034 25.4914C181.034 26.6762 179.804 27.6802 179.119 28.0515C178.212 28.5454 176.652 28.5422 176.187 27.9643C176.003 27.7351 176.013 27.3412 175.887 26.8667C174.605 22.0693 171.25 22.4309 169.571 22.6343C168.396 22.7731 165.683 23.1896 163.556 25.698C162.119 27.3897 160.908 29.4429 160.772 32.4195C160.633 35.467 160.863 36.0966 163.342 35.7253C165.548 35.396 168.166 34.7891 170.414 34.3823L170.417 34.3791ZM169.174 53.2586C171.786 52.6968 173.546 51.257 174.589 49.5298C176.152 46.9406 176.177 43.2668 174.605 41.5396C173.849 40.7067 173.646 40.4226 172.061 40.2418C170.572 40.0739 163.946 40.3386 161.78 44.2385C160.104 47.257 160.972 51.7703 163.103 53.0745C164.828 54.1302 166.41 53.8493 169.174 53.2553V53.2586Z" fill="#ECF7FF"/>
<path d="M169.393 32.6778C168.337 32.8682 167.475 32.0321 167.475 30.8182V27.5382C167.475 26.3243 168.337 25.175 169.393 24.9846C170.448 24.7941 171.311 25.6302 171.311 26.8441V30.1241C171.311 31.338 170.448 32.4873 169.393 32.6778Z" fill="#ECF7FF"/>
<path d="M170.677 11.1477L168.795 11.4867V1.12687L170.677 0.784668V11.1477Z" fill="#ECF7FF"/>
<path d="M169.393 17.8531C168.337 18.0435 167.475 17.2074 167.475 15.9935V12.7135C167.475 11.4996 168.337 10.3503 169.393 10.1599C170.448 9.96939 171.311 10.8055 171.311 12.0194V15.2994C171.311 16.5133 170.448 17.6626 169.393 17.8531Z" fill="#ECF7FF"/>
</svg>
