<svg width="41" height="41" viewBox="0 0 41 41" fill="none" xmlns="http://www.w3.org/2000/svg">
<circle cx="20.3906" cy="20.8574" r="19.5" stroke="#01193D"/>
<path d="M13.5361 12.8574C8.64706 12.8576 4.55413 17.436 4.44043 22.9951C4.44053 26.3468 6.37376 28.4727 9.89844 28.4727C12.9681 28.4725 14.6734 27.2457 17.7432 23.4854L19.335 21.5234C19.6761 21.0329 20.0173 20.6236 20.3584 20.2148C21.3792 21.4381 22.7393 23.2313 22.7461 23.2402C26.1572 27.4914 27.9766 28.3906 30.5918 28.3906C34.2303 28.3906 36.3906 26.3463 36.3906 23.0762C36.3904 17.8441 32.4108 12.8574 27.1807 12.8574C24.6792 12.8574 22.519 13.7571 20.0176 16.1279C18.1983 14.3294 16.1513 12.8574 13.5361 12.8574ZM13.7637 14.9014C15.4692 14.9014 16.8336 15.8824 18.5391 17.7627C18.0844 18.2531 17.5162 18.8254 17.0615 19.3975L15.1279 21.6865C12.1717 25.1201 11.6035 25.8564 10.0117 25.8564C8.41989 25.8564 7.62402 24.875 7.62402 23.1582C7.62408 18.5802 10.3527 14.9015 13.7637 14.9014ZM27.2939 15.3916C30.3638 15.3916 32.9793 19.3156 32.9795 23.0762C32.9795 24.8746 31.9564 25.856 30.4785 25.7744C29.0004 25.7744 28.0902 25.1203 25.3613 22.0137C25.3462 21.9969 24.0986 20.61 22.0645 18.335C24.2245 16.1279 25.5887 15.3917 27.2939 15.3916Z" fill="#01193D"/>
<path d="M13.5361 12.8574C8.64706 12.8576 4.55413 17.436 4.44043 22.9951C4.44053 26.3468 6.37376 28.4727 9.89844 28.4727C12.9681 28.4725 14.6734 27.2457 17.7432 23.4854L19.335 21.5234C19.6761 21.0329 20.0173 20.6236 20.3584 20.2148C21.3792 21.4381 22.7393 23.2313 22.7461 23.2402C26.1572 27.4914 27.9766 28.3906 30.5918 28.3906C34.2303 28.3906 36.3906 26.3463 36.3906 23.0762C36.3904 17.8441 32.4108 12.8574 27.1807 12.8574C24.6792 12.8574 22.519 13.7571 20.0176 16.1279C18.1983 14.3294 16.1513 12.8574 13.5361 12.8574ZM13.7637 14.9014C15.4692 14.9014 16.8336 15.8824 18.5391 17.7627C18.0844 18.2531 17.5162 18.8254 17.0615 19.3975L15.1279 21.6865C12.1717 25.1201 11.6035 25.8564 10.0117 25.8564C8.41989 25.8564 7.62402 24.875 7.62402 23.1582C7.62408 18.5802 10.3527 14.9015 13.7637 14.9014ZM27.2939 15.3916C30.3638 15.3916 32.9793 19.3156 32.9795 23.0762C32.9795 24.8746 31.9564 25.856 30.4785 25.7744C29.0004 25.7744 28.0902 25.1203 25.3613 22.0137C25.3462 21.9969 24.0986 20.61 22.0645 18.335C24.2245 16.1279 25.5887 15.3917 27.2939 15.3916Z" stroke="#01193D"/>
</svg>
