<svg width="1157" height="700" viewBox="0 0 1157 700" fill="none" xmlns="http://www.w3.org/2000/svg">
<path d="M1137.13 529.636C1138.91 526.778 1136.05 526.242 1132.66 516.059C1129.62 506.947 1122.47 504.625 1116.04 488.903C1103.35 496.049 1076.18 495.871 1067.25 495.156C1057.06 494.263 1041.87 500.158 1042.58 504.446C1043.48 508.734 1045.09 508.734 1055.27 511.235C1065.46 513.736 1082.44 513.736 1095.13 514.629C1097.27 514.629 1099.42 515.165 1101.38 515.523C1097.81 508.019 1096.74 499.265 1101.38 497.121C1108.71 493.727 1118.36 499.444 1120.68 506.769C1123.01 514.093 1128.01 531.78 1129.8 535.175C1131.59 538.569 1135.52 532.316 1137.13 529.458V529.636Z" fill="#DE9400"/>
<path d="M1156.07 569.119V560.008C1151.42 557.685 1147.13 554.112 1142.85 554.112C1136.05 554.112 1132.12 558.043 1133.73 562.688C1134.8 565.546 1144.81 566.439 1156.07 569.298V569.119Z" fill="#DE9400"/>
<path d="M1084.4 544.822C1091.73 546.608 1109.96 552.146 1117.29 553.933C1124.61 555.719 1129.26 556.791 1129.26 550.003C1129.26 543.214 1122.29 536.961 1115.5 531.065C1115.5 532.495 1115.32 534.102 1114.78 535.889C1111.39 550.36 1087.62 546.072 1067.25 532.494C1059.92 527.492 1054.56 526.063 1050.62 526.242C1054.73 538.747 1064.56 573.406 1077.97 650.585H1104.42C1111.93 609.852 1117.47 590.557 1119.79 583.232C1117.29 583.232 1113.53 584.125 1108.71 587.341C1095.13 596.453 1079.22 599.311 1076.9 589.664C1074.57 580.016 1081.36 576.086 1089.94 575.55C1098.52 575.014 1109.78 575.014 1116.57 573.228C1123.36 571.441 1124.44 571.441 1125.15 568.761C1125.69 565.903 1115.5 561.972 1108.71 562.508C1101.92 563.044 1078.68 563.044 1072.96 555.719C1067.25 548.395 1076.9 543.214 1084.22 545L1084.4 544.822Z" fill="#DE9400"/>
<path d="M1156.07 600.383V581.624C1145.88 574.478 1134.27 572.87 1134.27 572.87C1134.27 572.87 1143.92 583.589 1151.25 595.023C1152.5 596.988 1154.1 598.775 1155.89 600.561L1156.07 600.383Z" fill="#DE9400"/>
<path d="M1141.59 593.058C1136.41 583.947 1131.94 580.553 1131.94 580.553C1131.94 580.553 1136.41 593.594 1140.52 611.817C1144.45 630.04 1141.59 638.972 1134.8 637.365C1128.01 635.578 1126.22 633.97 1126.22 619.142C1126.22 604.314 1125.69 586.806 1125.69 586.806C1123.18 594.845 1118 613.782 1111.21 650.764H1156.07V624.323C1150.71 617.177 1146.24 601.277 1141.77 593.237L1141.59 593.058Z" fill="#DE9400"/>
<path d="M1041.87 531.601C1041.87 531.601 1040.97 557.863 1040.97 580.016C1040.97 602.169 1038.47 604.67 1028.28 607.171C1018.1 609.673 1013.81 596.095 1019.88 568.94C1025.78 541.784 1032.57 522.311 1032.57 522.311C1032.57 522.311 1025.78 527.313 1018.1 540.891C1010.41 554.469 1002.9 583.232 993.433 590.914C984.139 598.596 974.846 594.308 970.556 581.624C966.267 568.94 992.539 560.364 1003.62 543.392C1014.7 526.42 1029 510.341 1029 510.341C1029 510.341 1011.13 512.842 995.935 523.919C980.744 534.995 974.667 553.575 962.871 551.968C951.076 550.36 945.893 531.601 968.769 516.415C991.645 501.23 1027.39 501.945 1029.89 495.156C1032.39 488.367 1026.5 482.471 1016.31 482.471C1006.12 482.471 995.041 496.942 983.246 493.548C971.45 490.153 964.659 477.469 984.139 469.787C1003.62 462.105 1022.39 471.395 1022.39 467.286C1022.39 463.177 1018.1 445.311 1004.51 443.525C990.931 441.917 961.263 466.392 948.574 464.785C935.885 463.177 930.702 440.13 948.574 433.342C966.446 426.553 985.926 434.235 985.033 429.054C984.139 424.052 962.157 419.764 945.178 414.583C928.2 409.581 919.8 402.792 929.093 384.926C938.387 367.061 965.552 402.792 982.531 417.084C999.509 431.555 1007.91 427.267 1007.91 427.267C1007.91 427.267 1007.02 415.476 1002.9 404.4C998.616 393.323 980.029 373.85 974.846 347.588C969.842 321.326 980.744 300.959 999.509 320.432C1018.27 339.906 1012.2 400.112 1012.2 400.112C1013.09 414.583 1019.88 428.161 1019.88 428.161C1019.88 428.161 1034.36 403.506 1035.07 389.214C1035.79 374.922 1035.97 335.797 1052.95 331.509C1069.93 327.221 1069.93 345.087 1059.74 376.53C1049.55 407.973 1036.86 410.474 1031.68 425.659C1026.67 440.845 1022.39 441.738 1024.89 446.026C1027.39 450.314 1033.29 459.604 1035.97 454.423C1038.47 449.42 1046.16 422.98 1049.55 412.082C1052.95 401.005 1067.42 392.608 1078.33 397.611C1089.41 402.613 1078.32 432.448 1066.53 440.845C1054.73 449.242 1036.86 466.214 1036.86 476.397C1036.86 486.58 1043.65 484.794 1054.73 482.293C1065.81 479.791 1092.98 471.216 1103.88 468.715C1105.85 468.179 1107.99 468.179 1110.14 468.358C1107.99 456.745 1110.14 450.85 1118.54 452.815C1129.8 455.673 1129.8 481.757 1130.51 491.404C1131.05 501.051 1140.7 517.487 1140.7 517.487C1140.7 517.487 1145.17 508.376 1145.88 498.729C1145.88 498.729 1141.95 458.532 1154.46 445.49C1155.17 444.775 1155.71 444.239 1156.25 443.703V123.556H48.1794V650.763H1067.96C1055.45 579.659 1046.16 545.179 1041.87 531.601Z" fill="#DE9400"/>
<path d="M1148.56 517.13C1148.56 517.13 1151.06 518.38 1156.07 516.415V494.441C1154.28 497.299 1152.67 499.8 1151.96 501.766C1149.1 509.09 1148.56 517.13 1148.56 517.13Z" fill="#DE9400"/>
<path d="M1150.71 527.849C1141.59 528.921 1138.73 540.891 1138.73 543.749C1138.73 546.608 1146.42 542.677 1155.89 543.571V528.564C1153.92 528.028 1152.14 527.671 1150.71 527.849Z" fill="#DE9400"/>
<path d="M181.82 462.77C167.997 464.414 163.868 480.863 163.868 484.811C163.868 488.759 182.718 480.041 202.465 487.114C222.212 494.187 215.39 506.03 203.363 509.155C191.335 512.281 180.205 498.957 169.972 498.957C159.739 498.957 153.636 504.385 156.149 510.8C158.662 517.051 194.746 516.228 217.904 530.539C241.062 544.685 235.856 561.956 223.828 563.601C211.8 565.246 205.876 547.81 190.437 537.612C174.998 527.413 157.046 524.946 157.046 524.946C157.046 524.946 171.588 539.915 182.718 555.541C193.848 571.332 220.417 579.063 216.109 590.906C211.8 602.749 202.285 606.697 192.95 599.624C183.436 592.551 175.716 565.739 167.997 553.238C160.278 540.573 153.456 535.967 153.456 535.967C153.456 535.967 160.278 554.061 166.381 579.227C172.306 604.394 168.177 617.06 157.764 614.592C147.532 612.289 144.839 609.822 144.839 589.426C144.839 569.029 143.941 544.52 143.941 544.52C138.915 559.653 126.169 602.585 109.653 698.975H99.4204C117.193 596.005 130.118 553.403 134.965 539.586C131.016 539.586 125.63 540.737 118.091 545.343C97.4457 558.008 73.39 561.792 69.9791 548.468C66.5682 535.144 76.8009 529.552 89.7263 528.729C102.652 527.907 119.706 527.907 130.118 525.604C140.351 523.301 142.146 523.301 143.044 519.354C143.941 515.406 128.503 509.978 118.091 510.636C107.858 511.458 72.6719 511.458 64.0549 501.26C55.438 491.062 69.9791 483.989 81.2889 486.291C92.4191 488.594 119.886 496.49 131.016 498.957C142.146 501.26 148.968 502.905 148.968 493.529C148.968 484.153 131.016 468.362 118.988 460.467C106.96 452.571 95.83 425.102 106.96 420.332C118.091 415.561 132.632 423.457 136.222 433.655C139.633 443.853 147.352 468.198 150.045 472.968C152.558 477.738 158.662 469.02 161.175 465.072C163.689 461.125 159.38 460.302 154.354 446.156C149.148 432.01 136.402 429.707 125.989 400.593C115.757 371.479 115.757 355.03 132.811 358.977C150.045 362.925 150.045 399.113 150.763 412.436C151.661 425.76 166.202 448.624 166.202 448.624C166.202 448.624 173.024 435.958 173.921 422.634C173.921 422.634 167.997 366.708 186.847 348.615C205.696 330.521 216.827 349.437 211.8 373.781C206.594 398.126 187.744 416.219 183.436 426.418C179.127 436.616 178.23 447.637 178.23 447.637C178.23 447.637 186.847 451.584 203.901 438.261C221.135 424.937 248.602 391.875 257.937 408.324C267.451 424.773 258.834 431.188 241.6 435.793C224.366 440.564 202.106 444.511 201.208 449.117C200.311 453.723 220.058 446.814 238.19 453.065C256.142 459.315 251.115 480.534 238.19 482.179C225.264 483.824 195.284 460.96 181.461 462.441L181.82 462.77Z" fill="white"/>
<path d="M306.787 430.841H15.6513C9.23546 430.841 4.03442 436.04 4.03442 442.454V568.762C4.03442 575.175 9.23546 580.374 15.6513 580.374H306.787C313.203 580.374 318.404 575.175 318.404 568.762V442.454C318.404 436.04 313.203 430.841 306.787 430.841Z" fill="#314E52" stroke="#314E52" stroke-linecap="round" stroke-linejoin="round"/>
<path d="M314.65 419.407H23.5141C17.0983 419.407 11.8972 424.606 11.8972 431.02V557.328C11.8972 563.741 17.0983 568.94 23.5141 568.94H314.65C321.066 568.94 326.267 563.741 326.267 557.328V431.02C326.267 424.606 321.066 419.407 314.65 419.407Z" fill="white" stroke="#314E52" stroke-linecap="round" stroke-linejoin="round"/>
<path d="M326.267 444.955V431.02C326.267 424.588 321.084 419.407 314.65 419.407H23.5141C17.0801 419.407 11.8972 424.588 11.8972 431.02V444.955H326.267Z" fill="#B0BBBD" stroke="#314E52" stroke-linecap="round" stroke-linejoin="round"/>
<path d="M320.192 438.345C327.298 438.345 333.059 432.586 333.059 425.482C333.059 418.378 327.298 412.619 320.192 412.619C313.085 412.619 307.324 418.378 307.324 425.482C307.324 432.586 313.085 438.345 320.192 438.345Z" fill="#314E52" stroke="#314E52" stroke-linecap="round" stroke-linejoin="round"/>
<path d="M313.04 418.516L327.159 432.629" stroke="white" stroke-linecap="round" stroke-linejoin="round"/>
<path d="M327.159 418.516L313.04 432.629" stroke="white" stroke-linecap="round" stroke-linejoin="round"/>
<path d="M173.103 498.194C186.527 498.194 197.409 487.316 197.409 473.897C197.409 460.478 186.527 449.6 173.103 449.6C159.679 449.6 148.797 460.478 148.797 473.897C148.797 487.316 159.679 498.194 173.103 498.194Z" fill="#314E52" stroke="#314E52" stroke-linecap="round" stroke-linejoin="round"/>
<path d="M159.88 460.676L186.509 487.296" stroke="white" stroke-width="3" stroke-linecap="round" stroke-linejoin="round"/>
<path d="M186.509 460.676L159.88 487.296" stroke="white" stroke-width="3" stroke-linecap="round" stroke-linejoin="round"/>
<path d="M108.766 508.02H236.908C242.806 508.02 247.632 512.844 247.632 518.739V541.607C247.632 547.502 242.806 552.326 236.908 552.326H108.766C102.868 552.326 98.0425 547.502 98.0425 541.607V518.739C98.0425 512.844 102.868 508.02 108.766 508.02Z" fill="#314E52"/>
<path d="M159.037 521.143C159.037 522.064 158.877 522.922 158.556 523.715C158.241 524.509 157.795 525.2 157.217 525.789C156.64 526.372 155.943 526.83 155.126 527.163C154.315 527.495 153.414 527.661 152.422 527.661C151.431 527.661 150.526 527.495 149.71 527.163C148.893 526.83 148.193 526.372 147.61 525.789C147.032 525.2 146.583 524.509 146.262 523.715C145.947 522.922 145.79 522.064 145.79 521.143C145.79 520.221 145.947 519.364 146.262 518.57C146.583 517.777 147.032 517.089 147.61 516.505C148.193 515.922 148.893 515.464 149.71 515.131C150.526 514.799 151.431 514.633 152.422 514.633C153.414 514.633 154.315 514.802 155.126 515.14C155.943 515.473 156.64 515.931 157.217 516.514C157.795 517.097 158.241 517.786 158.556 518.579C158.877 519.372 159.037 520.227 159.037 521.143ZM156.01 521.143C156.01 520.513 155.928 519.947 155.765 519.445C155.601 518.938 155.365 518.509 155.056 518.159C154.753 517.809 154.379 517.541 153.936 517.354C153.493 517.167 152.988 517.074 152.422 517.074C151.851 517.074 151.34 517.167 150.891 517.354C150.448 517.541 150.071 517.809 149.762 518.159C149.459 518.509 149.226 518.938 149.062 519.445C148.899 519.947 148.817 520.513 148.817 521.143C148.817 521.779 148.899 522.35 149.062 522.858C149.226 523.359 149.459 523.785 149.762 524.135C150.071 524.485 150.448 524.754 150.891 524.94C151.34 525.121 151.851 525.211 152.422 525.211C152.988 525.211 153.493 525.121 153.936 524.94C154.379 524.754 154.753 524.485 155.056 524.135C155.365 523.785 155.601 523.359 155.765 522.858C155.928 522.35 156.01 521.779 156.01 521.143ZM163.409 519.935H163.881C164.319 519.935 164.634 519.798 164.826 519.524L167.696 515.359C167.854 515.131 168.032 514.977 168.23 514.895C168.434 514.814 168.682 514.773 168.974 514.773H171.546L167.766 519.926C167.632 520.113 167.492 520.268 167.346 520.39C167.201 520.513 167.052 520.615 166.9 520.696C167.122 520.778 167.323 520.892 167.504 521.038C167.691 521.178 167.86 521.367 168.011 521.606L171.861 527.521H169.219C169.05 527.521 168.904 527.51 168.781 527.486C168.665 527.463 168.563 527.428 168.475 527.381C168.388 527.335 168.312 527.279 168.248 527.215C168.183 527.145 168.122 527.066 168.064 526.979L165.176 522.543C165.071 522.379 164.937 522.266 164.774 522.201C164.616 522.131 164.401 522.096 164.126 522.096H163.409V527.521H160.451V514.773H163.409V519.935Z" fill="white"/>
<path d="M274.792 698.82H414.551L473.172 698.105C473.172 698.105 454.227 628.788 438.321 557.326C435.283 543.749 416.517 473.716 412.764 467.285C407.939 458.709 398.824 453.528 388.994 453.528L357.003 451.563C357.003 451.563 270.324 450.134 232.792 467.285C195.261 484.257 212.418 517.487 212.418 517.487L274.97 698.999L274.792 698.82Z" fill="#314E52" stroke="#314E52" stroke-linecap="round" stroke-linejoin="round"/>
<path d="M274.791 698.82H316.969C304.28 659.159 266.391 540.176 255.668 506.589C244.229 470.322 220.281 478.004 215.455 479.969C201.873 496.942 212.417 517.487 212.417 517.487L274.969 698.999L274.791 698.82Z" fill="white" stroke="#314E52" stroke-linecap="round" stroke-linejoin="round"/>
<path d="M681.737 581.266C681.737 581.266 692.46 579.837 701.217 585.197C709.975 590.556 728.562 607.171 737.855 609.672C747.149 612.173 755.012 615.032 766.629 615.032C778.246 615.032 783.786 613.603 781.284 618.426C778.782 623.25 773.957 624.322 768.595 623.786C763.233 623.25 751.438 621.285 751.438 621.285C751.438 621.285 756.799 623.25 759.302 635.934C761.804 648.619 756.799 655.407 752.868 657.909C748.936 660.41 746.076 652.549 746.076 652.549C746.076 652.549 741.608 659.338 736.783 658.445C731.957 657.551 736.783 653.085 737.319 645.76C737.855 638.435 730.528 625.751 726.596 623.786L722.664 621.821C722.664 621.821 720.162 632.004 722.664 637.899C725.166 643.795 733.387 653.978 730.528 657.909C727.668 661.839 721.234 657.373 717.838 652.549C714.443 647.725 713.013 636.827 711.941 631.468C710.868 626.108 704.613 615.746 701.754 614.853C698.894 613.96 695.856 613.96 694.962 615.746C694.069 617.712 690.494 619.141 695.856 630.396C701.217 641.651 708.009 647.011 706.043 651.477C704.077 655.943 697.822 654.336 691.924 644.688C686.026 634.862 682.63 614.317 683.703 611.459C684.596 608.6 676.911 606.099 676.911 606.099L681.737 581.266Z" fill="white" stroke="#314E52" stroke-linecap="round" stroke-linejoin="round"/>
<path d="M741.428 621.285C741.428 621.285 752.151 630.575 748.219 645.76" stroke="#314E52" stroke-linecap="round" stroke-linejoin="round"/>
<path d="M685.135 575.371L678.522 624.5L601.494 647.725L587.375 583.231L685.135 575.371Z" fill="#B0BBBD" stroke="#314E52" stroke-linecap="round" stroke-linejoin="round"/>
<path d="M596.312 698.82C588.091 674.166 522.322 474.789 514.458 466.928C506.237 458.531 466.561 451.742 466.561 451.742L488.365 698.999H596.312V698.82Z" fill="#314E52" stroke="#314E52" stroke-linecap="round" stroke-linejoin="round"/>
<path d="M586.66 368.49C586.66 368.49 585.767 415.118 594.345 437.629C602.924 460.318 603.817 463.891 603.817 463.891C603.817 463.891 551.274 464.427 532.329 458.531C513.385 452.636 504.27 447.633 504.27 447.633L509.632 400.111C509.632 400.111 575.222 398.682 586.481 368.49H586.66Z" fill="#01193D" stroke="#01193D" stroke-linecap="round" stroke-linejoin="round"/>
<path d="M592.02 312.571C592.02 312.571 595.237 357.771 584.872 389.392C574.506 421.014 547.698 422.801 537.868 419.227C527.86 415.654 523.928 406.543 513.92 413.332C503.911 420.121 500.337 450.849 500.337 450.849L443.325 425.123L460.125 321.504C460.125 321.504 543.408 291.133 592.199 312.393L592.02 312.571Z" fill="white" stroke="#314E52" stroke-linecap="round" stroke-linejoin="round"/>
<path d="M557.349 322.04C554.489 320.611 551.272 319.717 547.876 319.717C542.515 319.717 537.689 321.682 534.115 324.898" stroke="#314E52" stroke-width="3" stroke-linecap="round" stroke-linejoin="round"/>
<path d="M592.734 329.186C589.696 328.293 586.658 328.114 583.62 328.65" stroke="#314E52" stroke-width="3" stroke-linecap="round" stroke-linejoin="round"/>
<path d="M551.631 348.659C550.737 351.339 548.592 352.947 546.805 352.411C545.018 351.875 544.303 349.195 545.197 346.694C546.09 344.014 548.235 342.406 550.022 342.942C551.809 343.478 552.524 346.158 551.631 348.659Z" fill="#314E52"/>
<path d="M583.802 355.269C582.908 357.949 580.764 359.557 578.977 359.021C577.189 358.485 576.475 355.805 577.368 353.304C578.262 350.803 580.406 349.016 582.194 349.552C583.981 350.088 584.696 352.768 583.802 355.269Z" fill="#314E52"/>
<path d="M570.933 356.877C570.933 356.877 570.039 364.738 572.362 369.383C574.864 373.85 573.613 376.708 569.681 377.959C565.75 379.209 560.031 378.852 559.137 373.492" stroke="#314E52" stroke-linecap="round" stroke-linejoin="round"/>
<path d="M537.869 373.313C537.869 373.313 543.588 390.285 561.281 389.749" stroke="#314E52" stroke-width="2" stroke-linecap="round" stroke-linejoin="round"/>
<path d="M563.017 362.342C571.113 354.249 571.113 341.128 563.017 333.035C554.921 324.941 541.794 324.941 533.698 333.035C525.602 341.128 525.602 354.249 533.698 362.342C541.794 370.436 554.921 370.436 563.017 362.342Z" stroke="#314E52" stroke-linecap="round" stroke-linejoin="round"/>
<path d="M603.494 368.959C611.86 362.041 613.032 349.653 606.111 341.291C599.19 332.928 586.798 331.757 578.432 338.675C570.066 345.593 568.894 357.981 575.815 366.344C582.736 374.706 595.128 375.877 603.494 368.959Z" stroke="#314E52" stroke-linecap="round" stroke-linejoin="round"/>
<path d="M569.146 349.553H571.29" stroke="#314E52" stroke-linecap="round" stroke-linejoin="round"/>
<path d="M590.95 353.483L612.754 352.947" stroke="#314E52" stroke-linecap="round" stroke-linejoin="round"/>
<path d="M529.289 344.729L515.706 346.336" stroke="#314E52" stroke-linecap="round" stroke-linejoin="round"/>
<path d="M583.442 698.821H639.024C632.59 683.635 580.582 560.364 573.255 534.281C565.391 506.411 553.774 477.648 540.906 468.358C528.217 459.068 507.128 453.708 509.63 474.253L583.442 698.999V698.821Z" fill="#B0BBBD" stroke="#314E52" stroke-linecap="round" stroke-linejoin="round"/>
<path d="M539.123 516.058L560.927 585.018C561.284 586.09 562.356 586.804 563.607 586.626C565.216 586.447 566.11 584.839 565.573 583.41L543.591 517.13L539.123 516.058Z" fill="#DE9400" stroke="#314E52" stroke-linecap="round" stroke-linejoin="round"/>
<path d="M540.372 567.51C540.372 567.51 551.631 539.64 553.597 526.062C555.563 512.306 558.959 501.586 561.461 494.798C563.963 488.009 562.355 478.719 556.993 470.858C551.631 462.997 519.283 448.348 513.028 448.348C506.773 448.348 502.841 458.531 506.236 466.392C509.632 474.252 540.372 567.51 540.372 567.51Z" fill="#B0BBBD" stroke="#314E52" stroke-linecap="round" stroke-linejoin="round"/>
<path d="M548.057 499.979C550.559 485.686 551.81 474.431 552.347 466.392C541.623 458.531 518.39 448.348 513.028 448.348C507.666 448.348 502.841 458.531 506.237 466.392C508.739 471.93 525.181 521.238 534.296 548.93C537.513 541.605 543.589 525.169 548.057 499.979Z" fill="#DE9400" stroke="#314E52" stroke-linecap="round" stroke-linejoin="round"/>
<path d="M497.299 698.82L494.44 569.296C493.546 539.997 456.73 465.141 422.594 461.389C388.458 457.638 359.506 467.821 357.004 475.503C354.68 482.828 321.438 670.771 316.613 698.82H497.299Z" fill="#B0BBBD" stroke="#314E52" stroke-linecap="round" stroke-linejoin="round"/>
<path d="M457.267 515.165L456.373 587.341C456.373 588.591 457.267 589.485 458.339 589.842C459.769 590.199 461.199 588.949 461.199 587.519V517.666L457.267 515.165Z" fill="#DE9400" stroke="#314E52" stroke-linecap="round" stroke-linejoin="round"/>
<path d="M577.545 621.285C577.545 621.285 602.387 622.714 615.255 608.065C627.944 593.415 637.774 575.728 651.356 571.977C665.118 568.046 675.841 572.87 674.769 579.837C673.875 586.626 668.335 581.803 661.543 581.803C654.752 581.803 640.454 593.594 640.454 593.594C640.454 593.594 651.178 591.093 660.471 591.093C669.765 591.093 677.092 600.383 676.556 606.278C676.02 612.174 670.658 611.102 665.297 608.779C659.935 606.278 656.539 603.42 651.178 604.313C645.816 605.206 634.557 610.745 634.557 610.745C634.557 610.745 655.109 609.315 661.901 614.139C668.692 618.963 673.696 628.789 667.799 631.29C661.901 633.791 659.577 623.072 648.676 623.072C637.774 623.072 632.948 626.466 632.948 626.466C632.948 626.466 645.637 627.359 649.033 633.255C652.429 639.15 652.429 647.904 648.497 647.368C644.565 646.833 640.633 639.508 634.735 637.185C628.838 634.684 620.974 637.721 619.008 639.15C617.042 640.58 611.68 647.011 600.957 647.904C590.234 648.798 576.472 641.473 576.472 641.473L577.009 621.464L577.545 621.285Z" fill="white" stroke="#314E52" stroke-linecap="round" stroke-linejoin="round"/>
<path d="M360.577 469.786C360.577 469.786 311.25 506.946 296.059 571.976C280.868 637.006 316.612 671.665 363.973 682.384C411.334 693.103 581.476 673.094 582.905 672.201C584.335 671.307 584.335 616.461 584.335 616.461C584.335 616.461 485.145 611.101 460.124 605.206C435.282 599.31 431.35 595.916 431.35 595.916C431.35 595.916 425.989 569.475 438.678 544.106" fill="#B0BBBD"/>
<path d="M360.577 469.786C360.577 469.786 311.25 506.946 296.059 571.976C280.868 637.006 316.612 671.665 363.973 682.384C411.334 693.103 581.476 673.094 582.905 672.201C584.335 671.307 584.335 616.461 584.335 616.461C584.335 616.461 485.145 611.101 460.124 605.206C435.282 599.31 431.35 595.916 431.35 595.916C431.35 595.916 425.989 569.475 438.678 544.106" stroke="#314E52" stroke-linecap="round" stroke-linejoin="round"/>
<path d="M431.531 595.916C431.531 595.916 416.339 591.45 405.616 586.626" stroke="#314E52" stroke-linecap="round" stroke-linejoin="round"/>
<path d="M329.301 586.09C342.883 580.909 364.151 575.192 385.061 580.194" stroke="#314E52" stroke-linecap="round" stroke-linejoin="round"/>
<path d="M314.644 592.878C314.644 592.878 317.861 591.092 323.222 588.591" stroke="#314E52" stroke-linecap="round" stroke-linejoin="round"/>
<path d="M398.643 568.403C398.643 568.403 413.298 572.334 419.732 586.983" stroke="#314E52" stroke-linecap="round" stroke-linejoin="round"/>
<path d="M371.299 592.879C377.555 589.842 385.776 586.983 393.818 588.055" stroke="#314E52" stroke-linecap="round" stroke-linejoin="round"/>
<path d="M359.504 600.204C359.504 600.204 362.006 598.06 366.295 595.559" stroke="#314E52" stroke-linecap="round" stroke-linejoin="round"/>
<path d="M411.334 435.485C411.334 435.485 390.245 442.273 376.126 452.635C362.007 462.819 351.642 472.109 357.003 475.682C362.365 479.255 377.735 480.505 408.832 490.867C443.861 502.48 472.457 531.958 479.248 541.605C486.04 551.431 492.473 570.011 494.439 569.475C496.405 568.939 491.044 516.772 488.005 489.795C485.146 462.997 482.108 454.601 482.108 454.601C482.108 454.601 442.968 425.837 411.156 435.485H411.334Z" fill="#B0BBBD" stroke="#314E52" stroke-linecap="round" stroke-linejoin="round"/>
<path d="M411.335 435.484C411.335 435.484 390.246 442.273 376.127 452.635C374.34 453.886 372.553 455.136 370.944 456.566C370.408 458.173 370.587 459.424 372.017 460.317C379.165 464.605 410.799 460.853 448.33 489.974C472.1 508.554 485.862 526.419 493.01 537.138C491.581 521.238 489.615 502.658 488.185 489.795C486.577 475.503 485.147 466.392 483.896 461.211L477.462 451.385C466.024 444.06 436.535 427.981 411.514 435.663L411.335 435.484Z" fill="#DE9400" stroke="#314E52" stroke-linecap="round" stroke-linejoin="round"/>
<path d="M517.855 314.715C517.855 314.715 508.74 439.416 511.957 461.569C515.174 483.722 517.319 488.188 517.319 488.188C517.319 488.188 466.741 484.972 430.997 464.606C395.253 444.239 384.351 431.555 384.351 431.555C384.351 431.555 427.78 369.205 428.673 335.618C428.673 335.618 483.004 307.212 517.855 314.358V314.715Z" fill="#01193D"/>
<path d="M578.974 267.907C578.974 267.907 568.072 242.896 554.132 229.318C540.192 215.74 506.592 209.845 476.746 218.063C446.9 226.281 424.738 246.469 426.526 250.22C428.313 253.793 435.104 254.687 435.104 254.687C435.104 254.687 429.206 266.478 425.989 283.629C422.772 300.779 425.989 315.786 425.989 315.786C425.989 315.786 439.93 294.169 496.584 282.378C553.06 270.587 576.115 271.123 578.081 272.016C579.868 272.909 578.974 268.086 578.974 268.086V267.907Z" fill="#B0BBBD" stroke="#314E52" stroke-linecap="round" stroke-linejoin="round"/>
<path d="M426.169 352.767C426.169 352.767 461.376 328.291 518.031 318.823C574.507 309.354 591.306 316.5 592.736 316.143C594.166 315.607 596.847 312.034 596.847 306.138C596.847 300.243 594.702 293.811 592.915 287.022C590.949 279.162 586.123 272.194 579.332 267.906C576.651 266.299 573.792 265.048 571.111 265.048C561.996 265.048 512.312 263.797 463.521 288.094C428.671 305.424 424.56 316.5 424.56 321.503C424.56 326.505 420.986 345.442 423.666 349.015L426.347 352.588L426.169 352.767Z" fill="#B0BBBD" stroke="#314E52" stroke-linecap="round" stroke-linejoin="round"/>
<path d="M441.719 299.886C441.719 299.886 437.25 330.614 439.038 335.616C440.825 340.619 442.97 337.224 442.97 337.224" stroke="#314E52" stroke-linecap="round" stroke-linejoin="round"/>
<path d="M456.372 319.895C456.372 321.682 456.372 323.111 456.372 324.004C456.908 329.542 460.304 329.542 460.304 329.542" stroke="#314E52" stroke-linecap="round" stroke-linejoin="round"/>
<path d="M457.087 292.74C457.087 292.74 456.551 303.995 456.372 313.285" stroke="#314E52" stroke-linecap="round" stroke-linejoin="round"/>
<path d="M477.104 292.561C476.389 303.28 475.675 318.644 477.283 320.788C479.964 324.004 483.896 322.396 483.896 322.396" stroke="#314E52" stroke-linecap="round" stroke-linejoin="round"/>
<path d="M477.999 282.377C477.999 282.377 477.821 284.879 477.463 288.63" stroke="#314E52" stroke-linecap="round" stroke-linejoin="round"/>
<path d="M579.689 301.136C579.332 307.568 577.545 308.64 577.545 308.64" stroke="#314E52" stroke-linecap="round" stroke-linejoin="round"/>
<path d="M570.754 265.048C570.754 265.048 578.975 286.308 579.511 296.67" stroke="#314E52" stroke-linecap="round" stroke-linejoin="round"/>
<path d="M584.875 275.768C584.875 275.768 593.989 297.385 590.236 309.176" stroke="#314E52" stroke-linecap="round" stroke-linejoin="round"/>
<path d="M506.592 311.498C507.307 313.106 508.38 314.357 509.452 315.071" stroke="#314E52" stroke-linecap="round" stroke-linejoin="round"/>
<path d="M504.448 274.517C504.448 274.517 501.946 294.705 504.984 306.853" stroke="#314E52" stroke-linecap="round" stroke-linejoin="round"/>
<path d="M828.298 554.649H773.431C771.822 554.649 770.393 555.721 770.035 557.329L758.955 599.312C758.597 600.742 759.669 602.349 761.278 602.349H818.469C819.541 602.349 820.434 601.635 820.792 600.563L831.694 559.115C832.23 556.971 830.622 554.649 828.298 554.649Z" fill="white" stroke="#314E52" stroke-linecap="round" stroke-linejoin="round"/>
<path d="M830.8 562.867L831.873 559.115C832.409 556.971 830.8 554.649 828.477 554.649H773.61C772.001 554.649 770.572 555.721 770.214 557.329L768.784 562.867H830.8Z" fill="#B0BBBD" stroke="#314E52" stroke-linecap="round" stroke-linejoin="round"/>
<path d="M844.56 558.937C844.56 566.083 838.841 571.8 831.692 571.8C824.543 571.8 818.824 566.083 818.824 558.937C818.824 551.791 824.543 546.074 831.692 546.074C838.841 546.074 844.56 551.791 844.56 558.937Z" fill="#314E52" stroke="#314E52" stroke-linecap="round" stroke-linejoin="round"/>
<path d="M824.72 551.969L838.839 566.082" stroke="white" stroke-linecap="round" stroke-linejoin="round"/>
<path d="M838.839 551.969L824.72 566.082" stroke="white" stroke-linecap="round" stroke-linejoin="round"/>
<path d="M988.247 688.459H622.585V698.821H988.247V688.459Z" fill="white" stroke="#314E52" stroke-miterlimit="10"/>
<path d="M988.246 688.459H780.93V698.821H988.246V688.459Z" fill="#B0BBBD" stroke="#314E52" stroke-linecap="round" stroke-linejoin="round"/>
<path d="M1029.35 530.173H822.751L780.93 688.46H987.531L1029.35 530.173Z" fill="#222222" stroke="#314E52" stroke-linecap="round" stroke-linejoin="round"/>
<path d="M-1 698.975L1154.82 698.821" stroke="#314E52" stroke-miterlimit="10"/>
<path d="M774.321 480.506H690.859C688.357 480.506 686.391 482.114 685.676 484.437L668.876 548.395C668.34 550.717 669.948 552.861 672.45 552.861H759.487C761.096 552.861 762.526 551.789 763.062 550.181L779.683 487.117C780.576 483.722 778.074 480.506 774.5 480.506H774.321Z" fill="white" stroke="#314E52" stroke-linecap="round" stroke-linejoin="round"/>
<path d="M778.072 493.012L779.681 487.295C780.575 483.9 778.072 480.685 774.498 480.685H691.036C688.533 480.685 686.568 482.292 685.853 484.615L683.529 493.19H778.072V493.012Z" fill="#B0BBBD" stroke="#314E52" stroke-linecap="round" stroke-linejoin="round"/>
<path d="M779.328 496.407C786.435 496.407 792.196 490.648 792.196 483.544C792.196 476.44 786.435 470.681 779.328 470.681C772.222 470.681 766.46 476.44 766.46 483.544C766.46 490.648 772.222 496.407 779.328 496.407Z" fill="#314E52" stroke="#314E52" stroke-linecap="round" stroke-linejoin="round"/>
<path d="M772.359 476.577L786.478 490.691" stroke="white" stroke-linecap="round" stroke-linejoin="round"/>
<path d="M786.478 476.577L772.359 490.691" stroke="white" stroke-linecap="round" stroke-linejoin="round"/>
<path d="M887.09 468.537H832.222C830.614 468.537 829.184 469.609 828.827 471.216L817.746 513.2C817.388 514.629 818.461 516.237 820.069 516.237H877.26C878.332 516.237 879.226 515.522 879.583 514.451L890.485 473.003C891.021 470.859 889.413 468.537 887.09 468.537Z" fill="white" stroke="#314E52" stroke-linecap="round" stroke-linejoin="round"/>
<path d="M889.413 476.755L890.485 473.003C891.021 470.859 889.413 468.537 887.089 468.537H832.222C830.614 468.537 829.184 469.609 828.826 471.216L827.397 476.755H889.413Z" fill="#B0BBBD" stroke="#314E52" stroke-linecap="round" stroke-linejoin="round"/>
<path d="M890.489 485.867C897.596 485.867 903.357 480.108 903.357 473.004C903.357 465.9 897.596 460.141 890.489 460.141C883.383 460.141 877.621 465.9 877.621 473.004C877.621 480.108 883.383 485.867 890.489 485.867Z" fill="#314E52" stroke="#314E52" stroke-linecap="round" stroke-linejoin="round"/>
<path d="M883.339 465.858L897.458 479.972" stroke="white" stroke-linecap="round" stroke-linejoin="round"/>
<path d="M897.458 465.858L883.339 479.972" stroke="white" stroke-linecap="round" stroke-linejoin="round"/>
<path d="M609.897 19.2231H414.556C408.14 19.2231 402.939 24.4222 402.939 30.8356V157.144C402.939 163.557 408.14 168.756 414.556 168.756H609.897C616.313 168.756 621.514 163.557 621.514 157.144V30.8356C621.514 24.4222 616.313 19.2231 609.897 19.2231Z" fill="#314E52" stroke="#314E52" stroke-linecap="round" stroke-linejoin="round"/>
<path d="M617.76 7.78857H422.418C416.003 7.78857 410.802 12.9877 410.802 19.4011V145.709C410.802 152.123 416.003 157.322 422.418 157.322H617.76C624.176 157.322 629.377 152.123 629.377 145.709V19.4011C629.377 12.9877 624.176 7.78857 617.76 7.78857Z" fill="white" stroke="#314E52" stroke-linecap="round" stroke-linejoin="round"/>
<path d="M629.378 33.336V19.4011C629.378 12.9695 624.195 7.78857 617.761 7.78857H422.241C415.807 7.78857 410.624 12.9695 410.624 19.4011V33.336H629.199H629.378Z" fill="#B0BBBD" stroke="#314E52" stroke-linecap="round" stroke-linejoin="round"/>
<path d="M623.303 26.7261C630.41 26.7261 636.171 20.9671 636.171 13.8631C636.171 6.75899 630.41 1 623.303 1C616.197 1 610.436 6.75899 610.436 13.8631C610.436 20.9671 616.197 26.7261 623.303 26.7261Z" fill="#314E52" stroke="#314E52" stroke-linecap="round" stroke-linejoin="round"/>
<path d="M616.154 6.89551L630.273 21.0091" stroke="white" stroke-linecap="round" stroke-linejoin="round"/>
<path d="M630.273 6.89551L616.154 21.0091" stroke="white" stroke-linecap="round" stroke-linejoin="round"/>
<path d="M462.5 111.079H460.207C459.951 111.079 459.738 111.02 459.569 110.904C459.405 110.781 459.292 110.627 459.227 110.44L458.475 108.217H453.627L452.875 110.44C452.817 110.603 452.703 110.752 452.534 110.886C452.365 111.014 452.157 111.079 451.912 111.079H449.602L454.537 98.3299H457.565L462.5 111.079ZM454.31 106.205H457.792L456.62 102.714C456.544 102.492 456.454 102.232 456.349 101.935C456.25 101.632 456.15 101.305 456.051 100.955C455.958 101.311 455.862 101.64 455.762 101.944C455.663 102.247 455.57 102.509 455.482 102.731L454.31 106.205ZM466.723 111.219C466.291 111.219 465.909 111.157 465.577 111.035C465.25 110.907 464.973 110.729 464.745 110.501C464.524 110.268 464.354 109.988 464.238 109.661C464.121 109.334 464.063 108.97 464.063 108.567V103.877H463.293C463.153 103.877 463.033 103.834 462.934 103.746C462.835 103.653 462.785 103.519 462.785 103.344V102.285L464.229 102.005L464.763 99.7911C464.833 99.5111 465.031 99.3711 465.358 99.3711H466.775V102.022H468.98V103.877H466.775V108.384C466.775 108.594 466.825 108.769 466.924 108.909C467.029 109.043 467.178 109.11 467.37 109.11C467.469 109.11 467.551 109.101 467.615 109.084C467.685 109.06 467.744 109.037 467.79 109.014C467.843 108.984 467.889 108.961 467.93 108.944C467.977 108.92 468.029 108.909 468.088 108.909C468.169 108.909 468.234 108.929 468.28 108.97C468.333 109.005 468.385 109.063 468.438 109.145L469.26 110.431C468.91 110.694 468.517 110.892 468.079 111.026C467.642 111.154 467.189 111.219 466.723 111.219ZM473.73 111.219C473.298 111.219 472.916 111.157 472.583 111.035C472.257 110.907 471.98 110.729 471.752 110.501C471.53 110.268 471.361 109.988 471.245 109.661C471.128 109.334 471.07 108.97 471.07 108.567V103.877H470.3C470.16 103.877 470.04 103.834 469.941 103.746C469.842 103.653 469.792 103.519 469.792 103.344V102.285L471.236 102.005L471.77 99.7911C471.84 99.5111 472.038 99.3711 472.365 99.3711H473.782V102.022H475.987V103.877H473.782V108.384C473.782 108.594 473.832 108.769 473.931 108.909C474.036 109.043 474.185 109.11 474.377 109.11C474.476 109.11 474.558 109.101 474.622 109.084C474.692 109.06 474.75 109.037 474.797 109.014C474.85 108.984 474.896 108.961 474.937 108.944C474.984 108.92 475.036 108.909 475.095 108.909C475.176 108.909 475.24 108.929 475.287 108.97C475.34 109.005 475.392 109.063 475.445 109.145L476.267 110.431C475.917 110.694 475.523 110.892 475.086 111.026C474.648 111.154 474.196 111.219 473.73 111.219ZM481.436 101.865C482.037 101.865 482.586 101.958 483.081 102.145C483.583 102.332 484.012 102.603 484.368 102.959C484.729 103.314 485.009 103.752 485.208 104.271C485.412 104.784 485.514 105.368 485.514 106.021C485.514 106.225 485.505 106.392 485.488 106.52C485.47 106.648 485.438 106.75 485.391 106.826C485.345 106.902 485.281 106.954 485.199 106.984C485.123 107.013 485.024 107.027 484.901 107.027H479.669C479.756 107.786 479.987 108.337 480.36 108.681C480.734 109.019 481.215 109.189 481.804 109.189C482.119 109.189 482.39 109.151 482.618 109.075C482.845 108.999 483.046 108.914 483.221 108.821C483.402 108.728 483.566 108.643 483.711 108.567C483.863 108.492 484.021 108.454 484.184 108.454C484.4 108.454 484.563 108.532 484.674 108.69L485.461 109.661C485.181 109.982 484.878 110.244 484.551 110.449C484.231 110.647 483.898 110.804 483.554 110.921C483.216 111.032 482.874 111.108 482.53 111.149C482.192 111.195 481.868 111.219 481.559 111.219C480.923 111.219 480.325 111.117 479.765 110.912C479.211 110.702 478.724 110.393 478.304 109.985C477.89 109.577 477.56 109.069 477.315 108.462C477.076 107.856 476.956 107.15 476.956 106.345C476.956 105.738 477.059 105.164 477.263 104.621C477.473 104.079 477.77 103.603 478.155 103.195C478.546 102.787 479.016 102.463 479.564 102.224C480.118 101.984 480.742 101.865 481.436 101.865ZM481.489 103.737C480.97 103.737 480.564 103.886 480.273 104.184C479.981 104.475 479.789 104.898 479.695 105.452H483.081C483.081 105.237 483.052 105.027 482.994 104.822C482.941 104.618 482.851 104.437 482.723 104.28C482.6 104.117 482.437 103.985 482.233 103.886C482.029 103.787 481.781 103.737 481.489 103.737ZM487.071 111.079V102.005H488.751C488.92 102.005 489.06 102.043 489.171 102.119C489.287 102.194 489.369 102.308 489.416 102.46L489.573 102.985C489.748 102.822 489.929 102.67 490.116 102.53C490.302 102.39 490.501 102.273 490.711 102.18C490.926 102.081 491.157 102.005 491.402 101.952C491.653 101.894 491.924 101.865 492.216 101.865C492.711 101.865 493.149 101.952 493.528 102.127C493.913 102.297 494.237 102.536 494.499 102.845C494.762 103.148 494.96 103.513 495.094 103.939C495.228 104.359 495.296 104.817 495.296 105.312V111.079H492.583V105.312C492.583 104.869 492.481 104.525 492.277 104.28C492.073 104.029 491.772 103.904 491.376 103.904C491.078 103.904 490.798 103.968 490.536 104.096C490.273 104.224 490.022 104.397 489.783 104.612V111.079H487.071ZM500.407 111.219C499.975 111.219 499.593 111.157 499.261 111.035C498.934 110.907 498.657 110.729 498.429 110.501C498.208 110.268 498.039 109.988 497.922 109.661C497.805 109.334 497.747 108.97 497.747 108.567V103.877H496.977C496.837 103.877 496.717 103.834 496.618 103.746C496.519 103.653 496.469 103.519 496.469 103.344V102.285L497.913 102.005L498.447 99.7911C498.517 99.5111 498.715 99.3711 499.042 99.3711H500.459V102.022H502.664V103.877H500.459V108.384C500.459 108.594 500.509 108.769 500.608 108.909C500.713 109.043 500.862 109.11 501.054 109.11C501.154 109.11 501.235 109.101 501.299 109.084C501.369 109.06 501.428 109.037 501.474 109.014C501.527 108.984 501.574 108.961 501.614 108.944C501.661 108.92 501.714 108.909 501.772 108.909C501.854 108.909 501.918 108.929 501.964 108.97C502.017 109.005 502.069 109.063 502.122 109.145L502.944 110.431C502.594 110.694 502.201 110.892 501.763 111.026C501.326 111.154 500.874 111.219 500.407 111.219ZM507.029 102.005V111.079H504.316V102.005H507.029ZM507.344 99.5199C507.344 99.7357 507.3 99.9399 507.212 100.132C507.125 100.319 507.005 100.485 506.854 100.631C506.702 100.771 506.524 100.885 506.32 100.972C506.122 101.054 505.909 101.095 505.681 101.095C505.46 101.095 505.252 101.054 505.06 100.972C504.867 100.885 504.695 100.771 504.544 100.631C504.398 100.485 504.281 100.319 504.194 100.132C504.112 99.9399 504.071 99.7357 504.071 99.5199C504.071 99.2982 504.112 99.0911 504.194 98.8986C504.281 98.7061 504.398 98.5369 504.544 98.3911C504.695 98.2453 504.867 98.1315 505.06 98.0499C505.252 97.9682 505.46 97.9274 505.681 97.9274C505.909 97.9274 506.122 97.9682 506.32 98.0499C506.524 98.1315 506.702 98.2453 506.854 98.3911C507.005 98.5369 507.125 98.7061 507.212 98.8986C507.3 99.0911 507.344 99.2982 507.344 99.5199ZM513.261 101.865C513.95 101.865 514.577 101.973 515.143 102.189C515.709 102.404 516.193 102.714 516.595 103.116C517.004 103.519 517.319 104.009 517.54 104.586C517.768 105.158 517.881 105.802 517.881 106.52C517.881 107.243 517.768 107.897 517.54 108.48C517.319 109.057 517.004 109.55 516.595 109.959C516.193 110.361 515.709 110.673 515.143 110.895C514.577 111.111 513.95 111.219 513.261 111.219C512.567 111.219 511.934 111.111 511.363 110.895C510.797 110.673 510.307 110.361 509.893 109.959C509.484 109.55 509.166 109.057 508.939 108.48C508.717 107.897 508.606 107.243 508.606 106.52C508.606 105.802 508.717 105.158 508.939 104.586C509.166 104.009 509.484 103.519 509.893 103.116C510.307 102.714 510.797 102.404 511.363 102.189C511.934 101.973 512.567 101.865 513.261 101.865ZM513.261 109.206C513.886 109.206 514.344 108.987 514.635 108.55C514.933 108.107 515.081 107.436 515.081 106.537C515.081 105.639 514.933 104.971 514.635 104.534C514.344 104.096 513.886 103.877 513.261 103.877C512.62 103.877 512.15 104.096 511.853 104.534C511.555 104.971 511.406 105.639 511.406 106.537C511.406 107.436 511.555 108.107 511.853 108.55C512.15 108.987 512.62 109.206 513.261 109.206ZM519.37 111.079V102.005H521.05C521.219 102.005 521.359 102.043 521.47 102.119C521.587 102.194 521.669 102.308 521.715 102.46L521.873 102.985C522.048 102.822 522.229 102.67 522.415 102.53C522.602 102.39 522.8 102.273 523.01 102.18C523.226 102.081 523.457 102.005 523.702 101.952C523.952 101.894 524.224 101.865 524.515 101.865C525.011 101.865 525.449 101.952 525.828 102.127C526.213 102.297 526.537 102.536 526.799 102.845C527.062 103.148 527.26 103.513 527.394 103.939C527.528 104.359 527.595 104.817 527.595 105.312V111.079H524.883V105.312C524.883 104.869 524.781 104.525 524.577 104.28C524.372 104.029 524.072 103.904 523.675 103.904C523.378 103.904 523.098 103.968 522.835 104.096C522.573 104.224 522.322 104.397 522.083 104.612V111.079H519.37Z" fill="#314E52"/>
<path d="M515.177 48.5223L494.624 84.0744C492.48 87.8261 495.161 92.4711 499.45 92.4711H540.556C544.845 92.4711 547.526 87.8261 545.381 84.0744L524.828 48.5223C522.684 44.7706 517.322 44.7706 515.177 48.5223Z" fill="#314E52"/>
<path d="M516.251 81.3952C516.251 80.8593 516.251 80.3233 516.609 79.966C516.788 79.4301 517.145 79.0728 517.324 78.7154C517.681 78.3581 518.039 78.1795 518.575 78.0008C519.111 77.8222 519.468 77.6435 520.183 77.6435C520.898 77.6435 521.256 77.6435 521.613 78.0008C522.149 78.1795 522.507 78.5368 522.864 78.7154C523.222 79.0728 523.4 79.4301 523.758 79.966C523.936 80.502 524.115 80.8593 524.115 81.3952C524.115 81.9312 524.115 82.4672 523.758 82.8245C523.579 83.3604 523.222 83.7177 522.864 84.0751C522.507 84.4324 522.149 84.611 521.613 84.7897C521.077 84.9683 520.72 85.147 520.183 85.147C519.647 85.147 519.111 85.147 518.575 84.7897C518.039 84.611 517.681 84.2537 517.324 84.0751C516.966 83.7177 516.788 83.3604 516.609 82.8245C516.43 82.2885 516.251 81.9312 516.251 81.3952ZM523.222 53.168V65.6737C523.222 66.9243 523.222 68.3535 523.043 69.6041C523.043 70.8547 522.685 72.2839 522.328 73.5345H517.681C517.503 72.1053 517.145 70.8547 516.966 69.6041C516.966 68.3535 516.788 66.9243 516.788 65.6737V53.168H523.043H523.222Z" fill="#FFB900"/>
<path d="M920.516 276.306H725.175C718.759 276.306 713.558 281.505 713.558 287.918V414.226C713.558 420.64 718.759 425.839 725.175 425.839H920.516C926.932 425.839 932.133 420.64 932.133 414.226V287.918C932.133 281.505 926.932 276.306 920.516 276.306Z" fill="#314E52" stroke="#314E52" stroke-linecap="round" stroke-linejoin="round"/>
<path d="M928.379 264.872H733.037C726.622 264.872 721.421 270.071 721.421 276.484V402.792C721.421 409.206 726.622 414.405 733.037 414.405H928.379C934.795 414.405 939.996 409.206 939.996 402.792V276.484C939.996 270.071 934.795 264.872 928.379 264.872Z" fill="white" stroke="#314E52" stroke-linecap="round" stroke-linejoin="round"/>
<path d="M939.997 290.419V276.484C939.997 270.053 934.814 264.872 928.38 264.872H732.86C726.426 264.872 721.243 270.053 721.243 276.484V290.419H939.818H939.997Z" fill="#B0BBBD" stroke="#314E52" stroke-linecap="round" stroke-linejoin="round"/>
<path d="M933.918 283.809C941.024 283.809 946.786 278.05 946.786 270.946C946.786 263.842 941.024 258.083 933.918 258.083C926.811 258.083 921.05 263.842 921.05 270.946C921.05 278.05 926.811 283.809 933.918 283.809Z" fill="#314E52" stroke="#314E52" stroke-linecap="round" stroke-linejoin="round"/>
<path d="M926.768 263.978L940.887 277.913" stroke="white" stroke-linecap="round" stroke-linejoin="round"/>
<path d="M940.887 263.978L926.768 277.913" stroke="white" stroke-linecap="round" stroke-linejoin="round"/>
<path d="M799.804 343.895H795.979C795.551 343.895 795.196 343.797 794.913 343.603C794.641 343.398 794.451 343.14 794.344 342.829L793.088 339.12H785L783.744 342.829C783.647 343.101 783.457 343.349 783.175 343.573C782.893 343.787 782.547 343.895 782.138 343.895H778.284L786.518 322.622H791.57L799.804 343.895ZM786.139 335.762H791.95L789.993 329.937C789.867 329.567 789.716 329.134 789.541 328.638C789.375 328.131 789.21 327.586 789.044 327.002C788.889 327.596 788.728 328.146 788.562 328.652C788.397 329.158 788.241 329.596 788.095 329.966L786.139 335.762ZM820.837 333.251C820.837 334.789 820.57 336.21 820.034 337.514C819.509 338.809 818.764 339.933 817.801 340.887C816.837 341.831 815.674 342.571 814.311 343.106C812.958 343.632 811.454 343.895 809.8 343.895H801.536V322.622H809.8C811.454 322.622 812.958 322.89 814.311 323.425C815.674 323.961 816.837 324.7 817.801 325.645C818.764 326.589 819.509 327.713 820.034 329.017C820.57 330.312 820.837 331.723 820.837 333.251ZM815.786 333.251C815.786 332.2 815.65 331.251 815.377 330.404C815.104 329.557 814.71 328.842 814.194 328.258C813.688 327.664 813.065 327.212 812.326 326.9C811.586 326.579 810.744 326.418 809.8 326.418H806.5V340.099H809.8C810.744 340.099 811.586 339.943 812.326 339.631C813.065 339.31 813.688 338.858 814.194 338.274C814.71 337.68 815.104 336.96 815.377 336.113C815.65 335.266 815.786 334.312 815.786 333.251ZM835.063 326.944C834.917 327.178 834.762 327.353 834.596 327.47C834.44 327.586 834.236 327.645 833.983 327.645C833.759 327.645 833.516 327.577 833.253 327.44C833 327.294 832.708 327.134 832.377 326.959C832.056 326.783 831.686 326.628 831.267 326.491C830.849 326.345 830.372 326.272 829.836 326.272C828.912 326.272 828.221 326.472 827.763 326.871C827.316 327.26 827.092 327.791 827.092 328.462C827.092 328.891 827.228 329.246 827.5 329.528C827.773 329.81 828.128 330.054 828.566 330.258C829.014 330.463 829.52 330.652 830.085 330.828C830.659 330.993 831.243 331.183 831.837 331.397C832.43 331.601 833.01 331.845 833.574 332.127C834.148 332.409 834.654 332.769 835.092 333.207C835.54 333.645 835.9 334.181 836.173 334.813C836.445 335.436 836.582 336.191 836.582 337.076C836.582 338.059 836.411 338.979 836.071 339.836C835.73 340.692 835.234 341.442 834.581 342.084C833.939 342.717 833.141 343.218 832.187 343.588C831.243 343.948 830.167 344.128 828.96 344.128C828.299 344.128 827.622 344.06 826.931 343.924C826.25 343.787 825.588 343.598 824.945 343.354C824.303 343.101 823.7 342.804 823.135 342.464C822.571 342.123 822.079 341.743 821.66 341.325L823.12 339.018C823.228 338.843 823.378 338.702 823.573 338.595C823.768 338.488 823.977 338.434 824.201 338.434C824.493 338.434 824.785 338.527 825.077 338.712C825.379 338.896 825.714 339.101 826.084 339.325C826.464 339.549 826.897 339.753 827.384 339.938C827.87 340.123 828.445 340.215 829.106 340.215C830.002 340.215 830.698 340.021 831.194 339.631C831.691 339.232 831.939 338.604 831.939 337.748C831.939 337.252 831.803 336.848 831.53 336.536C831.258 336.225 830.897 335.967 830.45 335.762C830.012 335.558 829.51 335.378 828.946 335.222C828.381 335.066 827.802 334.896 827.208 334.711C826.615 334.516 826.036 334.283 825.471 334.01C824.907 333.728 824.4 333.363 823.953 332.915C823.515 332.458 823.159 331.893 822.887 331.222C822.614 330.54 822.478 329.703 822.478 328.711C822.478 327.912 822.639 327.134 822.96 326.375C823.281 325.615 823.753 324.939 824.376 324.345C824.999 323.751 825.763 323.279 826.668 322.929C827.573 322.569 828.61 322.389 829.778 322.389C830.43 322.389 831.063 322.442 831.676 322.549C832.299 322.647 832.888 322.798 833.443 323.002C833.997 323.197 834.513 323.435 834.99 323.717C835.477 323.99 835.91 324.301 836.29 324.652L835.063 326.944Z" fill="#314E52"/>
<path d="M1062.6 89.6123H771.464C765.048 89.6123 759.847 94.8114 759.847 101.225V227.533C759.847 233.946 765.048 239.145 771.464 239.145H1062.6C1069.02 239.145 1074.22 233.946 1074.22 227.533V101.225C1074.22 94.8114 1069.02 89.6123 1062.6 89.6123Z" fill="#314E52" stroke="#314E52" stroke-linecap="round" stroke-linejoin="round"/>
<path d="M1070.46 78.3569H779.326C772.911 78.3569 767.709 83.556 767.709 89.9694V216.278C767.709 222.691 772.911 227.89 779.326 227.89H1070.46C1076.88 227.89 1082.08 222.691 1082.08 216.278V89.9694C1082.08 83.556 1076.88 78.3569 1070.46 78.3569Z" fill="white" stroke="#314E52" stroke-linecap="round" stroke-linejoin="round"/>
<path d="M1081.9 103.726V89.7912C1081.9 83.3597 1076.72 78.1787 1070.29 78.1787H778.971C772.537 78.1787 767.354 83.3597 767.354 89.7912V103.726H1081.72H1081.9Z" fill="#B0BBBD" stroke="#314E52" stroke-linecap="round" stroke-linejoin="round"/>
<path d="M1075.82 97.295C1082.93 97.295 1088.69 91.536 1088.69 84.4319C1088.69 77.3278 1082.93 71.5688 1075.82 71.5688C1068.72 71.5688 1062.96 77.3278 1062.96 84.4319C1062.96 91.536 1068.72 97.295 1075.82 97.295Z" fill="#314E52" stroke="#314E52" stroke-linecap="round" stroke-linejoin="round"/>
<path d="M1068.85 77.2852L1082.97 91.3988" stroke="white" stroke-linecap="round" stroke-linejoin="round"/>
<path d="M1082.97 77.2852L1068.85 91.3988" stroke="white" stroke-linecap="round" stroke-linejoin="round"/>
<path d="M846.489 153.873C846.559 153.873 846.629 153.888 846.699 153.917C846.769 153.94 846.836 153.984 846.901 154.048L848.073 155.282C847.56 155.953 846.915 156.46 846.139 156.804C845.369 157.143 844.456 157.312 843.401 157.312C842.432 157.312 841.563 157.149 840.793 156.822C840.029 156.489 839.378 156.034 838.842 155.457C838.311 154.874 837.903 154.185 837.617 153.392C837.331 152.593 837.188 151.726 837.188 150.793C837.188 149.842 837.351 148.97 837.678 148.177C838.005 147.378 838.46 146.689 839.043 146.112C839.632 145.534 840.335 145.085 841.152 144.764C841.968 144.444 842.87 144.283 843.856 144.283C844.334 144.283 844.783 144.327 845.203 144.414C845.629 144.496 846.026 144.613 846.393 144.764C846.761 144.91 847.099 145.088 847.408 145.298C847.717 145.502 847.991 145.73 848.231 145.981L847.233 147.319C847.169 147.401 847.093 147.477 847.006 147.547C846.918 147.611 846.796 147.643 846.638 147.643C846.533 147.643 846.434 147.62 846.341 147.573C846.247 147.526 846.148 147.471 846.043 147.407C845.938 147.337 845.821 147.264 845.693 147.188C845.571 147.106 845.422 147.034 845.247 146.969C845.078 146.899 844.876 146.841 844.643 146.794C844.416 146.748 844.147 146.724 843.838 146.724C843.301 146.724 842.811 146.821 842.368 147.013C841.925 147.2 841.543 147.471 841.222 147.827C840.907 148.177 840.659 148.603 840.478 149.104C840.303 149.606 840.216 150.169 840.216 150.793C840.216 151.446 840.303 152.027 840.478 152.534C840.659 153.042 840.901 153.471 841.204 153.821C841.513 154.165 841.872 154.427 842.281 154.608C842.689 154.789 843.126 154.879 843.593 154.879C843.861 154.879 844.106 154.868 844.328 154.844C844.55 154.815 844.754 154.769 844.941 154.704C845.133 154.64 845.314 154.559 845.483 154.459C845.658 154.354 845.833 154.226 846.008 154.074C846.078 154.016 846.154 153.969 846.236 153.934C846.317 153.894 846.402 153.873 846.489 153.873ZM852.382 154.809H857.107V157.172H849.425V144.423H852.382V154.809ZM861.737 157.172H858.762V144.423H861.737V157.172ZM872.671 153.873C872.741 153.873 872.811 153.888 872.881 153.917C872.951 153.94 873.018 153.984 873.082 154.048L874.255 155.282C873.741 155.953 873.097 156.46 872.321 156.804C871.551 157.143 870.638 157.312 869.582 157.312C868.614 157.312 867.745 157.149 866.975 156.822C866.211 156.489 865.56 156.034 865.023 155.457C864.493 154.874 864.084 154.185 863.798 153.392C863.513 152.593 863.37 151.726 863.37 150.793C863.37 149.842 863.533 148.97 863.86 148.177C864.186 147.378 864.641 146.689 865.225 146.112C865.814 145.534 866.517 145.085 867.333 144.764C868.15 144.444 869.051 144.283 870.037 144.283C870.516 144.283 870.965 144.327 871.385 144.414C871.811 144.496 872.207 144.613 872.575 144.764C872.942 144.91 873.281 145.088 873.59 145.298C873.899 145.502 874.173 145.73 874.412 145.981L873.415 147.319C873.351 147.401 873.275 147.477 873.187 147.547C873.1 147.611 872.977 147.643 872.82 147.643C872.715 147.643 872.616 147.62 872.522 147.573C872.429 147.526 872.33 147.471 872.225 147.407C872.12 147.337 872.003 147.264 871.875 147.188C871.752 147.106 871.603 147.034 871.428 146.969C871.259 146.899 871.058 146.841 870.825 146.794C870.597 146.748 870.329 146.724 870.02 146.724C869.483 146.724 868.993 146.821 868.55 147.013C868.106 147.2 867.724 147.471 867.403 147.827C867.088 148.177 866.841 148.603 866.66 149.104C866.485 149.606 866.397 150.169 866.397 150.793C866.397 151.446 866.485 152.027 866.66 152.534C866.841 153.042 867.083 153.471 867.386 153.821C867.695 154.165 868.054 154.427 868.462 154.608C868.871 154.789 869.308 154.879 869.775 154.879C870.043 154.879 870.288 154.868 870.51 154.844C870.731 154.815 870.936 154.769 871.122 154.704C871.315 154.64 871.496 154.559 871.665 154.459C871.84 154.354 872.015 154.226 872.19 154.074C872.26 154.016 872.336 153.969 872.417 153.934C872.499 153.894 872.583 153.873 872.671 153.873ZM878.564 149.586H879.036C879.474 149.586 879.789 149.449 879.981 149.174L882.851 145.009C883.009 144.782 883.187 144.627 883.385 144.546C883.589 144.464 883.837 144.423 884.129 144.423H886.701L882.921 149.577C882.787 149.764 882.647 149.918 882.501 150.041C882.355 150.163 882.207 150.265 882.055 150.347C882.277 150.429 882.478 150.542 882.659 150.688C882.845 150.828 883.014 151.018 883.166 151.257L887.016 157.172H884.374C884.204 157.172 884.059 157.16 883.936 157.137C883.819 157.114 883.717 157.079 883.63 157.032C883.542 156.985 883.467 156.93 883.402 156.866C883.338 156.796 883.277 156.717 883.219 156.629L880.331 152.193C880.226 152.03 880.092 151.916 879.929 151.852C879.771 151.782 879.555 151.747 879.281 151.747H878.564V157.172H875.606V144.423H878.564V149.586ZM902.613 157.172H899.638V151.782H894.458V157.172H891.483V144.423H894.458V149.752H899.638V144.423H902.613V157.172ZM912.918 144.423V146.698H907.685V149.673H911.693V151.861H907.685V154.897H912.918V157.172H904.71V144.423H912.918ZM917.563 152.456V157.172H914.605V144.423H918.753C919.674 144.423 920.459 144.519 921.106 144.712C921.76 144.899 922.291 145.161 922.699 145.499C923.113 145.838 923.414 146.237 923.6 146.698C923.787 147.159 923.88 147.661 923.88 148.203C923.88 148.617 923.825 149.008 923.714 149.376C923.603 149.743 923.437 150.084 923.215 150.399C922.999 150.709 922.731 150.986 922.41 151.231C922.095 151.476 921.731 151.677 921.316 151.834C921.515 151.934 921.699 152.056 921.868 152.202C922.043 152.348 922.194 152.526 922.323 152.736L925.035 157.172H922.358C921.862 157.172 921.506 156.985 921.29 156.612L919.173 152.911C919.079 152.747 918.969 152.631 918.84 152.561C918.718 152.491 918.543 152.456 918.315 152.456H917.563ZM917.563 150.417H918.753C919.155 150.417 919.496 150.367 919.776 150.268C920.062 150.163 920.296 150.02 920.476 149.839C920.657 149.659 920.789 149.449 920.87 149.209C920.952 148.964 920.993 148.702 920.993 148.422C920.993 147.862 920.809 147.424 920.441 147.109C920.08 146.794 919.517 146.637 918.753 146.637H917.563V150.417ZM934.451 144.423V146.698H929.218V149.673H933.226V151.861H929.218V154.897H934.451V157.172H926.243V144.423H934.451Z" fill="#314E52"/>
<path d="M288.2 89.6133H92.8583C86.4425 89.6133 81.2415 94.8124 81.2415 101.226V335.977C81.2415 342.39 86.4425 347.589 92.8583 347.589H288.2C294.616 347.589 299.817 342.39 299.817 335.977V101.226C299.817 94.8124 294.616 89.6133 288.2 89.6133Z" fill="#314E52" stroke="#314E52" stroke-linecap="round" stroke-linejoin="round"/>
<path d="M296.063 78.3574H100.721C94.3053 78.3574 89.1042 83.5565 89.1042 89.9699V324.721C89.1042 331.134 94.3053 336.333 100.721 336.333H296.063C302.479 336.333 307.68 331.134 307.68 324.721V89.9699C307.68 83.5565 302.479 78.3574 296.063 78.3574Z" fill="white" stroke="#314E52" stroke-linecap="round" stroke-linejoin="round"/>
<path d="M260.855 195.554H136.108V221.637H260.855V195.554Z" fill="white" stroke="#314E52" stroke-linecap="round" stroke-linejoin="round"/>
<path d="M260.855 240.753H136.108V266.837H260.855V240.753Z" fill="white" stroke="#314E52" stroke-linecap="round" stroke-linejoin="round"/>
<path d="M307.681 184.299V89.7917C307.681 83.3602 302.498 78.1792 296.064 78.1792H100.543C94.1094 78.1792 88.9265 83.3602 88.9265 89.7917V184.299H307.502H307.681Z" fill="#B0BBBD" stroke="#314E52" stroke-linecap="round" stroke-linejoin="round"/>
<path d="M301.603 97.295C308.71 97.295 314.471 91.536 314.471 84.4319C314.471 77.3278 308.71 71.5688 301.603 71.5688C294.497 71.5688 288.736 77.3278 288.736 84.4319C288.736 91.536 294.497 97.295 301.603 97.295Z" fill="#314E52" stroke="#314E52" stroke-linecap="round" stroke-linejoin="round"/>
<path d="M294.633 77.2852L308.752 91.3988" stroke="white" stroke-linecap="round" stroke-linejoin="round"/>
<path d="M308.752 77.2852L294.633 91.3988" stroke="white" stroke-linecap="round" stroke-linejoin="round"/>
<path d="M137.114 279.932C137.027 280.072 136.934 280.177 136.834 280.247C136.741 280.317 136.619 280.352 136.467 280.352C136.333 280.352 136.187 280.311 136.029 280.229C135.878 280.142 135.703 280.045 135.504 279.94C135.312 279.835 135.09 279.742 134.839 279.66C134.589 279.573 134.303 279.529 133.982 279.529C133.428 279.529 133.014 279.649 132.739 279.888C132.471 280.121 132.337 280.439 132.337 280.842C132.337 281.098 132.419 281.311 132.582 281.48C132.745 281.649 132.958 281.795 133.221 281.918C133.489 282.04 133.792 282.154 134.131 282.259C134.475 282.358 134.825 282.472 135.181 282.6C135.537 282.723 135.884 282.869 136.222 283.038C136.566 283.207 136.869 283.423 137.132 283.685C137.4 283.948 137.616 284.269 137.779 284.648C137.943 285.021 138.024 285.473 138.024 286.004C138.024 286.593 137.922 287.144 137.718 287.658C137.514 288.171 137.217 288.62 136.826 289.005C136.441 289.384 135.962 289.685 135.391 289.907C134.825 290.122 134.18 290.23 133.457 290.23C133.06 290.23 132.655 290.189 132.241 290.108C131.832 290.026 131.436 289.912 131.051 289.767C130.666 289.615 130.304 289.437 129.966 289.233C129.627 289.029 129.333 288.801 129.082 288.55L129.957 287.168C130.021 287.063 130.112 286.978 130.228 286.914C130.345 286.85 130.47 286.818 130.604 286.818C130.779 286.818 130.954 286.873 131.129 286.984C131.31 287.095 131.512 287.217 131.733 287.352C131.961 287.486 132.22 287.608 132.512 287.719C132.804 287.83 133.148 287.885 133.544 287.885C134.081 287.885 134.498 287.769 134.796 287.535C135.093 287.296 135.242 286.92 135.242 286.407C135.242 286.109 135.16 285.867 134.997 285.68C134.834 285.494 134.618 285.339 134.349 285.217C134.087 285.094 133.787 284.986 133.448 284.893C133.11 284.799 132.763 284.697 132.407 284.587C132.051 284.47 131.704 284.33 131.366 284.167C131.027 283.997 130.724 283.779 130.456 283.51C130.193 283.236 129.98 282.898 129.817 282.495C129.654 282.087 129.572 281.585 129.572 280.99C129.572 280.512 129.668 280.045 129.861 279.59C130.053 279.135 130.336 278.73 130.709 278.374C131.083 278.018 131.541 277.735 132.083 277.525C132.626 277.309 133.247 277.202 133.947 277.202C134.338 277.202 134.717 277.234 135.084 277.298C135.458 277.356 135.811 277.447 136.143 277.569C136.476 277.686 136.785 277.829 137.071 277.998C137.362 278.161 137.622 278.348 137.849 278.558L137.114 279.932ZM142.032 281.017V286.774C142.032 287.223 142.134 287.57 142.338 287.815C142.542 288.06 142.843 288.183 143.239 288.183C143.537 288.183 143.814 288.122 144.071 287.999C144.333 287.877 144.587 287.704 144.832 287.483V281.017H147.544V290.09H145.864C145.526 290.09 145.304 289.939 145.199 289.635L145.033 289.11C144.858 289.279 144.677 289.434 144.491 289.574C144.304 289.708 144.103 289.825 143.887 289.924C143.677 290.017 143.449 290.09 143.204 290.143C142.959 290.201 142.691 290.23 142.399 290.23C141.904 290.23 141.463 290.146 141.078 289.977C140.699 289.802 140.378 289.559 140.116 289.25C139.853 288.941 139.655 288.577 139.521 288.157C139.386 287.737 139.319 287.276 139.319 286.774V281.017H142.032ZM149.646 290.09V276.992H152.358V281.979C152.697 281.647 153.079 281.381 153.504 281.183C153.936 280.979 154.441 280.877 155.018 280.877C155.491 280.877 155.928 280.979 156.331 281.183C156.733 281.387 157.08 281.687 157.372 282.084C157.664 282.475 157.891 282.956 158.054 283.528C158.224 284.099 158.308 284.75 158.308 285.479C158.308 286.162 158.212 286.792 158.019 287.369C157.833 287.947 157.567 288.448 157.223 288.874C156.885 289.3 156.477 289.632 155.998 289.872C155.526 290.111 155.001 290.23 154.423 290.23C154.155 290.23 153.913 290.204 153.697 290.152C153.487 290.099 153.292 290.026 153.111 289.933C152.936 289.834 152.772 289.717 152.621 289.583C152.475 289.449 152.332 289.303 152.192 289.145L152.096 289.6C152.055 289.787 151.979 289.915 151.868 289.985C151.763 290.055 151.623 290.09 151.448 290.09H149.646ZM154.073 282.915C153.875 282.915 153.694 282.936 153.531 282.977C153.373 283.012 153.224 283.064 153.084 283.134C152.95 283.204 152.825 283.294 152.708 283.405C152.592 283.51 152.475 283.633 152.358 283.773V287.623C152.562 287.85 152.784 288.011 153.023 288.104C153.262 288.192 153.513 288.235 153.776 288.235C154.027 288.235 154.257 288.186 154.467 288.087C154.677 287.987 154.858 287.83 155.009 287.614C155.167 287.392 155.289 287.107 155.377 286.757C155.464 286.407 155.508 285.981 155.508 285.479C155.508 285.001 155.473 284.598 155.403 284.272C155.333 283.945 155.234 283.682 155.106 283.484C154.983 283.28 154.834 283.134 154.659 283.047C154.484 282.959 154.289 282.915 154.073 282.915ZM165.345 283.003C165.275 283.114 165.199 283.192 165.117 283.239C165.041 283.286 164.942 283.309 164.82 283.309C164.691 283.309 164.563 283.283 164.435 283.23C164.306 283.172 164.166 283.111 164.015 283.047C163.869 282.982 163.702 282.924 163.516 282.872C163.329 282.813 163.116 282.784 162.877 282.784C162.533 282.784 162.267 282.851 162.081 282.985C161.9 283.114 161.81 283.294 161.81 283.528C161.81 283.697 161.868 283.837 161.985 283.948C162.107 284.059 162.267 284.158 162.466 284.245C162.664 284.327 162.889 284.406 163.14 284.482C163.39 284.557 163.647 284.642 163.91 284.735C164.172 284.829 164.429 284.939 164.68 285.068C164.93 285.19 165.155 285.345 165.353 285.532C165.552 285.712 165.709 285.934 165.826 286.197C165.948 286.459 166.01 286.774 166.01 287.142C166.01 287.591 165.928 288.005 165.765 288.384C165.601 288.763 165.356 289.09 165.03 289.364C164.709 289.638 164.309 289.851 163.831 290.003C163.358 290.154 162.813 290.23 162.195 290.23C161.885 290.23 161.576 290.201 161.267 290.143C160.958 290.084 160.657 290.006 160.366 289.907C160.08 289.807 159.815 289.691 159.57 289.557C159.325 289.417 159.115 289.268 158.94 289.11L159.57 288.113C159.645 287.996 159.736 287.906 159.841 287.842C159.946 287.772 160.083 287.737 160.252 287.737C160.41 287.737 160.55 287.772 160.672 287.842C160.8 287.912 160.937 287.987 161.083 288.069C161.229 288.151 161.398 288.227 161.591 288.297C161.789 288.367 162.037 288.402 162.335 288.402C162.545 288.402 162.722 288.381 162.868 288.34C163.014 288.294 163.131 288.232 163.218 288.157C163.306 288.081 163.37 287.996 163.411 287.903C163.452 287.809 163.472 287.713 163.472 287.614C163.472 287.433 163.411 287.284 163.288 287.168C163.166 287.051 163.005 286.952 162.807 286.87C162.609 286.783 162.381 286.704 162.125 286.634C161.874 286.558 161.617 286.474 161.355 286.38C161.092 286.287 160.832 286.176 160.576 286.048C160.325 285.914 160.1 285.747 159.902 285.549C159.704 285.345 159.543 285.097 159.421 284.805C159.298 284.514 159.237 284.161 159.237 283.747C159.237 283.362 159.31 282.997 159.456 282.653C159.607 282.303 159.832 281.997 160.13 281.734C160.427 281.472 160.8 281.264 161.25 281.113C161.699 280.955 162.224 280.877 162.825 280.877C163.151 280.877 163.466 280.906 163.77 280.964C164.079 281.022 164.367 281.104 164.636 281.209C164.904 281.314 165.149 281.439 165.371 281.585C165.592 281.725 165.788 281.88 165.957 282.049L165.345 283.003ZM174.05 283.169C173.968 283.268 173.889 283.347 173.813 283.405C173.738 283.464 173.63 283.493 173.49 283.493C173.355 283.493 173.233 283.461 173.122 283.397C173.017 283.332 172.898 283.262 172.763 283.187C172.629 283.105 172.472 283.032 172.291 282.968C172.11 282.904 171.885 282.872 171.617 282.872C171.285 282.872 170.996 282.933 170.751 283.055C170.512 283.178 170.313 283.353 170.156 283.58C169.998 283.808 169.882 284.088 169.806 284.42C169.73 284.747 169.692 285.117 169.692 285.532C169.692 286.401 169.858 287.069 170.191 287.535C170.529 288.002 170.993 288.235 171.582 288.235C171.897 288.235 172.145 288.197 172.326 288.122C172.513 288.04 172.67 287.952 172.798 287.859C172.927 287.76 173.043 287.669 173.148 287.588C173.259 287.506 173.396 287.465 173.56 287.465C173.775 287.465 173.939 287.544 174.05 287.702L174.837 288.673C174.557 288.994 174.263 289.256 173.953 289.46C173.644 289.659 173.326 289.816 173 289.933C172.679 290.044 172.355 290.119 172.028 290.16C171.702 290.207 171.384 290.23 171.075 290.23C170.52 290.23 169.99 290.125 169.482 289.915C168.98 289.705 168.537 289.402 168.152 289.005C167.773 288.603 167.47 288.11 167.242 287.527C167.02 286.943 166.91 286.278 166.91 285.532C166.91 284.878 167.006 284.269 167.198 283.703C167.397 283.131 167.685 282.638 168.065 282.224C168.45 281.804 168.922 281.474 169.482 281.235C170.048 280.996 170.701 280.877 171.442 280.877C172.154 280.877 172.778 280.99 173.315 281.218C173.851 281.445 174.335 281.778 174.767 282.215L174.05 283.169ZM176.015 290.09V281.017H177.625C177.759 281.017 177.87 281.028 177.958 281.052C178.051 281.075 178.127 281.113 178.185 281.165C178.249 281.212 178.296 281.276 178.325 281.358C178.36 281.439 178.389 281.539 178.413 281.655L178.562 282.504C178.894 281.991 179.267 281.585 179.682 281.288C180.096 280.99 180.548 280.842 181.038 280.842C181.452 280.842 181.784 280.941 182.035 281.139L181.685 283.134C181.662 283.257 181.615 283.344 181.545 283.397C181.475 283.443 181.382 283.467 181.265 283.467C181.166 283.467 181.049 283.455 180.915 283.432C180.781 283.402 180.612 283.388 180.408 283.388C179.696 283.388 179.136 283.767 178.728 284.525V290.09H176.015ZM186.044 281.017V290.09H183.332V281.017H186.044ZM186.359 278.532C186.359 278.747 186.316 278.952 186.228 279.144C186.141 279.331 186.021 279.497 185.869 279.643C185.718 279.783 185.54 279.897 185.336 279.984C185.137 280.066 184.924 280.107 184.697 280.107C184.475 280.107 184.268 280.066 184.076 279.984C183.883 279.897 183.711 279.783 183.559 279.643C183.414 279.497 183.297 279.331 183.209 279.144C183.128 278.952 183.087 278.747 183.087 278.532C183.087 278.31 183.128 278.103 183.209 277.91C183.297 277.718 183.414 277.549 183.559 277.403C183.711 277.257 183.883 277.143 184.076 277.062C184.268 276.98 184.475 276.939 184.697 276.939C184.924 276.939 185.137 276.98 185.336 277.062C185.54 277.143 185.718 277.257 185.869 277.403C186.021 277.549 186.141 277.718 186.228 277.91C186.316 278.103 186.359 278.31 186.359 278.532ZM188.235 290.09V276.992H190.947V281.979C191.285 281.647 191.667 281.381 192.093 281.183C192.525 280.979 193.03 280.877 193.607 280.877C194.08 280.877 194.517 280.979 194.92 281.183C195.322 281.387 195.669 281.687 195.961 282.084C196.252 282.475 196.48 282.956 196.643 283.528C196.812 284.099 196.897 284.75 196.897 285.479C196.897 286.162 196.801 286.792 196.608 287.369C196.422 287.947 196.156 288.448 195.812 288.874C195.474 289.3 195.065 289.632 194.587 289.872C194.115 290.111 193.59 290.23 193.012 290.23C192.744 290.23 192.502 290.204 192.286 290.152C192.076 290.099 191.88 290.026 191.7 289.933C191.525 289.834 191.361 289.717 191.21 289.583C191.064 289.449 190.921 289.303 190.781 289.145L190.685 289.6C190.644 289.787 190.568 289.915 190.457 289.985C190.352 290.055 190.212 290.09 190.037 290.09H188.235ZM192.662 282.915C192.464 282.915 192.283 282.936 192.12 282.977C191.962 283.012 191.813 283.064 191.673 283.134C191.539 283.204 191.414 283.294 191.297 283.405C191.18 283.51 191.064 283.633 190.947 283.773V287.623C191.151 287.85 191.373 288.011 191.612 288.104C191.851 288.192 192.102 288.235 192.365 288.235C192.615 288.235 192.846 288.186 193.056 288.087C193.266 287.987 193.447 287.83 193.598 287.614C193.756 287.392 193.878 287.107 193.966 286.757C194.053 286.407 194.097 285.981 194.097 285.479C194.097 285.001 194.062 284.598 193.992 284.272C193.922 283.945 193.823 283.682 193.695 283.484C193.572 283.28 193.423 283.134 193.248 283.047C193.073 282.959 192.878 282.915 192.662 282.915ZM202.271 280.877C202.872 280.877 203.42 280.97 203.916 281.157C204.418 281.343 204.846 281.614 205.202 281.97C205.564 282.326 205.844 282.764 206.042 283.283C206.246 283.796 206.348 284.379 206.348 285.033C206.348 285.237 206.34 285.403 206.322 285.532C206.305 285.66 206.273 285.762 206.226 285.838C206.179 285.914 206.115 285.966 206.033 285.995C205.958 286.024 205.858 286.039 205.736 286.039H200.503C200.591 286.797 200.821 287.349 201.195 287.693C201.568 288.031 202.049 288.2 202.638 288.2C202.953 288.2 203.225 288.162 203.452 288.087C203.68 288.011 203.881 287.926 204.056 287.833C204.237 287.739 204.4 287.655 204.546 287.579C204.698 287.503 204.855 287.465 205.018 287.465C205.234 287.465 205.398 287.544 205.508 287.702L206.296 288.673C206.016 288.994 205.713 289.256 205.386 289.46C205.065 289.659 204.733 289.816 204.388 289.933C204.05 290.044 203.709 290.119 203.365 290.16C203.026 290.207 202.703 290.23 202.393 290.23C201.758 290.23 201.16 290.128 200.6 289.924C200.046 289.714 199.558 289.405 199.138 288.997C198.724 288.588 198.395 288.081 198.15 287.474C197.911 286.867 197.791 286.162 197.791 285.357C197.791 284.75 197.893 284.175 198.097 283.633C198.307 283.09 198.605 282.615 198.99 282.207C199.381 281.798 199.85 281.474 200.398 281.235C200.953 280.996 201.577 280.877 202.271 280.877ZM202.323 282.749C201.804 282.749 201.399 282.898 201.107 283.195C200.816 283.487 200.623 283.91 200.53 284.464H203.916C203.916 284.248 203.887 284.038 203.828 283.834C203.776 283.63 203.686 283.449 203.557 283.292C203.435 283.128 203.271 282.997 203.067 282.898C202.863 282.799 202.615 282.749 202.323 282.749Z" fill="#314E52"/>
<path d="M232.082 119.091H171.496L201.878 139.1L232.082 119.091Z" fill="white"/>
<path d="M201.879 143.387L168.101 121.234V163.397H235.478V121.234L201.879 143.387Z" fill="white"/>
</svg>
