<svg width="824" height="650" viewBox="0 0 824 650" fill="none" xmlns="http://www.w3.org/2000/svg">
<g clip-path="url(#clip0_1_60008)">
<path d="M659.955 141.034C669.118 150.033 685.526 150.078 694.734 141.14C703.943 132.202 704.384 115.787 695.663 106.361C673.197 82.0894 636.394 117.873 659.971 141.034H659.955Z" fill="#F5F6F6"/>
<path d="M650.062 322.495C643.944 329.18 640.062 337.555 636.272 345.777C634.142 350.406 631.98 355.142 631.6 360.228C631.219 365.299 632.97 370.856 637.231 373.643C641.31 376.308 646.851 375.866 651.204 373.643C655.557 371.42 658.921 367.704 661.98 363.898C667.764 356.695 672.802 348.884 676.987 340.631C689.24 316.48 667.642 303.294 650.062 322.48V322.495Z" fill="#F5F6F6"/>
<path d="M201.516 152.621C204.088 146.333 206.462 139.678 211.394 135.004C216.325 130.344 224.757 128.532 229.795 133.07C233.159 136.1 234.087 140.942 234.803 145.404C238.577 168.549 242.124 193.461 231.774 214.504C220.221 238 193.738 250.76 167.863 254.704C160.983 255.755 153.678 256.257 147.27 253.532C119.31 241.654 156.174 219.362 165.397 209.342C180.664 192.76 192.992 173.467 201.516 152.591V152.621Z" fill="#F5F6F6"/>
<path d="M337.449 47.0822C382.182 18.2268 440.066 12.6233 491.009 28.0331C541.967 43.4429 585.847 78.648 616.014 122.533C648.175 169.326 665.344 229.975 647.307 283.833C622.194 358.797 539.349 398.996 501.221 468.234C484.129 499.267 476.625 535.203 456.945 564.652C435.012 597.466 399.655 619.317 362.639 632.991C297.42 657.081 221.12 657.339 161.09 622.271C101.061 587.203 62.5985 513.169 79.5693 445.728C91.4717 398.418 126.798 361.004 161.988 327.246C196.143 294.477 233.95 260.125 254.985 216.758C263.402 199.414 260.769 179.787 263.874 161.194C267.511 139.404 275.441 118.33 286.933 99.4787C299.672 78.5871 316.871 60.3603 337.465 47.0822H337.449Z" fill="#F5F6F6"/>
<mask id="mask0_1_60008" style="mask-type:luminance" maskUnits="userSpaceOnUse" x="75" y="19" width="580" height="631">
<path d="M337.449 47.0822C382.182 18.2268 440.066 12.6233 491.009 28.0331C541.967 43.4429 585.847 78.648 616.014 122.533C648.175 169.326 665.344 229.975 647.307 283.833C622.194 358.797 539.349 398.996 501.221 468.234C484.129 499.267 476.625 535.203 456.945 564.652C435.012 597.466 399.655 619.317 362.639 632.991C297.42 657.081 221.12 657.339 161.09 622.271C101.061 587.203 62.5985 513.169 79.5693 445.728C91.4717 398.418 126.798 361.004 161.988 327.246C196.143 294.477 233.95 260.125 254.985 216.758C263.402 199.414 260.769 179.787 263.874 161.194C267.511 139.404 275.441 118.33 286.933 99.4787C299.672 78.5871 316.871 60.3603 337.465 47.0822H337.449Z" fill="white"/>
</mask>
<g mask="url(#mask0_1_60008)">
<path d="M622.057 23.1908C614.035 28.1396 606.045 33.058 597.582 37.2455C589.119 41.4329 580.398 45.1027 571.464 48.1329C553.534 54.1932 534.722 57.863 515.818 58.868C497.127 59.8577 478.315 58.3046 460.065 54.1476C441.983 50.021 424.495 43.4581 408.118 34.7634C391.68 26.0231 376.353 15.1052 362.837 2.29922C361.193 0.74605 359.595 -0.837571 357.997 -2.43642C357.221 -3.22823 355.927 -2.08619 356.703 -1.27916C369.778 12.2425 384.709 23.9217 400.949 33.4235C417.128 42.8795 434.586 50.1733 452.683 55.0155C471.024 59.9186 490.004 62.2941 508.984 61.9591C528.101 61.6241 547.157 58.6548 565.482 53.1883C583.868 47.7065 601.615 39.8188 617.719 29.3578C619.682 28.0787 621.615 26.754 623.487 25.3378C624.644 24.4699 623.305 22.4447 622.057 23.2061V23.1908Z" fill="white"/>
<path d="M705.449 110.001C691.02 116.868 675.846 121.436 659.986 123.431C644.004 125.441 627.779 125.045 611.798 123.233C577.811 119.365 545.3 108.691 512.804 98.5498C478.421 87.8147 443.155 77.445 406.855 76.8664C373.978 76.3334 341.802 84.5104 311.605 97.1032C280.936 109.894 252.23 126.842 224.011 144.262C220.541 146.409 217.086 148.556 213.616 150.703C212.733 151.251 213.448 152.713 214.331 152.164C242.717 134.729 271.317 117.371 301.773 103.742C331.803 90.3119 363.994 80.6579 397.068 79.7748C433.734 78.8002 469.472 88.5151 504.174 99.2959C536.898 109.468 569.394 120.629 603.396 125.669C634.416 130.268 666.911 129.826 696.424 118.193C700.061 116.761 703.592 115.086 707.048 113.244C709.118 112.148 707.565 108.98 705.434 109.985L705.449 110.001Z" fill="white"/>
<path d="M730.457 177.198C714.901 207.591 685.404 226.884 655.176 240.665C623.533 255.085 589.667 263.871 558.1 278.504C542.514 285.737 527.461 294.416 514.326 305.578C500.932 316.952 489.973 330.84 482.546 346.798C467.676 378.683 467.188 417.193 482.592 448.972C497.005 478.71 524.28 502.023 555.878 511.662C559.805 512.865 563.732 513.626 567.75 514.387C570.2 514.859 571.464 511.113 568.968 510.641C560.916 509.103 552.834 506.423 545.315 503.195C537.872 499.982 530.795 495.947 524.189 491.272C510.993 481.938 499.623 469.863 491.298 455.976C473.398 426.161 470.978 389.038 483.094 356.619C489.136 340.433 498.847 325.967 511.328 314.029C523.672 302.213 538.222 293.031 553.428 285.371C584.173 269.901 617.567 260.901 649.042 247.167C678.677 234.239 708.28 216.712 726.362 189.06C728.6 185.649 730.624 182.116 732.466 178.477C733.135 177.137 731.172 175.827 730.487 177.198H730.457Z" fill="white"/>
<path d="M705.739 276.951C685.572 283.377 664.506 285.798 643.73 289.315C625.146 292.452 606.638 296.594 589.576 304.847C574.28 312.247 560.094 322.906 551.038 337.509C540.536 354.442 538.344 375.12 541.83 394.474C545.391 414.208 554.691 432.755 565.756 449.306C567.156 451.393 568.572 453.448 570.063 455.458C571.388 457.225 574.508 455.169 573.321 453.266C568.085 444.921 562.697 436.729 558.192 427.958C553.778 419.324 550.064 410.31 547.659 400.899C542.895 382.307 543.123 361.568 552.119 344.239C559.79 329.454 572.834 318.384 587.323 310.587C603.214 302.045 620.626 297.446 638.236 294.051C658.54 290.153 679.133 287.594 699.057 281.93C701.477 281.245 703.897 280.499 706.287 279.707C707.991 279.143 707.459 276.387 705.739 276.935V276.951Z" fill="white"/>
<path d="M715.023 158.834C675.419 172.965 634.416 182.786 592.727 188.283C551.053 193.78 508.862 195.029 466.93 192.09C423.232 189.029 379.686 181.675 335.76 183.319C299.413 184.69 263.798 193.186 230.937 208.87C199.537 223.854 170.405 245.019 147.62 271.408C144.819 274.651 142.141 278.017 139.507 281.397C138.153 283.148 140.984 284.884 142.354 283.24C164.986 256.333 192.627 233.645 223.768 217.291C255.411 200.678 290.236 190.659 325.882 188.131C369.625 185.04 413.247 191.968 456.747 195.486C498.086 198.836 539.668 198.166 580.84 193.171C622.117 188.161 662.939 178.964 702.39 165.854C706.987 164.331 711.583 162.732 716.149 161.103C717.702 160.539 716.56 158.255 715.023 158.804V158.834Z" fill="white"/>
<path d="M391.299 515.042C392.121 487.557 388.544 459.889 380.006 433.714C372.548 410.888 361.345 389.418 346.871 370.247C332.746 351.548 315.532 335.088 295.989 322.16C276.324 309.141 254.269 299.685 231.119 295.086C207.847 290.457 183.723 290.488 160.451 295.162C137.407 299.791 115.185 309.004 95.992 322.617C91.2432 325.982 86.6923 329.637 82.3545 333.519C81.5173 334.266 82.6741 335.575 83.5112 334.829C101.03 319.267 122.049 307.953 144.5 301.39C166.935 294.827 190.633 292.802 213.859 295.269C237.07 297.736 259.566 304.953 280.007 316.206C300.19 327.322 318.256 342.092 333.477 359.345C348.773 376.673 361.193 396.514 370.127 417.832C380.34 442.211 385.881 468.538 387.129 494.912C388.407 521.909 385.317 549.075 378.255 575.143C371.36 600.649 361.208 626.535 344.618 647.381C328.743 667.328 306.247 680.713 282.275 688.692C255.487 697.6 227.147 699.869 199.111 700.98C195.488 701.117 191.866 701.239 188.243 701.346C184.605 701.452 180.983 702 177.361 702.092C175.504 702.137 175.321 705.031 177.193 705C180.922 704.924 184.666 705.305 188.411 705.229C192.155 705.152 195.914 705.061 199.658 704.954C207.208 704.726 214.742 704.376 222.261 703.828C237.04 702.731 251.804 700.889 266.263 697.508C290.951 691.737 315.136 681.353 334.253 664.374C354.557 646.33 367.114 621.464 376.033 596.172C385.211 570.149 390.462 542.664 391.284 515.072L391.299 515.042Z" fill="white"/>
<path d="M356.216 497.409C355.881 478.984 351.772 460.742 344.177 443.947C336.734 427.501 325.897 412.503 312.214 400.686C298.12 388.52 281.118 380.389 263.173 375.653C244.589 370.75 225.305 369.105 206.142 368.298C186.676 367.476 167.163 367.461 147.726 365.831C128.792 364.248 109.706 361.081 92.1413 353.558C87.8035 351.701 83.6027 349.584 79.5236 347.239C78.4734 346.63 77.4231 348.214 78.4886 348.838C94.5918 358.203 112.582 363.486 130.893 366.425C149.781 369.455 168.959 370.141 188.045 370.902C207.177 371.663 226.416 372.394 245.32 375.622C263.539 378.729 281.529 384.424 297.161 394.489C312.001 404.052 324.36 417.284 333.416 432.404C342.624 447.753 348.591 464.975 350.919 482.715C353.476 502.19 351.452 522.183 345.973 540.989C340.311 560.434 331.011 578.737 318.987 595.015C307.343 610.76 293.112 624.51 277.42 636.189C261.697 647.914 244.422 657.522 226.416 665.242C222.048 667.115 217.649 668.942 213.205 670.587C210.678 671.531 212.55 675.262 215.046 674.333C233.707 667.374 251.652 658.634 268.333 647.701C284.863 636.859 300.098 624.053 313.081 609.115C326.551 593.629 337.464 576.027 345.029 556.917C352.502 538.035 356.597 517.691 356.216 497.363V497.409Z" fill="white"/>
<path d="M201.272 522.61C208.821 499.632 210.404 472.406 195.899 451.758C182.231 432.283 158.152 424.106 135.946 419.081C111.837 413.629 85.4291 411.147 64.775 396.301C62.2636 394.489 59.8892 392.525 57.6366 390.393C56.8451 389.647 55.5818 390.758 56.3733 391.52C74.7596 409.244 100.756 414.452 124.85 419.583C147.178 424.334 171.851 430.166 188.106 447.434C196.356 456.189 201.196 467.29 202.794 479.167C204.438 491.364 202.855 503.896 199.552 515.682C191.957 542.831 175.001 566.068 164.241 591.908C154.91 614.338 150.07 641.442 160.74 664.313C162.003 667.024 163.571 669.567 165.321 672.003C166.539 673.724 169.537 671.729 168.426 669.917C161.958 659.456 158.822 647.655 158.807 635.382C158.776 623.002 161.44 610.729 165.687 599.157C175.397 572.677 192.444 549.47 201.272 522.625V522.61Z" fill="white"/>
</g>
<path d="M150.831 599.16L681.167 531.004L670.195 445.552L139.859 513.707L150.831 599.16Z" fill="#E19549"/>
<path d="M670.123 445.576L763.637 459.95L823.392 469.117L770.608 492.08L681.203 531.822L670.123 445.576Z" fill="#A86852"/>
<path d="M143.436 541.667L673.772 473.511L670.185 445.571L139.848 513.726L143.436 541.667Z" fill="#CE7B29"/>
<path d="M150.934 599.991L681.27 531.835L678.21 508.003L147.874 576.158L150.934 599.991Z" fill="#CE7B29"/>
<path d="M39.592 526.681L158.342 511.436L169.434 597.733L50.684 612.978C40.1616 614.329 30.5182 606.878 29.1652 596.351L22.9766 548.204C21.6236 537.677 29.0696 528.032 39.592 526.681Z" fill="#273339"/>
<path d="M158.396 511.387L49.235 525.427C33.4058 527.467 22.2187 541.948 24.2583 557.784C26.2978 573.621 40.7725 584.813 56.6017 582.772L165.763 568.733L158.396 511.387Z" fill="#394850"/>
<path d="M175.336 596.889L164.256 510.591L78.8402 521.568L89.9211 607.866L175.336 596.889Z" fill="#DCDBDB"/>
<path d="M139.326 601.513L128.245 515.214L114.748 516.949L125.829 603.247L139.326 601.513Z" fill="#EBEBEB"/>
<path d="M115.339 604.693L104.243 518.396L90.7473 520.133L101.843 606.43L115.339 604.693Z" fill="#EBEBEB"/>
<path d="M162.601 598.535L151.518 512.221L138.022 513.956L149.104 600.269L162.601 598.535Z" fill="#EBEBEB"/>
<path d="M763.637 459.95L823.393 469.117L770.608 492.08C769.223 489.506 768.036 486.78 767.077 484.024C764.368 476.35 763.211 468.082 763.637 459.935V459.95Z" fill="#273339"/>
<path d="M274.376 335.986L246.72 319.648L259.034 307.298L274.376 335.986Z" fill="#273339"/>
<path d="M264.041 243.406L189.156 301.954L232.489 346.067L305.441 299.548L264.041 243.406Z" fill="#A86852"/>
<path d="M294.208 455.641C288.942 431.704 310.433 401.082 323.051 370.704L412.73 383.678C430.644 397.382 448.3 414.65 446.58 433.79C441.542 489.765 307.495 516.093 294.193 455.626L294.208 455.641Z" fill="#273339"/>
<path d="M429.853 368.679C429.853 378.881 429.731 388.84 429.487 398.219C384.952 421.822 342.959 418.137 320.524 413.325C319.474 413.112 318.439 412.868 317.48 412.64C317.313 412.594 317.176 412.563 317.023 412.518C308.47 410.432 303.523 408.437 303.523 408.437L316.978 368.77C307.465 357.319 300.479 339.686 295.456 320.851C294.969 319.221 294.558 317.577 294.178 315.932C284.041 275.337 282.306 231.026 282.306 231.026C282.306 231.026 285.213 229.945 293.31 227.341C293.401 227.295 293.523 227.265 293.63 227.219C294.132 227.051 294.68 226.869 295.228 226.686C302.184 224.463 312.457 221.311 327.145 216.941C347.617 217.565 372.259 219.94 391.862 223.169C392.776 223.306 393.719 223.473 394.602 223.625C395.683 223.808 396.733 223.991 397.783 224.174C398.362 224.265 399.092 224.493 399.929 224.813C407.829 227.828 426.078 239.431 426.078 239.431C426.078 239.431 429.853 308.075 429.853 368.648V368.679Z" fill="#E19549"/>
<path d="M393.567 255.283L386.672 255.907L341.178 259.942C333.096 249.055 321.27 232.67 306.095 223.321C311.788 221.57 318.743 219.468 327.13 216.971C344.04 217.489 363.796 219.194 381.208 221.585C382.715 224.128 384.039 226.473 385.196 228.65L385.333 228.924C390.386 238.243 392.623 244.959 393.552 255.283H393.567Z" fill="#A86852"/>
<path d="M366.992 222.453C365.668 230.584 360.128 237.756 351.772 240.208C350.509 240.573 349.276 240.817 348.012 240.954C338.21 242.05 328.698 236.31 325.303 226.686L304.984 169.051L356.871 168.473L360.326 185.268L361.589 191.313L364.344 204.591L366.657 214.672C367.297 217.672 367.388 220.032 366.992 222.453Z" fill="#A86852"/>
<path d="M368.027 219.956C349.671 223.991 323.629 214.809 319.824 187.233C328.5 182.451 357.555 190.446 361.589 191.329L364.344 204.607L368.027 219.956Z" fill="#273339"/>
<path d="M326.338 75.3285C323.035 67.121 314.649 61.5022 305.715 62.629C301.072 63.2077 297.085 65.4004 293.949 68.7656C292.382 68.0651 290.57 67.3494 288.455 66.6185C280.586 63.9233 274.376 64.2888 269.825 66.4815C267.861 66.9383 265.928 67.5931 264.072 68.5067C258.364 71.3542 254.102 76.4096 252.337 82.5461C250.617 88.4999 251.317 95.3217 254.97 100.438C258.942 105.996 265.441 109.27 271.986 110.732C277.724 112.011 284.193 112.056 290.053 110.442C293.006 110.732 296.171 110.762 299.581 110.457L315.09 104.458C317.998 102.083 320.159 99.5091 321.681 96.8291C324.177 94.6364 325.897 91.3931 326.841 88.3172C328.134 84.0688 328.013 79.455 326.354 75.3285H326.338ZM276.096 107.458C270.129 106.803 263.965 104.519 259.658 100.24C251.378 92.0174 254.528 78.3739 263.524 72.1155C257.07 82.3786 261.834 100.468 278.653 107.64C277.816 107.61 276.963 107.564 276.096 107.473V107.458ZM324.618 86.0027C324.618 86.0027 324.588 86.1093 324.573 86.1702C324.573 73.5621 313.157 62.6595 300.007 66.3445C305.015 64.2279 310.966 64.1365 315.714 66.6642C322.67 70.3492 326.536 78.2977 324.618 86.0027Z" fill="#273339"/>
<path d="M316.78 119.061L316.019 103.742C305.76 99.2046 294.68 110.747 294.68 110.747L306.521 126.278L316.765 119.061H316.78Z" fill="#E19549"/>
<path d="M347.114 108.935C308.135 102.22 282.412 115.254 278.805 147.414C275.198 179.589 308.5 195.318 309.2 195.653C309.915 195.988 347.114 108.935 347.114 108.935Z" fill="#273339"/>
<path d="M376.855 120.964C372.487 116.396 366.612 113.823 360.128 112.818C343.583 110.214 323.036 117.782 313.34 128.699C299.185 144.642 300.098 166.143 309.733 183.38C314.132 191.329 320.387 198.394 327.876 203.571C340.98 212.677 358.925 216.682 372.928 209.038C383.035 203.526 389.564 192.684 391.817 181.37C395.622 162.245 390.721 135.491 376.87 120.979L376.855 120.964Z" fill="#A86852"/>
<path d="M293.127 150.885C293.127 150.885 306.917 118.543 302.61 119.243C322.077 92.0021 366.064 90.5708 381.436 118.771H381.421C384.648 123.751 386.84 130.1 387.403 137.988C377.905 113.351 358.256 145.86 328.211 120.705C331.118 131.684 326.125 141.84 319.398 150.048C321.696 164.849 316.491 176.787 309.961 179.345C309.961 179.345 293.356 163.615 293.143 150.885H293.127Z" fill="#273339"/>
<path d="M378.956 156.763C379.686 159.093 378.956 161.453 377.357 162.047C375.744 162.641 373.842 161.225 373.111 158.895C372.38 156.565 373.111 154.205 374.709 153.611C376.322 153.017 378.225 154.433 378.956 156.748V156.763Z" fill="#273339"/>
<path d="M372.67 167.727C369.656 162.336 366.368 157.129 363.02 151.936C362.7 151.434 361.878 151.814 362.183 152.362C364.557 156.794 366.947 161.164 369.519 165.503C370.767 167.605 372.411 169.813 372.807 172.28C373.126 174.335 371.985 176.056 370.615 177.442C370.265 177.807 370.447 178.492 370.995 178.492C372.913 178.523 374.344 176.665 374.618 174.899C375.014 172.371 373.887 169.874 372.685 167.727H372.67Z" fill="#273339"/>
<path d="M381.665 132.141C389.153 139.496 365.485 143.241 365.82 136.252C366.064 131.014 378.529 129.065 381.665 132.141Z" fill="#273339"/>
<path d="M324.908 150.489C323.705 145.251 336.079 141.064 339.748 142.099C350.037 145.008 327.236 160.6 324.908 150.489Z" fill="#273339"/>
<path d="M346.947 181.72C347.54 180.106 362.03 181.842 363.294 183.837C364.1 185.101 360.295 190.689 354.116 189.791C349.032 189.045 346.247 183.593 346.932 181.72H346.947Z" fill="#EBEBEB"/>
<path d="M300.951 165.336C295.7 163.798 289.353 164.849 286.019 169.188C283.249 172.797 283.112 177.807 284.01 182.284C285.182 188.04 287.952 193.567 292.382 197.435C296.796 201.302 302.914 203.373 308.698 202.307C314.466 201.241 319.657 196.826 321.042 191.115C323.69 180.167 310.387 168.107 300.966 165.336H300.951Z" fill="#A86852"/>
<path d="M311.742 184.857C309.672 182.603 307.024 180.822 304.086 179.939C302.731 179.543 301.377 179.238 299.977 179.147C298.576 179.056 297.146 179.238 295.745 179.284C294.832 179.314 294.695 180.837 295.639 180.929C296.263 180.989 296.841 181.066 297.435 181.294C298.028 181.507 298.607 181.781 299.185 182.04C299.779 182.299 300.372 182.573 300.951 182.862C301.225 182.999 301.514 183.136 301.788 183.304C302.047 183.456 302.457 183.624 302.671 183.852C302.61 183.806 302.549 183.761 302.488 183.715C302.579 183.776 302.671 183.837 302.762 183.913C302.99 184.081 303.234 184.233 303.462 184.385C303.614 184.476 303.751 184.568 303.903 184.659C303.919 184.659 303.903 184.659 303.934 184.674C304.497 184.964 305.03 185.481 305.517 185.893C306.521 186.76 307.495 187.644 308.348 188.633C308.759 189.105 309.642 189.319 310.22 189.288C310.829 189.243 311.559 188.923 311.955 188.451C312.899 187.293 312.731 185.893 311.757 184.842L311.742 184.857Z" fill="#273339"/>
<path d="M354.313 163.082C349.352 161.864 344.146 161.362 339.047 161.697C338.286 161.742 338.362 163.006 339.123 163.021C342.228 163.143 345.288 163.448 348.332 163.95C345.303 164.514 342.289 165.245 339.504 166.524C338.362 167.041 338.926 168.975 340.189 168.656C344.862 167.437 349.367 165.747 354.176 165.062C355.151 164.925 355.348 163.326 354.329 163.082H354.313Z" fill="#273339"/>
<path d="M532.712 332.393C526.32 350.026 470.583 339.763 431.618 327.307L433.658 244.547L519.212 301.512L532.712 332.408V332.393Z" fill="#A86852"/>
<path d="M452.653 136.435C500.917 171.366 549.211 275.702 532.712 332.393L478.984 288.919C467.934 180.32 450.826 175.188 450.826 175.188L452.653 136.435Z" fill="#A86852"/>
<path d="M384.481 157.144C385.044 161.027 386.946 163.981 388.742 163.722C390.538 163.463 391.543 160.098 390.98 156.215C390.416 152.332 388.514 149.378 386.718 149.637C384.922 149.896 383.917 153.261 384.481 157.144Z" fill="#394850"/>
<path d="M386.718 149.637L405.804 144.323L408.544 163.433L388.742 163.707L386.718 149.637Z" fill="#394850"/>
<path d="M403.887 154.357C405.82 167.833 412.44 178.051 418.666 177.152C424.891 176.254 428.376 164.605 426.443 151.114C424.51 137.623 417.889 127.42 411.664 128.319C405.439 129.217 401.954 140.866 403.887 154.357Z" fill="#273339"/>
<path d="M556.822 166.006H555.071L555.041 166.052L508.969 169.798L502.424 170.346L490.202 171.335H490.171L483.094 171.929L418.65 177.183L411.664 128.334L474.768 115.102L477.432 114.523L489.289 112.041L492.363 111.386L545.589 100.225H545.619L547.294 99.7375L556.807 166.006H556.822Z" fill="#273339"/>
<path d="M490.202 171.32L483.124 171.914C482.378 171.153 481.724 170.33 481.146 169.508C477.797 164.849 475.727 159.382 474.159 153.885C472.592 148.342 471.815 142.617 471.663 136.892C471.481 129.476 472.607 122.121 474.799 115.086L477.462 114.508C476.853 117.005 476.382 119.533 476.077 122.076C474.783 132.308 475.742 142.83 478.771 152.697C480.171 157.311 482.044 162.245 484.875 166.219C486.321 168.26 488.056 170.056 490.217 171.335L490.202 171.32Z" fill="#E19549"/>
<path d="M508.984 169.797L502.439 170.346C500.871 168.625 499.41 166.843 498.055 164.97C491.785 156.261 487.569 146.028 486.549 135.293C485.788 127.314 486.868 119.502 489.319 112.041L492.393 111.386C491.678 114.356 491.191 117.401 490.963 120.446C490.156 130.816 491.572 141.445 495.757 150.992C498.877 158.073 503.383 164.498 508.984 169.797Z" fill="#E19549"/>
<path d="M536.746 135.08C539.364 153.383 548.359 167.224 556.806 166.021C565.269 164.803 569.987 148.982 567.369 130.694C564.752 112.391 555.756 98.5498 547.309 99.7528C538.846 100.971 534.128 116.792 536.746 135.08Z" fill="#E19549"/>
<path d="M540.779 134.501C542.408 145.83 547.324 154.845 552.56 156.915C553.565 157.296 554.569 157.433 555.558 157.296C561.784 156.398 565.269 144.749 563.336 131.273C561.403 117.782 554.782 107.564 548.557 108.463C547.568 108.6 546.639 109.026 545.787 109.666C541.343 113.122 539.151 123.157 540.779 134.501Z" fill="#273339"/>
<path d="M540.779 134.501C542.408 145.83 547.324 154.845 552.56 156.915C557.004 153.474 559.211 143.439 557.583 132.095C555.954 120.736 551.007 111.721 545.772 109.666C541.327 113.122 539.135 123.157 540.764 134.501H540.779Z" fill="#EBEBEB"/>
<path d="M470.446 115.985C458.132 102.098 450.933 116.655 450.933 116.655C439.67 104.032 433.551 119.746 433.551 119.746C422.121 107.991 416.718 127.055 417.905 136.892C419.092 146.728 428.879 141.978 432.684 129.217C432.318 144.658 440.461 146.881 447.904 126.857C448.406 144.353 457.067 144.825 461.466 118.528L470.446 115.985Z" fill="#A86852"/>
<path d="M441.268 179.238C427.585 173.543 427.387 170.346 431.527 162.184C435.667 154.022 451.253 144.246 450.659 153.444C450.065 162.641 446.291 166.387 446.291 166.387C446.291 166.387 463.855 170.802 474.494 183.624C474.494 183.624 459.426 186.776 441.268 179.223V179.238Z" fill="#A86852"/>
<path d="M410.842 230.63C440.553 247.014 468.604 267.921 468.604 267.921L442.181 332.926L412.288 323.15L410.857 230.63H410.842Z" fill="#E19549"/>
<path d="M282.306 231.102C271.758 237.025 236.127 264.541 236.127 264.541L274.36 336.047L306.613 310.146L282.306 231.117V231.102Z" fill="#E19549"/>
<path d="M260.038 266.2C259.901 265.911 259.627 265.774 259.353 265.667C259.353 265.667 259.323 265.667 259.307 265.667C259.46 265.119 259.612 264.571 259.749 264.008C259.886 263.52 259.642 262.896 259.186 262.668C258.744 262.439 258.105 262.455 257.755 262.866C257.207 263.49 256.659 264.13 256.111 264.754C255.7 265.226 255.609 265.987 256.111 266.444C256.233 266.566 256.4 266.642 256.568 266.703C256.507 266.992 256.446 267.282 256.37 267.571C256.218 268.15 256.583 268.835 257.192 268.972C257.801 269.109 258.425 268.774 258.592 268.15C258.592 268.15 258.592 268.134 258.592 268.119C258.607 268.089 258.623 268.058 258.638 268.028C258.653 268.012 258.668 267.997 258.683 267.982C258.714 267.967 258.744 267.952 258.775 267.936C258.957 267.921 259.125 267.891 259.307 267.845C259.764 267.738 260.16 267.251 260.145 266.764C260.145 266.566 260.084 266.383 259.992 266.216L260.038 266.2Z" fill="#CE7B29"/>
<path d="M289.52 275.672C289.52 275.337 289.551 275.017 289.566 274.682L289.52 274.316C289.474 274.134 289.398 273.966 289.261 273.829C289.2 273.723 289.109 273.631 289.003 273.57C288.866 273.449 288.698 273.357 288.516 273.311C288.333 273.251 288.135 273.235 287.952 273.22C287.861 273.22 287.785 273.22 287.694 273.22C287.511 273.235 287.313 273.251 287.13 273.296C286.948 273.342 286.75 273.433 286.583 273.509C286.506 273.54 286.446 273.586 286.369 273.631C286.202 273.738 286.05 273.86 285.898 273.997C285.761 274.134 285.639 274.301 285.517 274.469C285.471 274.545 285.426 274.606 285.395 274.682C285.304 274.849 285.243 275.017 285.243 275.2C285.197 275.382 285.213 275.55 285.258 275.733C285.304 275.915 285.38 276.083 285.517 276.22C285.624 276.387 285.761 276.509 285.928 276.601C286.141 276.707 286.369 276.753 286.613 276.753C286.613 276.844 286.583 276.936 286.613 277.027C286.659 277.149 286.704 277.271 286.765 277.392C286.902 277.636 287.085 277.819 287.328 277.956C287.496 278.062 287.678 278.123 287.876 278.123C288.074 278.169 288.257 278.154 288.455 278.093C288.653 278.047 288.82 277.956 288.972 277.819C289.14 277.712 289.277 277.56 289.383 277.377C289.505 277.149 289.581 276.905 289.581 276.631C289.581 276.463 289.551 276.296 289.535 276.128C289.535 275.961 289.535 275.809 289.535 275.641L289.52 275.672Z" fill="#CE7B29"/>
<path d="M293.295 242.081C293.142 241.959 292.99 241.867 292.838 241.776C292.96 241.38 293.082 240.984 293.158 240.588C293.219 240.238 293.219 239.858 293.021 239.538C292.853 239.264 292.625 239.066 292.321 238.944C291.666 238.685 290.951 238.944 290.585 239.538C290.525 239.629 290.479 239.72 290.403 239.812C290.159 240.132 289.9 240.467 289.657 240.786C289.52 240.908 289.429 241.06 289.368 241.243C289.292 241.395 289.246 241.563 289.261 241.746C289.261 242.035 289.383 242.355 289.581 242.598C289.505 242.842 289.429 243.07 289.353 243.314C289.2 243.786 289.383 244.35 289.733 244.7C290.053 245.035 290.661 245.248 291.118 245.08C291.423 244.959 291.712 244.852 292.016 244.73C292.168 244.669 292.321 244.654 292.473 244.608C293.005 244.456 293.569 244.03 293.66 243.436C293.721 243.192 293.721 242.949 293.66 242.72C293.599 242.477 293.477 242.263 293.295 242.081Z" fill="#CE7B29"/>
<path d="M324.512 248.111C324.405 247.897 324.253 247.73 324.055 247.608C323.949 247.517 323.827 247.486 323.705 247.425C323.66 247.319 323.614 247.212 323.583 247.106C323.507 246.999 323.416 246.892 323.34 246.786C323.203 246.634 323.035 246.527 322.838 246.466C322.716 246.405 322.594 246.375 322.457 246.375C322.335 246.344 322.198 246.344 322.077 246.375C321.94 246.375 321.818 246.405 321.696 246.466C321.498 246.527 321.331 246.634 321.194 246.786C320.92 247.06 320.631 247.304 320.341 247.547C320.189 247.684 320.098 247.852 320.037 248.034C319.946 248.202 319.915 248.385 319.915 248.583C319.931 248.704 319.946 248.826 319.961 248.948C320.007 249.146 320.098 249.313 320.22 249.451C320.204 249.511 320.204 249.588 320.189 249.648L320.159 249.74C320.144 249.877 320.098 249.999 320.098 250.136C320.098 250.349 320.128 250.547 320.22 250.73C320.281 250.928 320.402 251.11 320.555 251.263C320.661 251.354 320.783 251.43 320.889 251.521C321.072 251.628 321.27 251.689 321.468 251.704C321.605 251.735 321.742 251.735 321.864 251.704C322.077 251.704 322.259 251.628 322.442 251.521C322.762 251.323 323.02 251.019 323.127 250.669C323.218 250.653 323.309 250.608 323.416 250.593C323.553 250.532 323.69 250.486 323.827 250.425C324.04 250.318 324.207 250.166 324.329 249.968C324.436 249.862 324.512 249.725 324.558 249.588C324.664 249.39 324.71 249.176 324.695 248.948C324.695 248.659 324.603 248.369 324.466 248.111H324.512Z" fill="#CE7B29"/>
<path d="M322.853 277.91C322.807 277.788 322.746 277.651 322.701 277.529C322.609 277.408 322.533 277.301 322.442 277.179C322.32 277.088 322.214 277.012 322.092 276.92C321.909 276.814 321.711 276.753 321.498 276.738C321.361 276.707 321.224 276.707 321.087 276.738C320.95 276.738 320.813 276.768 320.692 276.844C320.555 276.875 320.433 276.951 320.326 277.057C320.144 277.179 319.991 277.331 319.9 277.529C319.641 277.88 319.398 278.245 319.139 278.595C319.033 278.778 318.972 278.961 318.956 279.159C318.911 279.357 318.926 279.555 318.987 279.753C319.033 279.874 319.093 279.996 319.139 280.118C319.246 280.316 319.383 280.468 319.55 280.575C319.641 280.666 319.763 280.742 319.9 280.773C320.083 280.864 320.265 280.91 320.479 280.895C320.539 280.895 320.6 280.879 320.661 280.864C320.768 280.925 320.859 281.016 320.966 281.047C321.179 281.108 321.392 281.123 321.605 281.077C321.818 281.077 322.031 281.001 322.214 280.879C322.427 280.773 322.579 280.62 322.701 280.423C322.853 280.255 322.944 280.072 323.005 279.844C323.081 279.555 323.081 279.28 323.005 278.991C322.929 278.626 322.899 278.26 322.838 277.895L322.853 277.91Z" fill="#CE7B29"/>
<path d="M282.823 307.496C282.762 307.283 282.64 307.101 282.473 306.933C282.26 306.72 282.001 306.568 281.712 306.491C281.697 306.491 281.682 306.491 281.666 306.491C281.59 306.491 281.499 306.461 281.423 306.461C281.377 306.461 281.316 306.461 281.271 306.461C281.24 306.43 281.225 306.385 281.194 306.354C281.073 306.263 280.951 306.172 280.829 306.08C280.631 305.958 280.433 305.898 280.205 305.882C280.068 305.852 279.916 305.852 279.779 305.882C279.566 305.882 279.353 305.958 279.155 306.08C279.033 306.172 278.911 306.263 278.79 306.354C278.577 306.568 278.424 306.826 278.348 307.116C278.226 307.466 278.105 307.816 277.998 308.151C277.937 308.364 277.922 308.578 277.968 308.791C277.968 309.004 278.044 309.217 278.166 309.415C278.226 309.522 278.318 309.583 278.394 309.659C278.394 309.674 278.394 309.689 278.394 309.704C278.409 310.131 278.561 310.603 278.881 310.892C279.003 310.983 279.124 311.075 279.246 311.166C279.444 311.288 279.642 311.349 279.87 311.364C280.007 311.395 280.159 311.395 280.296 311.364C280.525 311.364 280.723 311.288 280.92 311.166C281.286 310.938 281.651 310.572 281.727 310.131C281.727 310.1 281.742 310.085 281.742 310.055C281.742 310.024 281.773 310.009 281.788 309.978C281.864 309.902 281.94 309.811 282.016 309.75C281.955 309.796 281.895 309.841 281.849 309.887C281.986 309.78 282.138 309.689 282.26 309.567C282.29 309.537 282.336 309.491 282.366 309.461C282.519 309.324 282.625 309.156 282.732 308.973C282.884 308.715 282.945 308.44 282.945 308.136C282.945 307.908 282.914 307.71 282.808 307.512L282.823 307.496Z" fill="#CE7B29"/>
<path d="M328.819 320.424C328.819 320.333 328.819 320.226 328.819 320.135C328.819 319.709 328.637 319.191 328.302 318.886C328.18 318.795 328.058 318.688 327.921 318.597C327.723 318.475 327.51 318.414 327.282 318.399C326.917 318.353 326.506 318.399 326.186 318.597C326.064 318.688 325.943 318.795 325.806 318.886C325.577 319.115 325.425 319.374 325.349 319.678C325.166 320.135 324.999 320.592 324.816 321.048C324.755 321.262 324.74 321.49 324.786 321.703C324.786 321.932 324.862 322.145 324.984 322.343C325.075 322.465 325.166 322.586 325.273 322.708C325.273 322.708 325.303 322.708 325.319 322.739C325.319 322.815 325.319 322.876 325.319 322.952C325.319 323.363 325.516 323.881 325.821 324.155C325.943 324.246 326.064 324.338 326.186 324.429C326.384 324.551 326.597 324.612 326.81 324.627C327.16 324.673 327.556 324.627 327.876 324.429C328.241 324.2 328.621 323.82 328.682 323.378C328.789 322.632 328.941 321.871 328.956 321.109C328.956 320.881 328.895 320.637 328.789 320.409L328.819 320.424Z" fill="#CE7B29"/>
<path d="M356.901 274.971C356.901 274.682 356.901 274.438 356.84 274.149C356.84 274.088 356.81 274.042 356.794 273.981C356.794 273.692 356.764 273.403 356.749 273.129C356.733 272.976 356.703 272.824 356.688 272.672C356.627 272.428 356.52 272.23 356.368 272.048C356.292 271.911 356.17 271.789 356.033 271.713C355.851 271.545 355.653 271.439 355.409 271.393C355.105 271.332 354.8 271.332 354.496 271.393C354.253 271.454 354.055 271.56 353.872 271.713C353.659 271.85 353.507 272.017 353.385 272.246C353.02 273.144 352.654 274.042 352.289 274.941C352.167 275.139 352.106 275.352 352.091 275.58C352.046 275.809 352.061 276.022 352.122 276.25C352.167 276.479 352.274 276.677 352.426 276.859C352.548 277.057 352.731 277.21 352.944 277.331C353.339 277.529 353.811 277.636 354.253 277.499C354.603 277.392 354.937 277.164 355.166 276.859C355.607 276.814 356.049 276.677 356.353 276.342C356.688 275.961 356.901 275.519 356.901 275.002V274.971Z" fill="#CE7B29"/>
<path d="M389.564 286.254C389.534 286.148 389.458 286.072 389.412 285.98C389.366 285.737 389.321 285.493 389.29 285.234C389.244 285.112 389.184 284.991 389.138 284.869C389.031 284.671 388.894 284.519 388.727 284.412C388.636 284.321 388.514 284.244 388.377 284.214C388.194 284.123 388.012 284.077 387.799 284.092L387.403 284.138C387.281 284.184 387.159 284.244 387.037 284.29C386.84 284.397 386.703 284.534 386.581 284.701C386.444 284.854 386.353 285.036 386.307 285.234C386.276 285.371 386.276 285.493 386.261 285.63C386.261 285.63 386.261 285.661 386.261 285.676C386.261 285.706 386.261 285.722 386.261 285.752C386.2 286.087 386.124 286.437 386.063 286.772C386.002 286.955 386.002 287.138 386.033 287.305C386.033 287.488 386.094 287.655 386.2 287.823C386.292 287.99 386.413 288.143 386.581 288.234C386.718 288.356 386.885 288.447 387.068 288.493C387.129 288.493 387.205 288.493 387.266 288.493C387.372 288.539 387.464 288.569 387.57 288.615C387.783 288.676 387.981 288.691 388.194 288.645C388.331 288.645 388.468 288.615 388.605 288.539C388.742 288.508 388.879 288.432 388.97 288.325C389.107 288.249 389.199 288.143 389.275 288.021C389.427 287.853 389.518 287.671 389.564 287.457C389.61 287.259 389.625 287.062 389.64 286.864C389.671 286.666 389.61 286.452 389.564 286.254Z" fill="#CE7B29"/>
<path d="M409.685 236.34C409.625 236.203 409.579 236.066 409.518 235.929C409.518 235.929 409.518 235.914 409.503 235.898C409.411 235.746 409.29 235.609 409.183 235.472C409.153 235.442 409.138 235.426 409.107 235.396C408.833 235.152 408.559 234.954 408.194 234.893C407.996 234.848 407.798 234.848 407.6 234.833C407.6 234.833 407.585 234.833 407.57 234.833C407.539 234.787 407.524 234.726 407.494 234.68C407.372 234.498 407.22 234.345 407.022 234.239C406.839 234.132 406.641 234.071 406.428 234.056C406.23 234.01 406.017 234.026 405.819 234.086C405.408 234.208 405.028 234.467 404.83 234.848C404.647 235.213 404.541 235.655 404.678 236.051C404.83 236.477 404.967 236.903 405.119 237.33C405.165 237.467 405.226 237.589 405.272 237.726C405.378 237.924 405.515 238.091 405.713 238.198C405.819 238.304 405.941 238.365 406.078 238.411C406.261 238.502 406.474 238.548 406.687 238.548C406.824 238.533 406.961 238.518 407.098 238.502C407.22 238.457 407.342 238.411 407.463 238.35C407.555 238.396 407.615 238.472 407.707 238.487C407.981 238.563 408.27 238.563 408.544 238.487C408.833 238.411 409.077 238.274 409.29 238.061C409.503 237.848 409.64 237.604 409.716 237.315C409.746 237.147 409.777 236.98 409.777 236.812C409.777 236.675 409.685 236.233 409.716 236.355L409.685 236.34Z" fill="#CE7B29"/>
<path d="M440.324 268.545C440.263 268.408 440.218 268.271 440.157 268.15C440.065 268.028 439.974 267.906 439.883 267.799C439.837 267.769 439.776 267.723 439.731 267.677C439.7 267.099 439.335 266.551 438.848 266.277C438.3 265.972 437.661 265.987 437.113 266.277C436.702 266.49 436.306 266.718 435.91 266.947C435.515 267.175 435.18 267.601 435.058 268.043C434.997 268.271 434.982 268.5 435.028 268.728C435.028 268.957 435.104 269.185 435.225 269.383C435.469 269.764 435.834 270.083 436.276 270.205C436.276 270.236 436.276 270.266 436.276 270.297C436.291 270.434 436.306 270.571 436.337 270.723C436.382 270.936 436.489 271.134 436.626 271.302C436.702 271.439 436.808 271.53 436.93 271.606C437.098 271.758 437.28 271.85 437.508 271.895C437.782 271.956 438.072 271.956 438.346 271.895C438.467 271.865 438.559 271.789 438.665 271.728C438.772 271.728 438.894 271.774 439 271.728C439.152 271.728 439.274 271.697 439.411 271.621C439.624 271.56 439.807 271.439 439.959 271.271C440.05 271.149 440.142 271.043 440.233 270.921C440.37 270.662 440.446 270.388 440.446 270.099C440.507 269.581 440.385 269.048 440.279 268.53L440.324 268.545Z" fill="#CE7B29"/>
<path d="M446.017 316.754C445.971 316.633 445.91 316.511 445.864 316.374C445.727 316.13 445.53 315.932 445.286 315.795C445.012 315.612 444.708 315.551 444.388 315.551C444.282 315.43 444.19 315.293 444.053 315.216C443.536 314.927 442.896 314.927 442.379 315.216C441.983 315.445 441.572 315.689 441.177 315.917C440.796 316.145 440.476 316.541 440.37 316.968C440.263 317.364 440.309 317.896 440.537 318.247C440.781 318.627 441.146 318.962 441.588 319.054C441.664 319.054 441.725 319.054 441.801 319.054C441.877 319.221 441.968 319.389 442.105 319.526C442.227 319.617 442.333 319.709 442.455 319.8C442.638 319.922 442.851 319.983 443.064 319.983C443.201 320.013 443.338 320.013 443.49 319.983C443.703 319.983 443.901 319.906 444.099 319.8C444.464 319.571 444.799 319.221 444.875 318.78C444.921 318.749 444.966 318.719 445.027 318.688C445.088 318.658 445.149 318.627 445.195 318.597C445.317 318.506 445.423 318.414 445.545 318.323C445.667 318.216 445.758 318.079 445.834 317.942C445.834 317.927 445.864 317.896 445.864 317.881C446.062 317.561 446.123 317.074 446.017 316.724V316.754Z" fill="#CE7B29"/>
<path d="M428.285 308.349C428.209 308.121 428.087 307.923 427.92 307.77C427.752 307.588 427.554 307.466 427.341 307.405C427.143 307.298 426.915 307.253 426.687 307.268C426.534 307.283 426.397 307.298 426.245 307.329C425.941 307.405 425.682 307.557 425.454 307.786C425.362 307.908 425.271 308.029 425.165 308.166C425.012 308.44 424.936 308.73 424.936 309.034C424.936 309.567 424.952 310.115 424.967 310.648C424.967 310.877 425.012 311.09 425.104 311.303C425.18 311.532 425.302 311.714 425.469 311.882C425.636 312.049 425.819 312.186 426.047 312.247C426.245 312.354 426.458 312.4 426.702 312.384L427.143 312.323C427.448 312.247 427.706 312.095 427.935 311.867C428.026 311.745 428.117 311.623 428.224 311.501C428.376 311.242 428.452 310.953 428.452 310.648C428.452 310.115 428.452 309.567 428.452 309.034C428.452 308.806 428.407 308.578 428.315 308.38L428.285 308.349Z" fill="#CE7B29"/>
<path d="M381.999 318.795C381.999 318.795 381.908 318.734 381.862 318.704C381.908 318.445 381.954 318.201 381.999 317.957C382.075 317.592 382.06 317.166 381.847 316.831C381.634 316.48 381.314 316.222 380.919 316.115C380.63 316.039 380.325 315.993 380.036 316.024C379.579 316.069 379.275 316.145 378.864 316.343C378.331 316.587 377.844 317.059 377.585 317.577C377.403 317.942 377.327 318.338 377.433 318.734C377.525 319.099 377.814 319.511 378.164 319.693C378.331 319.769 378.499 319.83 378.681 319.861C378.666 320.044 378.636 320.241 378.681 320.424C378.727 320.622 378.818 320.805 378.955 320.957C379.062 321.125 379.214 321.262 379.397 321.368C379.564 321.46 379.762 321.49 379.96 321.521C380.416 321.642 380.858 321.521 381.299 321.384C381.664 321.277 382.06 321.018 382.243 320.653L382.395 320.287C382.456 320.089 382.456 319.907 382.426 319.709C382.38 319.389 382.243 319.054 381.999 318.825V318.795Z" fill="#CE7B29"/>
<path d="M380.249 321.536C380.173 321.536 380.097 321.521 380.005 321.505C380.051 321.505 380.097 321.536 380.158 321.551C380.188 321.551 380.219 321.551 380.249 321.551V321.536Z" fill="#CE7B29"/>
<path d="M380.022 321.505C380.022 321.505 379.991 321.505 379.976 321.505C379.945 321.505 379.915 321.505 379.868 321.505C379.915 321.505 379.961 321.505 380.022 321.521V321.505Z" fill="#CE7B29"/>
<path d="M356.931 304.314C356.855 304.162 356.673 303.948 356.612 303.872C356.612 303.857 356.581 303.842 356.566 303.827C356.444 303.735 356.338 303.644 356.216 303.553C356.216 303.553 356.201 303.553 356.186 303.537C356.033 303.461 355.866 303.385 355.699 303.339C355.577 303.309 355.455 303.294 355.318 303.294C355.211 303.141 355.09 303.02 354.922 302.928C354.77 302.837 354.603 302.776 354.42 302.776C354.253 302.746 354.07 302.746 353.903 302.791C353.552 302.898 353.218 303.111 353.05 303.446C352.883 303.766 352.807 304.131 352.913 304.481C353.005 304.786 353.096 305.075 353.172 305.38C353.172 305.517 353.172 305.669 353.218 305.791C353.294 306.096 353.461 306.4 353.689 306.613C353.826 306.75 353.979 306.857 354.161 306.918C354.329 307.009 354.511 307.04 354.694 307.04C354.816 307.024 354.938 307.009 355.059 306.994C355.166 306.963 355.257 306.903 355.364 306.842L355.562 306.872C355.775 306.872 355.972 306.842 356.17 306.735C356.307 306.705 356.429 306.628 356.536 306.522C356.718 306.4 356.87 306.248 356.977 306.05C357.023 305.913 357.084 305.791 357.129 305.654C357.205 305.38 357.205 305.106 357.129 304.832C357.099 304.664 357.007 304.497 356.931 304.344V304.314Z" fill="#CE7B29"/>
<path d="M358.758 345.092C358.712 344.97 358.651 344.864 358.606 344.742C358.514 344.437 358.423 344.133 358.347 343.843C358.179 343.25 357.723 342.778 357.114 342.61C356.825 342.534 356.536 342.534 356.231 342.61C355.927 342.686 355.668 342.838 355.455 343.067C355.09 343.371 354.755 343.722 354.405 344.057L353.37 345.062C353.05 345.366 352.852 345.853 352.852 346.295C352.852 346.737 353.035 347.239 353.37 347.528C353.705 347.833 354.131 348.061 354.603 348.046C355.074 348.031 355.485 347.863 355.835 347.528C355.957 347.407 356.079 347.3 356.201 347.178C356.292 347.254 356.353 347.346 356.46 347.407C356.718 347.559 356.992 347.62 357.297 347.62C357.525 347.62 357.738 347.589 357.921 347.483C358.134 347.422 358.332 347.3 358.484 347.133C358.651 346.98 358.773 346.782 358.834 346.569C358.94 346.371 358.986 346.158 358.971 345.945C358.971 345.64 358.895 345.366 358.758 345.107V345.092Z" fill="#CE7B29"/>
<path d="M408.102 339.032C408.042 338.879 407.981 338.742 407.92 338.59V338.56C407.768 338.286 407.555 338.072 407.281 337.92C407.022 337.768 406.748 337.707 406.443 337.707C406.352 337.646 406.261 337.57 406.154 337.54C405.956 337.448 405.759 337.402 405.53 337.402C405.393 337.418 405.241 337.433 405.104 337.463C404.967 337.524 404.83 337.57 404.708 337.631C404.495 337.737 404.343 337.89 404.221 338.088C404.069 338.255 403.978 338.453 403.917 338.666C403.78 339.032 403.658 339.397 403.521 339.763C403.46 339.976 403.445 340.189 403.491 340.402C403.491 340.615 403.567 340.829 403.673 341.011C403.78 341.209 403.932 341.377 404.115 341.499C404.252 341.62 404.404 341.681 404.571 341.742C404.617 341.773 404.632 341.834 404.693 341.864C404.861 342.016 405.058 342.123 405.271 342.169C405.408 342.184 405.561 342.199 405.698 342.229C405.835 342.214 405.987 342.199 406.124 342.169C406.352 342.123 406.55 342.016 406.702 341.864C406.87 341.757 406.976 341.62 407.083 341.453C407.052 341.483 407.022 341.529 406.991 341.559L407.418 341.087C407.418 341.087 407.311 341.164 407.265 341.209C407.235 341.24 407.204 341.255 407.174 341.27C407.357 341.164 407.524 341.027 407.631 340.844C407.692 340.783 407.752 340.707 407.798 340.631C407.829 340.585 407.844 340.539 407.859 340.494C408.011 340.189 408.148 339.869 408.133 339.519C408.118 339.367 408.087 339.214 408.072 339.062L408.102 339.032Z" fill="#CE7B29"/>
<path d="M386.398 350.833C386.398 350.833 386.276 350.726 386.216 350.665C386.216 350.589 386.231 350.528 386.231 350.452C386.231 350.239 386.2 350.041 386.094 349.858C386.033 349.66 385.911 349.478 385.759 349.325L385.424 349.066C385.241 348.96 385.044 348.899 384.831 348.884C384.694 348.853 384.557 348.853 384.42 348.884C384.206 348.884 384.009 348.96 383.826 349.066C383.506 349.264 383.278 349.569 383.141 349.919C383.156 349.873 383.172 349.843 383.187 349.797C383.172 349.843 383.141 349.904 383.126 349.95C383.126 349.995 383.08 350.01 383.065 350.056C383.065 350.071 383.065 350.102 383.05 350.117C382.958 350.33 382.867 350.543 382.776 350.772C382.669 350.955 382.608 351.137 382.593 351.35C382.593 351.381 382.593 351.411 382.593 351.442C382.593 351.457 382.578 351.488 382.563 351.503C382.502 351.64 382.456 351.746 382.426 351.883C382.334 352.325 382.35 352.508 382.426 352.949C382.456 353.162 382.563 353.36 382.654 353.543C382.745 353.665 382.852 353.802 382.943 353.924C383.111 354.107 383.308 354.228 383.537 354.305C383.674 354.381 383.826 354.426 383.978 354.426C384.207 354.472 384.435 354.472 384.663 354.396C384.8 354.335 384.952 354.274 385.089 354.213C385.211 354.122 385.348 354.015 385.47 353.924C385.607 353.802 385.668 353.65 385.744 353.497C385.835 353.452 385.942 353.437 386.003 353.36C386.14 353.284 386.261 353.163 386.337 353.025C386.505 352.843 386.611 352.645 386.657 352.401C386.718 352.097 386.718 351.792 386.657 351.488C386.596 351.244 386.49 351.031 386.337 350.863L386.398 350.833Z" fill="#CE7B29"/>
<path d="M328.013 348.29C327.921 347.985 327.754 347.711 327.541 347.468C327.373 347.285 327.175 347.163 326.947 347.087C326.734 346.98 326.521 346.935 326.277 346.935C326.232 346.935 326.171 346.935 326.125 346.935C325.988 346.737 325.836 346.554 325.608 346.417C325.334 346.265 325.045 346.188 324.74 346.188C324.436 346.188 324.147 346.265 323.873 346.417C323.568 346.645 323.249 346.858 322.944 347.087C322.731 347.193 322.548 347.361 322.427 347.559C322.274 347.726 322.168 347.94 322.107 348.168C322.046 348.396 322.031 348.61 322.077 348.838C322.077 349.066 322.153 349.28 322.274 349.478C322.518 349.873 322.883 350.208 323.355 350.315C323.401 350.315 323.462 350.315 323.507 350.315C323.568 350.376 323.599 350.437 323.675 350.483C323.842 350.635 324.055 350.741 324.299 350.802C324.573 350.848 324.831 350.878 325.105 350.909C325.288 350.924 325.486 350.878 325.669 350.848C325.699 350.848 325.73 350.848 325.76 350.833C325.836 350.818 325.897 350.802 325.973 350.772C326.384 350.65 326.78 350.437 327.16 350.269L327.541 349.98C327.723 349.813 327.845 349.615 327.921 349.386C327.997 349.249 328.043 349.097 328.043 348.945C328.089 348.716 328.089 348.488 328.013 348.259V348.29Z" fill="#CE7B29"/>
<path d="M402.425 258.328C402.425 258.145 402.395 257.947 402.349 257.78C402.319 257.673 402.273 257.551 402.227 257.445C402.182 257.338 402.151 257.232 402.09 257.125C402.09 257.11 402.075 257.095 402.06 257.079C401.969 256.942 401.847 256.79 401.74 256.653C401.71 256.623 401.695 256.592 401.664 256.577C401.664 256.577 401.634 256.562 401.619 256.546C401.482 256.44 401.345 256.318 401.192 256.227C401.162 256.211 401.131 256.196 401.101 256.181C400.934 256.09 400.751 256.029 400.584 255.968C400.447 255.922 400.294 255.907 400.142 255.892C399.99 255.876 399.853 255.846 399.701 255.861C399.518 255.861 399.335 255.907 399.153 255.937C399.107 255.937 399.077 255.937 399.031 255.968C399.001 255.968 398.97 255.983 398.925 255.998C398.742 256.059 398.574 256.135 398.407 256.211C398.194 256.318 398.011 256.486 397.829 256.623C397.768 256.668 397.707 256.729 397.661 256.79C397.539 256.942 397.418 257.095 397.311 257.262C397.22 257.43 397.144 257.643 397.083 257.795C397.083 257.826 397.052 257.871 397.052 257.917C397.007 258.1 396.992 258.298 396.976 258.48C396.976 258.724 397.022 258.937 397.113 259.15C397.189 259.379 397.311 259.577 397.494 259.744C397.524 259.775 397.555 259.775 397.585 259.805C397.616 259.988 397.646 260.155 397.737 260.323L398.042 260.719C398.27 260.947 398.559 261.115 398.879 261.191C398.925 261.191 398.955 261.221 399.001 261.221C399.168 261.252 399.335 261.267 399.503 261.282C399.518 261.282 399.549 261.282 399.564 261.282C399.899 261.328 400.112 261.373 400.462 261.282C400.538 261.267 400.629 261.236 400.705 261.221L401.116 261.054C401.238 260.962 401.36 260.871 401.482 260.764C401.573 260.643 401.664 260.521 401.771 260.399C401.847 260.262 401.862 260.125 401.908 259.973C401.908 259.973 401.923 259.957 401.938 259.942C401.984 259.866 402.03 259.79 402.075 259.714C402.151 259.546 402.227 259.363 402.288 259.181C402.288 259.135 402.319 259.105 402.319 259.059C402.349 258.876 402.38 258.693 402.395 258.495C402.395 258.45 402.395 258.404 402.395 258.358L402.425 258.328Z" fill="#CE7B29"/>
<path d="M196.523 68.994C196.31 84.2668 188.289 99.4483 176.341 107.747C174.286 109.163 172.597 110.975 171.41 113.061C170.74 114.249 170.253 115.498 169.933 116.822C169.674 117.858 169.537 118.924 169.522 120.005C169.461 123.522 168.228 126.75 166.158 129.278C166.158 129.278 166.148 129.288 166.128 129.309C165.702 129.476 165.245 129.628 164.804 129.781C162.323 130.573 149.249 132.704 140.131 131.943C136.966 129.659 134.728 126.157 134.104 122.121C133.967 121.314 133.891 120.477 133.906 119.609V119.502C133.982 114.523 131.471 109.97 127.468 107.031C115.764 98.4281 108.169 83.0334 108.397 67.7302C108.732 43.382 128.762 23.9218 153.084 24.272C177.422 24.607 196.873 44.6459 196.523 68.994Z" fill="#E19549"/>
<path d="M168.502 67.4865C166.463 66.4206 163.982 67.2581 162.46 68.8265C160.618 70.7147 160.207 73.486 159.857 76.0137C159.736 76.0137 159.629 76.0137 159.507 76.0137C157.026 75.9376 154.53 75.5417 152.141 74.8564C150.938 74.5062 149.751 74.0951 148.594 73.5926C148.457 71.8872 148.335 70.1665 148.168 68.4611C147.894 65.7049 147.498 62.7204 145.444 60.6495C143.784 58.9746 141.06 58.1218 138.914 59.4009C136.92 60.5886 136.098 63.0859 136.433 65.2938C136.844 68.0195 138.944 70.136 141.045 71.7501C142.78 73.0749 144.698 74.1712 146.661 75.1153C146.874 77.9476 147.011 80.7798 147.163 83.5664C147.94 96.6465 147.955 109.833 147.133 122.898C147.072 123.812 148.685 123.933 148.762 123.005C149.857 108.463 150.01 93.9208 149.066 79.3637C148.99 78.2825 148.883 77.2014 148.792 76.1203C151.973 77.3689 155.793 78.3587 159.522 78.4957C157.513 93.7838 157.513 109.255 157.498 124.649C157.498 126.172 159.842 126.02 159.842 124.497C159.857 112.939 159.872 101.352 160.725 89.8095C160.938 86.962 161.197 84.0993 161.501 81.2518C161.608 80.323 161.699 79.3789 161.806 78.4348C163.236 78.3282 164.621 78.0846 165.915 77.643C168.122 76.8817 169.979 75.298 170.557 72.9683C171.06 70.9431 170.451 68.5067 168.502 67.4865ZM145.276 71.9328C143.176 70.7147 140.786 69.1767 139.477 67.0449C138.412 65.309 138.077 61.5936 140.862 61.1977C143.8 60.7714 145.215 64.1975 145.626 66.4815C145.976 68.4611 146.22 70.471 146.402 72.5115C146.022 72.3135 145.626 72.146 145.261 71.9328H145.276ZM166.676 74.7803C165.337 75.6026 163.723 75.8767 162.125 75.968C162.262 75.0849 162.414 74.2017 162.627 73.349C163.099 71.4608 165.047 67.989 167.559 69.4356C169.751 70.6994 168.289 73.8058 166.691 74.7651L166.676 74.7803Z" fill="white"/>
<path d="M177.117 128.456C176.113 131.547 172.155 132.978 168.228 133.587C168.228 133.587 168.218 133.593 168.198 133.603C167.65 133.694 167.087 133.755 166.554 133.816C163.464 134.12 147.498 133.785 136.692 131.319C129.097 129.552 124.089 126.766 127.879 122.411C128.655 121.512 129.736 120.903 130.953 120.477C132.308 119.959 133.815 119.67 135.291 119.426C143.86 118.086 152.703 117.629 161.531 118.132C165.291 118.345 169.187 118.756 172.444 120.462C173.251 120.873 173.997 121.406 174.651 121.984C176.645 123.796 177.832 126.218 177.132 128.471L177.117 128.456Z" fill="#273339"/>
<path d="M130.923 139.557C132.415 138.095 134.561 137.531 136.616 137.135C144.987 135.506 153.586 135.582 162.11 135.658C164.149 135.674 166.219 135.704 168.152 136.344C170.085 136.983 171.881 138.354 172.521 140.287C173.236 142.48 172.307 144.962 170.679 146.607C169.066 148.251 166.859 149.195 164.682 149.926C156.92 152.53 148.442 152.941 140.466 151.114C136.463 150.2 125.459 144.916 130.923 139.541V139.557Z" fill="#273339"/>
<path d="M144.606 157.129C144.728 158.088 145.443 158.849 146.143 159.519C148.898 162.093 152.369 164.224 156.143 164.224C160.527 164.24 168.35 156.839 161.729 154.966C158.594 154.068 144.043 152.621 144.591 157.129H144.606Z" fill="#273339"/>
<path d="M166.737 32.723C165.123 31.8094 162.673 31.2308 161.744 32.8449C160.816 34.4742 162.582 36.271 164.073 37.413C168.152 40.5346 171.607 44.4784 174.21 48.9095C175.565 51.2088 176.691 53.6451 177.558 56.1728C178.274 58.2742 178.563 62.4312 180.329 63.9082C184.712 67.5779 185.747 61.1521 185.153 58.2437C184.134 53.3101 182.109 48.6049 179.294 44.4327C176.067 39.6514 171.775 35.5553 166.737 32.7383V32.723Z" fill="white"/>
<path d="M181.82 79.0744C183.083 80.2316 184.94 80.3078 186.234 79.2571C189.263 76.8055 187.726 70.5472 184.134 70.1665C180.374 69.7554 178.989 76.5162 181.805 79.0744H181.82Z" fill="white"/>
<path d="M140.025 167.757C172.307 177.107 193.723 184.279 184.134 211.002L140.071 206.845L140.025 167.772V167.757Z" fill="#A86852"/>
<path d="M104.013 148.815L98.8079 171.762C98.3361 173.848 98.8535 176.041 100.223 177.701L126.159 202.018C129.097 204.774 132.886 206.404 136.905 206.647L184.377 209.48C179.385 206.008 182.886 193.095 170.39 183.761C157.802 172.706 123.967 174.244 123.967 174.244L112.308 168.458L112.521 149.637C112.552 147.581 111.091 145.708 108.914 145.343C106.646 144.947 104.5 146.576 103.998 148.83L104.013 148.815Z" fill="#A86852"/>
<path d="M119.66 173.391C120.939 162.428 123.085 156.885 124.272 155.576C125.155 154.601 133.708 148.86 138.016 145.982C139.462 145.023 141.38 145.175 142.658 146.348C144.119 147.688 144.287 149.926 143.054 151.479L135.063 160.418L131.532 176.574L119.645 173.391H119.66Z" fill="#A86852"/>
<path d="M130.664 176.787C134.013 163.981 142.064 155.865 143.556 155.332C144.561 154.966 151.121 153.718 155.276 152.956C157.178 152.606 159.005 153.84 159.385 155.743C159.72 157.418 158.807 159.093 157.224 159.733L151.044 162.199C150.116 162.565 149.431 163.357 149.188 164.331L146.478 175.021L130.68 176.787H130.664Z" fill="#A86852"/>
<path d="M146.143 172.752C150.664 166.372 155.9 161.758 157.452 161.453C158.502 161.255 165.184 161.042 169.4 160.935C171.333 160.89 172.947 162.397 173.023 164.331C173.099 166.037 171.942 167.559 170.268 167.925L163.769 169.402C162.795 169.63 161.988 170.3 161.592 171.214L157.254 181.355L146.128 172.752H146.143Z" fill="#A86852"/>
<path d="M118.732 176.178C117.971 177.518 117.59 178.812 117.483 180.335C117.377 181.903 117.514 183.38 117.849 184.918C118.488 187.872 119.325 190.674 120.786 193.354C121.045 193.826 121.837 193.4 121.623 192.912C120.451 190.339 119.569 187.507 119.477 184.659C119.432 183.289 119.477 181.918 119.493 180.548C119.508 179.101 119.493 177.716 119.356 176.269C119.325 175.934 118.899 175.904 118.747 176.163L118.732 176.178Z" fill="#273339"/>
<path d="M184.666 191.055C194.24 219.392 231.865 292.604 231.865 292.604L232.489 346.067C195.671 367.689 168.35 338.499 164.423 272.504C160.999 214.778 160.436 196.993 160.436 196.993L184.666 191.07V191.055Z" fill="#A86852"/>
<path d="M361.619 371.694C358.454 372.349 355.09 372.333 351.848 372.41C348.636 372.486 345.425 372.47 342.244 372.364C338.454 372.227 334.679 371.937 330.92 371.572C330.92 375.211 330.037 378.774 329.108 382.246C324.847 398.189 325.212 397.945 320.524 413.325C319.307 413.081 318.135 412.807 317.008 412.518C318.956 404.523 316.689 411.695 319.154 403.046C321.346 395.326 323.583 387.637 325.745 379.916C326.308 377.906 326.841 375.866 327.084 373.78C327.191 372.973 327.252 372.135 327.221 371.298V371.176C325.821 371.009 324.436 370.887 323.036 370.689C321.711 370.491 321.97 368.268 323.279 368.374C324.314 368.481 325.379 368.496 326.445 368.572C325.623 367.156 325.273 365.39 324.542 363.943C323.751 362.39 322.868 360.867 322.031 359.375C314.162 345.397 306.734 331.19 299.977 316.617C299.139 317.455 298.302 318.277 297.404 319.054C296.765 319.632 296.126 320.302 295.426 320.82C294.725 321.368 293.934 321.764 293.051 321.81C291.788 321.871 290.586 320.5 290.966 319.236C291.438 317.714 292.853 316.815 294.147 315.917C294.299 315.78 294.467 315.688 294.619 315.551C295.76 314.683 296.902 313.8 298.013 312.917C300.387 311.014 302.671 309.004 304.878 306.902C309.322 302.669 313.386 298.101 317.039 293.152C317.754 292.193 319.367 293.396 318.713 294.355C315.151 299.472 311.316 304.451 307.191 309.11C305.197 311.364 303.097 313.541 300.981 315.658C306.126 323.256 311.042 330.977 315.76 338.834C320.037 345.96 324.344 353.071 328.302 360.395C329.2 362.04 330.022 363.745 330.631 365.496C330.95 366.471 331.057 367.278 330.95 368.329C330.935 368.511 330.935 368.679 330.95 368.862C334.694 369.029 338.439 369.105 342.183 369.044C345.394 368.968 348.575 368.785 351.787 368.527C354.861 368.298 357.966 367.72 361.041 367.72C363.263 367.72 363.963 371.191 361.65 371.679L361.619 371.694Z" fill="#CE7B29"/>
<path d="M411.923 298.345C408.818 298.878 405.667 300.157 402.654 301.086C399.762 301.984 396.885 302.898 394.024 303.842C388.286 305.73 382.578 307.725 376.916 309.826C365.47 314.059 354.222 318.795 343.127 323.85C341.696 324.505 342.974 326.561 344.375 325.936C355.501 320.988 366.825 316.526 378.286 312.399C383.963 310.359 389.686 308.41 395.439 306.583C398.316 305.669 401.208 304.771 404.1 303.903C406.961 303.05 410.051 302.471 412.806 301.36C414.693 300.598 413.932 297.995 411.938 298.345H411.923Z" fill="#CE7B29"/>
<path d="M436.291 289.696C433.201 278.336 425.667 268.408 419.244 258.754C415.485 253.105 411.588 247.212 409.29 240.786C409.031 240.04 407.859 240.375 408.118 241.121C409.96 246.527 412.182 251.689 414.921 256.699C417.676 261.724 420.736 266.566 423.567 271.545C429.259 281.534 433.78 292.467 432.836 304.207C432.577 307.512 431.847 310.785 430.781 313.922C430.233 315.552 429.548 317.135 428.787 318.688C428.011 320.257 426.946 321.718 426.322 323.363C425.424 325.708 428.041 327.977 430.035 326.043C432.257 323.896 433.627 320.516 434.723 317.683C435.895 314.684 436.793 311.592 437.295 308.41C438.3 302.152 437.98 295.817 436.306 289.711L436.291 289.696Z" fill="#CE7B29"/>
<path d="M431.618 402.849C400.66 428.141 314.147 418 314.147 418C314.147 418 315.471 416.05 317.48 412.64C323.294 402.894 334.938 381.059 338.499 357.67L349.504 356.543C349.154 354.137 348.788 351.716 348.362 349.31C347.373 343.904 346.216 338.529 344.907 333.2C340.128 313.907 333.37 295.117 324.634 277.271C315.943 259.577 305.456 242.872 293.295 227.356C293.386 227.31 293.508 227.28 293.614 227.234C294.117 227.067 294.665 226.884 295.212 226.701C302.138 234.97 308.53 243.664 314.39 252.724C325.303 269.642 334.268 287.747 341.178 306.644C344.633 316.145 347.556 325.83 349.915 335.636C351.087 340.494 352.137 345.412 353.02 350.33C353.37 352.234 353.705 354.152 354.024 356.071L414.815 349.873C415.073 345.793 415.256 341.727 415.302 337.631C415.53 318.11 413.582 298.634 409.67 279.524C405.759 260.429 399.838 241.548 391.969 223.702C391.893 223.519 391.847 223.336 391.847 223.169C392.76 223.306 393.704 223.473 394.587 223.625C399.275 233.325 403.354 243.238 406.733 253.486C412.958 272.246 416.885 291.782 418.696 311.455C419.868 324.018 420.157 336.748 419.472 349.386L424.83 348.853C427.143 355.919 428.726 362.588 429.837 368.648C433.536 389.114 431.603 402.818 431.603 402.818L431.618 402.849Z" fill="#273339"/>
<path d="M413.765 409.868C408.833 410.523 403.978 411.772 399.062 412.594C394.008 413.431 388.94 414.162 383.856 414.665C373.887 415.655 363.735 416.096 353.705 415.731C352.837 415.7 352.868 416.979 353.705 417.055C363.948 417.923 374.131 418.213 384.404 417.619C389.427 417.33 394.45 416.873 399.442 416.203C404.511 415.518 409.777 414.878 414.663 413.325C416.885 412.609 415.972 409.609 413.765 409.899V409.868Z" fill="#394850"/>
<path d="M377.981 448.789C360.371 432.922 253.996 362.329 234.711 409.975C215.427 457.605 261.804 513.428 329.778 531.761C397.753 550.11 445.545 509.682 377.981 448.789Z" fill="#273339"/>
<path d="M535.498 546.075L549.105 473.35C539.348 472.345 531.221 473.046 531.221 473.046L509.197 544.385C530.977 548.618 535.498 546.09 535.498 546.09V546.075Z" fill="#EBEBEB"/>
<path d="M516.274 537.928C514.159 540.35 511.815 542.527 509.212 544.4C505.24 543.623 500.034 542.436 493.657 541.035C487.721 539.725 480.75 538.142 472.82 536.391C464.221 534.487 454.464 532.371 443.612 530.132C441.055 517.768 440.05 503.759 441.77 491.151H441.801C462.927 491.364 494.524 480.355 517.781 475.117C523.778 473.746 528.527 472.939 531.221 473.046C534.585 475.878 535.483 516.047 516.29 537.928H516.274Z" fill="#394850"/>
<path d="M400.599 485.395C397.311 484.542 393.826 483.613 390.036 482.502C393.826 483.613 397.326 484.573 400.599 485.395Z" fill="#E19549"/>
<path d="M367.129 475.528V475.558C368.377 475.954 369.595 476.32 370.782 476.716C369.58 476.304 368.377 475.924 367.129 475.543V475.528Z" fill="#E19549"/>
<path d="M441.755 491.166C440.035 503.774 441.04 517.783 443.597 530.147C425.028 526.295 402.197 528.427 377.814 524.239L367.129 475.558C368.377 475.954 369.58 476.319 370.782 476.715C373.187 477.477 375.516 478.177 377.738 478.862C379.93 479.563 382.06 480.202 384.115 480.796H384.146C386.185 481.405 388.149 481.984 390.021 482.517H390.051C393.841 483.613 397.342 484.573 400.614 485.395C406.367 486.872 411.375 487.983 416.032 488.821C417.341 489.065 418.635 489.278 419.883 489.476C420.522 489.567 421.162 489.674 421.801 489.735C423.034 489.948 424.251 490.085 425.469 490.222C426.078 490.283 426.687 490.359 427.311 490.42C428.498 490.542 429.67 490.663 430.872 490.755C434.464 490.998 438.011 491.135 441.77 491.166H441.755Z" fill="#A86852"/>
<path d="M377.829 524.224L367.129 475.543V475.528H367.099L377.829 524.224Z" fill="#A86852"/>
<path d="M493.961 541.141C487.843 539.786 480.674 538.157 472.531 536.36C478.3 533.117 489.776 533.391 493.961 541.141Z" fill="#EBEBEB"/>
<path d="M531.221 473.046C538.74 480.614 539.181 519.762 516.29 537.913C502.104 512.849 505.772 476.259 531.221 473.046Z" fill="#EBEBEB"/>
<path d="M440.264 473.837C437.737 474.523 436.306 476.898 436.245 479.669C436.124 485.745 441.755 492.217 446.078 496.084C450.385 499.937 455.256 502.678 460.431 504.155C456.656 505.053 453.125 506.637 450.035 509.012C445.545 512.453 441.481 517.539 440.066 523.478C438.787 528.823 441.055 536.467 447.25 537.822C453.399 539.162 457.965 532.98 460.766 528.533C464.053 523.341 466.656 516.549 466.975 509.743C467.447 514.128 468.421 518.514 469.746 522.808C469.959 523.493 470.841 523.265 470.689 522.595C469.624 517.722 469.137 512.819 468.954 507.946C468.863 505.54 468.878 503.15 469.03 500.774C469.182 498.521 469.806 496.115 469.624 493.831C469.533 492.719 467.98 492.095 467.554 493.13C466.823 494.866 466.762 497.089 466.686 499.114C463.916 489.217 456.352 479.715 447.615 475.269C445.332 474.111 442.623 473.213 440.264 473.837ZM460.72 522.808C458.604 527.376 455.301 533.208 450.476 534.929C448.056 535.797 445.439 534.989 443.764 532.507C441.983 529.888 441.907 526.736 442.653 524.026C444.069 518.91 447.615 514.585 451.496 511.524C455.286 508.54 459.822 506.606 464.647 505.769C464.647 505.799 464.616 505.83 464.616 505.86C463.901 511.859 463.186 517.478 460.72 522.808ZM447.737 478.147C452.059 480.735 455.91 484.42 458.878 488.669C461.892 492.978 463.87 497.805 465.24 502.784C465.164 502.754 465.088 502.708 464.997 502.693C459.852 501.794 454.738 499.449 450.294 496.13C446.093 492.993 441.831 488.455 439.7 483.491C438.589 480.918 438.407 477.218 441.253 476.426C443.338 475.847 445.804 476.989 447.737 478.162V478.147Z" fill="#EBEBEB"/>
<path d="M475.956 495.688C474.753 505.114 476.884 515.468 481.146 524.513C481.481 525.229 482.592 524.803 482.287 524.072C480.446 519.625 479.137 514.951 478.391 510.291C477.645 505.555 477.645 501.003 477.965 496.374C477.995 495.932 477.858 495.338 477.401 495.11C477.219 495.018 477.082 494.942 476.884 494.942C476.443 494.912 476.001 495.232 475.94 495.704L475.956 495.688Z" fill="#EBEBEB"/>
<path d="M487.66 493.313C485.453 502.541 485.59 512.941 487.264 522.762C487.462 523.904 489.121 524.057 488.984 522.869C488.406 518.027 488.178 513.169 488.299 508.388C488.421 503.485 489.136 498.795 489.913 494.059C490.156 492.552 488.01 491.851 487.66 493.313Z" fill="#EBEBEB"/>
<path d="M498.025 491.668C497.919 491.714 497.827 491.744 497.721 491.79C497.371 491.927 497.264 492.384 497.249 492.749C497.142 495.262 496.747 497.713 496.67 500.241C496.594 502.769 496.64 505.297 496.777 507.855C497.066 512.88 497.797 517.859 499.014 522.853C499.243 523.828 500.795 523.721 500.613 522.732C499.715 517.844 499.091 512.88 498.862 507.992C498.756 505.632 498.74 503.271 498.817 500.926C498.893 498.353 498.908 495.658 499.395 493.176C499.471 492.78 499.319 492.354 499.03 492.049C498.953 491.973 498.893 491.897 498.817 491.821C498.573 491.562 498.284 491.562 498.025 491.668Z" fill="#EBEBEB"/>
<path d="M376.657 529.279L409.746 530.97L416.17 483.446L357.084 462.295L376.657 529.279Z" fill="#273339"/>
<path d="M459.7 391.398C437.737 400.306 327.769 465.143 362.167 503.332C396.55 541.522 467.021 524.178 513.215 471.051C559.424 417.908 543.991 357.228 459.7 391.398Z" fill="#273339"/>
<path d="M265.852 583.807L228.836 519.747C237.694 515.56 245.594 513.504 245.594 513.504L290.083 573.453C270.951 584.691 265.852 583.807 265.852 583.807Z" fill="#EBEBEB"/>
<path d="M335.973 500.82C341.787 512.134 345.501 525.686 347.206 538.187C337.708 543.913 329.215 549.151 321.742 553.81C314.847 558.104 308.789 561.911 303.63 565.124C298.074 568.581 293.569 571.413 290.068 573.468C286.994 572.555 284.041 571.291 281.255 569.707C255.868 555.47 243.372 517.296 245.594 513.504C248.105 512.514 252.854 511.677 258.958 510.976C282.641 508.175 316.095 508.038 335.943 500.805H335.973V500.82Z" fill="#394850"/>
<path d="M372.883 481.679C375.698 479.791 378.682 477.751 381.878 475.436C378.666 477.736 375.683 479.806 372.883 481.679Z" fill="#E19549"/>
<path d="M401.162 461.229V461.26C400.127 462.052 399.107 462.798 398.103 463.559C399.092 462.782 400.112 462.021 401.162 461.229Z" fill="#E19549"/>
<path d="M407.281 510.718C385.668 522.777 363.431 528.381 347.206 538.187C345.516 525.686 341.787 512.134 335.973 500.82C339.504 499.541 342.807 498.231 346.11 496.8C347.206 496.313 348.286 495.81 349.367 495.308C349.945 495.034 350.493 494.775 351.041 494.501C352.137 493.968 353.248 493.435 354.344 492.826C354.922 492.552 355.486 492.247 356.064 491.943C357.19 491.333 358.332 490.694 359.488 490.039C363.598 487.694 367.966 484.968 372.898 481.664C375.714 479.806 378.697 477.736 381.893 475.421C381.893 475.421 381.923 475.452 381.923 475.421C383.522 474.294 385.181 473.091 386.901 471.827H386.931C388.666 470.564 390.462 469.269 392.304 467.884C394.161 466.498 396.124 465.051 398.148 463.544C399.138 462.783 400.158 462.021 401.208 461.245L407.311 510.702L407.281 510.718Z" fill="#A86852"/>
<path d="M407.281 510.717L401.162 461.26V461.229H401.193L407.281 510.717Z" fill="#A86852"/>
<path d="M303.386 565.337C308.698 562.018 314.923 558.104 322.016 553.704C315.501 552.577 304.771 556.642 303.386 565.337Z" fill="#EBEBEB"/>
<path d="M245.594 513.519C241.012 523.173 253.615 560.236 281.255 569.722C286.293 541.354 270.662 508.083 245.594 513.519Z" fill="#EBEBEB"/>
<path d="M325.197 487.77C318.439 494.881 314.451 506.362 315.136 516.61C314.39 514.722 313.599 512.651 312.336 511.25C311.575 510.413 310.326 511.524 310.616 512.606C311.209 514.829 312.594 516.884 313.492 518.955C314.436 521.133 315.243 523.386 315.958 525.686C317.404 530.345 318.576 535.126 319.2 540.075C319.291 540.761 320.205 540.669 320.174 539.953C319.991 535.461 319.459 531 318.439 526.706C320.996 533.025 325.714 538.553 330.539 542.375C334.664 545.633 341.026 549.942 346.384 546.623C351.772 543.288 351.361 535.324 348.378 530.711C345.075 525.579 339.534 522.138 334.162 520.402C330.448 519.199 326.597 518.879 322.731 519.275C327.115 516.169 330.798 511.951 333.583 506.895C336.369 501.81 339.534 493.831 337.404 488.136C336.43 485.532 334.283 483.765 331.681 483.963C329.261 484.146 326.993 485.897 325.227 487.755L325.197 487.77ZM319.322 522.29C319.322 522.29 319.276 522.244 319.261 522.214C324.086 521.407 329.017 521.711 333.568 523.265C338.256 524.863 343.035 527.757 346.064 532.112C347.677 534.426 348.652 537.426 347.845 540.486C347.084 543.38 344.877 545.009 342.32 545.009C337.206 544.994 332.137 540.593 328.621 536.984C324.527 532.782 321.985 527.726 319.322 522.305V522.29ZM331.559 486.75C334.497 486.552 335.562 490.1 335.364 492.902C334.999 498.292 332.487 504.002 329.58 508.357C326.491 512.971 322.457 516.869 317.906 519.443C317.83 519.488 317.769 519.549 317.708 519.61C317.343 514.463 317.602 509.256 319.002 504.185C320.387 499.175 322.807 494.424 326.019 490.541C327.465 488.79 329.413 486.902 331.559 486.75Z" fill="#EBEBEB"/>
<path d="M305.243 516.473C309.52 524.955 310.95 535.431 309.931 545.39C309.855 546.181 308.652 546.151 308.698 545.344C308.957 540.532 308.637 535.69 307.785 531.046C306.917 526.34 305.395 522.046 303.553 517.783C303.386 517.387 303.31 516.778 303.675 516.397C303.812 516.26 303.934 516.138 304.101 516.062C304.497 515.895 305.03 516.032 305.243 516.458V516.473Z" fill="#EBEBEB"/>
<path d="M293.417 518.118C298.576 526.082 301.894 535.949 303.584 545.755C303.782 546.897 302.26 547.597 302.001 546.425C300.935 541.674 299.535 537.015 297.83 532.553C296.08 527.97 293.843 523.797 291.544 519.58C290.814 518.24 292.595 516.869 293.417 518.118Z" fill="#EBEBEB"/>
<path d="M283.082 520.021C283.188 520.021 283.295 520.021 283.417 520.021C283.797 520.036 284.041 520.417 284.178 520.767C285.121 523.097 286.308 525.29 287.222 527.65C288.135 529.995 288.942 532.416 289.642 534.868C291.042 539.695 292.001 544.643 292.518 549.744C292.625 550.734 291.118 551.161 290.966 550.171C290.19 545.252 289.124 540.38 287.709 535.69C287.024 533.421 286.263 531.198 285.41 529.005C284.482 526.599 283.569 524.072 282.29 521.894C282.092 521.544 282.077 521.087 282.26 520.706C282.305 520.615 282.351 520.524 282.382 520.432C282.519 520.113 282.808 520.006 283.082 520.021Z" fill="#EBEBEB"/>
<path d="M400.995 454.057C399.777 454.59 352.533 489.293 352.533 489.293L366.992 532.553L422.09 513.824L400.995 454.057Z" fill="#273339"/>
<path d="M437.524 406.107C434.267 409.076 430.979 412.031 427.341 414.543C423.673 417.071 419.838 419.324 415.926 421.456C408.255 425.628 400.34 429.374 393.11 434.293C386.079 439.089 379.61 445.028 375.607 452.641C375.379 453.068 375.196 453.509 374.983 453.951C372.517 451.225 369.777 448.728 367.053 446.276C363.537 443.124 360.036 439.972 356.444 436.896C349.291 430.76 341.848 425.111 333.994 419.872C333.781 419.735 333.538 420.07 333.735 420.238C340.889 426.177 347.921 432.359 354.694 438.724C358.058 441.891 361.376 445.134 364.511 448.515C367.418 451.667 370.219 454.971 373.324 457.925C371.254 463.909 370.645 470.396 371.634 476.654C370.082 477.005 368.636 478.543 367.464 479.411C365.896 480.583 364.283 481.695 362.639 482.761C359.351 484.877 355.942 486.796 352.411 488.471C351.65 488.836 351.467 489.948 351.878 490.618C352.061 490.922 352.32 491.09 352.594 491.212C353.781 499.191 356.125 507.033 358.712 514.661C360.067 518.666 361.467 522.656 363.05 526.569C363.735 528.244 364.283 530.498 365.683 531.731C366.825 532.736 368.59 532.888 369.595 531.64C369.61 531.609 369.625 531.594 369.641 531.563C369.701 531.548 369.762 531.548 369.808 531.518C374.481 529.249 379.138 526.98 383.811 524.696C386.063 523.6 388.316 522.503 390.569 521.407C391.695 520.859 392.806 520.295 393.932 519.732C395.074 519.153 396.276 518.666 396.916 517.524C398.544 518.955 400.325 520.204 402.334 521.133C404.328 522.062 406.444 522.701 408.605 523.067C410.644 523.417 413.719 523.98 415.606 522.884C416.535 522.336 416.641 520.676 415.545 520.219C414.51 519.793 413.491 519.884 412.38 519.854C411.39 519.839 410.401 519.762 409.427 519.625C407.402 519.351 405.393 518.834 403.445 518.179C399.564 516.869 395.713 514.951 392.928 511.89C392.517 511.433 391.908 512.118 392.273 512.575C393.156 513.672 394.1 514.722 395.089 515.727C394.267 515.864 393.521 516.245 392.715 516.656C391.604 517.219 390.477 517.783 389.381 518.362C387.083 519.564 384.8 520.783 382.517 522.001C377.951 524.422 373.385 526.843 368.803 529.249C368.606 529.218 368.408 529.218 368.179 529.279C367.236 529.538 366.262 525.808 365.972 525.061C365.364 523.463 364.74 521.864 364.131 520.265C362.852 516.869 361.65 513.458 360.493 510.017C358.377 503.698 356.475 497.287 354.207 491.014C357.784 489.43 361.239 487.633 364.542 485.517C366.185 484.466 367.799 483.354 369.367 482.197C370.204 481.573 371.421 480.827 372.319 479.913C374.618 488.988 380.34 496.343 387.935 501.673C388.483 502.053 389.138 501.14 388.62 500.713C375.181 489.872 371.163 469.65 379.138 454.438C386.946 439.576 403.506 432.602 417.524 425.019C425.713 420.588 434.525 415.533 440.035 407.828C441.116 406.305 438.741 404.889 437.508 406.001L437.524 406.107Z" fill="#394850"/>
<path d="M393.567 255.283L386.672 255.907L381.208 221.585L385.196 228.65L385.333 228.924C390.386 238.243 392.623 244.959 393.552 255.283H393.567Z" fill="#273339"/>
<path d="M228.988 288.584C228.547 284.412 227.892 280.164 226.264 276.266C225.427 274.271 222.657 275.047 223.037 277.194C223.753 281.199 224.894 285.097 225.655 289.087C226.431 293.137 226.873 297.264 226.964 301.375C227.147 309.537 226.005 317.896 223.935 325.784C223.631 326.911 225.351 327.292 225.686 326.195C228.212 318.064 229.415 309.811 229.536 301.314C229.597 297.066 229.445 292.802 228.988 288.569V288.584Z" fill="#273339"/>
<path d="M495.514 327.764C488.893 320.866 484.22 311.973 481.313 302.898C479.897 298.451 478.862 293.838 478.345 289.193C478.086 286.879 477.964 284.549 477.98 282.219C477.98 279.768 478.193 277.392 477.751 274.956C477.569 273.966 475.971 273.814 475.59 274.728C473.718 279.082 474.327 284.671 474.814 289.285C475.362 294.34 476.458 299.274 478.208 304.055C481.678 313.541 487.416 321.642 494.661 328.647C495.224 329.195 496.046 328.327 495.498 327.764H495.514Z" fill="#273339"/>
<path d="M316.993 368.786L320.478 418.624L304.467 405.711L316.993 368.786Z" fill="#273339"/>
<path d="M331.224 407.234C330.935 407.021 330.524 407.036 330.265 407.295C330.022 407.554 329.778 407.797 329.519 408.056C329.276 408.3 329.078 408.574 328.865 408.848C328.439 409.396 328.012 409.96 327.586 410.508C327.419 410.736 327.312 410.934 327.297 411.208C327.297 411.528 327.449 411.802 327.693 411.985C327.906 412.152 328.149 412.213 328.408 412.183C328.743 412.137 328.956 411.97 329.139 411.696C329.535 411.117 329.945 410.538 330.341 409.975C330.539 409.686 330.737 409.412 330.904 409.107C331.072 408.787 331.239 408.483 331.407 408.163C331.574 407.843 331.498 407.447 331.209 407.219L331.224 407.234Z" fill="#394850"/>
<path d="M335.714 400.854C335.668 400.717 335.592 400.595 335.471 400.504C335.212 400.306 334.862 400.336 334.633 400.549C334.39 400.778 334.146 401.006 333.948 401.28C333.781 401.509 333.614 401.737 333.461 401.95C333.401 402.042 333.37 402.148 333.37 402.255C333.34 402.361 333.355 402.468 333.37 402.575C333.416 402.772 333.583 403.001 333.766 403.092C333.948 403.184 334.177 403.245 334.39 403.168C334.603 403.107 334.786 402.97 334.907 402.772C335.044 402.544 335.197 402.316 335.334 402.072C335.394 401.95 335.44 401.828 335.486 401.691C335.531 401.57 335.592 401.432 335.638 401.311C335.684 401.235 335.714 401.158 335.714 401.067C335.729 400.991 335.714 400.9 335.714 400.823V400.854Z" fill="#394850"/>
<path d="M339.61 389.205C338.986 389.814 338.545 390.606 338.134 391.367C337.738 392.113 337.388 392.875 337.038 393.651C336.795 394.2 336.886 394.915 337.464 395.205C337.967 395.463 338.758 395.357 339.017 394.778C339.397 393.926 339.763 393.088 340.097 392.22C340.402 391.398 340.676 390.56 340.737 389.677C340.767 389.083 340.006 388.824 339.61 389.205Z" fill="#394850"/>
<path d="M344.466 376.155C344.161 376.034 343.72 376.079 343.507 376.338C343.202 376.719 342.898 377.1 342.67 377.526C342.472 377.891 342.32 378.287 342.152 378.683C341.787 379.566 341.482 380.465 341.163 381.363C341.056 381.668 341.148 382.109 341.3 382.368C341.467 382.657 341.802 382.932 342.137 383.008C342.898 383.175 343.537 382.764 343.781 382.048C344.055 381.241 344.359 380.45 344.603 379.627C344.861 378.759 345.029 377.876 345.029 376.962C345.029 376.612 344.801 376.277 344.481 376.155H344.466Z" fill="#394850"/>
<path d="M346.886 366.319C346.855 365.755 346.475 365.283 345.897 365.207C345.668 365.177 345.394 365.207 345.196 365.329C344.922 365.496 344.77 365.725 344.664 366.029C344.572 366.288 344.451 366.532 344.39 366.806C344.329 367.065 344.298 367.324 344.268 367.583C344.192 368.116 344.131 368.648 344.055 369.181C344.009 369.532 343.994 369.821 344.177 370.141C344.329 370.415 344.648 370.689 344.968 370.75C345.288 370.826 345.638 370.811 345.927 370.628C346.201 370.461 346.49 370.171 346.536 369.836C346.627 369.303 346.703 368.755 346.795 368.222C346.855 367.857 346.901 367.506 346.932 367.141C346.947 366.867 346.901 366.593 346.886 366.334V366.319Z" fill="#394850"/>
<path d="M360.721 360.335C359.29 360.167 357.784 360.38 356.399 360.761C354.998 361.142 353.628 361.705 352.35 362.405C351.726 362.756 351.437 363.654 351.832 364.278C352.243 364.918 353.035 365.162 353.705 364.796C353.994 364.644 354.283 364.492 354.572 364.354C354.739 364.278 354.907 364.202 355.074 364.126C355.135 364.096 355.15 364.096 355.166 364.08C355.166 364.08 355.196 364.08 355.257 364.05C355.881 363.806 356.52 363.608 357.175 363.441C357.799 363.273 358.438 363.136 359.077 363.03C359.23 362.999 359.397 362.984 359.549 362.954C359.701 362.938 359.732 362.923 359.625 362.954C359.701 362.954 359.762 362.938 359.838 362.923C360.249 362.877 360.645 362.786 361.041 362.725C361.634 362.619 361.984 361.949 361.924 361.4C361.847 360.761 361.345 360.426 360.736 360.35L360.721 360.335Z" fill="#394850"/>
<path d="M378.666 358.994C377.92 358.888 377.175 358.812 376.429 358.751C375.713 358.69 375.013 358.736 374.298 358.766C372.867 358.827 371.452 358.964 370.021 359.071C369.306 359.132 368.621 359.664 368.651 360.441C368.682 361.172 369.26 361.827 370.021 361.811C371.452 361.781 372.867 361.751 374.298 361.674C375.074 361.629 375.85 361.598 376.627 361.461C377.312 361.324 377.996 361.187 378.681 361.02C379.123 360.913 379.458 360.471 379.458 360.015C379.458 359.588 379.138 359.071 378.681 359.01L378.666 358.994Z" fill="#394850"/>
<path d="M394.937 357.03C394.419 357.03 393.887 357 393.369 357.03C392.76 357.076 392.151 357.152 391.543 357.243C391.025 357.32 390.508 357.396 389.99 357.502C389.731 357.548 389.473 357.594 389.214 357.655C388.925 357.731 388.681 357.852 388.453 358.005C388.042 358.203 387.753 358.553 387.829 359.04C387.89 359.558 388.301 359.862 388.803 359.908C388.499 359.832 388.529 359.847 388.879 359.969C389.001 360 389.107 360 389.229 360.015C389.366 360.015 389.503 360.015 389.655 360.015C389.899 360 390.142 359.969 390.371 359.954C390.964 359.908 391.543 359.832 392.136 359.741C392.654 359.68 393.171 359.604 393.689 359.482C394.191 359.375 394.693 359.192 395.196 359.055C396.307 358.736 396.124 357.015 394.937 357.015V357.03Z" fill="#394850"/>
<path d="M411.04 355.873C410.462 355.797 409.883 355.69 409.305 355.675C408.757 355.645 408.194 355.645 407.631 355.614C406.504 355.568 405.363 355.599 404.236 355.584C403.491 355.584 402.775 356.238 402.821 357C402.851 357.761 403.445 358.431 404.236 358.416C405.363 358.416 406.504 358.416 407.631 358.385C408.179 358.37 408.742 358.355 409.305 358.325C409.883 358.294 410.462 358.187 411.04 358.127C411.634 358.05 412.197 357.655 412.181 356.985C412.151 356.299 411.679 355.934 411.04 355.842V355.873Z" fill="#394850"/>
<path d="M423.43 362.177C423.049 360.639 422.608 359.132 422.166 357.609C421.999 357 421.329 356.558 420.705 356.756C420.111 356.939 419.655 357.578 419.853 358.218C420.325 359.725 420.796 361.233 421.314 362.725C421.497 363.258 422.045 363.684 422.638 363.502C423.216 363.319 423.567 362.756 423.414 362.177H423.43Z" fill="#394850"/>
<path d="M425.149 370.628C425.134 370.004 424.617 369.425 423.977 369.455C423.369 369.486 422.76 369.973 422.805 370.628C422.912 372.745 422.988 374.876 423.612 376.917C423.78 377.495 424.677 377.556 424.83 376.917C425.302 374.846 425.225 372.745 425.18 370.628H425.149Z" fill="#394850"/>
<path d="M426.915 386.738C426.839 385.611 426.748 384.469 426.671 383.343C426.626 382.688 426.124 382.048 425.408 382.079C424.738 382.109 424.114 382.642 424.145 383.343C424.175 384.5 424.206 385.657 424.251 386.814C424.267 387.393 424.297 387.972 424.343 388.55C424.388 389.19 424.525 389.814 424.632 390.439C424.738 391.002 425.363 391.352 425.91 391.291C426.519 391.215 426.885 390.728 426.93 390.149C426.976 389.571 427.037 388.992 427.022 388.413C427.006 387.85 426.976 387.302 426.93 386.754L426.915 386.738Z" fill="#394850"/>
<path d="M427.889 399.666C427.889 399.666 427.828 399.529 427.767 399.468C427.707 399.407 427.646 399.377 427.57 399.346C427.509 399.316 427.433 399.301 427.356 399.301C427.204 399.301 427.052 399.362 426.945 399.468C426.915 399.514 426.885 399.544 426.854 399.59C426.808 399.681 426.778 399.773 426.778 399.879C426.809 400.108 426.824 400.336 426.854 400.564C426.854 400.625 426.854 400.686 426.9 400.747C426.915 400.808 426.961 400.869 427.006 400.915C427.052 400.96 427.113 401.006 427.174 401.021C427.235 401.052 427.296 401.067 427.356 401.067C427.478 401.067 427.615 401.021 427.707 400.915C427.737 400.884 427.767 400.839 427.783 400.808C427.828 400.732 427.843 400.656 427.843 400.564C427.874 400.336 427.889 400.108 427.92 399.879C427.92 399.803 427.92 399.727 427.874 399.666H427.889Z" fill="#394850"/>
<path d="M399.488 18.6075L401.984 0L405.789 18.2421L420.173 8.83173L411.771 22.5361L426.778 27.0129L410.538 29.0381L420.188 42.5903L405.942 34.0631L403.004 52.1072L400.066 33.8956L383.933 39.6666L394.283 28.9315L381.376 24.805L394.267 22.9625L387.099 10.2783L399.488 18.6075Z" fill="#E19549"/>
<path d="M73.4813 269.52L76.1144 249.831L80.1479 269.124L95.3683 259.166L86.4796 273.662L102.339 278.397L85.1706 280.544L95.3835 294.888L80.3153 285.859L77.2103 304.953L74.1054 285.691L57.028 291.782L67.9715 280.438L54.334 276.068L67.9563 274.119L60.3765 260.703L73.4813 269.52Z" fill="#394850"/>
<path d="M564.067 368.542L567.141 345.686L571.814 368.085L589.47 356.528L579.166 373.354L597.582 378.851L577.643 381.348L589.5 397.991L571.997 387.5L568.405 409.67L564.797 387.317L544.98 394.382L557.689 381.211L541.845 376.14L557.659 373.887L548.862 358.309L564.067 368.542Z" fill="#DCDBDB"/>
<path d="M514.387 58.8071L661.538 47.2954C663.761 43.047 658.631 36.5451 653.913 35.738C649.195 34.9158 644.522 37.0628 640.184 39.0728C635.831 41.0827 631.037 43.047 626.394 41.8898C620.459 40.4127 616.943 34.4894 613.929 29.1599C609.85 21.9118 605.177 14.4505 597.826 10.5676C590.474 6.68467 579.729 8.00943 575.954 15.425C573.747 19.7495 574.356 24.8963 574.188 29.7538C574.021 34.6112 572.468 40.1539 568.009 42.0877C562.606 44.4327 556.867 40.1539 551.373 38.0221C538.572 33.0733 516.655 45.2854 514.387 58.8223V58.8071Z" fill="#EBEBEB"/>
<path d="M556.304 265.028L737.61 250.852C739.147 245.37 731.933 241.076 726.24 241.106C720.548 241.152 714.46 243.025 709.437 240.36C702.253 236.538 702.177 226.473 698.691 219.118C695.373 212.114 688.098 207.165 680.381 206.617C672.649 206.084 664.78 209.982 660.519 216.453C654.933 224.965 654.659 237.832 645.496 242.279C635.511 247.136 622.635 237.604 612.894 242.933C607.217 246.04 604.72 253.303 598.967 256.272C594.34 258.678 588.708 257.719 583.701 256.272C578.678 254.841 573.549 252.968 568.389 253.729C563.229 254.491 555.376 259.866 556.304 265.013V265.028Z" fill="#EBEBEB"/>
<path d="M1.15364 417.025L156.067 404.904C157.529 399.392 151.334 393.59 145.717 392.601C140.101 391.626 133.952 392.388 129.051 389.494C118.853 383.495 120.254 365.801 109.478 360.928C103.283 358.142 95.8553 361.294 91.0608 366.106C86.2664 370.917 83.2375 377.176 79.0975 382.551C74.9576 387.926 68.9912 392.738 62.2181 392.479C55.9016 392.251 50.0722 387.682 43.8318 388.611C36.2368 389.723 31.8685 398.265 24.6388 400.823C20.027 402.453 14.8368 401.432 10.1185 402.727C5.40014 404.021 -1.98177 413.249 1.18408 416.995L1.15364 417.025Z" fill="#EBEBEB"/>
</g>
<defs>
<clipPath id="clip0_1_60008">
<rect width="823" height="650" fill="white" transform="translate(0.392578)"/>
</clipPath>
</defs>
</svg>
